<?xml version="1.0" encoding="utf-8"?>
<!-- Generator: Adobe Illustrator 27.4.0, SVG Export Plug-In . SVG Version: 6.00 Build 0)  -->
<svg version="1.2" baseProfile="tiny" id="g-countries_2-medium-other-img"
	 xmlns="http://www.w3.org/2000/svg" xmlns:xlink="http://www.w3.org/1999/xlink" x="0px" y="0px" viewBox="0 0 800 502.574"
	 overflow="visible" xml:space="preserve">
<g>
	<path fill="#FFFFFF" fill-opacity="0.7" d="M136.652,479.104c0,0-4.19-0.827-6.665-2.67c-3.621-2.695-5.266-4.112-6.735-4.204
		l0-0.003c-0.005,0-0.009,0.001-0.014,0.001c-0.005,0-0.009-0.001-0.014-0.001l0,0.003c-1.469,0.092-3.114,1.509-6.735,4.204
		c-2.475,1.842-6.665,2.67-6.665,2.67s-0.92,0.259,0.285,0.5c2.343,0.468,4.744,1.308,6.38,2.524
		c3.566,2.651,5.216,4.062,6.668,4.193l0,0.016c0.011,0,0.023-0.002,0.034-0.003c0.011,0,0.023,0.003,0.034,0.003v-0.006
		c0.005,0,0.009-0.001,0.014-0.001c0.005,0,0.009,0.001,0.014,0.001v0.006c0.011,0,0.023-0.002,0.034-0.003
		c0.011,0,0.023,0.003,0.034,0.003l0-0.016c1.452-0.131,3.102-1.542,6.668-4.193c1.636-1.216,4.037-2.056,6.38-2.524
		C137.571,479.363,136.652,479.104,136.652,479.104z"/>
	<path fill="#FFFFFF" fill-opacity="0.7" d="M550.946,478.06c-0.135-0.04-0.274-0.078-0.4-0.12c-3.798-1.25-5.556-1.915-7.103-1.977
		l0-0.007c-0.012,0-0.024,0.001-0.036,0.001c-0.01,0-0.02-0.001-0.03-0.001v0c-0.001,0-0.002,0-0.003,0c-0.001,0-0.002,0-0.003,0v0
		c-0.01,0-0.02,0.001-0.03,0.001c-0.012,0-0.024-0.001-0.036-0.001l0,0.007c-1.547,0.062-3.304,0.727-7.103,1.977
		c-0.126,0.042-0.266,0.08-0.4,0.12c2.821-0.054,5.56-0.106,7.572-0.144C545.386,477.954,548.125,478.006,550.946,478.06z"/>
	<path fill="#FF0046" fill-opacity="0.7" d="M557.342,479.13c-2.315-0.205-4.674-0.562-6.396-1.07
		c-2.813-0.054-5.544-0.106-7.554-0.144v-0.001c-0.006,0-0.012,0-0.018,0c-0.006,0-0.012,0-0.018,0v0.001
		c-2.01,0.038-4.741,0.09-7.554,0.144c-1.722,0.508-4.08,0.866-6.396,1.07c-1.283,0.113-0.303,0.236-0.303,0.236
		s4.463,0.39,7.099,1.259c3.84,1.265,5.594,1.932,7.153,1.981v0.002c0.005,0,0.01,0.001,0.015,0.001l0-0.001
		c0.001,0,0.002,0,0.003,0s0.002,0,0.003,0l0,0.001c0.005,0,0.01-0.001,0.015-0.001v-0.002c1.56-0.049,3.313-0.715,7.153-1.981
		c2.636-0.869,7.099-1.259,7.099-1.259S558.624,479.243,557.342,479.13z"/>
	<path fill="#FFFFFF" fill-opacity="0.7" d="M528.922,459.406c-2.496-0.404-5.053-1.129-6.796-2.178
		c-3.718-2.239-5.479-3.446-7.002-3.603v-0.024c-0.005,0-0.01-0.001-0.015-0.001v-0.005c-0.012,0-0.024,0.002-0.036,0.002
		c-0.012,0-0.024-0.002-0.036-0.002l0,0.014c-0.002,0-0.005,0.001-0.007,0.001c-0.002,0-0.005-0.001-0.007-0.001l0-0.014
		c-0.012,0-0.024,0.002-0.036,0.002c-0.012,0-0.024-0.002-0.036-0.002v0.005c-0.005,0-0.01,0.001-0.015,0.001v0.024
		c-1.523,0.157-3.284,1.364-7.002,3.603c-1.743,1.049-4.3,1.775-6.796,2.178c-1.283,0.207-0.303,0.431-0.303,0.431
		s4.463,0.714,7.099,2.304c3.718,2.242,5.478,3.449,7.002,3.604v0.025c0.005,0,0.01,0.001,0.015,0.001l0-0.003
		c0.026-0.001,0.053-0.009,0.079-0.011c0.026,0.002,0.053,0.01,0.079,0.011l0,0.003c0.005,0,0.01-0.001,0.015-0.001v-0.025
		c1.524-0.156,3.284-1.362,7.002-3.604c2.636-1.59,7.099-2.304,7.099-2.304S530.205,459.613,528.922,459.406z"/>
	<path fill="#FF0046" fill-opacity="0.7" d="M402.488,463.049v0.014c0.031,0.008,0.062,0.016,0.094,0.024
		C402.55,463.074,402.513,463.062,402.488,463.049z"/>
	<path fill="#FFFFFF" fill-opacity="0.7" d="M403.655,463.346c-0.374-0.088-0.732-0.174-1.074-0.26
		C402.8,463.173,403.16,463.26,403.655,463.346z"/>
	<path fill="#FF0046" fill-opacity="0.7" d="M402.285,463.049v0.014c-0.031,0.008-0.062,0.016-0.094,0.024
		C402.222,463.074,402.259,463.062,402.285,463.049z"/>
	<path fill="#FFFFFF" fill-opacity="0.7" d="M401.117,463.346c0.374-0.088,0.732-0.174,1.074-0.26
		C401.972,463.173,401.612,463.26,401.117,463.346z"/>
	<path fill="#FFFFFF" fill-opacity="0.7" d="M416.573,459.53c0,0-4.463-0.714-7.099-2.304c-3.706-2.235-5.466-3.44-6.986-3.602
		v-0.027c-0.005,0-0.01-0.001-0.015-0.001l0,0.003c-0.028,0.001-0.058,0.01-0.087,0.012c-0.028-0.002-0.058-0.011-0.087-0.012
		l0-0.003c-0.005,0-0.01,0.001-0.015,0.001v0.027c-1.521,0.162-3.28,1.367-6.986,3.602c-2.636,1.59-7.099,2.304-7.099,2.304
		s-0.98,0.224,0.303,0.431c2.496,0.404,5.053,1.129,6.796,2.178c1.182,0.712,2.149,1.308,2.991,1.811
		c1.543-0.298,2.922-0.615,4.097-0.913c1.175,0.298,2.553,0.615,4.097,0.913c0.842-0.504,1.809-1.099,2.991-1.811
		c1.743-1.049,4.3-1.774,6.796-2.178C417.553,459.754,416.573,459.53,416.573,459.53z"/>
	<path fill="#FF0046" fill-opacity="0.7" d="M406.483,463.951c-1.5-0.29-2.842-0.597-3.995-0.888v-0.05
		c-0.032,0.008-0.069,0.017-0.102,0.025c-0.033-0.008-0.069-0.017-0.102-0.025v0.05c-1.153,0.291-2.495,0.598-3.995,0.888
		c1.798,1.076,2.958,1.674,3.995,1.785v0.03c0.005,0,0.01,0.001,0.015,0.001v0.005c0.012,0,0.024-0.002,0.036-0.002
		c0.012,0,0.024,0.002,0.036,0.002l0-0.014c0.005,0,0.01-0.002,0.015-0.003c0.005,0,0.01,0.003,0.015,0.003l0,0.014
		c0.012,0,0.024-0.002,0.036-0.002c0.012,0,0.024,0.002,0.036,0.002v-0.005c0.005,0,0.01-0.001,0.015-0.001v-0.03
		C403.524,465.624,404.685,465.026,406.483,463.951z"/>
	<path fill="#FFFFFF" fill-opacity="0.7" d="M473.844,459.495c0,0-4.613-0.879-7.338-2.835c-3.987-2.862-5.798-4.367-7.416-4.464
		l0-0.003c-0.005,0-0.01,0.001-0.015,0.002c-0.005,0-0.01-0.001-0.015-0.002l0,0.003c-1.618,0.097-3.429,1.602-7.416,4.464
		c-2.725,1.956-7.338,2.835-7.338,2.835s-1.013,0.275,0.313,0.531c2.58,0.497,5.224,1.389,7.025,2.68
		c3.927,2.815,5.743,4.313,7.342,4.452l0,0.017c0.012,0,0.025-0.003,0.037-0.003c0.012,0,0.025,0.003,0.037,0.003v-0.006
		c0.005,0,0.01-0.001,0.015-0.002c0.005,0,0.01,0.001,0.015,0.002v0.006c0.012,0,0.025-0.003,0.037-0.003
		c0.012,0,0.025,0.003,0.037,0.003l0-0.017c1.599-0.139,3.416-1.638,7.342-4.452c1.801-1.291,4.445-2.183,7.025-2.68
		C474.857,459.77,473.844,459.495,473.844,459.495z"/>
	<path fill="#FFFFFF" fill-opacity="0.7" d="M249.028,437.415c0,0-4.19-0.879-6.665-2.836c-3.621-2.864-5.266-4.369-6.735-4.467
		v-0.003c-0.005,0-0.009,0.001-0.014,0.002c-0.005,0-0.009-0.001-0.014-0.002l0,0.003c-1.469,0.098-3.114,1.603-6.736,4.467
		c-2.475,1.957-6.665,2.836-6.665,2.836s-0.92,0.276,0.285,0.531c2.343,0.497,4.744,1.39,6.38,2.682
		c3.566,2.817,5.216,4.316,6.668,4.455l0,0.017c0.011,0,0.023-0.003,0.034-0.003c0.011,0,0.023,0.003,0.034,0.003v-0.006
		c0.005,0,0.009-0.001,0.014-0.002c0.005,0,0.009,0.001,0.014,0.002v0.006c0.011,0,0.023-0.003,0.034-0.003
		c0.011,0,0.023,0.003,0.034,0.003l0-0.017c1.452-0.139,3.102-1.639,6.668-4.455c1.636-1.292,4.037-2.185,6.38-2.682
		C249.947,437.69,249.028,437.415,249.028,437.415z"/>
	<path fill="#FFFFFF" fill-opacity="0.7" d="M221.227,437.545c0,0-4.19-0.734-6.665-2.368c-3.621-2.391-5.266-3.648-6.735-3.729
		l0-0.003c-0.005,0-0.009,0.001-0.014,0.001v0.038c-0.002,0-0.004,0-0.005-0.001l0,0.003c-1.469,0.081-3.114,1.338-6.735,3.729
		c-2.475,1.634-6.665,2.368-6.665,2.368s-0.92,0.23,0.285,0.443c2.343,0.415,4.744,1.16,6.38,2.239
		c0.939,0.619,1.74,1.158,2.445,1.624c1.577-0.28,3.048-0.558,4.305-0.803v-0.037c1.255,0.245,2.723,0.522,4.296,0.801
		c0.705-0.466,1.505-1.004,2.445-1.624c1.636-1.079,4.037-1.824,6.38-2.239C222.147,437.775,221.227,437.545,221.227,437.545z"/>
	<path fill="#FF0046" fill-opacity="0.7" d="M212.118,441.85c-1.577-0.28-4.305-0.763-4.305-0.763
		c-1.255,0.245-2.723,0.522-4.296,0.801c1.971,1.303,3.154,2.01,4.224,2.096l0,0.014c0.011,0,0.023-0.002,0.034-0.003
		c0.011,0,0.023,0.002,0.034,0.003v-0.005c0.005,0,0.009-0.001,0.014-0.001v-0.038c0.002,0,0.004,0,0.005,0.001v0.005
		c0.011,0,0.023-0.002,0.034-0.002c0.011,0,0.023,0.002,0.034,0.002l0-0.014C208.964,443.86,210.147,443.154,212.118,441.85z"/>
	<path fill="#FFFFFF" fill-opacity="0.7" d="M500.9,437.326c-2.496-0.404-5.053-1.129-6.796-2.178
		c-3.798-2.288-5.556-3.506-7.103-3.619l0-0.014c-0.012,0-0.024,0.002-0.036,0.002c-0.012,0-0.024-0.002-0.036-0.002v0.005
		c-0.005,0-0.01,0.001-0.015,0.001c-0.005,0-0.01-0.001-0.015-0.001v-0.005c-0.012,0-0.024,0.002-0.036,0.002
		c-0.012,0-0.024-0.002-0.036-0.002l0,0.014c-1.547,0.113-3.304,1.331-7.103,3.619c-1.743,1.049-4.3,1.775-6.796,2.178
		c-1.283,0.207-0.303,0.431-0.303,0.431s4.463,0.714,7.099,2.304c3.857,2.326,5.609,3.549,7.174,3.628l0,0.003
		c0.005,0,0.01-0.001,0.015-0.001c0.005,0,0.01,0.001,0.015,0.001l0-0.003c1.565-0.079,3.317-1.302,7.174-3.628
		c2.636-1.59,7.099-2.304,7.099-2.304S502.182,437.533,500.9,437.326z"/>
	<path fill="#FFFFFF" fill-opacity="0.7" d="M157.984,420.135c1.636-1.556,4.037-2.631,6.38-3.229
		c1.204-0.307,0.285-0.639,0.285-0.639s-4.19-1.059-6.665-3.415c-3.621-3.448-5.266-5.261-6.736-5.378v-0.004
		c-0.005,0-0.009,0.002-0.014,0.002c-0.005,0-0.009-0.002-0.014-0.002v0.004c-1.469,0.117-3.114,1.93-6.736,5.378
		c-2.475,2.357-6.665,3.415-6.665,3.415s-0.92,0.332,0.285,0.639c2.343,0.598,4.744,1.673,6.38,3.229
		c1.438,1.367,2.555,2.464,3.482,3.312l6.761-0.205C155.609,422.425,156.664,421.39,157.984,420.135z"/>
	<path fill="#FF0046" fill-opacity="0.7" d="M151.153,425.52c0.011,0,0.023-0.003,0.034-0.004c0.011,0.001,0.023,0.003,0.034,0.004
		v-0.007c0.005,0,0.009-0.002,0.014-0.002c0.005,0,0.009,0.002,0.014,0.002v0.007c0.011,0,0.023-0.003,0.034-0.004
		c0.011,0.001,0.023,0.003,0.034,0.004l0-0.02c0.915-0.106,1.911-0.864,3.412-2.257l-6.761,0.205
		c1.373,1.256,2.32,1.952,3.186,2.052L151.153,425.52z"/>
	<path fill="#FFFFFF" fill-opacity="0.7" d="M192.608,416.403c0,0-4.19-0.427-6.665-1.378c-3.621-1.391-5.266-2.123-6.736-2.17
		l0-0.002c-0.005,0-0.009,0.001-0.014,0.001c-0.005,0-0.009-0.001-0.014-0.001l0,0.002c-1.469,0.047-3.114,0.779-6.736,2.17
		c-2.475,0.951-6.665,1.378-6.665,1.378s-0.92,0.134,0.285,0.258c2.343,0.241,4.744,0.675,6.38,1.303
		c3.566,1.368,5.216,2.097,6.668,2.164l0,0.008c0.011,0,0.023-0.001,0.034-0.001c0.011,0,0.023,0.001,0.034,0.001v-0.003
		c0.005,0,0.009-0.001,0.014-0.001c0.005,0,0.009,0.001,0.014,0.001v0.003c0.011,0,0.023-0.001,0.034-0.001
		c0.011,0,0.023,0.001,0.034,0.001l0-0.008c1.452-0.068,3.102-0.796,6.668-2.164c1.636-0.628,4.037-1.061,6.38-1.303
		C193.527,416.537,192.608,416.403,192.608,416.403z"/>
	<path fill="#FFFFFF" fill-opacity="0.7" d="M136.689,416.104c0,0-4.19-1.818-6.665-5.865c-3.621-5.922-5.266-9.035-6.735-9.237
		l0-0.007c-0.005,0.001-0.009,0.003-0.014,0.003c-0.005-0.001-0.009-0.003-0.014-0.003l0,0.007
		c-1.469,0.202-3.114,3.315-6.735,9.237c-2.475,4.047-6.665,5.865-6.665,5.865s-0.92,0.57,0.285,1.098
		c2.343,1.028,4.744,2.873,6.38,5.545c0.269,0.439,0.524,0.858,0.772,1.266l5.978,0.181l5.978-0.181
		c0.248-0.408,0.503-0.827,0.772-1.266c1.636-2.672,4.037-4.518,6.38-5.545C137.609,416.674,136.689,416.104,136.689,416.104z"/>
	<path fill="#FF0046" fill-opacity="0.7" d="M129.253,424.013l-5.978,0.181l-5.978-0.181c3.039,5.005,4.554,7.681,5.897,7.947
		l0,0.035c0.011-0.001,0.023-0.005,0.034-0.006c0.011,0.001,0.023,0.005,0.034,0.006v-0.012c0.005-0.001,0.009-0.003,0.014-0.003
		c0.005,0.001,0.009,0.003,0.014,0.003v0.012c0.011-0.001,0.023-0.005,0.034-0.006c0.011,0.001,0.023,0.005,0.034,0.006l0-0.035
		C124.699,431.694,126.214,429.018,129.253,424.013z"/>
	<path fill="#FF0046" fill-opacity="0.7" d="M66.611,389.872v0.432C79.598,391.05,75.022,390.7,66.611,389.872z"/>
	<path fill="#FFFFFF" fill-opacity="0.7" d="M101.716,389.969c-3.667-4.05-5.333-6.179-6.822-6.317l0-0.005
		c-0.005,0-0.009,0.002-0.014,0.002c-0.005,0-0.009-0.002-0.014-0.002v0.005c-1.488,0.138-3.154,2.267-6.822,6.317
		c-0.466,0.514-0.992,0.976-1.54,1.387c6.367,0.288,12.704,0.526,17.633,0.607C103.283,391.416,102.429,390.756,101.716,389.969z"/>
	<path fill="#FF0046" fill-opacity="0.7" d="M81.583,394.731c2.373,0.703,4.805,1.965,6.462,3.793
		c3.612,3.983,5.283,6.104,6.753,6.301l0,0.024c0.011,0,0.023-0.004,0.034-0.004c0.011,0.001,0.023,0.004,0.034,0.004v-0.008
		c0.005,0,0.009-0.002,0.014-0.002c0.005,0,0.01,0.002,0.014,0.002v0.008c0.011,0,0.023-0.004,0.034-0.004
		c0.011,0.001,0.023,0.004,0.034,0.004l0-0.024c1.471-0.197,3.142-2.318,6.753-6.301c1.657-1.827,4.088-3.09,6.462-3.793
		c1.22-0.361,0.288-0.751,0.288-0.751s-2.173-0.641-4.327-2.018c-4.929-0.081-11.266-0.319-17.633-0.607
		c-2.398,1.8-5.21,2.625-5.21,2.625S80.364,394.37,81.583,394.731z"/>
	<path fill="#FFFFFF" fill-opacity="0.7" d="M74.133,389.364c-3.711-4.699-5.397-7.169-6.902-7.329l0-0.005
		c-0.005,0-0.01,0.002-0.014,0.003v0c-0.005,0-0.01-0.002-0.014-0.003l0,0.005c-1.506,0.16-3.191,2.63-6.902,7.329
		c-0.4,0.507-0.847,0.965-1.311,1.385c3.048-0.159,5.858-0.313,8.228-0.446v0c2.37,0.133,5.18,0.287,8.228,0.446
		C74.98,390.329,74.533,389.871,74.133,389.364z"/>
	<path fill="#FF0046" fill-opacity="0.7" d="M80.962,394.018c0,0-3.042-1.028-5.518-3.269c-3.048-0.159-5.858-0.313-8.228-0.446v0
		c-2.37,0.133-5.18,0.287-8.228,0.446c-2.476,2.241-5.518,3.269-5.518,3.269s-0.942,0.452,0.292,0.871
		c2.401,0.815,4.862,2.28,6.538,4.4c3.654,4.621,5.345,7.082,6.833,7.31l0,0.027c0.011-0.001,0.023-0.004,0.035-0.005
		c0.011,0.001,0.023,0.004,0.035,0.005v-0.01c0.005,0,0.01-0.002,0.014-0.003v0c0.005,0,0.01,0.002,0.014,0.003v0.01
		c0.011-0.001,0.023-0.004,0.035-0.005c0.011,0.001,0.023,0.004,0.035,0.005l0-0.027c1.488-0.228,3.179-2.689,6.833-7.31
		c1.677-2.12,4.137-3.585,6.538-4.4C81.905,394.47,80.962,394.018,80.962,394.018z"/>
	<path fill="#FFFFFF" fill-opacity="0.7" d="M585.606,394.011c-2.496-0.462-5.053-1.291-6.796-2.491
		c-3.798-2.617-5.556-4.01-7.103-4.139l0-0.016c-0.012,0-0.024,0.002-0.036,0.003c-0.012,0-0.024-0.003-0.036-0.003v0.005
		c-0.005,0-0.01,0.001-0.015,0.001c-0.005,0-0.01-0.001-0.015-0.001v-0.005c-0.012,0-0.024,0.002-0.036,0.003
		c-0.012,0-0.024-0.003-0.036-0.003l0,0.016c-1.547,0.129-3.304,1.522-7.103,4.139c-1.743,1.2-4.3,2.03-6.796,2.491
		c-1.283,0.237-0.303,0.493-0.303,0.493s0.473,0.087,1.196,0.265h13.092l13.092,0c0.724-0.178,1.196-0.265,1.196-0.265
		S586.889,394.248,585.606,394.011z"/>
	<path fill="#FF0046" fill-opacity="0.7" d="M571.621,394.769h-13.092c1.509,0.371,4.121,1.141,5.903,2.37
		c3.857,2.66,5.609,4.059,7.174,4.15l0,0.003c0.005,0,0.01-0.001,0.015-0.001c0.005,0,0.01,0.001,0.015,0.001l0-0.003
		c1.565-0.091,3.317-1.489,7.174-4.15c1.782-1.229,4.394-1.999,5.903-2.37L571.621,394.769z"/>
	<path fill="#FFFFFF" fill-opacity="0.7" d="M52.109,369.768c0,0-4.19-0.556-6.665-1.794c-3.621-1.811-5.266-2.763-6.735-2.825
		l0-0.002c-0.005,0-0.009,0.001-0.014,0.001v9.475c0.005,0,0.009,0.001,0.014,0.001v0.004c0.011,0,0.023-0.002,0.034-0.002
		c0.011,0,0.023,0.002,0.034,0.002l0-0.011c1.452-0.088,3.102-1.036,6.668-2.818c1.636-0.817,4.037-1.382,6.38-1.696
		C53.028,369.943,52.109,369.768,52.109,369.768z"/>
	<path fill="#FFFFFF" fill-opacity="0.7" d="M585.914,370.063c0,0,4.463,0.817,7.099,2.635c3.857,2.661,5.609,4.059,7.174,4.15
		l0,0.003c0.005,0,0.01-0.001,0.015-0.001v-13.919c-0.005,0-0.01-0.001-0.015-0.001v-0.005c-0.012,0-0.024,0.002-0.036,0.003
		c-0.012,0-0.024-0.002-0.036-0.003l0,0.016c-1.547,0.129-3.304,1.522-7.103,4.139c-1.743,1.2-4.3,2.03-6.796,2.491
		C584.934,369.807,585.914,370.063,585.914,370.063z"/>
	<path fill="#FFFFFF" fill-opacity="0.7" d="M585.634,369.715c0,0-4.613-0.802-7.338-2.586c-3.987-2.611-5.799-3.984-7.416-4.073
		v-0.003c-0.005,0-0.01,0.001-0.015,0.001c-0.005,0-0.01-0.001-0.015-0.001l0,0.003c-1.618,0.089-3.429,1.462-7.416,4.073
		c-2.725,1.785-7.338,2.586-7.338,2.586s-1.013,0.251,0.313,0.484c2.58,0.453,5.224,1.267,7.025,2.445
		c3.927,2.568,5.743,3.935,7.342,4.062l0,0.015c0.012,0,0.025-0.002,0.037-0.003c0.012,0,0.025,0.002,0.037,0.003v-0.005
		c0.005,0,0.01-0.001,0.015-0.001c0.005,0,0.01,0.001,0.015,0.001v0.005c0.012,0,0.025-0.002,0.037-0.003
		c0.012,0,0.025,0.002,0.037,0.003l0-0.015c1.599-0.127,3.416-1.494,7.342-4.062c1.801-1.178,4.445-1.992,7.025-2.445
		C586.647,369.967,585.634,369.715,585.634,369.715z"/>
	<path fill="#FFFFFF" fill-opacity="0.7" d="M332.657,369.721c0,0-4.613-0.776-7.338-2.503c-3.987-2.527-5.798-3.855-7.416-3.941
		l0-0.003c-0.005,0-0.01,0.001-0.015,0.001c-0.005,0-0.01-0.001-0.015-0.001l0,0.003c-1.618,0.086-3.429,1.414-7.416,3.941
		c-2.725,1.727-7.338,2.503-7.338,2.503s-1.013,0.243,0.313,0.468c2.58,0.438,5.224,1.226,7.025,2.366
		c3.927,2.485,5.743,3.808,7.342,3.931l0,0.015c0.012,0,0.025-0.002,0.037-0.003c0.012,0,0.025,0.002,0.037,0.003v-0.005
		c0.005,0,0.01-0.001,0.015-0.001c0.005,0,0.01,0.001,0.015,0.001v0.005c0.012,0,0.025-0.002,0.037-0.003
		c0.012,0,0.025,0.002,0.037,0.003l0-0.015c1.599-0.123,3.416-1.446,7.342-3.931c1.801-1.14,4.445-1.928,7.025-2.366
		C333.669,369.964,332.657,369.721,332.657,369.721z"/>
	<path fill="#FFFFFF" fill-opacity="0.7" d="M360.896,369.721c0,0-4.613-0.776-7.338-2.503c-3.987-2.527-5.798-3.855-7.416-3.941
		l0-0.003c-0.005,0-0.01,0.001-0.015,0.001c-0.005,0-0.01-0.001-0.015-0.001l0,0.003c-1.618,0.086-3.429,1.414-7.416,3.941
		c-2.725,1.727-7.338,2.503-7.338,2.503s-1.013,0.243,0.313,0.468c2.58,0.438,5.224,1.226,7.025,2.366
		c3.927,2.485,5.743,3.808,7.342,3.931l0,0.015c0.012,0,0.025-0.002,0.037-0.003c0.012,0,0.025,0.002,0.037,0.003v-0.005
		c0.005,0,0.01-0.001,0.015-0.001c0.005,0,0.01,0.001,0.015,0.001v0.005c0.012,0,0.025-0.002,0.037-0.003
		c0.012,0,0.025,0.002,0.037,0.003l0-0.015c1.599-0.123,3.416-1.446,7.342-3.931c1.801-1.14,4.445-1.928,7.025-2.366
		C361.908,369.964,360.896,369.721,360.896,369.721z"/>
	<path fill="#FFFFFF" fill-opacity="0.7" d="M117.612,342.344"/>
	<path fill="#FFFFFF" fill-opacity="0.7" d="M194.413,342.053"/>
	<path fill="#FFFFFF" fill-opacity="0.7" d="M332.657,343.564c0,0-4.613-1.138-7.338-3.671c-3.987-3.706-5.798-5.654-7.416-5.781
		l0-0.004c-0.005,0-0.01,0.002-0.015,0.002c-0.005,0-0.01-0.002-0.015-0.002l0,0.004c-1.618,0.126-3.429,2.075-7.416,5.781
		c-2.725,2.533-7.338,3.671-7.338,3.671s-1.013,0.357,0.313,0.687c2.58,0.643,5.224,1.798,7.025,3.47
		c3.927,3.645,5.743,5.585,7.342,5.766l0,0.022c0.012,0,0.025-0.003,0.037-0.004c0.012,0.001,0.025,0.003,0.037,0.004v-0.008
		c0.005,0,0.01-0.002,0.015-0.002c0.005,0,0.01,0.002,0.015,0.002v0.008c0.012,0,0.025-0.003,0.037-0.004
		c0.012,0.001,0.025,0.003,0.037,0.004l0-0.022c1.599-0.18,3.416-2.121,7.342-5.766c1.801-1.672,4.445-2.827,7.025-3.47
		C333.669,343.921,332.657,343.564,332.657,343.564z"/>
	<path fill="#FFFFFF" fill-opacity="0.7" d="M250.123,343.564c0,0-4.405-1.138-7.007-3.671c-3.807-3.706-5.537-5.654-7.082-5.781
		l0-0.004c-0.005,0-0.01,0.002-0.015,0.002c-0.005,0-0.01-0.002-0.015-0.002l0,0.004c-1.545,0.126-3.274,2.075-7.082,5.781
		c-2.602,2.533-7.007,3.671-7.007,3.671s-0.967,0.357,0.299,0.687c2.464,0.643,4.988,1.798,6.708,3.47
		c3.749,3.645,5.484,5.585,7.011,5.766l0,0.022c0.012,0,0.024-0.003,0.035-0.004c0.012,0.001,0.024,0.003,0.035,0.004v-0.008
		c0.005,0,0.01-0.002,0.015-0.002c0.005,0,0.01,0.002,0.015,0.002v0.008c0.012,0,0.024-0.003,0.035-0.004
		c0.012,0.001,0.024,0.003,0.035,0.004l0-0.022c1.527-0.18,3.262-2.121,7.011-5.766c1.72-1.672,4.244-2.827,6.708-3.47
		C251.09,343.921,250.123,343.564,250.123,343.564z"/>
	<path fill="#FFFFFF" fill-opacity="0.7" d="M221.227,343.581c0,0-4.19-1.059-6.665-3.415c-3.621-3.448-5.266-5.261-6.736-5.378
		l0-0.004c-0.005,0-0.009,0.002-0.014,0.002c-0.005,0-0.009-0.002-0.014-0.002l0,0.004c-1.469,0.117-3.114,1.93-6.736,5.378
		c-2.475,2.357-6.665,3.415-6.665,3.415s-0.92,0.332,0.285,0.639c2.343,0.598,4.744,1.673,6.38,3.229
		c3.566,3.391,5.216,5.197,6.668,5.364l0,0.02c0.011,0,0.023-0.003,0.034-0.004c0.011,0.001,0.023,0.003,0.034,0.004v-0.007
		c0.005,0,0.009-0.002,0.014-0.002c0.005,0,0.009,0.002,0.014,0.002v0.007c0.011,0,0.023-0.003,0.034-0.004
		c0.011,0.001,0.023,0.003,0.034,0.004l0-0.02c1.452-0.168,3.102-1.973,6.668-5.364c1.636-1.556,4.037-2.631,6.38-3.229
		C222.147,343.913,221.227,343.581,221.227,343.581z"/>
	<path fill="#FFFFFF" fill-opacity="0.7" d="M108.484,343.616c0,0-4.19-0.898-6.665-2.898c-3.621-2.926-5.266-4.464-6.735-4.564
		l0-0.003c-0.005,0-0.009,0.001-0.014,0.002c-0.005,0-0.009-0.001-0.014-0.002l0,0.003c-1.469,0.1-3.114,1.638-6.735,4.564
		c-2.475,2-6.665,2.898-6.665,2.898s-0.92,0.282,0.285,0.542c2.343,0.508,4.744,1.42,6.38,2.74c3.566,2.878,5.216,4.41,6.668,4.552
		l0,0.017c0.011,0,0.023-0.003,0.034-0.003c0.011,0,0.023,0.003,0.034,0.003v-0.006c0.005,0,0.009-0.001,0.014-0.002
		c0.005,0,0.009,0.001,0.014,0.002v0.006c0.011,0,0.023-0.003,0.034-0.003c0.011,0,0.023,0.003,0.034,0.003l0-0.017
		c1.452-0.142,3.102-1.674,6.668-4.552c1.636-1.32,4.037-2.232,6.38-2.74C109.404,343.897,108.484,343.616,108.484,343.616z"/>
	<path fill="#FFFFFF" fill-opacity="0.7" d="M586.34,343.974c0,0,4.19,0.767,6.665,2.474c3.621,2.498,5.266,3.811,6.735,3.896
		l0,0.003c0.005,0,0.009-0.001,0.014-0.001v-13.067c-0.005,0-0.009-0.001-0.014-0.001v-0.005c-0.011,0-0.023,0.002-0.034,0.003
		c-0.011,0-0.023-0.002-0.034-0.003l0,0.015c-1.452,0.121-3.102,1.429-6.668,3.886c-1.636,1.127-4.037,1.905-6.38,2.339
		C585.421,343.733,586.34,343.974,586.34,343.974z"/>
	<path fill="#FFFFFF" fill-opacity="0.7" d="M389.077,343.672c0,0-4.613-0.637-7.338-2.056c-3.987-2.075-5.798-3.166-7.416-3.237
		l0-0.002c-0.005,0-0.01,0.001-0.015,0.001c-0.005,0-0.01-0.001-0.015-0.001l0,0.002c-1.618,0.071-3.429,1.162-7.416,3.237
		c-2.725,1.418-7.338,2.056-7.338,2.056s-1.013,0.2,0.313,0.385c2.58,0.36,5.224,1.007,7.025,1.943
		c3.927,2.041,5.743,3.128,7.342,3.229l0,0.012c0.012,0,0.025-0.002,0.037-0.002c0.012,0,0.025,0.002,0.037,0.002v-0.004
		c0.005,0,0.01-0.001,0.015-0.001c0.005,0,0.01,0.001,0.015,0.001v0.004c0.012,0,0.025-0.002,0.037-0.002
		c0.012,0,0.025,0.002,0.037,0.002l0-0.012c1.599-0.101,3.416-1.188,7.342-3.229c1.801-0.936,4.445-1.583,7.025-1.943
		C390.089,343.871,389.077,343.672,389.077,343.672z"/>
	<path fill="#FFFFFF" fill-opacity="0.7" d="M360.896,314.049c0,0-4.613-1.204-7.338-3.884c-3.987-3.921-5.798-5.983-7.416-6.116
		l0-0.004c-0.005,0-0.01,0.002-0.015,0.002c-0.005,0-0.01-0.002-0.015-0.002l0,0.004c-1.618,0.134-3.429,2.195-7.416,6.116
		c-2.725,2.68-7.338,3.884-7.338,3.884s-1.013,0.377,0.313,0.727c2.58,0.68,5.224,1.903,7.025,3.672
		c3.927,3.857,5.743,5.91,7.342,6.1l0,0.023c0.012,0,0.025-0.003,0.037-0.004c0.012,0.001,0.025,0.004,0.037,0.004v-0.008
		c0.005,0,0.01-0.002,0.015-0.002c0.005,0,0.01,0.002,0.015,0.002v0.008c0.012,0,0.025-0.003,0.037-0.004
		c0.012,0.001,0.025,0.004,0.037,0.004l0-0.023c1.599-0.191,3.416-2.244,7.342-6.1c1.801-1.769,4.445-2.992,7.025-3.672
		C361.908,314.426,360.896,314.049,360.896,314.049z"/>
	<path fill="#FFFFFF" fill-opacity="0.7" d="M556.748,314.345c0,0-4.19-0.419-6.665-1.351c-3.621-1.364-5.266-2.081-6.735-2.127
		l0-0.002c-0.005,0-0.009,0.001-0.014,0.001v0.055c-9.564-0.99-17.974-1.982-27.542-3.962c-9.589-1.984-18.012-5.658-27.601-7.936
		c-9.589-2.278-19.177-5.732-28.766-5.732c-9.615,0-19.23,6.611-28.844,7.496c-9.589,0.882-28.766,1.323-28.766,1.323
		c0.054,0,0.097,0.019,0.147,0.025c-1.6,0.226-3.415,2.694-7.344,7.349c-2.725,3.229-7.338,4.679-7.338,4.679
		s-1.013,0.455,0.313,0.876c2.58,0.82,5.224,2.292,7.025,4.424c2.002,2.369,3.452,4.166,4.608,5.396c0.92-0.003,0.526-0.002,0,0
		c1.111,1.159,1.951,1.805,2.735,1.915l0,0.027c0.012,0,0.025-0.004,0.037-0.005c0.012,0.001,0.025,0.004,0.037,0.005v-0.009
		c0.005,0,0.01-0.002,0.015-0.003c0.005,0,0.01,0.002,0.015,0.003v0.009c0.012,0,0.025-0.004,0.037-0.005
		c0.012,0.001,0.025,0.004,0.037,0.005l0-0.027c0.757-0.107,14.005,0.192,16.018-0.823c5.146,0.458,10.216,0.953,12.424,1.291
		c9.615,1.474,19.23,8.377,28.844,8.377c9.589,0,19.177-3.454,28.766-5.732c9.589-2.278,18.012-5.952,27.601-7.936
		c9.569-1.98,17.979-2.972,27.542-3.962v0.012c0.005,0,0.009,0.001,0.014,0.001v0.003c0.011,0,0.023-0.001,0.034-0.001
		c0.011,0,0.023,0.001,0.034,0.001l0-0.008c1.452-0.066,3.102-0.78,6.668-2.122c1.636-0.615,4.037-1.04,6.38-1.277
		C557.668,314.476,556.748,314.345,556.748,314.345z"/>
	<path fill="#FF0046" fill-opacity="0.7" d="M122.906,284.447c7.987-0.367,19.468-1.323,27.455-1.323
		c8.009,0,19.512,7.936,27.521,7.936c-8.009,0-19.512-8.818-27.521-8.818C142.374,282.242,130.893,283.932,122.906,284.447z"/>
	<path fill="#FF0046" fill-opacity="0.7" d="M122.906,284.447c-7.987,0.367-19.468,0.514-27.456,0.882
		C103.438,284.961,114.919,284.961,122.906,284.447z"/>
	<path fill="#FFFFFF" fill-opacity="0.7" d="M235.123,274.746c-7.89-1.77-19.468-3.16-27.456-4.409
		c-7.987-1.249-21.798-3.086-29.785-3.086c-8.009,0-19.512,7.936-27.521,7.936c-7.987,0-19.468-0.955-27.455-1.323
		c-7.987-0.367-19.468-0.514-27.456-0.882c-7.987-0.367-20.633-1.323-28.62-1.323c-8.009,0-20.677,2.205-28.686,4.409v6.173
		c8.009,2.205,20.677,4.409,28.686,4.409c7.987,0,20.633-0.955,28.62-1.323c7.987-0.367,19.468-0.367,27.456-0.882
		c7.987-0.514,19.468-2.205,27.455-2.205c8.009,0,19.512,8.818,27.521,8.818c7.987,0,21.798-4.042,29.785-5.732
		c7.987-1.69,19.468-3.821,27.456-4.409c7.987-0.588,14.555-1.159,15.745-1.335C241.658,279.156,239.587,276.056,235.123,274.746z"
		/>
	<path fill="#FFFFFF" fill-opacity="0.7" d="M381.301,276.852c-3.987-2.197-5.798-3.352-7.416-3.426l0-0.002
		c-0.005,0-0.01,0.001-0.015,0.001v-0.001c-0.003,0-0.006,0-0.009,0.001c-0.002,0-0.004,0-0.007-0.001v0.001
		c-15.996,0.967-40.135,1.934-56.126,2.645c-5.633,0.202-2.213,2.645-13.75,3.661c10.645,0.064,8.043,2.512,13.75,2.512
		c12.354,0,29.559-1.053,44.127-2.344c0.15,0.034,0.304,0.062,0.452,0.098c5.428-0.47,11.884-1.044,12.718-1.19l9.026-0.835
		C383.082,277.668,382.109,277.297,381.301,276.852z"/>
	<path fill="#FF0046" fill-opacity="0.7" d="M388.64,279.028c0,0-2.285-0.336-4.588-1.057l-10.182,0.743
		c-15.996,1.764-40.145,3.527-56.141,3.527c15.864,0.705,39.735,1.662,55.731,2.621c0.107,0.016,0.216,0.039,0.32,0.046l0,0.013
		c0.012,0,0.025-0.002,0.037-0.002c0.012,0,0.025,0.002,0.037,0.002v-0.004c0.005,0,0.01-0.001,0.015-0.001
		c0.005,0,0.01,0.001,0.015,0.001v0.004c0.012,0,0.025-0.002,0.037-0.002c0.012,0,0.025,0.002,0.037,0.002l0-0.013
		c1.599-0.107,3.416-1.257,7.342-3.417c1.801-0.991,4.445-1.676,7.025-2.057C389.652,279.24,388.64,279.028,388.64,279.028z"/>
	<path fill="#FF0046" fill-opacity="0.7" d="M277.093,279.553c0,0-4.045-0.145-6.434-0.468c-3.496-0.472-5.084-0.721-6.503-0.737
		l0-0.001c-0.004,0-0.009,0-0.013,0c-0.004,0-0.009,0-0.013,0l0,0.001c-1.419,0.016-3.007,0.264-6.503,0.737
		c-2.39,0.323-6.434,0.468-6.434,0.468s-0.848,0.044,0.212,0.085c-4.869,0.25-10.407,0.653-16.281,1.281
		c-7.987,0.588-19.468,2.719-27.456,4.409c-7.987,1.69-21.798,5.732-29.785,5.732c7.987,0,21.798-1.837,29.785-3.086
		c7.987-1.249,19.412-3.442,27.456-4.409c6.478-0.779,20.647-1.663,28.921-2.748c0.007,0,0.013,0.001,0.02,0.001l0,0.003
		c0.011,0,0.022,0,0.033,0c0.011,0,0.022,0,0.033,0v-0.001c0.004,0,0.009,0,0.013,0c0.004,0,0.009,0,0.013,0v0.001
		c0.011,0,0.022,0,0.033,0c0.011,0,0.022,0,0.033,0l0-0.003c1.402-0.023,2.995-0.27,6.438-0.735c1.58-0.213,3.897-0.36,6.16-0.442
		C277.98,279.598,277.093,279.553,277.093,279.553z"/>
</g>
<style>
#g-countries_2-medium-other-img rect, #g-countries_2-medium-other-img circle, #g-countries_2-medium-other-img path, #g-countries_2-medium-other-img line, #g-countries_2-medium-other-img polyline, #g-countries_2-medium-other-img polygon { vector-effect: non-scaling-stroke; }
</style>
</svg>

