<?xml version="1.0" encoding="utf-8"?>
<!-- Generator: Adobe Illustrator 27.4.0, SVG Export Plug-In . SVG Version: 6.00 Build 0)  -->
<svg version="1.2" baseProfile="tiny" id="g-countries_2-medium-usa-img"
	 xmlns="http://www.w3.org/2000/svg" xmlns:xlink="http://www.w3.org/1999/xlink" x="0px" y="0px" viewBox="0 0 800 502.574"
	 overflow="visible" xml:space="preserve">
<g>
	<path fill="#FF0046" fill-opacity="0.7" d="M38.655,117.117v0.882c8.542,5.952,19.413,11.905,27.954,11.905
		c5.468,0,11.893-3.749,18.048-6.593c-6.155,2.01-12.58,3.947-18.048,3.947C58.067,127.258,47.196,122.187,38.655,117.117z"/>
	<path fill="#FF0046" fill-opacity="0.7" d="M279.754,106.848c-3.979,0.06-9.013,0.091-15.556,0.091
		c-8.518,0-20.531-8.377-29.049-8.377s-18.201,2.058-26.72,4.85c-8.518,2.792-20.531,11.905-29.049,11.905
		c-8.542,0-19.413-5.732-27.954-5.732c-8.518,0-19.366,1.396-27.884,3.086c-8.518,1.69-20.531,4.703-29.049,7.055
		c8.518-0.588,20.531-0.294,29.049-0.882c8.518-0.588,19.366-5.732,27.884-5.732c8.542,0,19.413,5.732,27.954,5.732
		c8.518,0,20.531-1.323,29.049-1.323c8.518,0,18.201,1.323,26.72,1.323s20.9-10.673,29.418-10.673
		C271.145,108.171,279.804,107.233,279.754,106.848z"/>
	<path fill="#FFFFFF" fill-opacity="0.7" d="M279.388,106.746c-3.912,0.111-8.429-1.325-14.75-1.325
		c-8.518,0-20.97-10.607-29.488-10.607s-18.201,1.323-26.72,1.323c-8.518,0-20.531-1.323-29.049-1.323
		c-8.542,0-19.413,5.732-27.954,5.732c-8.518,0-19.366-5.144-27.884-5.732c-8.518-0.588-20.531-0.294-29.049-0.882
		c-8.518-0.588-19.366-9.7-27.884-9.7c-8.542,0-19.413,5.952-27.954,11.905v21.164c8.542,5.07,19.413,10.141,27.954,10.141
		c8.518,0,19.366-4.703,27.884-7.055c8.518-2.352,20.531-5.364,29.049-7.055c8.518-1.69,19.366-3.086,27.884-3.086
		c8.542,0,19.413,5.732,27.954,5.732c8.518,0,20.531-9.112,29.049-11.905c8.518-2.792,18.201-4.85,26.72-4.85
		s20.531,8.377,29.049,8.377c6.543,0,11.576-0.032,15.556-0.091C279.706,107.138,279.87,106.841,279.388,106.746z"/>
	<path fill="#FF0046" fill-opacity="0.7" d="M572.238,89.523c-8.542,3.018-20.577,8.377-29.119,8.377
		c-8.518,0-19.366-12.346-27.884-12.346c-8.518,0-19.366,5.805-27.884,7.496c-8.518,1.69-20.531,2.645-29.049,2.645
		c-8.542,0-19.413-2.645-27.954-2.645c-8.518,0-19.366,0.441-27.884,0.441c-8.518,0-19.366-3.968-27.884-3.968
		c-8.518,0-19.366,2.944-27.884,5.291c-8.542,2.353-21.861,7.4-30.284,8.818c-16.605,2.796-19.777,2.608-20.317,3.736
		c0.738,1.115,10.947,3.376,20.317,5.083c8.438,1.537,21.742,7.348,30.284,9.7c8.518,2.346,19.366,4.409,27.884,4.409
		c8.518,0,19.366-5.732,27.884-5.732c8.518,0,19.366,1.323,27.884,1.323c8.542,0,19.413-1.323,27.954-1.764
		c8.518-0.44,20.531-0.882,29.049-0.882c8.518,0,19.366,6.614,27.884,6.614c8.518,0,19.366-12.346,27.884-12.346
		c8.542,0,20.577,6.242,29.119,9.259c8.518,3.009,19.366,5.913,27.884,8.818V79.823C591.604,83.169,580.756,86.514,572.238,89.523z"
		/>
	<path fill="#FFFFFF" fill-opacity="0.7" d="M458.301,91.287c-8.542-0.441-19.413-1.764-27.954-1.764
		c-8.518,0-19.366,1.323-27.884,1.323c-8.518,0-19.366-5.732-27.884-5.732c-8.518,0-19.366,2.063-27.884,4.409
		c-8.542,2.352-9.749,6.74-17.255,10.702c-1.958,1.033,8.824-2.861,17.255-5.411c8.451-2.556,19.366-5.291,27.884-5.291
		c8.518,0,19.366,3.968,27.884,3.968c8.518,0,19.366-0.441,27.884-0.441c8.542,0,19.413,2.645,27.954,2.645
		c8.518,0,20.531-0.955,29.049-2.645c2.29-0.454,4.752-1.21,7.288-2.066c-2.537,0.699-4.998,1.185-7.288,1.185
		C478.832,92.169,466.82,91.727,458.301,91.287z"/>
	<path fill="#FFFFFF" fill-opacity="0.7" d="M494.638,90.984c6.898-1.901,14.368-5.429,20.596-5.429
		C509.007,85.555,501.536,88.655,494.638,90.984z"/>
	<path fill="#FFFFFF" fill-opacity="0.7" d="M572.238,88.641c-8.542,3.017-20.577,9.259-29.119,9.259
		c8.542,0,20.577-5.36,29.119-8.377c8.518-3.009,19.366-6.355,27.884-9.7C591.604,82.728,580.756,85.633,572.238,88.641z"/>
</g>
<style>
#g-countries_2-medium-usa-img rect, #g-countries_2-medium-usa-img circle, #g-countries_2-medium-usa-img path, #g-countries_2-medium-usa-img line, #g-countries_2-medium-usa-img polyline, #g-countries_2-medium-usa-img polygon { vector-effect: non-scaling-stroke; }
</style>
</svg>

