<?xml version="1.0" encoding="utf-8"?>
<!-- Generator: Adobe Illustrator 27.4.0, SVG Export Plug-In . SVG Version: 6.00 Build 0)  -->
<svg version="1.2" baseProfile="tiny" id="g-countries_2-mobile-ukraine-img"
	 xmlns="http://www.w3.org/2000/svg" xmlns:xlink="http://www.w3.org/1999/xlink" x="0px" y="0px" viewBox="0 0 300 349.787"
	 overflow="visible" xml:space="preserve">
<g>
	<path fill="#FFFFFF" fill-opacity="0.7" d="M26.511,138.238c-0.002,0-0.004-0.001-0.005-0.001v-0.004
		c-0.004,0-0.009,0.002-0.013,0.002c-0.004,0-0.008-0.002-0.013-0.002l0,0.011c-0.547,0.092-1.168,1.086-2.511,2.951
		c-0.616,0.856-1.52,1.447-2.403,1.776c-0.453,0.169-0.107,0.352-0.107,0.352s1.578,0.582,2.51,1.879
		c0.556,0.774,0.985,1.39,1.34,1.862l1.202,0.02V138.238z"/>
	<path fill="#FF0046" fill-opacity="0.7" d="M36.83,147.335c-3.147-0.092-7.172-0.184-10.319-0.276v0.027l-1.202-0.02
		c0.515,0.685,0.869,1.058,1.197,1.097l0,0.002c0.002,0,0.004-0.001,0.005-0.001v0.001C29.658,147.749,33.683,147.335,36.83,147.335
		z"/>
	<path fill="#FF0046" fill-opacity="0.7" d="M68.691,140.455c-3.156,0-7.628,9.117-10.784,9.117c-3.147,0-7.172-1.75-10.319-1.934
		c-2.796-0.164-6.63-0.182-9.658-0.249c3.028,0.137,6.861,0.781,9.658,1.354c3.147,0.645,7.172,2.486,10.319,2.486
		c3.156,0,7.62-0.703,10.784-0.829c2.67-0.106,2.956-5.639,6.079-7.255C72.413,141.752,70.325,140.455,68.691,140.455z"/>
	<path fill="#FFFFFF" fill-opacity="0.7" d="M68.691,136.035c-3.156-0.361-7.628-0.829-10.784-0.829
		c-3.147,0-7.172,1.842-10.319,2.486c-3.147,0.645-7.61,1.381-10.758,1.381c-3.147,0-7.172-0.414-10.319-0.829v8.84
		c3.147,0.092,7.172,0.184,10.319,0.276c3.147,0.092,7.61,0.092,10.758,0.276c3.147,0.184,7.172,1.934,10.319,1.934
		c3.156,0,7.628-9.117,10.784-9.117c2.488,0.436,3.764,1.385,6.142,2.711C72.539,142.515,70.436,136.234,68.691,136.035z"/>
	<g>
		<path fill="#FFFFFF" fill-opacity="0.7" d="M100.964,143.599"/>
		<path fill="#FFFFFF" fill-opacity="0.7" d="M106.135,143.376c0.453-0.118,0.107-0.246,0.107-0.246s-1.578-0.407-2.51-1.313
			c-1.364-1.325-1.983-2.022-2.537-2.067v-0.001c-0.002,0-0.004,0.001-0.005,0.001c-0.002,0-0.004-0.001-0.005-0.001l0,0.001
			c-0.553,0.045-1.173,0.742-2.537,2.067c-0.606,0.589-1.483,0.966-2.024,1.158c1.822,0.248,4.933,0.574,8.841,0.61
			C105.687,143.504,105.912,143.434,106.135,143.376z"/>
		<path fill="#FF0046" fill-opacity="0.7" d="M96.246,143.376c0.883,0.23,1.787,0.643,2.403,1.241
			c1.343,1.304,1.964,1.998,2.511,2.062l0,0.008c0.004,0,0.008-0.001,0.013-0.001c0.004,0,0.009,0.001,0.013,0.001v-0.003
			c0.002,0,0.004-0.001,0.005-0.001c0.002,0,0.004,0.001,0.005,0.001v0.003c0.004,0,0.008-0.001,0.013-0.001
			c0.004,0,0.008,0.001,0.013,0.001l0-0.008c0.547-0.064,1.168-0.758,2.511-2.062c0.46-0.446,1.081-0.79,1.733-1.031
			c-3.907-0.036-7.019-0.363-8.841-0.61c-0.291,0.103-0.486,0.154-0.486,0.154S95.793,143.258,96.246,143.376z"/>
	</g>
	<path fill="#FF0046" fill-opacity="0.7" d="M216.358,136.311c-0.068,0-0.133,0.045-0.196,0.115c-0.518,0.3-1.142,1.65-2.379,4.044
		c-0.616,1.192-1.52,2.016-2.403,2.475c-0.453,0.236-0.107,0.49-0.107,0.49s1.578,0.811,2.51,2.617
		c1.364,2.643,1.983,4.032,2.537,4.122l0,0.003c0.002,0,0.004-0.001,0.005-0.002v-0.059c0.011,0.001,0.021,0.008,0.033,0.008
		c3.147,0,7.61,6.768,10.758,13.537v-40.887C223.969,129.542,219.506,136.311,216.358,136.311z"/>
	<g>
		<path fill="#FFFFFF" fill-opacity="0.7" d="M174.178,138.245c-3.156-0.737-7.189-2.024-10.345-3.315
			C166.989,136.406,171.022,138.245,174.178,138.245z"/>
		<path fill="#FFFFFF" fill-opacity="0.7" d="M174.178,138.245c3.147,0.735,7.611,1.105,10.758,1.105
			c3.147,0,7.61-4.697,10.758-4.697c-3.147,0-7.61,2.671-10.758,3.039C181.789,138.061,177.326,138.245,174.178,138.245z"/>
		<path fill="#FFFFFF" fill-opacity="0.7" d="M153.075,129.404c-3.147-2.486-7.61-9.393-10.758-9.393
			c-3.147,0-8.506,12.196-10.758,15.747c-1.1,1.734-2.598,6.148-5.238,7.29c0,0-0.915,0.492,5.238-0.107
			c3.142-0.306,7.611-16.852,10.758-16.852c3.147,0,7.61,2.947,10.758,4.42c3.147,1.473,7.61,3.132,10.758,4.42
			C160.686,133.457,156.223,131.891,153.075,129.404z"/>
		<path fill="#FF0046" fill-opacity="0.7" d="M200.746,142.933c0,0-1.578-0.996-2.51-3.214c-1.081-2.571-1.692-4.16-2.175-4.77
			c-0.112-0.182-0.232-0.291-0.361-0.293v-0.002c-0.001,0-0.002,0.001-0.002,0.001c-0.001,0-0.002-0.001-0.003-0.001
			c-3.147,0-7.61,4.697-10.758,4.697c-3.147,0-7.61-0.37-10.758-1.105c-3.156-0.737-7.189-2.024-10.345-3.315
			c-3.147-1.288-7.611-2.947-10.758-4.42c-3.147-1.473-7.61-4.42-10.758-4.42c-3.147,0-7.61,16.742-10.758,16.852
			c-2.967,0.104-5.952,0.252-5.286,0.239c2.162-0.042,3.305,4.642,5.286,7.497c2.352,3.388,7.611,15.747,10.758,15.747
			c3.147,0,7.61-6.907,10.758-9.393c3.147-2.486,7.61-4.053,10.758-5.525c3.156-1.476,7.189-3.315,10.345-3.315
			c3.147,0,7.611,0.184,10.758,0.553c3.147,0.368,7.61,3.039,10.758,3.039c0.262,0,0.483-0.34,0.667-0.91
			c0.44-0.802,1.005-2.232,1.874-4.298c0.616-1.464,1.52-2.476,2.403-3.039C201.092,143.245,200.746,142.933,200.746,142.933z"/>
	</g>
</g>
<style>
#g-countries_2-mobile-ukraine-img rect, #g-countries_2-mobile-ukraine-img circle, #g-countries_2-mobile-ukraine-img path, #g-countries_2-mobile-ukraine-img line, #g-countries_2-mobile-ukraine-img polyline, #g-countries_2-mobile-ukraine-img polygon { vector-effect: non-scaling-stroke; }
</style>
</svg>

