<?xml version="1.0" encoding="utf-8"?>
<!-- Generator: Adobe Illustrator 27.4.0, SVG Export Plug-In . SVG Version: 6.00 Build 0)  -->
<svg version="1.2" baseProfile="tiny" id="g-countries_2-medium-china-img"
	 xmlns="http://www.w3.org/2000/svg" xmlns:xlink="http://www.w3.org/1999/xlink" x="0px" y="0px" viewBox="0 0 800 502.574"
	 overflow="visible" xml:space="preserve">
<g>
	<path fill="#FFFFFF" fill-opacity="0.7" d="M249.375,238.605c0,0-4.19-0.827-6.665-2.668c-3.621-2.693-5.266-4.109-6.735-4.201
		v-0.001c0-0.001,0-0.001,0-0.002h-0.398c-8.489,0-19.307-1.323-27.797-1.323c-8.489,0-21.598,3.086-30.087,3.086
		c-8.512,0-12.525-0.695-26.709-0.496v0.061c-1.376,0.252-3.032,1.384-6.315,3.387c-2.475,1.51-6.665,2.188-6.665,2.188
		s-0.92,0.213,0.285,0.41c2.343,0.383,4.744,1.072,6.38,2.069c3.284,2.001,4.939,3.129,6.315,3.38v0.07
		c20.465,0.986,18.197-0.486,26.709-0.486c8.489,0,21.598,3.086,30.087,3.086c8.489,0,19.307-1.323,27.797-1.323h0.037
		c-0.001-0.026-0.001-0.052-0.002-0.079c0.089,0.017,0.181,0.045,0.269,0.053l0,0.016c0.011,0,0.023-0.002,0.034-0.003
		c0.011,0,0.023,0.002,0.034,0.003v-0.006c0.005,0,0.009-0.001,0.014-0.001c0.005,0,0.009,0.001,0.014,0.001v0.006
		c0.011,0,0.023-0.002,0.034-0.003c0.011,0,0.023,0.002,0.034,0.003l0-0.016c1.452-0.131,3.102-1.541,6.668-4.19
		c1.636-1.215,4.037-2.055,6.38-2.522C250.295,238.864,249.375,238.605,249.375,238.605z"/>
	<path fill="#FFFFFF" fill-opacity="0.7" d="M571.597,230.852c-8.512,0.884-19.354,4.85-27.866,4.85
		c-8.489,0-20.472-14.991-28.961-14.991c-8.489,0-19.307,4.85-27.797,4.85c-8.489,0-19.307-2.205-27.797-2.205
		c-8.512,0-19.354,3.013-27.866,3.968c-8.489,0.953-20.472,1.764-28.961,1.764c-8.489,0-20.472-3.086-28.961-3.086
		c-8.489,0-19.307,4.264-27.797,4.85c-8.512,0.588-19.354,0.882-27.866,0.882h-0.549c0,0.032,0.003,0.063,0.003,0.095
		c-1.354,0.357-3.01,1.736-6.201,4.109c-2.475,1.841-6.665,2.668-6.665,2.668s-0.92,0.259,0.285,0.499
		c2.343,0.467,4.744,1.307,6.38,2.522c3.566,2.649,5.216,4.059,6.668,4.19l0,0.016c0.011,0,0.023-0.002,0.034-0.003
		c0.011,0,0.023,0.002,0.034,0.003v-0.006c0.005,0,0.009-0.001,0.014-0.001c0.005,0,0.009,0.001,0.014,0.001v0.006
		c0.011,0,0.023-0.002,0.034-0.003c0.011,0,0.023,0.002,0.034,0.003l0-0.016c0.103-0.009,0.211-0.04,0.317-0.062
		c0.002,0.029,0.005,0.059,0.006,0.088h-0.408c8.512,0,19.354,0.294,27.866,0.882c8.489,0.586,19.307,4.85,27.797,4.85
		c8.489,0,20.472-3.086,28.961-3.086c8.489,0,20.472,0.811,28.961,1.764c8.512,0.956,19.354,3.968,27.866,3.968
		c8.489,0,19.308-2.205,27.797-2.205c8.489,0,19.307,4.85,27.797,4.85c8.489,0,20.472-14.991,28.961-14.991
		c8.512,0,19.354,3.966,27.866,4.85c8.489,0.882,19.307,1.102,27.797,1.323v-18.518C590.905,229.749,580.086,229.97,571.597,230.852
		z"/>
	<path fill="#FFFFFF" fill-opacity="0.7" d="M52.442,238.677c0,0-4.19-0.516-6.665-1.666c-3.621-1.682-5.266-2.567-6.735-2.624
		l0-0.002c-0.005,0-0.009,0.001-0.014,0.001v8.802c0.005,0,0.009,0.001,0.014,0.001v0.003c0.011,0,0.023-0.001,0.034-0.002
		c0.011,0,0.023,0.002,0.034,0.002l0-0.01c1.452-0.082,3.102-0.963,6.668-2.617c1.636-0.759,4.037-1.283,6.38-1.575
		C53.362,238.839,52.442,238.677,52.442,238.677z"/>
</g>
<style>
#g-countries_2-medium-china-img rect, #g-countries_2-medium-china-img circle, #g-countries_2-medium-china-img path, #g-countries_2-medium-china-img line, #g-countries_2-medium-china-img polyline, #g-countries_2-medium-china-img polygon { vector-effect: non-scaling-stroke; }
</style>
</svg>

