<?xml version="1.0" encoding="utf-8"?>
<!-- Generator: Adobe Illustrator 27.4.0, SVG Export Plug-In . SVG Version: 6.00 Build 0)  -->
<svg version="1.2" baseProfile="tiny" id="g-countries_2-mobile-other-img"
	 xmlns="http://www.w3.org/2000/svg" xmlns:xlink="http://www.w3.org/1999/xlink" x="0px" y="0px" viewBox="0 0 300 349.787"
	 overflow="visible" xml:space="preserve">
<g>
	<path fill="#FFFFFF" fill-opacity="0.7" d="M52.769,333.296c0,0-1.578-0.518-2.51-1.673c-1.364-1.689-1.983-2.577-2.537-2.634
		l0-0.002c-0.002,0-0.004,0.001-0.005,0.001c-0.002,0-0.004-0.001-0.005-0.001l0,0.002c-0.553,0.058-1.173,0.945-2.537,2.634
		c-0.932,1.154-2.51,1.673-2.51,1.673s-0.346,0.163,0.107,0.313c0.883,0.293,1.787,0.819,2.403,1.581
		c1.343,1.661,1.964,2.545,2.511,2.627l0,0.01c0.004,0,0.008-0.002,0.013-0.002c0.004,0,0.009,0.002,0.013,0.002v-0.004
		c0.002,0,0.004-0.001,0.005-0.001c0.002,0,0.004,0.001,0.005,0.001v0.004c0.004,0,0.009-0.002,0.013-0.002
		c0.004,0,0.008,0.002,0.013,0.002l0-0.01c0.547-0.082,1.168-0.966,2.511-2.627c0.616-0.762,1.52-1.288,2.403-1.581
		C53.116,333.459,52.769,333.296,52.769,333.296z"/>
	<path fill="#FFFFFF" fill-opacity="0.7" d="M208.793,332.642c-0.051-0.025-0.103-0.049-0.151-0.075
		c-1.43-0.783-2.092-1.2-2.675-1.239l0-0.005c-0.004,0-0.009,0.001-0.014,0.001c-0.004,0-0.007,0-0.011-0.001v0c0,0-0.001,0-0.001,0
		c0,0-0.001,0-0.001,0v0c-0.004,0-0.007,0.001-0.011,0.001c-0.004,0-0.009-0.001-0.014-0.001l0,0.005
		c-0.582,0.039-1.244,0.456-2.675,1.239c-0.048,0.026-0.1,0.05-0.151,0.075c1.062-0.034,2.094-0.066,2.852-0.09
		C206.699,332.576,207.73,332.608,208.793,332.642z"/>
	<path fill="#FF0046" fill-opacity="0.7" d="M211.201,333.313c-0.872-0.128-1.76-0.352-2.409-0.67
		c-1.059-0.034-2.088-0.066-2.845-0.09v0c-0.002,0-0.005,0-0.007,0c-0.002,0-0.005,0-0.007,0v0c-0.757,0.024-1.785,0.056-2.845,0.09
		c-0.648,0.318-1.537,0.542-2.409,0.67c-0.483,0.071-0.114,0.148-0.114,0.148s1.681,0.244,2.674,0.789
		c1.446,0.793,2.107,1.211,2.694,1.241v0.001c0.002,0,0.004,0,0.006,0l0-0.001c0,0,0.001,0,0.001,0c0,0,0.001,0,0.001,0l0,0.001
		c0.002,0,0.004,0,0.006,0v-0.001c0.587-0.03,1.248-0.448,2.694-1.241c0.993-0.544,2.674-0.789,2.674-0.789
		S211.684,333.384,211.201,333.313z"/>
	<path fill="#FFFFFF" fill-opacity="0.7" d="M200.498,320.954c-0.94-0.253-1.903-0.707-2.559-1.365
		c-1.4-1.403-2.063-2.159-2.637-2.257v-0.015c-0.002,0-0.004-0.001-0.006-0.001v-0.003c-0.004,0-0.009,0.001-0.014,0.001
		c-0.004,0-0.009-0.001-0.014-0.001l0,0.009c-0.001,0-0.002,0.001-0.003,0.001c-0.001,0-0.002-0.001-0.003-0.001l0-0.009
		c-0.004,0-0.009,0.001-0.014,0.001c-0.004,0-0.009-0.001-0.014-0.001v0.003c-0.002,0-0.004,0.001-0.006,0.001v0.015
		c-0.574,0.098-1.237,0.854-2.637,2.257c-0.656,0.658-1.619,1.112-2.559,1.365c-0.483,0.13-0.114,0.27-0.114,0.27
		s1.681,0.447,2.674,1.444c1.4,1.405,2.063,2.161,2.637,2.258v0.016c0.002,0,0.004,0.001,0.006,0.001l0-0.002
		c0.01-0.001,0.02-0.006,0.03-0.007c0.01,0.001,0.02,0.006,0.03,0.007l0,0.002c0.002,0,0.004-0.001,0.006-0.001v-0.016
		c0.574-0.098,1.237-0.853,2.637-2.258c0.993-0.996,2.674-1.444,2.674-1.444S200.981,321.084,200.498,320.954z"/>
	<path fill="#FF0046" fill-opacity="0.7" d="M152.883,323.237v0.009c0.012,0.005,0.023,0.01,0.035,0.015
		C152.907,323.252,152.893,323.245,152.883,323.237z"/>
	<path fill="#FFFFFF" fill-opacity="0.7" d="M153.323,323.423c-0.141-0.055-0.276-0.109-0.404-0.163
		C153.001,323.315,153.136,323.369,153.323,323.423z"/>
	<path fill="#FF0046" fill-opacity="0.7" d="M152.807,323.237v0.009c-0.012,0.005-0.023,0.01-0.035,0.015
		C152.783,323.252,152.797,323.245,152.807,323.237z"/>
	<path fill="#FFFFFF" fill-opacity="0.7" d="M152.367,323.423c0.141-0.055,0.276-0.109,0.404-0.163
		C152.689,323.315,152.554,323.369,152.367,323.423z"/>
	<path fill="#FFFFFF" fill-opacity="0.7" d="M158.188,321.032c0,0-1.681-0.447-2.674-1.444c-1.396-1.4-2.058-2.155-2.631-2.257
		v-0.017c-0.002,0-0.004-0.001-0.006-0.001l0,0.002c-0.011,0.001-0.022,0.006-0.033,0.008c-0.011-0.001-0.022-0.007-0.033-0.008
		l0-0.002c-0.002,0-0.004,0.001-0.006,0.001v0.017c-0.573,0.102-1.235,0.857-2.631,2.257c-0.993,0.996-2.674,1.444-2.674,1.444
		s-0.369,0.14,0.114,0.27c0.94,0.253,1.903,0.707,2.559,1.365c0.445,0.446,0.809,0.819,1.126,1.135
		c0.581-0.187,1.1-0.386,1.543-0.572c0.442,0.187,0.962,0.385,1.543,0.572c0.317-0.316,0.681-0.689,1.126-1.135
		c0.656-0.658,1.619-1.112,2.559-1.365C158.557,321.172,158.188,321.032,158.188,321.032z"/>
	<path fill="#FF0046" fill-opacity="0.7" d="M154.388,323.802c-0.565-0.182-1.07-0.374-1.505-0.557v-0.032
		c-0.012,0.005-0.026,0.011-0.038,0.016c-0.012-0.005-0.026-0.011-0.038-0.016v0.032c-0.434,0.182-0.94,0.375-1.505,0.557
		c0.677,0.674,1.114,1.049,1.505,1.119v0.019c0.002,0,0.004,0.001,0.006,0.001v0.003c0.004,0,0.009-0.001,0.014-0.002
		c0.004,0,0.009,0.001,0.014,0.002l0-0.009c0.002,0,0.004-0.002,0.006-0.002c0.002,0,0.004,0.002,0.006,0.002l0,0.009
		c0.005,0,0.009-0.001,0.014-0.002c0.004,0,0.009,0.001,0.014,0.002v-0.003c0.002,0,0.004-0.001,0.006-0.001v-0.019
		C153.274,324.85,153.711,324.476,154.388,323.802z"/>
	<path fill="#FFFFFF" fill-opacity="0.7" d="M179.756,321.01c0,0-1.737-0.55-2.764-1.776c-1.502-1.793-2.184-2.736-2.793-2.797
		l0-0.002c-0.002,0-0.004,0.001-0.006,0.001c-0.002,0-0.004-0.001-0.006-0.001l0,0.002c-0.609,0.061-1.291,1.004-2.793,2.797
		c-1.026,1.226-2.764,1.776-2.764,1.776s-0.381,0.173,0.118,0.332c0.972,0.311,1.967,0.87,2.646,1.679
		c1.479,1.764,2.163,2.703,2.765,2.79l0,0.01c0.005,0,0.009-0.002,0.014-0.002c0.005,0,0.009,0.002,0.014,0.002v-0.004
		c0.002,0,0.004-0.001,0.006-0.001c0.002,0,0.004,0.001,0.006,0.001v0.004c0.005,0,0.009-0.002,0.014-0.002
		c0.005,0,0.009,0.002,0.014,0.002l0-0.01c0.602-0.087,1.286-1.026,2.765-2.79c0.678-0.809,1.674-1.368,2.646-1.679
		C180.137,321.182,179.756,321.01,179.756,321.01z"/>
	<path fill="#FFFFFF" fill-opacity="0.7" d="M95.09,307.175c0,0-1.578-0.551-2.51-1.777c-1.364-1.794-1.983-2.738-2.537-2.799
		v-0.002c-0.002,0-0.004,0.001-0.005,0.001c-0.002,0-0.004-0.001-0.005-0.001l0,0.002c-0.553,0.061-1.173,1.004-2.537,2.799
		c-0.932,1.226-2.51,1.777-2.51,1.777s-0.346,0.173,0.107,0.333c0.883,0.311,1.787,0.871,2.403,1.68
		c1.343,1.765,1.964,2.704,2.511,2.792l0,0.01c0.004,0,0.008-0.002,0.013-0.002c0.004,0,0.009,0.002,0.013,0.002v-0.004
		c0.002,0,0.004-0.001,0.005-0.001c0.002,0,0.004,0.001,0.005,0.001v0.004c0.004,0,0.008-0.002,0.013-0.002
		c0.004,0,0.008,0.002,0.013,0.002l0-0.01c0.547-0.087,1.168-1.027,2.511-2.792c0.616-0.81,1.52-1.369,2.403-1.68
		C95.436,307.348,95.09,307.175,95.09,307.175z"/>
	<path fill="#FFFFFF" fill-opacity="0.7" d="M84.62,307.256c0,0-1.578-0.46-2.51-1.484c-1.364-1.498-1.983-2.285-2.537-2.336
		l0-0.002c-0.002,0-0.004,0.001-0.005,0.001v0.024c-0.001,0-0.001,0-0.002,0l0,0.002c-0.553,0.051-1.173,0.839-2.537,2.337
		c-0.932,1.024-2.51,1.484-2.51,1.484s-0.346,0.144,0.107,0.278c0.883,0.26,1.787,0.727,2.403,1.403
		c0.354,0.388,0.655,0.725,0.921,1.017c0.594-0.175,1.148-0.349,1.621-0.503v-0.023c0.473,0.153,1.025,0.327,1.618,0.502
		c0.265-0.292,0.567-0.629,0.921-1.017c0.616-0.676,1.52-1.143,2.403-1.403C84.967,307.401,84.62,307.256,84.62,307.256z"/>
	<path fill="#FF0046" fill-opacity="0.7" d="M81.19,309.954c-0.594-0.175-1.621-0.478-1.621-0.478
		c-0.473,0.153-1.025,0.327-1.618,0.502c0.742,0.817,1.188,1.259,1.591,1.313l0,0.009c0.004,0,0.008-0.001,0.013-0.002
		c0.004,0,0.009,0.001,0.013,0.002v-0.003c0.002,0,0.004-0.001,0.005-0.001v-0.024c0.001,0,0.001,0,0.002,0v0.003
		c0.004,0,0.009-0.001,0.013-0.002c0.004,0,0.008,0.001,0.013,0.002l0-0.009C80.002,311.214,80.448,310.771,81.19,309.954z"/>
	<path fill="#FFFFFF" fill-opacity="0.7" d="M189.945,307.119c-0.94-0.253-1.903-0.707-2.559-1.365
		c-1.43-1.433-2.092-2.197-2.675-2.267l0-0.009c-0.005,0-0.009,0.001-0.014,0.002c-0.004,0-0.009-0.001-0.014-0.002v0.003
		c-0.002,0-0.004,0.001-0.006,0.001c-0.002,0-0.004-0.001-0.006-0.001v-0.003c-0.004,0-0.009,0.001-0.014,0.002
		c-0.004,0-0.009-0.001-0.014-0.002l0,0.009c-0.582,0.071-1.244,0.834-2.675,2.267c-0.656,0.658-1.619,1.112-2.559,1.365
		c-0.483,0.13-0.114,0.27-0.114,0.27s1.681,0.447,2.674,1.443c1.453,1.457,2.113,2.224,2.702,2.273l0,0.002
		c0.002,0,0.004-0.001,0.006-0.001c0.002,0,0.004,0.001,0.006,0.001l0-0.002c0.589-0.05,1.249-0.816,2.702-2.273
		c0.993-0.996,2.674-1.443,2.674-1.443S190.428,307.249,189.945,307.119z"/>
	<path fill="#FFFFFF" fill-opacity="0.7" d="M60.803,296.348c0.616-0.975,1.52-1.648,2.403-2.023
		c0.453-0.193,0.107-0.401,0.107-0.401s-1.578-0.663-2.51-2.14c-1.364-2.161-1.983-3.296-2.537-3.37v-0.002
		c-0.002,0-0.004,0.001-0.005,0.001c-0.002,0-0.004-0.001-0.005-0.001v0.002c-0.553,0.074-1.173,1.209-2.537,3.37
		c-0.932,1.477-2.51,2.14-2.51,2.14s-0.346,0.208,0.107,0.401c0.883,0.375,1.787,1.048,2.403,2.023
		c0.542,0.857,0.962,1.544,1.311,2.075l2.546-0.128C59.909,297.783,60.306,297.134,60.803,296.348z"/>
	<path fill="#FF0046" fill-opacity="0.7" d="M58.231,299.722c0.004,0,0.008-0.002,0.013-0.002c0.004,0,0.008,0.002,0.013,0.002
		v-0.004c0.002,0,0.004-0.001,0.005-0.001c0.002,0,0.004,0.001,0.005,0.001v0.004c0.004,0,0.008-0.002,0.013-0.002
		c0.004,0,0.008,0.002,0.013,0.002l0-0.013c0.345-0.066,0.72-0.541,1.285-1.414l-2.546,0.128c0.517,0.787,0.874,1.223,1.2,1.286
		L58.231,299.722z"/>
	<path fill="#FFFFFF" fill-opacity="0.7" d="M73.842,294.01c0,0-1.578-0.268-2.51-0.863c-1.364-0.872-1.983-1.33-2.537-1.36l0-0.001
		c-0.002,0-0.004,0-0.005,0c-0.002,0-0.004,0-0.005,0l0,0.001c-0.553,0.03-1.173,0.488-2.537,1.36
		c-0.932,0.596-2.51,0.863-2.51,0.863s-0.346,0.084,0.107,0.162c0.883,0.151,1.787,0.423,2.403,0.816
		c1.343,0.857,1.964,1.314,2.511,1.356l0,0.005c0.004,0,0.008-0.001,0.013-0.001c0.004,0,0.008,0.001,0.013,0.001v-0.002
		c0.002,0,0.004,0,0.005,0c0.002,0,0.004,0,0.005,0v0.002c0.004,0,0.008-0.001,0.013-0.001c0.004,0,0.008,0.001,0.013,0.001l0-0.005
		c0.547-0.042,1.168-0.499,2.511-1.356c0.616-0.393,1.52-0.665,2.403-0.816C74.189,294.093,73.842,294.01,73.842,294.01z"/>
	<path fill="#FFFFFF" fill-opacity="0.7" d="M52.784,293.822c0,0-1.578-1.139-2.51-3.675c-1.364-3.711-1.983-5.661-2.537-5.788
		l0-0.004c-0.002,0-0.004,0.002-0.005,0.002c-0.002,0-0.004-0.002-0.005-0.002l0,0.004c-0.553,0.126-1.173,2.077-2.537,5.788
		c-0.932,2.536-2.51,3.675-2.51,3.675s-0.346,0.357,0.107,0.688c0.883,0.644,1.787,1.8,2.403,3.475
		c0.101,0.275,0.197,0.538,0.291,0.793l2.251,0.113l2.251-0.113c0.093-0.256,0.189-0.518,0.291-0.793
		c0.616-1.674,1.52-2.831,2.403-3.475C53.13,294.179,52.784,293.822,52.784,293.822z"/>
	<path fill="#FF0046" fill-opacity="0.7" d="M49.983,298.778l-2.251,0.113l-2.251-0.113c1.144,3.136,1.715,4.812,2.221,4.979
		l0,0.022c0.004,0,0.008-0.003,0.013-0.004c0.004,0.001,0.009,0.003,0.013,0.004v-0.008c0.002,0,0.004-0.002,0.005-0.002
		c0.002,0,0.004,0.002,0.005,0.002v0.008c0.004,0,0.009-0.003,0.013-0.004c0.004,0.001,0.008,0.003,0.013,0.004l0-0.022
		C48.268,303.59,48.839,301.914,49.983,298.778z"/>
	<path fill="#FF0046" fill-opacity="0.7" d="M26.392,277.386v0.27C31.283,278.124,29.56,277.905,26.392,277.386z"/>
	<path fill="#FFFFFF" fill-opacity="0.7" d="M39.613,277.447c-1.381-2.538-2.009-3.872-2.569-3.958l0-0.003
		c-0.002,0-0.004,0.001-0.005,0.001c-0.002,0-0.004-0.001-0.005-0.001v0.003c-0.56,0.086-1.188,1.421-2.569,3.958
		c-0.175,0.322-0.374,0.611-0.58,0.869c2.398,0.18,4.784,0.33,6.641,0.38C40.203,278.353,39.881,277.94,39.613,277.447z"/>
	<path fill="#FF0046" fill-opacity="0.7" d="M32.031,280.431c0.894,0.44,1.809,1.231,2.433,2.376c1.36,2.496,1.99,3.825,2.543,3.948
		l0,0.015c0.004,0,0.009-0.002,0.013-0.003c0.004,0,0.009,0.002,0.013,0.003v-0.005c0.002,0,0.004-0.001,0.005-0.001
		c0.002,0,0.004,0.001,0.005,0.001v0.005c0.004,0,0.009-0.002,0.013-0.003c0.004,0,0.009,0.002,0.013,0.003l0-0.015
		c0.554-0.123,1.183-1.452,2.543-3.948c0.624-1.145,1.54-1.936,2.433-2.376c0.459-0.226,0.109-0.47,0.109-0.47
		s-0.818-0.402-1.63-1.264c-1.856-0.051-4.243-0.2-6.641-0.38c-0.903,1.128-1.962,1.645-1.962,1.645S31.571,280.205,32.031,280.431z
		"/>
	<path fill="#FFFFFF" fill-opacity="0.7" d="M29.225,277.068c-1.398-2.944-2.032-4.492-2.599-4.592l0-0.003
		c-0.002,0-0.004,0.001-0.005,0.002v0c-0.002,0-0.004-0.001-0.005-0.002l0,0.003c-0.567,0.1-1.202,1.648-2.599,4.592
		c-0.151,0.318-0.319,0.605-0.494,0.868c1.148-0.1,2.206-0.196,3.099-0.279v0c0.893,0.083,1.951,0.18,3.099,0.279
		C29.544,277.672,29.375,277.386,29.225,277.068z"/>
	<path fill="#FF0046" fill-opacity="0.7" d="M31.797,279.984c0,0-1.146-0.644-2.078-2.048c-1.148-0.1-2.206-0.196-3.099-0.279v0
		c-0.893,0.083-1.951,0.18-3.099,0.279c-0.933,1.404-2.078,2.048-2.078,2.048s-0.355,0.283,0.11,0.546
		c0.904,0.511,1.831,1.428,2.462,2.757c1.376,2.896,2.013,4.437,2.573,4.58l0,0.017c0.004,0,0.009-0.003,0.013-0.003
		c0.004,0,0.009,0.003,0.013,0.003v-0.006c0.002,0,0.004-0.001,0.005-0.002v0c0.002,0,0.004,0.001,0.005,0.002v0.006
		c0.004,0,0.009-0.003,0.013-0.003c0.004,0,0.009,0.003,0.013,0.003l0-0.017c0.56-0.143,1.197-1.685,2.573-4.58
		c0.631-1.328,1.558-2.246,2.462-2.757C32.152,280.267,31.797,279.984,31.797,279.984z"/>
	<path fill="#FFFFFF" fill-opacity="0.7" d="M221.846,279.979c-0.94-0.289-1.903-0.809-2.559-1.561
		c-1.43-1.639-2.092-2.512-2.675-2.593l0-0.01c-0.004,0-0.009,0.001-0.014,0.002c-0.004,0-0.009-0.002-0.014-0.002v0.003
		c-0.002,0-0.004,0.001-0.006,0.001c-0.002,0-0.004-0.001-0.006-0.001v-0.003c-0.004,0-0.009,0.001-0.014,0.002
		c-0.004,0-0.009-0.002-0.014-0.002l0,0.01c-0.582,0.081-1.244,0.954-2.675,2.593c-0.656,0.752-1.619,1.272-2.559,1.561
		c-0.483,0.149-0.114,0.309-0.114,0.309s0.178,0.055,0.451,0.166h4.93l4.93,0c0.272-0.111,0.451-0.166,0.451-0.166
		S222.329,280.128,221.846,279.979z"/>
	<path fill="#FF0046" fill-opacity="0.7" d="M216.579,280.454h-4.93c0.568,0.232,1.552,0.715,2.223,1.485
		c1.453,1.667,2.113,2.543,2.702,2.6l0,0.002c0.002,0,0.004-0.001,0.006-0.001c0.002,0,0.004,0.001,0.006,0.001l0-0.002
		c0.589-0.057,1.249-0.933,2.702-2.6c0.671-0.77,1.655-1.252,2.223-1.485L216.579,280.454z"/>
	<path fill="#FFFFFF" fill-opacity="0.7" d="M20.93,264.79c0,0-1.578-0.348-2.51-1.124c-1.364-1.135-1.983-1.731-2.537-1.77l0-0.001
		c-0.002,0-0.004,0.001-0.005,0.001v5.937c0.002,0,0.004,0.001,0.005,0.001v0.002c0.004,0,0.009-0.001,0.013-0.001
		c0.004,0,0.008,0.001,0.013,0.001l0-0.007c0.547-0.055,1.168-0.649,2.511-1.765c0.616-0.512,1.52-0.866,2.403-1.063
		C21.277,264.899,20.93,264.79,20.93,264.79z"/>
	<path fill="#FFFFFF" fill-opacity="0.7" d="M221.962,264.974c0,0,1.681,0.512,2.674,1.651c1.453,1.667,2.113,2.543,2.702,2.6
		l0,0.002c0.002,0,0.004-0.001,0.006-0.001v-8.721c-0.002,0-0.004-0.001-0.006-0.001v-0.003c-0.004,0-0.009,0.001-0.014,0.002
		c-0.004,0-0.009-0.002-0.014-0.002l0,0.01c-0.582,0.081-1.244,0.954-2.675,2.593c-0.656,0.752-1.619,1.272-2.559,1.561
		C221.593,264.814,221.962,264.974,221.962,264.974z"/>
	<path fill="#FFFFFF" fill-opacity="0.7" d="M221.856,264.756c0,0-1.737-0.502-2.764-1.62c-1.502-1.636-2.184-2.496-2.793-2.552
		v-0.002c-0.002,0-0.004,0.001-0.006,0.001c-0.002,0-0.004-0.001-0.006-0.001l0,0.002c-0.609,0.056-1.291,0.916-2.793,2.552
		c-1.026,1.118-2.764,1.62-2.764,1.62s-0.381,0.157,0.118,0.303c0.972,0.284,1.967,0.794,2.646,1.532
		c1.479,1.609,2.163,2.466,2.765,2.545l0,0.01c0.005,0,0.009-0.001,0.014-0.002c0.005,0,0.009,0.001,0.014,0.002v-0.003
		c0.002,0,0.004-0.001,0.006-0.001c0.002,0,0.004,0.001,0.006,0.001v0.003c0.005,0,0.009-0.001,0.014-0.002
		c0.005,0,0.009,0.001,0.014,0.002l0-0.01c0.602-0.08,1.286-0.936,2.765-2.545c0.678-0.738,1.674-1.248,2.646-1.532
		C222.238,264.914,221.856,264.756,221.856,264.756z"/>
	<path fill="#FFFFFF" fill-opacity="0.7" d="M126.585,264.76c0,0-1.737-0.486-2.764-1.568c-1.502-1.583-2.184-2.416-2.793-2.47
		l0-0.002c-0.002,0-0.004,0.001-0.006,0.001c-0.002,0-0.004-0.001-0.006-0.001l0,0.002c-0.609,0.054-1.291,0.886-2.793,2.47
		c-1.026,1.082-2.764,1.568-2.764,1.568s-0.381,0.152,0.118,0.294c0.972,0.275,1.967,0.768,2.646,1.483
		c1.479,1.557,2.163,2.386,2.765,2.463l0,0.009c0.005,0,0.009-0.001,0.014-0.002c0.005,0,0.009,0.001,0.014,0.002v-0.003
		c0.002,0,0.004-0.001,0.006-0.001c0.002,0,0.004,0.001,0.006,0.001v0.003c0.005,0,0.009-0.001,0.014-0.002
		c0.005,0,0.009,0.001,0.014,0.002l0-0.009c0.602-0.077,1.286-0.906,2.765-2.463c0.678-0.714,1.674-1.208,2.646-1.483
		C126.966,264.912,126.585,264.76,126.585,264.76z"/>
	<path fill="#FFFFFF" fill-opacity="0.7" d="M137.22,264.76c0,0-1.737-0.486-2.764-1.568c-1.502-1.583-2.184-2.416-2.793-2.47
		v-0.002c-0.002,0-0.004,0.001-0.006,0.001c-0.002,0-0.004-0.001-0.006-0.001l0,0.002c-0.609,0.054-1.291,0.886-2.793,2.47
		c-1.026,1.082-2.764,1.568-2.764,1.568s-0.381,0.152,0.118,0.294c0.972,0.275,1.967,0.768,2.646,1.483
		c1.479,1.557,2.163,2.386,2.765,2.463l0,0.009c0.005,0,0.009-0.001,0.014-0.002c0.005,0,0.009,0.001,0.014,0.002v-0.003
		c0.002,0,0.004-0.001,0.006-0.001c0.002,0,0.004,0.001,0.006,0.001v0.003c0.005,0,0.009-0.001,0.014-0.002
		c0.005,0,0.009,0.001,0.014,0.002l0-0.009c0.602-0.077,1.286-0.906,2.765-2.463c0.678-0.714,1.674-1.208,2.646-1.483
		C137.601,264.912,137.22,264.76,137.22,264.76z"/>
	<path fill="#FFFFFF" fill-opacity="0.7" d="M45.599,247.606"/>
	<path fill="#FFFFFF" fill-opacity="0.7" d="M74.522,247.424"/>
	<path fill="#FFFFFF" fill-opacity="0.7" d="M126.585,248.371c0,0-1.737-0.713-2.764-2.3c-1.502-2.322-2.184-3.543-2.793-3.622
		l0-0.003c-0.002,0-0.004,0.001-0.006,0.001c-0.002,0-0.004-0.001-0.006-0.001l0,0.003c-0.609,0.079-1.291,1.3-2.793,3.622
		c-1.026,1.587-2.764,2.3-2.764,2.3s-0.381,0.223,0.118,0.43c0.972,0.403,1.967,1.127,2.646,2.174
		c1.479,2.284,2.163,3.5,2.765,3.613l0,0.014c0.005,0,0.009-0.002,0.014-0.002c0.005,0,0.009,0.002,0.014,0.002v-0.005
		c0.002,0,0.004-0.001,0.006-0.001c0.002,0,0.004,0.001,0.006,0.001v0.005c0.005,0,0.009-0.002,0.014-0.002
		c0.005,0,0.009,0.002,0.014,0.002l0-0.014c0.602-0.113,1.286-1.329,2.765-3.613c0.678-1.048,1.674-1.772,2.646-2.174
		C126.966,248.594,126.585,248.371,126.585,248.371z"/>
	<path fill="#FFFFFF" fill-opacity="0.7" d="M95.503,248.371c0,0-1.659-0.713-2.639-2.3c-1.434-2.322-2.085-3.543-2.667-3.622
		l0-0.003c-0.002,0-0.004,0.001-0.006,0.001c-0.002,0-0.004-0.001-0.006-0.001l0,0.003c-0.582,0.079-1.233,1.3-2.667,3.622
		c-0.98,1.587-2.639,2.3-2.639,2.3s-0.364,0.223,0.113,0.43c0.928,0.403,1.878,1.127,2.526,2.174c1.412,2.284,2.065,3.5,2.64,3.613
		l0,0.014c0.004,0,0.009-0.002,0.013-0.002c0.004,0,0.009,0.002,0.013,0.002v-0.005c0.002,0,0.004-0.001,0.006-0.001
		c0.002,0,0.004,0.001,0.006,0.001v0.005c0.004,0,0.009-0.002,0.013-0.002c0.004,0,0.009,0.002,0.013,0.002l0-0.014
		c0.575-0.113,1.228-1.329,2.64-3.613c0.648-1.048,1.598-1.772,2.526-2.174C95.867,248.594,95.503,248.371,95.503,248.371z"/>
	<path fill="#FFFFFF" fill-opacity="0.7" d="M84.62,248.381c0,0-1.578-0.663-2.51-2.14c-1.364-2.161-1.983-3.296-2.537-3.37l0-0.002
		c-0.002,0-0.004,0.001-0.005,0.001c-0.002,0-0.004-0.001-0.005-0.001l0,0.002c-0.553,0.074-1.173,1.209-2.537,3.37
		c-0.932,1.477-2.51,2.14-2.51,2.14s-0.346,0.208,0.107,0.401c0.883,0.375,1.787,1.048,2.403,2.023
		c1.343,2.125,1.964,3.256,2.511,3.361l0,0.013c0.004,0,0.008-0.002,0.013-0.002c0.004,0,0.008,0.002,0.013,0.002v-0.004
		c0.002,0,0.004-0.001,0.005-0.001c0.002,0,0.004,0.001,0.005,0.001v0.004c0.004,0,0.008-0.002,0.013-0.002
		c0.004,0,0.008,0.002,0.013,0.002l0-0.013c0.547-0.105,1.168-1.236,2.511-3.361c0.616-0.975,1.52-1.648,2.403-2.023
		C84.967,248.589,84.62,248.381,84.62,248.381z"/>
	<path fill="#FFFFFF" fill-opacity="0.7" d="M42.162,248.403c0,0-1.578-0.563-2.51-1.816c-1.364-1.833-1.983-2.797-2.537-2.86
		l0-0.002c-0.002,0-0.004,0.001-0.005,0.001c-0.002,0-0.004-0.001-0.005-0.001l0,0.002c-0.553,0.062-1.173,1.026-2.537,2.86
		c-0.932,1.253-2.51,1.816-2.51,1.816s-0.346,0.176,0.107,0.34c0.883,0.318,1.787,0.889,2.403,1.717
		c1.343,1.803,1.964,2.763,2.511,2.852l0,0.011c0.004,0,0.008-0.002,0.013-0.002c0.004,0,0.009,0.002,0.013,0.002v-0.004
		c0.002,0,0.004-0.001,0.005-0.001c0.002,0,0.004,0.001,0.005,0.001v0.004c0.004,0,0.009-0.002,0.013-0.002
		c0.004,0,0.008,0.002,0.013,0.002l0-0.011c0.547-0.089,1.168-1.049,2.511-2.852c0.616-0.827,1.52-1.399,2.403-1.717
		C42.508,248.58,42.162,248.403,42.162,248.403z"/>
	<path fill="#FFFFFF" fill-opacity="0.7" d="M222.122,248.627c0,0,1.578,0.48,2.51,1.55c1.364,1.565,1.983,2.388,2.537,2.441
		l0,0.002c0.002,0,0.004-0.001,0.005-0.001v-8.187c-0.002,0-0.004-0.001-0.005-0.001v-0.003c-0.004,0-0.009,0.001-0.013,0.002
		c-0.004,0-0.008-0.001-0.013-0.002l0,0.009c-0.547,0.076-1.168,0.896-2.511,2.435c-0.616,0.706-1.52,1.194-2.403,1.465
		C221.776,248.477,222.122,248.627,222.122,248.627z"/>
	<path fill="#FFFFFF" fill-opacity="0.7" d="M147.833,248.438c0,0-1.737-0.399-2.764-1.288c-1.502-1.3-2.184-1.984-2.793-2.028
		l0-0.001c-0.002,0-0.004,0.001-0.006,0.001c-0.002,0-0.004-0.001-0.006-0.001l0,0.001c-0.609,0.044-1.291,0.728-2.793,2.028
		c-1.026,0.889-2.764,1.288-2.764,1.288s-0.381,0.125,0.118,0.241c0.972,0.226,1.967,0.631,2.646,1.218
		c1.479,1.279,2.163,1.96,2.765,2.023l0,0.008c0.005,0,0.009-0.001,0.014-0.001c0.005,0,0.009,0.001,0.014,0.001v-0.003
		c0.002,0,0.004-0.001,0.006-0.001c0.002,0,0.004,0.001,0.006,0.001v0.003c0.005,0,0.009-0.001,0.014-0.001
		c0.005,0,0.009,0.001,0.014,0.001l0-0.008c0.602-0.063,1.286-0.744,2.765-2.023c0.678-0.587,1.674-0.992,2.646-1.218
		C148.214,248.563,147.833,248.438,147.833,248.438z"/>
	<path fill="#FFFFFF" fill-opacity="0.7" d="M137.22,229.877c0,0-1.737-0.754-2.764-2.434c-1.502-2.457-2.184-3.749-2.793-3.832
		v-0.003c-0.002,0-0.004,0.001-0.006,0.001c-0.002,0-0.004-0.001-0.006-0.001l0,0.003c-0.609,0.084-1.291,1.375-2.793,3.832
		c-1.026,1.679-2.764,2.434-2.764,2.434s-0.381,0.236,0.118,0.456c0.972,0.426,1.967,1.192,2.646,2.301
		c1.479,2.416,2.163,3.703,2.765,3.822l0,0.014c0.005,0,0.009-0.002,0.014-0.003c0.005,0,0.009,0.002,0.014,0.003v-0.005
		c0.002,0,0.004-0.001,0.006-0.001c0.002,0,0.004,0.001,0.006,0.001v0.005c0.005,0,0.009-0.002,0.014-0.003
		c0.005,0,0.009,0.002,0.014,0.003l0-0.014c0.602-0.119,1.286-1.406,2.765-3.822c0.678-1.109,1.674-1.874,2.646-2.301
		C137.601,230.114,137.22,229.877,137.22,229.877z"/>
	<path fill="#FFFFFF" fill-opacity="0.7" d="M210.978,230.063c0,0-1.578-0.262-2.51-0.846c-1.364-0.855-1.983-1.304-2.537-1.333
		l0-0.001c-0.002,0-0.004,0-0.005,0v0.035c-3.602-0.62-6.769-1.242-10.372-2.482c-3.611-1.243-6.783-3.545-10.395-4.973
		c-3.611-1.427-7.222-3.591-10.833-3.591c-3.621,0-7.242,4.142-10.863,4.697c-3.611,0.553-10.833,0.829-10.833,0.829
		c0.02,0,0.036,0.012,0.055,0.016c-0.603,0.141-1.286,1.688-2.766,4.605c-1.026,2.023-2.764,2.932-2.764,2.932
		s-0.381,0.285,0.118,0.549c0.972,0.514,1.967,1.436,2.646,2.772c0.754,1.484,1.3,2.61,1.735,3.381c0.346-0.002,0.198-0.001,0,0
		c0.418,0.726,0.735,1.131,1.03,1.2l0,0.017c0.005,0,0.009-0.002,0.014-0.003c0.005,0,0.009,0.003,0.014,0.003v-0.006
		c0.002,0,0.004-0.001,0.006-0.002c0.002,0,0.004,0.001,0.006,0.002v0.006c0.005,0,0.009-0.002,0.014-0.003
		c0.005,0,0.009,0.003,0.014,0.003l0-0.017c0.285-0.067,5.274,0.12,6.032-0.516c1.938,0.287,3.847,0.597,4.679,0.809
		c3.621,0.923,7.242,5.249,10.863,5.249c3.611,0,7.222-2.164,10.833-3.591c3.611-1.427,6.783-3.73,10.395-4.973
		c3.604-1.241,6.771-1.862,10.372-2.482v0.008c0.002,0,0.004,0,0.005,0.001v0.002c0.004,0,0.009-0.001,0.013-0.001
		c0.004,0,0.008,0.001,0.013,0.001l0-0.005c0.547-0.042,1.168-0.489,2.511-1.329c0.616-0.386,1.52-0.652,2.403-0.8
		C211.324,230.145,210.978,230.063,210.978,230.063z"/>
	<path fill="#FF0046" fill-opacity="0.7" d="M47.593,211.329c3.008-0.23,7.332-0.829,10.34-0.829c3.016,0,7.348,4.973,10.364,4.973
		c-3.016,0-7.348-5.525-10.364-5.525C54.924,209.948,50.601,211.007,47.593,211.329z"/>
	<path fill="#FF0046" fill-opacity="0.7" d="M47.593,211.329c-3.008,0.23-7.332,0.322-10.34,0.553
		C40.261,211.652,44.585,211.652,47.593,211.329z"/>
	<path fill="#FFFFFF" fill-opacity="0.7" d="M89.854,205.252c-2.971-1.109-7.332-1.98-10.34-2.763
		c-3.008-0.783-8.209-1.934-11.217-1.934c-3.016,0-7.348,4.973-10.364,4.973c-3.008,0-7.332-0.599-10.34-0.829
		c-3.008-0.23-7.332-0.322-10.34-0.553c-3.008-0.23-7.77-0.829-10.778-0.829c-3.016,0-7.787,1.381-10.803,2.763v3.868
		c3.016,1.381,7.787,2.763,10.803,2.763c3.008,0,7.77-0.599,10.778-0.829c3.008-0.23,7.332-0.23,10.34-0.553
		c3.008-0.322,7.332-1.381,10.34-1.381c3.016,0,7.348,5.525,10.364,5.525c3.008,0,8.209-2.532,11.217-3.591
		c3.008-1.059,7.332-2.394,10.34-2.763c3.008-0.368,5.482-0.726,5.929-0.837C92.315,208.014,91.535,206.072,89.854,205.252z"/>
	<path fill="#FFFFFF" fill-opacity="0.7" d="M144.904,206.571c-1.502-1.376-2.184-2.1-2.793-2.147l0-0.002
		c-0.002,0-0.004,0.001-0.006,0.001v-0.001c-0.001,0-0.002,0-0.003,0c-0.001,0-0.002,0-0.002,0v0.001
		c-6.024,0.606-15.115,1.212-21.137,1.657c-2.121,0.127-0.834,1.658-5.178,2.294c4.009,0.04,3.029,1.574,5.178,1.574
		c4.653,0,11.132-0.66,16.618-1.469c0.056,0.021,0.114,0.039,0.17,0.062c2.044-0.294,4.476-0.654,4.79-0.745l3.399-0.523
		C145.575,207.082,145.208,206.85,144.904,206.571z"/>
	<path fill="#FF0046" fill-opacity="0.7" d="M147.668,207.934c0,0-0.86-0.21-1.728-0.662l-3.834,0.466
		c-6.024,1.105-15.119,2.21-21.143,2.21c5.974,0.441,14.964,1.041,20.988,1.643c0.04,0.01,0.081,0.025,0.121,0.029l0,0.008
		c0.005,0,0.009-0.001,0.014-0.001c0.005,0,0.009,0.001,0.014,0.001v-0.003c0.002,0,0.004-0.001,0.006-0.001
		c0.002,0,0.004,0.001,0.006,0.001v0.003c0.005,0,0.009-0.001,0.014-0.001c0.005,0,0.009,0.001,0.014,0.001l0-0.008
		c0.602-0.067,1.286-0.788,2.765-2.141c0.678-0.621,1.674-1.05,2.646-1.289C148.049,208.067,147.668,207.934,147.668,207.934z"/>
	<path fill="#FF0046" fill-opacity="0.7" d="M105.659,208.263c0,0-1.523-0.091-2.423-0.293c-1.317-0.296-1.915-0.452-2.449-0.462
		l0,0c-0.002,0-0.003,0-0.005,0c-0.002,0-0.003,0-0.005,0l0,0c-0.534,0.01-1.132,0.166-2.449,0.462
		c-0.9,0.202-2.423,0.293-2.423,0.293s-0.319,0.027,0.08,0.053c-1.834,0.157-3.919,0.409-6.132,0.803
		c-3.008,0.368-7.332,1.704-10.34,2.763c-3.008,1.059-8.209,3.591-11.217,3.591c3.008,0,8.209-1.151,11.217-1.934
		c3.008-0.783,7.31-2.156,10.34-2.763c2.44-0.488,7.776-1.042,10.892-1.722c0.002,0,0.005,0,0.008,0l0,0.002
		c0.004,0,0.008,0,0.012,0c0.004,0,0.008,0,0.012,0v-0.001c0.002,0,0.003,0,0.005,0c0.002,0,0.003,0,0.005,0v0.001
		c0.004,0,0.008,0,0.012,0c0.004,0,0.008,0,0.012,0l0-0.002c0.528-0.014,1.128-0.169,2.424-0.46c0.595-0.134,1.468-0.226,2.32-0.277
		C105.994,208.292,105.659,208.263,105.659,208.263z"/>
</g>
<style>
#g-countries_2-mobile-other-img rect, #g-countries_2-mobile-other-img circle, #g-countries_2-mobile-other-img path, #g-countries_2-mobile-other-img line, #g-countries_2-mobile-other-img polyline, #g-countries_2-mobile-other-img polygon { vector-effect: non-scaling-stroke; }
</style>
</svg>

