<?xml version="1.0" encoding="utf-8"?>
<!-- Generator: Adobe Illustrator 27.4.0, SVG Export Plug-In . SVG Version: 6.00 Build 0)  -->
<svg version="1.2" baseProfile="tiny" id="g-countries_2-mobile-usa-img"
	 xmlns="http://www.w3.org/2000/svg" xmlns:xlink="http://www.w3.org/1999/xlink" x="0px" y="0px" viewBox="0 0 300 349.787"
	 overflow="visible" xml:space="preserve">
<g>
	<path fill="#FF0046" fill-opacity="0.7" d="M15.864,106.485v0.553c3.217,3.73,7.311,7.459,10.528,7.459
		c2.059,0,4.479-2.349,6.797-4.131c-2.318,1.259-4.738,2.473-6.797,2.473C23.174,112.839,19.081,109.662,15.864,106.485z"/>
	<path fill="#FF0046" fill-opacity="0.7" d="M106.662,100.051c-1.499,0.037-3.394,0.057-5.858,0.057
		c-3.208,0-7.732-5.249-10.94-5.249s-6.855,1.289-10.063,3.039c-3.208,1.75-7.732,7.459-10.94,7.459
		c-3.217,0-7.311-3.591-10.528-3.591c-3.208,0-7.293,0.875-10.501,1.934c-3.208,1.059-7.732,2.947-10.94,4.42
		c3.208-0.368,7.732-0.184,10.94-0.553c3.208-0.368,7.293-3.591,10.501-3.591c3.217,0,7.311,3.591,10.528,3.591
		c3.208,0,7.732-0.829,10.94-0.829c3.208,0,6.855,0.829,10.063,0.829s7.871-6.687,11.079-6.687
		C103.42,100.88,106.681,100.292,106.662,100.051z"/>
	<path fill="#FFFFFF" fill-opacity="0.7" d="M106.524,99.988c-1.473,0.07-3.175-0.83-5.555-0.83c-3.208,0-7.897-6.646-11.105-6.646
		s-6.855,0.829-10.063,0.829c-3.208,0-7.732-0.829-10.94-0.829c-3.217,0-7.311,3.591-10.528,3.591
		c-3.208,0-7.293-3.223-10.501-3.591c-3.208-0.368-7.732-0.184-10.94-0.553c-3.208-0.368-7.293-6.078-10.501-6.078
		c-3.217,0-7.311,3.73-10.528,7.459v13.261c3.217,3.177,7.311,6.354,10.528,6.354c3.208,0,7.293-2.947,10.501-4.42
		c3.208-1.473,7.732-3.361,10.94-4.42c3.208-1.059,7.293-1.934,10.501-1.934c3.217,0,7.311,3.591,10.528,3.591
		c3.208,0,7.732-5.709,10.94-7.459c3.208-1.75,6.855-3.039,10.063-3.039s7.732,5.249,10.94,5.249c2.464,0,4.36-0.02,5.858-0.057
		C106.644,100.233,106.706,100.047,106.524,99.988z"/>
	<path fill="#FF0046" fill-opacity="0.7" d="M216.811,89.196c-3.217,1.891-7.749,5.249-10.966,5.249
		c-3.208,0-7.293-7.735-10.501-7.735c-3.208,0-7.293,3.637-10.501,4.696s-7.732,1.658-10.94,1.658
		c-3.217,0-7.311-1.658-10.528-1.658c-3.208,0-7.293,0.276-10.501,0.276s-7.293-2.486-10.501-2.486
		c-3.208,0-7.293,1.845-10.501,3.315c-3.217,1.474-8.233,4.637-11.405,5.525c-6.253,1.752-7.448,1.634-7.651,2.341
		c0.278,0.698,4.123,2.115,7.651,3.185c3.178,0.963,8.188,4.604,11.405,6.078c3.208,1.47,7.293,2.763,10.501,2.763
		c3.208,0,7.293-3.591,10.501-3.591s7.293,0.829,10.501,0.829c3.217,0,7.311-0.829,10.528-1.105
		c3.208-0.276,7.732-0.553,10.94-0.553s7.293,4.144,10.501,4.144c3.208,0,7.293-7.735,10.501-7.735
		c3.217,0,7.749,3.911,10.966,5.802c3.208,1.885,7.293,3.705,10.501,5.525V83.118C224.104,85.214,220.019,87.31,216.811,89.196z"/>
	<path fill="#FFFFFF" fill-opacity="0.7" d="M173.903,90.301c-3.217-0.276-7.311-1.105-10.528-1.105
		c-3.208,0-7.293,0.829-10.501,0.829s-7.293-3.591-10.501-3.591c-3.208,0-7.293,1.293-10.501,2.763
		c-3.217,1.474-3.671,4.223-6.498,6.706c-0.737,0.647,3.323-1.793,6.498-3.391c3.183-1.601,7.293-3.315,10.501-3.315
		c3.208,0,7.293,2.486,10.501,2.486s7.293-0.276,10.501-0.276c3.217,0,7.311,1.658,10.528,1.658c3.208,0,7.732-0.599,10.94-1.658
		c0.863-0.285,1.79-0.758,2.745-1.295c-0.955,0.438-1.882,0.742-2.745,0.742C181.634,90.854,177.111,90.577,173.903,90.301z"/>
	<path fill="#FFFFFF" fill-opacity="0.7" d="M187.587,90.111c2.598-1.191,5.411-3.402,7.756-3.402
		C192.998,86.71,190.185,88.652,187.587,90.111z"/>
	<path fill="#FFFFFF" fill-opacity="0.7" d="M216.811,88.643c-3.217,1.89-7.749,5.802-10.966,5.802
		c3.217,0,7.749-3.358,10.966-5.249c3.208-1.886,7.293-3.982,10.501-6.078C224.104,84.938,220.019,86.758,216.811,88.643z"/>
	<path stroke="#FFFFFF" stroke-width="0.5" stroke-miterlimit="10" d="M280.963,42.566v-0.008c-0.015,0-0.03,0.003-0.045,0.004
		c-0.015-0.001-0.03-0.004-0.045-0.004l0,0.023c-1.93,0.19-4.122,2.238-8.861,6.083c-2.174,1.764-5.364,2.983-8.478,3.662
		c-0.751,0.164-0.878,0.333-0.803,0.467c0.084,0.152,0.425,0.258,0.425,0.258s5.567,1.2,8.856,3.873
		c4.812,3.91,6.998,5.966,8.95,6.099l0,0.004c0.006,0,0.012-0.002,0.019-0.002V52.792V42.568
		C280.976,42.567,280.969,42.566,280.963,42.566z"/>
</g>
<style>
#g-countries_2-mobile-usa-img rect, #g-countries_2-mobile-usa-img circle, #g-countries_2-mobile-usa-img path, #g-countries_2-mobile-usa-img line, #g-countries_2-mobile-usa-img polyline, #g-countries_2-mobile-usa-img polygon { vector-effect: non-scaling-stroke; }
</style>
</svg>

