<?xml version="1.0" encoding="utf-8"?>
<!-- Generator: Adobe Illustrator 27.4.0, SVG Export Plug-In . SVG Version: 6.00 Build 0)  -->
<svg version="1.2" baseProfile="tiny" id="g-countries_2-mobile-china-img"
	 xmlns="http://www.w3.org/2000/svg" xmlns:xlink="http://www.w3.org/1999/xlink" x="0px" y="0px" viewBox="0 0 300 349.787"
	 overflow="visible" xml:space="preserve">
<g>
	<path fill="#FFFFFF" fill-opacity="0.7" d="M95.221,182.607c0,0-1.578-0.518-2.51-1.671c-1.364-1.688-1.983-2.575-2.537-2.632
		v-0.001c0,0,0-0.001,0-0.001h-0.15c-3.197,0-7.271-0.829-10.468-0.829c-3.197,0-8.134,1.934-11.331,1.934
		c-3.206,0-4.717-0.436-10.059-0.311v0.039c-0.518,0.158-1.142,0.867-2.378,2.122c-0.932,0.946-2.51,1.371-2.51,1.371
		s-0.346,0.133,0.107,0.257c0.883,0.24,1.787,0.672,2.403,1.296c1.237,1.254,1.86,1.96,2.378,2.118v0.044
		c7.707,0.618,6.853-0.305,10.059-0.305c3.197,0,8.134,1.934,11.331,1.934c3.197,0,7.271-0.829,10.468-0.829h0.014
		c-0.001-0.016,0-0.033-0.001-0.049c0.034,0.011,0.068,0.028,0.101,0.033l0,0.01c0.004,0,0.008-0.001,0.013-0.002
		c0.004,0,0.009,0.002,0.013,0.002v-0.003c0.002,0,0.004-0.001,0.005-0.001c0.002,0,0.004,0.001,0.005,0.001v0.003
		c0.004,0,0.008-0.001,0.013-0.002c0.004,0,0.008,0.002,0.013,0.002l0-0.01c0.547-0.082,1.168-0.966,2.511-2.625
		c0.616-0.761,1.52-1.287,2.403-1.58C95.567,182.769,95.221,182.607,95.221,182.607z"/>
	<path fill="#FFFFFF" fill-opacity="0.7" d="M216.57,177.748c-3.206,0.554-7.289,3.039-10.494,3.039
		c-3.197,0-7.71-9.393-10.907-9.393c-3.197,0-7.271,3.039-10.468,3.039s-7.271-1.381-10.468-1.381
		c-3.206,0-7.289,1.888-10.494,2.486c-3.197,0.597-7.71,1.105-10.907,1.105s-7.71-1.934-10.907-1.934s-7.271,2.672-10.468,3.039
		c-3.206,0.368-7.289,0.553-10.494,0.553h-0.207c0,0.02,0.001,0.04,0.001,0.059c-0.51,0.224-1.133,1.088-2.335,2.575
		c-0.932,1.153-2.51,1.671-2.51,1.671s-0.346,0.162,0.107,0.313c0.883,0.293,1.787,0.819,2.403,1.58
		c1.343,1.66,1.964,2.543,2.511,2.625l0,0.01c0.004,0,0.008-0.001,0.013-0.002c0.004,0,0.009,0.002,0.013,0.002v-0.003
		c0.002,0,0.004-0.001,0.005-0.001c0.002,0,0.004,0.001,0.005,0.001v0.003c0.004,0,0.008-0.001,0.013-0.002
		c0.004,0,0.008,0.002,0.013,0.002l0-0.01c0.039-0.006,0.08-0.025,0.119-0.039c0.001,0.018,0.002,0.037,0.002,0.055h-0.154
		c3.206,0,7.289,0.184,10.494,0.553c3.197,0.367,7.271,3.039,10.468,3.039s7.71-1.934,10.907-1.934s7.71,0.508,10.907,1.105
		c3.206,0.599,7.289,2.486,10.494,2.486c3.197,0,7.271-1.381,10.468-1.381s7.271,3.039,10.468,3.039
		c3.197,0,7.71-9.393,10.907-9.393c3.206,0,7.289,2.485,10.494,3.039c3.197,0.553,7.271,0.691,10.468,0.829V176.92
		C223.841,177.058,219.767,177.196,216.57,177.748z"/>
	<path fill="#FFFFFF" fill-opacity="0.7" d="M21.056,182.652c0,0-1.578-0.324-2.51-1.044c-1.364-1.054-1.983-1.608-2.537-1.644
		l0-0.001c-0.002,0-0.004,0-0.005,0.001v5.515c0.002,0,0.004,0,0.005,0.001v0.002c0.004,0,0.009-0.001,0.013-0.001
		c0.004,0,0.008,0.001,0.013,0.001l0-0.006c0.547-0.051,1.168-0.603,2.511-1.64c0.616-0.476,1.52-0.804,2.403-0.987
		C21.402,182.753,21.056,182.652,21.056,182.652z"/>
</g>
<style>
#g-countries_2-mobile-china-img rect, #g-countries_2-mobile-china-img circle, #g-countries_2-mobile-china-img path, #g-countries_2-mobile-china-img line, #g-countries_2-mobile-china-img polyline, #g-countries_2-mobile-china-img polygon { vector-effect: non-scaling-stroke; }
</style>
</svg>

