<?xml version="1.0" encoding="utf-8"?>
<!-- Generator: Adobe Illustrator 27.4.0, SVG Export Plug-In . SVG Version: 6.00 Build 0)  -->
<svg version="1.2" baseProfile="tiny" id="g-countries_2-medium-ukraine-img"
	 xmlns="http://www.w3.org/2000/svg" xmlns:xlink="http://www.w3.org/1999/xlink" x="0px" y="0px" viewBox="0 0 800 502.574"
	 overflow="visible" xml:space="preserve">
<g>
	<path fill="#FFFFFF" fill-opacity="0.7" d="M66.927,167.794c-0.005,0-0.009-0.001-0.014-0.002v-0.006
		c-0.011,0-0.023,0.003-0.034,0.003c-0.011,0-0.023-0.003-0.034-0.003l0,0.018c-1.452,0.147-3.102,1.732-6.668,4.71
		c-1.636,1.366-4.037,2.31-6.38,2.835c-1.204,0.27-0.285,0.561-0.285,0.561s4.19,0.929,6.665,2.999
		c1.478,1.235,2.615,2.218,3.557,2.972l3.192,0.033V167.794z"/>
	<path fill="#FF0046" fill-opacity="0.7" d="M94.328,182.312c-8.357-0.147-19.044-0.294-27.401-0.441v0.043l-3.192-0.033
		c1.366,1.093,2.309,1.689,3.178,1.75l0,0.003c0.005,0,0.009-0.001,0.014-0.002v0.002C75.284,182.973,85.971,182.312,94.328,182.312
		z"/>
	<path fill="#FF0046" fill-opacity="0.7" d="M178.929,171.332c-8.38,0-20.254,14.55-28.634,14.55
		c-8.357,0-19.044-2.792-27.401-3.086c-7.425-0.261-17.604-0.29-25.644-0.397c8.041,0.218,18.219,1.246,25.644,2.16
		c8.357,1.029,19.044,3.968,27.401,3.968c8.38,0,20.235-1.122,28.634-1.323c7.09-0.169,7.849-9,16.143-11.579
		C188.813,173.402,183.268,171.332,178.929,171.332z"/>
	<path fill="#FFFFFF" fill-opacity="0.7" d="M178.929,164.277c-8.38-0.576-20.254-1.323-28.634-1.323
		c-8.357,0-19.044,2.939-27.401,3.968c-8.357,1.029-20.208,2.205-28.566,2.205c-8.357,0-19.044-0.661-27.401-1.323v14.109
		c8.357,0.147,19.044,0.294,27.401,0.441c8.357,0.147,20.208,0.147,28.566,0.441c8.357,0.294,19.044,3.086,27.401,3.086
		c8.38,0,20.254-14.55,28.634-14.55c6.607,0.697,9.995,2.211,16.308,4.326C189.147,174.62,183.563,164.596,178.929,164.277z"/>
	<g>
		<path fill="#FFFFFF" fill-opacity="0.7" d="M264.626,176.349"/>
		<path fill="#FFFFFF" fill-opacity="0.7" d="M278.356,175.993c1.204-0.189,0.285-0.392,0.285-0.392s-4.19-0.649-6.665-2.095
			c-3.621-2.115-5.266-3.228-6.736-3.3v-0.002c-0.005,0-0.009,0.001-0.014,0.001c-0.005,0-0.009-0.001-0.014-0.001l0,0.002
			c-1.469,0.072-3.114,1.184-6.736,3.3c-1.61,0.94-3.939,1.542-5.375,1.849c4.837,0.395,13.1,0.917,23.475,0.974
			C277.165,176.198,277.763,176.086,278.356,175.993z"/>
		<path fill="#FF0046" fill-opacity="0.7" d="M252.097,175.993c2.343,0.367,4.744,1.026,6.38,1.981
			c3.566,2.08,5.216,3.188,6.668,3.291l0,0.012c0.011,0,0.023-0.002,0.034-0.002c0.011,0,0.023,0.002,0.034,0.002v-0.004
			c0.005,0,0.009-0.001,0.014-0.001c0.005,0,0.009,0.001,0.014,0.001v0.004c0.011,0,0.023-0.002,0.034-0.002
			c0.011,0,0.023,0.002,0.034,0.002l0-0.012c1.452-0.103,3.102-1.21,6.668-3.291c1.221-0.713,2.869-1.26,4.601-1.645
			c-10.375-0.058-18.638-0.579-23.475-0.974c-0.772,0.165-1.29,0.246-1.29,0.246S250.893,175.805,252.097,175.993z"/>
	</g>
	<path fill="#FF0046" fill-opacity="0.7" d="M571.036,164.718c-0.18,0-0.352,0.072-0.52,0.184c-1.376,0.48-3.032,2.633-6.317,6.454
		c-1.636,1.903-4.037,3.218-6.38,3.949c-1.204,0.376-0.285,0.782-0.285,0.782s4.19,1.295,6.665,4.177
		c3.621,4.218,5.266,6.435,6.735,6.579l0,0.005c0.005,0,0.009-0.002,0.014-0.002v-0.095c0.03,0.002,0.057,0.013,0.087,0.013
		c8.357,0,20.208,10.802,28.566,21.605v-65.255C591.244,153.916,579.393,164.718,571.036,164.718z"/>
	<g>
		<path fill="#FFFFFF" fill-opacity="0.7" d="M459.034,167.804c-8.38-1.176-19.09-3.23-27.47-5.291
			C439.944,164.87,450.653,167.804,459.034,167.804z"/>
		<path fill="#FFFFFF" fill-opacity="0.7" d="M459.034,167.804c8.357,1.173,20.208,1.764,28.566,1.764
			c8.357,0,20.208-7.496,28.566-7.496c-8.357,0-20.208,4.262-28.566,4.85C479.242,167.51,467.391,167.804,459.034,167.804z"/>
		<path fill="#FFFFFF" fill-opacity="0.7" d="M402.998,153.695c-8.357-3.968-20.208-14.991-28.566-14.991
			c-8.357,0-22.585,19.464-28.566,25.132c-2.921,2.767-6.898,9.812-13.91,11.634c0,0-2.429,0.785,13.91-0.17
			c8.344-0.488,20.208-26.896,28.566-26.896c8.357,0,20.208,4.703,28.566,7.055c8.357,2.352,20.208,4.999,28.566,7.055
			C423.207,160.163,411.355,157.663,402.998,153.695z"/>
		<path fill="#FF0046" fill-opacity="0.7" d="M529.579,175.287c0,0-4.19-1.59-6.665-5.13c-2.869-4.104-4.492-6.639-5.776-7.613
			c-0.297-0.291-0.615-0.464-0.96-0.468v-0.003c-0.002,0-0.004,0.001-0.007,0.001c-0.003,0-0.005-0.001-0.007-0.001
			c-8.357,0-20.208,7.496-28.566,7.496c-8.357,0-20.208-0.591-28.566-1.764c-8.38-1.176-19.09-3.23-27.47-5.291
			c-8.357-2.056-20.208-4.703-28.566-7.055c-8.357-2.352-20.208-7.055-28.566-7.055c-8.357,0-20.208,26.72-28.566,26.896
			c-7.879,0.166-15.804,0.401-14.037,0.381c5.74-0.067,8.775,7.408,14.037,11.965c6.244,5.407,20.208,25.132,28.566,25.132
			c8.357,0,20.208-11.023,28.566-14.991c8.357-3.968,20.208-6.468,28.566-8.818c8.38-2.356,19.09-5.291,27.47-5.291
			c8.357,0,20.208,0.294,28.566,0.882c8.357,0.588,20.208,4.85,28.566,4.85c0.696,0,1.283-0.543,1.772-1.453
			c1.169-1.28,2.669-3.562,4.977-6.86c1.636-2.337,4.037-3.951,6.38-4.85C530.499,175.785,529.579,175.287,529.579,175.287z"/>
	</g>
</g>
<style>
#g-countries_2-medium-ukraine-img rect, #g-countries_2-medium-ukraine-img circle, #g-countries_2-medium-ukraine-img path, #g-countries_2-medium-ukraine-img line, #g-countries_2-medium-ukraine-img polyline, #g-countries_2-medium-ukraine-img polygon { vector-effect: non-scaling-stroke; }
</style>
</svg>

