<?xml version="1.0" encoding="utf-8"?>
<!-- Generator: Adobe Illustrator 27.4.0, SVG Export Plug-In . SVG Version: 6.00 Build 0)  -->
<svg version="1.2" baseProfile="tiny" id="g-liders2-mobile-yanukocych-img"
	 xmlns="http://www.w3.org/2000/svg" xmlns:xlink="http://www.w3.org/1999/xlink" x="0px" y="0px" viewBox="0 0 300 350"
	 overflow="visible" xml:space="preserve">
<g>
	<path fill="#FFFFFF" fill-opacity="0.7" d="M61.005,258.699c0,0-1.585-0.658-2.522-2.123c-1.37-2.144-1.993-3.271-2.548-3.344
		l0-0.002c-0.002,0-0.004,0.001-0.005,0.001c-0.002,0-0.004-0.001-0.005-0.001l0,0.002c-0.556,0.073-1.178,1.2-2.548,3.344
		c-0.937,1.465-2.522,2.123-2.522,2.123s-0.348,0.206,0.108,0.397c0.887,0.372,1.795,1.04,2.414,2.008
		c1.349,2.108,1.974,3.231,2.523,3.335l0,0.013c0.004,0,0.009-0.002,0.013-0.002c0.004,0,0.009,0.002,0.013,0.002v-0.004
		c0.002,0,0.004-0.001,0.005-0.001c0.002,0,0.004,0.001,0.005,0.001v0.004c0.004,0,0.009-0.002,0.013-0.002
		c0.004,0,0.009,0.002,0.013,0.002l0-0.013c0.549-0.104,1.174-1.227,2.523-3.335c0.619-0.967,1.527-1.636,2.414-2.008
		C61.353,258.905,61.005,258.699,61.005,258.699z"/>
	<g>
		<polygon fill="#FFFFFF" fill-opacity="0.7" points="140.264,261.679 140.258,261.679 140.258,261.682 140.269,261.682 
			140.269,261.679 		"/>
		<path fill="#FFFFFF" fill-opacity="0.7" d="M140.233,261.682h0.026c-0.004,0-0.009-0.001-0.013-0.001
			C140.241,261.681,140.237,261.682,140.233,261.682z"/>
		<path fill="#FFFFFF" fill-opacity="0.7" d="M140.269,261.682h0.026c-0.004,0-0.009-0.001-0.013-0.001
			C140.278,261.681,140.273,261.682,140.269,261.682z"/>
		<polygon fill="#FF0046" fill-opacity="0.7" points="140.269,255.999 140.258,255.999 140.264,256 		"/>
		<path fill="#FFFFFF" fill-opacity="0.7" d="M140.376,258.84c-1.977-0.245-3.229,0.157-5.315,0c0,0.544,1.709,0.208,2.527,1.055
			c0.813,0.625,1.561,1.79,2.792,1.786c0.891-0.003,1.889-1.509,3.91-1.96l1.816-0.119
			C144.092,259.277,145.023,259.417,140.376,258.84z"/>
		<path fill="#FF0046" fill-opacity="0.7" d="M156.002,258.803c0,0-1.585-0.174-2.522-0.563c-1.37-0.568-1.993-0.867-2.548-0.887
			l0-0.001c-2.021-0.452-5.948-1.354-10.599-1.354c-0.873,0.067-1.5,0.757-2.138,1.282c-1.163,1.178-3.135,1.367-3.134,1.559
			c2.086,0.157,3.338-0.245,5.315,0c4.304,0.534,7.96,1.076,10.077,1.411c0.159,0.042,0.304,0.066,0.443,0.073l0,0.003
			c0.004,0,0.009,0,0.013-0.001c0.004,0,0.009,0.001,0.013,0.001v-0.001c0.001,0,0.002,0,0.003,0c0.003,0,0.006,0.001,0.008,0.001
			c0.004,0,0.009,0,0.013-0.001c0.004,0,0.009,0.001,0.013,0.001l0-0.003c0.549-0.028,1.174-0.325,2.523-0.884
			c0.619-0.256,1.527-0.434,2.414-0.532C156.35,258.858,156.002,258.803,156.002,258.803z"/>
	</g>
	<path fill="#FFFFFF" fill-opacity="0.7" d="M124.014,258.803c0,0-1.585-0.174-2.522-0.563c-1.37-0.568-1.993-0.867-2.548-0.887
		l0-0.001c-0.002,0-0.004,0-0.005,0c-0.002,0-0.004,0-0.005,0l0,0.001c-0.556,0.019-1.178,0.318-2.548,0.887
		c-0.937,0.388-2.522,0.563-2.522,0.563s-0.348,0.055,0.108,0.105c0.887,0.099,1.795,0.276,2.414,0.532
		c1.349,0.559,1.974,0.857,2.523,0.884l0,0.003c0.004,0,0.009,0,0.013-0.001c0.004,0,0.009,0.001,0.013,0.001v-0.001
		c0.002,0,0.004,0,0.005,0c0.002,0,0.004,0,0.005,0v0.001c0.004,0,0.009,0,0.013-0.001c0.004,0,0.009,0.001,0.013,0.001l0-0.003
		c0.549-0.028,1.174-0.325,2.523-0.884c0.619-0.256,1.527-0.434,2.414-0.532C124.362,258.858,124.014,258.803,124.014,258.803z"/>
</g>
<style>
#g-liders2-mobile-yanukocych-img rect, #g-liders2-mobile-yanukocych-img circle, #g-liders2-mobile-yanukocych-img path, #g-liders2-mobile-yanukocych-img line, #g-liders2-mobile-yanukocych-img polyline, #g-liders2-mobile-yanukocych-img polygon { vector-effect: non-scaling-stroke; }
</style>
</svg>

