<?xml version="1.0" encoding="utf-8"?>
<!-- Generator: Adobe Illustrator 27.4.0, SVG Export Plug-In . SVG Version: 6.00 Build 0)  -->
<svg version="1.2" baseProfile="tiny" id="g-liders2-medium-poroshenko-img"
	 xmlns="http://www.w3.org/2000/svg" xmlns:xlink="http://www.w3.org/1999/xlink" x="0px" y="0px" viewBox="0 0 800 502"
	 overflow="visible" xml:space="preserve">
<g>
	<path fill="#FF0046" fill-opacity="0.7" d="M597.401,315.737c0,0-4.121-0.276-6.556-0.89c-3.237-0.817-4.866-1.277-6.221-1.378
		v-0.024c-8.654-1.699-19.432-4.705-28.139-4.705c-0.114,0-0.223,0.114-0.328,0.275c-1.374,0.251-3.002,1.595-6.312,4.022
		c-2.435,1.785-6.556,2.587-6.556,2.587s-0.905,0.252,0.28,0.484c1.43,0.281,2.881,0.702,4.161,1.262
		c0.784,0.343,1.504,0.737,2.115,1.185c3.177,2.327,4.805,3.658,6.145,3.985c0.147,0.184,0.306,0.314,0.494,0.314
		c8.707,0,19.485-3.006,28.139-4.705v-0.028c1.355-0.101,2.984-0.56,6.221-1.376c1.609-0.406,3.971-0.686,6.276-0.842
		C598.305,315.823,597.401,315.737,597.401,315.737z"/>
	<g>
		<path fill="#FF0046" fill-opacity="0.7" d="M514.238,315.5c0,0-4.121-1.38-6.556-4.451c-3.562-4.494-5.18-6.857-6.626-7.01
			l0-0.005c-0.003,0-0.007,0.001-0.01,0.002c-0.001,0-0.003-0.002-0.004-0.002c-0.003,0-0.007,0.001-0.01,0.001
			c-0.001,0-0.002-0.001-0.004-0.001v0.001c-8.652,0.01-19.058,9.409-27.707,9.409c-8.654,0-19.067-2.352-27.721-2.352h-83.083
			v0.028c-1.411,0.115-3.035,1.047-6.482,2.784c-0.115,0.058-0.236,0.113-0.358,0.167l6.84,1.725l7.024,1.797
			c6.818,1.621,14.02,2.908,20.417,2.908H445.6c8.654,0,19.067-2.353,27.721-2.353c8.628,0,19.002,9.348,27.641,9.405v0.005
			c0.008,0,0.017-0.002,0.026-0.004c0.009,0,0.019,0.002,0.028,0.002c0.004,0.001,0.009,0.002,0.013,0.002v-0.001
			c0.005,0,0.009,0.001,0.014,0.001c0.005,0,0.009-0.004,0.014-0.004v0.004c0.011,0,0.022-0.004,0.033-0.005
			c0.011,0.001,0.022,0.004,0.033,0.005l0-0.025c0.048-0.011,0.097-0.018,0.143-0.049c1.396-0.346,3.023-2.668,6.417-6.944
			c1.609-2.028,3.971-3.428,6.276-4.208C515.143,315.932,514.238,315.5,514.238,315.5z"/>
		<path fill="#FFFFFF" fill-opacity="0.7" d="M369.541,317.593l-7.024-1.797l-6.84-1.725c-2.459,1.109-6.198,1.611-6.198,1.611
			s-0.905,0.173,0.28,0.333c1.43,0.193,2.881,0.483,4.161,0.867c0.784,0.236,1.504,0.507,2.115,0.814
			c3.446,1.735,5.071,2.668,6.482,2.783v0.021c1.048,0,2.12,0,3.207,0c7.882,0,16.628,0,24.234,0
			C383.561,320.501,376.359,319.213,369.541,317.593z"/>
	</g>
</g>
<style>
#g-liders2-medium-poroshenko-img rect, #g-liders2-medium-poroshenko-img circle, #g-liders2-medium-poroshenko-img path, #g-liders2-medium-poroshenko-img line, #g-liders2-medium-poroshenko-img polyline, #g-liders2-medium-poroshenko-img polygon { vector-effect: non-scaling-stroke; }
</style>
</svg>

