<?xml version="1.0" encoding="utf-8"?>
<!-- Generator: Adobe Illustrator 27.4.0, SVG Export Plug-In . SVG Version: 6.00 Build 0)  -->
<svg version="1.2" baseProfile="tiny" id="g-liders2-medium-zelensky-img"
	 xmlns="http://www.w3.org/2000/svg" xmlns:xlink="http://www.w3.org/1999/xlink" x="0px" y="0px" viewBox="0 0 800 502"
	 overflow="visible" xml:space="preserve">
<g>
	<g>
		<path fill="#FFFFFF" fill-opacity="0.7" d="M501.935,291.681L501.935,291.681c8.472-6.81,18.468-13.397,26.828-13.397
			c-8.654,0-19.067,4.705-27.721,9.41l-2.895,1.598c1.134,1.86,1.965,2.907,2.729,3.071l0,0.037
			c0.011-0.001,0.022-0.006,0.033-0.007c0.011,0.001,0.022,0.006,0.033,0.007v-0.014c0.004,0,0.009-0.002,0.014-0.003
			c0.005,0.001,0.009,0.003,0.014,0.003v0.014c0.011-0.001,0.022-0.006,0.033-0.007c0.011,0.001,0.022,0.006,0.033,0.007l0-0.037
			c0.002,0,0.004-0.002,0.006-0.003v0.039c0.037-0.03,0.075-0.06,0.112-0.09c0.256-0.089,0.521-0.269,0.8-0.538L501.935,291.681z"/>
		<path fill="#FF0046" fill-opacity="0.7" d="M597.401,275.873c0,0-4.121-0.276-6.556-0.89c-3.11-0.785-4.738-1.244-6.063-1.369
			v-0.034c-8.654-2.352-19.643-4.705-28.297-4.705c-8.678,0-19.043,4.705-27.721,4.705c-8.213,0-18.005-6.356-26.379-13.035
			c-0.453-0.549-0.863-0.888-1.249-1.005c-0.03-0.025-0.062-0.049-0.092-0.074v0.037c-0.024-0.005-0.049-0.026-0.072-0.029l0-0.007
			c-0.004,0.001-0.009,0.004-0.014,0.004c-0.005,0-0.009-0.003-0.014-0.004l0,0.007c-1.445,0.214-3.063,3.522-6.626,9.813
			c-2.435,4.3-6.556,6.231-6.556,6.231s-0.905,0.606,0.28,1.167c1.43,0.677,2.881,1.69,4.161,3.038
			c0.784,0.826,1.504,1.775,2.115,2.854c1.631,2.877,2.844,5.1,3.83,6.717l2.895-1.598c0,0,2.535-1.302,5.184-2.69
			c7.426-3.655,15.553-6.72,22.537-6.72c8.678,0,19.043,4.705,27.721,4.705c8.654,0,19.643-2.352,28.297-4.705v-0.038
			c1.325-0.124,2.952-0.581,6.063-1.365c1.609-0.406,3.971-0.686,6.276-0.842C598.306,275.959,597.401,275.873,597.401,275.873z"/>
	</g>
</g>
<style>
#g-liders2-medium-zelensky-img rect, #g-liders2-medium-zelensky-img circle, #g-liders2-medium-zelensky-img path, #g-liders2-medium-zelensky-img line, #g-liders2-medium-zelensky-img polyline, #g-liders2-medium-zelensky-img polygon { vector-effect: non-scaling-stroke; }
</style>
</svg>

