<?xml version="1.0" encoding="utf-8"?>
<!-- Generator: Adobe Illustrator 27.4.0, SVG Export Plug-In . SVG Version: 6.00 Build 0)  -->
<svg version="1.2" baseProfile="tiny" id="g-liders2-mobile-poroshenko-img"
	 xmlns="http://www.w3.org/2000/svg" xmlns:xlink="http://www.w3.org/1999/xlink" x="0px" y="0px" viewBox="0 0 300 350"
	 overflow="visible" xml:space="preserve">
<g>
	<path fill="#FF0046" fill-opacity="0.7" d="M230.641,233.868c0,0-1.585-0.174-2.522-0.563c-1.245-0.516-1.872-0.808-2.393-0.872
		v-0.015c-3.329-1.074-7.474-2.975-10.824-2.975c-0.044,0-0.086,0.072-0.126,0.174c-0.528,0.159-1.155,1.008-2.428,2.543
		c-0.936,1.129-2.522,1.636-2.522,1.636s-0.348,0.159,0.108,0.306c0.55,0.178,1.108,0.444,1.601,0.798
		c0.301,0.217,0.578,0.466,0.814,0.749c1.222,1.471,1.848,2.313,2.364,2.52c0.056,0.116,0.118,0.199,0.19,0.199
		c3.349,0,7.495-1.901,10.824-2.975v-0.018c0.521-0.064,1.148-0.354,2.393-0.87c0.619-0.256,1.527-0.434,2.414-0.532
		C230.989,233.923,230.641,233.868,230.641,233.868z"/>
	<g>
		<path fill="#FF0046" fill-opacity="0.7" d="M198.653,233.718c0,0-1.585-0.872-2.522-2.815c-1.37-2.842-1.993-4.336-2.548-4.433
			l0-0.003c-0.001,0-0.003,0.001-0.004,0.001c0,0-0.001-0.001-0.001-0.001c-0.001,0-0.003,0-0.004,0c0,0-0.001,0-0.001,0v0.001
			c-3.328,0.006-7.33,5.95-10.658,5.95c-3.329,0-7.334-1.488-10.663-1.488h-31.957v0.018c-0.543,0.072-1.168,0.662-2.493,1.761
			c-0.044,0.037-0.091,0.071-0.138,0.106l2.631,1.091l2.702,1.136c2.623,1.025,5.393,1.839,7.853,1.839h21.402
			c3.329,0,7.334-1.488,10.663-1.488c3.319,0,7.309,5.911,10.632,5.947v0.003c0.003,0,0.007-0.001,0.01-0.002
			c0.004,0,0.007,0.001,0.011,0.001c0.002,0,0.003,0.001,0.005,0.001v-0.001c0.002,0,0.004,0.001,0.005,0.001
			c0.002,0,0.003-0.003,0.005-0.003v0.003c0.004,0,0.009-0.002,0.013-0.003c0.004,0,0.009,0.003,0.013,0.003l0-0.016
			c0.019-0.007,0.037-0.012,0.055-0.031c0.537-0.219,1.163-1.687,2.468-4.391c0.619-1.282,1.527-2.168,2.414-2.661
			C199.001,233.991,198.653,233.718,198.653,233.718z"/>
		<path fill="#FFFFFF" fill-opacity="0.7" d="M142.996,235.041l-2.702-1.136l-2.631-1.091c-0.946,0.701-2.384,1.019-2.384,1.019
			s-0.348,0.109,0.108,0.211c0.55,0.122,1.108,0.305,1.601,0.548c0.301,0.149,0.578,0.32,0.814,0.515
			c1.325,1.097,1.951,1.687,2.493,1.76v0.013c0.403,0,0.816,0,1.234,0c3.032,0,6.396,0,9.322,0
			C148.389,236.881,145.619,236.066,142.996,235.041z"/>
	</g>
</g>
<style>
#g-liders2-mobile-poroshenko-img rect, #g-liders2-mobile-poroshenko-img circle, #g-liders2-mobile-poroshenko-img path, #g-liders2-mobile-poroshenko-img line, #g-liders2-mobile-poroshenko-img polyline, #g-liders2-mobile-poroshenko-img polygon { vector-effect: non-scaling-stroke; }
</style>
</svg>

