<?xml version="1.0" encoding="utf-8"?>
<!-- Generator: Adobe Illustrator 27.4.0, SVG Export Plug-In . SVG Version: 6.00 Build 0)  -->
<svg version="1.2" baseProfile="tiny" id="g-liders2-medium-yanukocych-img"
	 xmlns="http://www.w3.org/2000/svg" xmlns:xlink="http://www.w3.org/1999/xlink" x="0px" y="0px" viewBox="0 0 800 502"
	 overflow="visible" xml:space="preserve">
<g>
	<path fill="#FFFFFF" fill-opacity="0.7" d="M156.381,355.004c0,0-4.121-1.041-6.556-3.358c-3.562-3.39-5.18-5.173-6.626-5.288
		l0-0.004c-0.004,0-0.009,0.002-0.014,0.002c-0.005,0-0.009-0.002-0.014-0.002l0,0.004c-1.445,0.115-3.063,1.898-6.626,5.288
		c-2.435,2.317-6.556,3.358-6.556,3.358s-0.905,0.326,0.28,0.629c2.305,0.588,4.667,1.645,6.276,3.175
		c3.508,3.334,5.131,5.11,6.559,5.274l0,0.02c0.011,0,0.022-0.003,0.033-0.004c0.011,0.001,0.022,0.003,0.033,0.004v-0.007
		c0.004,0,0.009-0.002,0.014-0.002c0.005,0,0.009,0.002,0.014,0.002v0.007c0.011,0,0.022-0.003,0.033-0.004
		c0.011,0.001,0.022,0.003,0.033,0.004l0-0.02c1.428-0.165,3.052-1.94,6.559-5.274c1.609-1.53,3.971-2.586,6.276-3.175
		C157.286,355.33,156.381,355.004,156.381,355.004z"/>
	<g>
		<path fill="#FFFFFF" fill-opacity="0.7" d="M362.437,359.716c-0.005,0-0.009,0.001-0.014,0.001v0.004h0.027v-0.004
			C362.446,359.717,362.442,359.716,362.437,359.716z"/>
		<path fill="#FFFFFF" fill-opacity="0.7" d="M362.357,359.721h0.066c-0.011,0-0.022-0.001-0.033-0.002
			C362.379,359.719,362.368,359.72,362.357,359.721z"/>
		<path fill="#FFFFFF" fill-opacity="0.7" d="M362.451,359.721h0.066c-0.011,0-0.022-0.001-0.033-0.002
			C362.473,359.719,362.462,359.72,362.451,359.721z"/>
		<path fill="#FF0046" fill-opacity="0.7" d="M362.451,350.734c-0.009,0-0.018,0-0.027,0c0.004,0,0.009,0.001,0.014,0.001
			S362.446,350.735,362.451,350.734z"/>
		<path fill="#FFFFFF" fill-opacity="0.7" d="M362.729,355.228c-5.14-0.388-8.394,0.249-13.818,0c0,0.861,4.443,0.329,6.57,1.668
			c2.114,0.989,4.059,2.831,7.258,2.825c2.316-0.005,4.91-2.386,10.164-3.1l4.722-0.188
			C372.389,355.918,374.811,356.14,362.729,355.228z"/>
		<path fill="#FF0046" fill-opacity="0.7" d="M403.353,355.168c0,0-4.121-0.276-6.556-0.89c-3.562-0.899-5.18-1.371-6.626-1.402
			l0-0.001c-5.254-0.714-15.463-2.141-27.555-2.141c-2.271,0.107-3.9,1.197-5.557,2.028c-3.022,1.863-8.152,2.162-8.148,2.465
			c5.423,0.248,8.678-0.388,13.818,0c11.19,0.845,20.694,1.701,26.197,2.232c0.414,0.066,0.79,0.105,1.152,0.116l0,0.005
			c0.011,0,0.022-0.001,0.033-0.001c0.011,0,0.022,0.001,0.033,0.001v-0.002c0.002,0,0.004,0,0.007,0
			c0.007,0.001,0.014,0.001,0.021,0.002c0.011,0,0.022-0.001,0.033-0.001c0.011,0,0.022,0.001,0.033,0.001l0-0.005
			c1.428-0.044,3.052-0.514,6.559-1.398c1.609-0.405,3.971-0.686,6.276-0.842C404.258,355.255,403.353,355.168,403.353,355.168z"/>
	</g>
	<path fill="#FFFFFF" fill-opacity="0.7" d="M320.19,355.168c0,0-4.121-0.276-6.556-0.89c-3.562-0.899-5.18-1.371-6.626-1.402
		l0-0.001c-0.004,0-0.009,0-0.014,0c-0.005,0-0.009,0-0.014,0l0,0.001c-1.445,0.031-3.063,0.503-6.626,1.402
		c-2.435,0.614-6.556,0.89-6.556,0.89s-0.905,0.086,0.28,0.167c2.305,0.156,4.667,0.436,6.276,0.842
		c3.508,0.884,5.131,1.355,6.559,1.398l0,0.005c0.011,0,0.022-0.001,0.033-0.001c0.011,0,0.022,0.001,0.033,0.001v-0.002
		c0.004,0,0.009,0,0.014,0c0.005,0,0.009,0,0.014,0v0.002c0.011,0,0.022-0.001,0.033-0.001c0.011,0,0.022,0.001,0.033,0.001l0-0.005
		c1.428-0.044,3.052-0.514,6.559-1.398c1.609-0.406,3.971-0.686,6.276-0.842C321.095,355.255,320.19,355.168,320.19,355.168z"/>
</g>
<style>
#g-liders2-medium-yanukocych-img rect, #g-liders2-medium-yanukocych-img circle, #g-liders2-medium-yanukocych-img path, #g-liders2-medium-yanukocych-img line, #g-liders2-medium-yanukocych-img polyline, #g-liders2-medium-yanukocych-img polygon { vector-effect: non-scaling-stroke; }
</style>
</svg>

