<?xml version="1.0" encoding="utf-8"?>
<!-- Generator: Adobe Illustrator 27.4.0, SVG Export Plug-In . SVG Version: 6.00 Build 0)  -->
<svg version="1.2" baseProfile="tiny" id="g-liders2-mobile-bush-img"
	 xmlns="http://www.w3.org/2000/svg" xmlns:xlink="http://www.w3.org/1999/xlink" x="0px" y="0px" viewBox="0 0 300 350"
	 overflow="visible" xml:space="preserve">
<g>
	<polygon fill="#FFFFFF" fill-opacity="0.7" points="204.24,150.506 204.235,150.506 204.235,150.509 204.246,150.509 
		204.246,150.506 	"/>
	<path fill="#FFFFFF" fill-opacity="0.7" d="M204.21,150.509h0.026c-0.004,0-0.009-0.001-0.013-0.001
		C204.218,150.508,204.214,150.508,204.21,150.509z"/>
	<path fill="#FFFFFF" fill-opacity="0.7" d="M204.246,150.509h0.026c-0.004,0-0.009-0.001-0.013-0.001
		C204.254,150.508,204.25,150.508,204.246,150.509z"/>
	<path fill="#FFFFFF" fill-opacity="0.7" d="M206.794,146.52c-1.37-1.086-1.993-1.656-2.548-1.693l0-0.001
		c-0.002,0-0.004,0.001-0.005,0.001s-0.004,0-0.005-0.001l0,0.001c-0.556,0.037-1.178,0.608-2.548,1.693
		c-0.936,0.742-2.522,1.075-2.522,1.075s-0.348,0.105,0.108,0.201c0.55,0.117,1.108,0.292,1.601,0.524
		c2.194-0.457,4.387-0.932,6.581-1.385C207.219,146.815,206.992,146.677,206.794,146.52z"/>
	<path fill="#FF0046" fill-opacity="0.7" d="M201.687,148.813c1.349,1.068,1.974,1.636,2.523,1.689l0,0.006
		c0.004,0,0.009-0.001,0.013-0.001c0.004,0,0.009,0.001,0.013,0.001v-0.002c0.002,0,0.004,0,0.005-0.001
		c0.002,0,0.004,0.001,0.005,0.001v0.002c0.004,0,0.009-0.001,0.013-0.001c0.004,0,0.009,0.001,0.013,0.001l0-0.006
		c0.549-0.053,1.174-0.621,2.523-1.689c0.619-0.49,1.527-0.828,2.414-1.017c0.456-0.097,0.108-0.201,0.108-0.201
		s-0.986-0.208-1.862-0.66c-2.194,0.454-4.387,0.929-6.581,1.385C201.175,148.464,201.452,148.627,201.687,148.813z"/>
	<path fill="#FFFFFF" fill-opacity="0.7" d="M204.246,144.827l0-0.001c-0.002,0-0.004,0.001-0.005,0.001s-0.004,0-0.005-0.001
		l0,0.001c-0.556,0.037-1.178,0.608-2.548,1.693c-0.936,0.742-2.522,1.075-2.522,1.075s-0.348,0.105,0.108,0.201
		c0.55,0.117,1.108,0.292,1.601,0.524c2.194-0.457,4.387-0.932,6.581-1.385c-0.235-0.121-0.462-0.258-0.66-0.415
		C205.424,145.435,204.802,144.864,204.246,144.827z"/>
	<path fill="#FFFFFF" fill-opacity="0.7" d="M104.537,147.55c0,0-1.585-0.254-2.522-0.821c-0.499-0.302-0.896-0.55-1.23-0.746
		c-0.667-0.668-0.467-1.172-2.062-1.291c-3.329-0.248-7.679-2.231-11.008-2.975c-3.329-0.744-7.098-0.992-10.427-1.488
		c-3.329-0.496-7.539-0.499-10.868-1.488c-3.338-0.992-7.117-3.222-10.455-4.463c-3.329-1.237-7.539-1.983-10.868-2.975
		c-3.329-0.992-7.098-0.992-10.427-2.975c-3.329-1.983-7.098-6.198-10.427-10.413v0.03c-0.002-0.001-0.004-0.005-0.006-0.006v-0.023
		c-0.005,0.001-0.011,0.01-0.016,0.012c-0.005-0.002-0.011-0.01-0.016-0.012l0,0.067c-0.677,0.553-1.447,6.505-3.11,17.684
		c-0.763,5.129-1.883,8.672-2.976,10.644c-0.562,1.013-0.133,2.107-0.133,2.107s1.954,3.49,3.109,11.259
		c1.689,11.367,2.456,17.344,3.142,17.731l0,0.013c0.002-0.001,0.004-0.005,0.006-0.006v0.006c3.329-4.215,7.098-8.43,10.427-10.413
		c3.329-1.984,7.098-1.984,10.427-2.975s7.539-1.738,10.868-2.975c3.338-1.241,7.117-3.471,10.455-4.463
		c3.329-0.989,7.539-0.992,10.868-1.488c3.329-0.496,7.098-0.744,10.427-1.488c3.329-0.744,7.679-2.727,11.008-2.975
		c1.719-0.128,1.585-0.736,2.229-1.518c0.299-0.179,0.642-0.392,1.062-0.645c0.619-0.374,1.527-0.632,2.414-0.776
		C104.885,147.63,104.537,147.55,104.537,147.55z"/>
	<path fill="#FFFFFF" fill-opacity="0.7" d="M124.014,147.63c0,0-1.585-0.174-2.522-0.563c-1.37-0.568-1.993-0.867-2.548-0.887
		l0-0.001c-0.002,0-0.004,0-0.005,0c-0.002,0-0.004,0-0.005,0l0,0.001c-0.556,0.019-1.178,0.318-2.548,0.887
		c-0.937,0.388-2.522,0.563-2.522,0.563s-0.348,0.055,0.108,0.105c0.887,0.099,1.795,0.276,2.414,0.532
		c1.349,0.559,1.974,0.857,2.523,0.884l0,0.003c0.004,0,0.009,0,0.013-0.001c0.004,0,0.009,0.001,0.013,0.001v-0.001
		c0.002,0,0.004,0,0.005,0c0.002,0,0.004,0,0.005,0v0.001c0.004,0,0.009,0,0.013-0.001c0.004,0,0.009,0.001,0.013,0.001l0-0.003
		c0.549-0.028,1.174-0.325,2.523-0.884c0.619-0.256,1.527-0.434,2.414-0.532C124.362,147.684,124.014,147.63,124.014,147.63z"/>
	<path fill="#FF0046" fill-opacity="0.7" d="M134.676,147.63c0,0-1.585-0.174-2.522-0.563c-1.37-0.568-1.993-0.867-2.548-0.887
		l0-0.001c-0.002,0-0.004,0-0.005,0c-0.002,0-0.004,0-0.005,0l0,0.001c-0.556,0.019-1.178,0.318-2.548,0.887
		c-0.937,0.388-2.522,0.563-2.522,0.563s-0.348,0.055,0.108,0.105c0.887,0.099,1.795,0.276,2.414,0.532
		c1.349,0.559,1.974,0.857,2.523,0.884l0,0.003c0.004,0,0.009,0,0.013-0.001c0.004,0,0.009,0.001,0.013,0.001v-0.001
		c0.002,0,0.004,0,0.005,0c0.002,0,0.004,0,0.005,0v0.001c0.004,0,0.009,0,0.013-0.001c0.004,0,0.009,0.001,0.013,0.001l0-0.003
		c0.549-0.028,1.174-0.325,2.523-0.884c0.619-0.256,1.527-0.434,2.414-0.532C135.024,147.684,134.676,147.63,134.676,147.63z"/>
	<path fill="#FFFFFF" fill-opacity="0.7" d="M177.328,147.63c0,0-1.585-0.174-2.522-0.563c-1.37-0.568-1.993-0.867-2.548-0.887
		l0-0.001c-0.002,0-0.004,0-0.005,0c-0.002,0-0.004,0-0.005,0l0,0.001c-0.556,0.019-1.178,0.318-2.548,0.887
		c-0.937,0.388-2.522,0.563-2.522,0.563s-0.348,0.055,0.108,0.105c0.887,0.099,1.795,0.276,2.414,0.532
		c1.349,0.559,1.974,0.857,2.523,0.884l0,0.003c0.004,0,0.009,0,0.013-0.001c0.004,0,0.009,0.001,0.013,0.001v-0.001
		c0.002,0,0.004,0,0.005,0c0.002,0,0.004,0,0.005,0v0.001c0.004,0,0.009,0,0.013-0.001c0.004,0,0.009,0.001,0.013,0.001l0-0.003
		c0.549-0.028,1.174-0.325,2.523-0.884c0.619-0.256,1.527-0.434,2.414-0.532C177.676,147.684,177.328,147.63,177.328,147.63z"/>
</g>
<style>
#g-liders2-mobile-bush-img rect, #g-liders2-mobile-bush-img circle, #g-liders2-mobile-bush-img path, #g-liders2-mobile-bush-img line, #g-liders2-mobile-bush-img polyline, #g-liders2-mobile-bush-img polygon { vector-effect: non-scaling-stroke; }
</style>
</svg>

