<?xml version="1.0" encoding="utf-8"?>
<!-- Generator: Adobe Illustrator 27.4.0, SVG Export Plug-In . SVG Version: 6.00 Build 0)  -->
<svg version="1.2" baseProfile="tiny" id="g-liders2-medium-kravchuk-img"
	 xmlns="http://www.w3.org/2000/svg" xmlns:xlink="http://www.w3.org/1999/xlink" x="0px" y="0px" viewBox="0 0 800 502"
	 overflow="visible" xml:space="preserve">
<g>
	<path fill="#FFFFFF" fill-opacity="0.7" d="M183.68,474.886c0,0-4.121-0.276-6.556-0.89c-3.562-0.899-5.18-1.371-6.626-1.402
		l0-0.001c-0.004,0-0.009,0-0.014,0c-0.005,0-0.009,0-0.014,0l0,0.001c-1.445,0.031-3.063,0.503-6.626,1.402
		c-2.435,0.614-6.556,0.89-6.556,0.89s-0.905,0.086,0.28,0.167c2.305,0.156,4.667,0.436,6.276,0.842
		c3.508,0.884,5.131,1.355,6.559,1.398l0,0.005c0.011,0,0.022-0.001,0.033-0.001c0.011,0,0.022,0.001,0.033,0.001v-0.002
		c0.004,0,0.009,0,0.014,0c0.005,0,0.009,0,0.014,0v0.002c0.011,0,0.022-0.001,0.033-0.001c0.011,0,0.022,0.001,0.033,0.001l0-0.005
		c1.428-0.044,3.052-0.514,6.559-1.398c1.609-0.406,3.971-0.686,6.276-0.842C184.584,474.972,183.68,474.886,183.68,474.886z"/>
	<path fill="#FF0046" fill-opacity="0.7" d="M375.632,474.886c0,0-4.121-0.276-6.556-0.89c-3.562-0.899-5.18-1.371-6.626-1.402
		l0-0.001c-0.004,0-0.009,0-0.014,0c-0.005,0-0.009,0-0.014,0l0,0.001c-1.445,0.031-3.063,0.503-6.626,1.402
		c-2.435,0.614-6.556,0.89-6.556,0.89s-0.905,0.086,0.28,0.167c2.305,0.156,4.667,0.436,6.276,0.842
		c3.508,0.884,5.131,1.355,6.559,1.398l0,0.005c0.011,0,0.022-0.001,0.033-0.001c0.011,0,0.022,0.001,0.033,0.001v-0.002
		c0.004,0,0.009,0,0.014,0c0.005,0,0.009,0,0.014,0v0.002c0.011,0,0.022-0.001,0.033-0.001c0.011,0,0.022,0.001,0.033,0.001l0-0.005
		c1.428-0.044,3.052-0.514,6.559-1.398c1.609-0.406,3.971-0.686,6.276-0.842C376.537,474.972,375.632,474.886,375.632,474.886z"/>
</g>
<style>
#g-liders2-medium-kravchuk-img rect, #g-liders2-medium-kravchuk-img circle, #g-liders2-medium-kravchuk-img path, #g-liders2-medium-kravchuk-img line, #g-liders2-medium-kravchuk-img polyline, #g-liders2-medium-kravchuk-img polygon { vector-effect: non-scaling-stroke; }
</style>
</svg>

