<?xml version="1.0" encoding="utf-8"?>
<!-- Generator: Adobe Illustrator 27.4.0, SVG Export Plug-In . SVG Version: 6.00 Build 0)  -->
<svg version="1.2" baseProfile="tiny" id="g-liders2-medium-kuchma-img"
	 xmlns="http://www.w3.org/2000/svg" xmlns:xlink="http://www.w3.org/1999/xlink" x="0px" y="0px" viewBox="0 0 800 502"
	 overflow="visible" xml:space="preserve">
<g>
	<path fill="#FFFFFF" fill-opacity="0.7" d="M165.409,434.694c-1.394-0.289-4.062-0.764-8.821-6.269
		c-6.136-7.099-9.732-10.982-12.479-11.865c-0.278-0.137-0.534-0.211-0.769-0.211c-0.047,0-0.096,0.013-0.143,0.014
		c-0.012-0.001-0.025-0.005-0.038-0.006l0-0.008c-0.009,0.001-0.019,0.003-0.028,0.004v0.016
		c-8.616,0.22-19.082,14.095-27.667,14.095c-8.654,0-19.789-11.762-28.444-11.762c-8.654,0-18.455,11.762-27.109,11.762
		c-8.678,0-18.932,0-27.611,0v9.41c8.678,0,18.932,0,27.611,0c8.654,0,18.454,11.762,27.109,11.762
		c8.654,0,19.789-11.762,28.444-11.762c8.586,0,19.052,13.874,27.667,14.095v0.001c0.009,0.001,0.019,0.003,0.028,0.004v0.015
		c0.022-0.001,0.045-0.006,0.068-0.007c0.022,0.001,0.045,0.007,0.068,0.007v-0.004c0.015,0,0.03,0.004,0.045,0.004
		c0.814,0,1.467-0.293,2.029-0.805c2.538-1.458,5.66-4.943,11.219-10.424c3.29-3.244,3.815-5.056,8.249-6.733
		C167.214,435.128,165.409,434.694,165.409,434.694z"/>
	<path fill="#FF0046" fill-opacity="0.7" d="M375.632,435.109c0,0-4.121-0.276-6.556-0.89c-3.562-0.899-5.18-1.371-6.626-1.402
		l0-0.001c-0.004,0-0.009,0-0.014,0.001c-0.005,0-0.009,0-0.014-0.001l0,0.001c-1.445,0.031-3.063,0.503-6.626,1.402
		c-2.435,0.614-6.556,0.89-6.556,0.89s-0.905,0.087,0.28,0.167c2.305,0.156,4.667,0.436,6.276,0.842
		c3.508,0.884,5.131,1.355,6.559,1.398l0,0.005c0.011,0,0.022-0.001,0.033-0.001c0.011,0,0.022,0.001,0.033,0.001v-0.002
		c0.004,0,0.009,0,0.014,0c0.005,0,0.009,0,0.014,0v0.002c0.011,0,0.022-0.001,0.033-0.001c0.011,0,0.022,0.001,0.033,0.001l0-0.005
		c1.428-0.044,3.052-0.514,6.559-1.398c1.609-0.406,3.971-0.686,6.276-0.842C376.537,435.196,375.632,435.109,375.632,435.109z"/>
</g>
<style>
#g-liders2-medium-kuchma-img rect, #g-liders2-medium-kuchma-img circle, #g-liders2-medium-kuchma-img path, #g-liders2-medium-kuchma-img line, #g-liders2-medium-kuchma-img polyline, #g-liders2-medium-kuchma-img polygon { vector-effect: non-scaling-stroke; }
</style>
</svg>

