<?xml version="1.0" encoding="utf-8"?>
<!-- Generator: Adobe Illustrator 27.4.0, SVG Export Plug-In . SVG Version: 6.00 Build 0)  -->
<svg version="1.2" baseProfile="tiny" id="g-liders2-medium-tramp-img"
	 xmlns="http://www.w3.org/2000/svg" xmlns:xlink="http://www.w3.org/1999/xlink" x="0px" y="0px" viewBox="0 0 800 502"
	 overflow="visible" xml:space="preserve">
<g>
	<path fill="#FFFFFF" fill-opacity="0.7" d="M569.68,111.025c0,0-2.562-0.173-4.84-0.546c-0.61-0.1-1.201-0.214-1.716-0.344
		c-3.562-0.899-5.18-1.371-6.626-1.402l0-0.001c-0.004,0-0.009,0-0.014,0v0c-8.678-0.392-8.954-0.784-17.632-2.352
		c-8.654-1.564-29.156-7.057-37.81-7.057c-8.655,0-19.067,0-27.721,0c-8.654,0-19.067,0-27.721,0c-8.678,0-19.043,0-27.721,0v0.051
		c-0.052-0.011-0.106-0.04-0.158-0.046l0-0.005c-0.004,0-0.009,0.002-0.014,0.002c-0.005,0-0.009-0.002-0.014-0.002l0,0.005
		c-1.445,0.153-3.063,2.515-6.626,7.009c-2.435,3.071-6.556,4.451-6.556,4.451s-0.905,0.433,0.28,0.833
		c1.43,0.484,2.881,1.207,4.161,2.17c0.784,0.59,1.504,1.268,2.115,2.038c3.508,4.419,5.131,6.773,6.559,6.991l0,0.026
		c0.011,0,0.022-0.004,0.033-0.005c0.011,0.001,0.022,0.004,0.033,0.005v-0.01c0.004,0,0.009-0.002,0.014-0.002
		c0.005,0.001,0.009,0.002,0.014,0.002v0.01c0.011,0,0.022-0.004,0.033-0.005c0.011,0.001,0.022,0.004,0.033,0.005l0-0.026
		c0.03-0.005,0.061-0.024,0.091-0.03v0.057c8.678,0,19.043,0,27.721,0c8.654,0,19.067,0,27.721,0c8.654,0,19.067,0,27.721,0
		c8.654,0,29.156-5.493,37.81-7.057c8.678-1.568,8.954-1.96,17.632-2.352v-0.002c0.005,0,0.009,0,0.014,0v0.002
		c0.011,0,0.022-0.001,0.033-0.001c0.011,0,0.022,0.001,0.033,0.001l0-0.005c1.428-0.044,3.052-0.514,6.559-1.398
		c1.609-0.406,3.971-0.686,6.276-0.842C570.585,111.111,569.68,111.025,569.68,111.025z"/>
</g>
<style>
#g-liders2-medium-tramp-img rect, #g-liders2-medium-tramp-img circle, #g-liders2-medium-tramp-img path, #g-liders2-medium-tramp-img line, #g-liders2-medium-tramp-img polyline, #g-liders2-medium-tramp-img polygon { vector-effect: non-scaling-stroke; }
</style>
</svg>

