<?xml version="1.0" encoding="utf-8"?>
<!-- Generator: Adobe Illustrator 27.4.0, SVG Export Plug-In . SVG Version: 6.00 Build 0)  -->
<svg version="1.2" baseProfile="tiny" id="g-liders2-mobile-baiden-img"
	 xmlns="http://www.w3.org/2000/svg" xmlns:xlink="http://www.w3.org/1999/xlink" x="0px" y="0px" viewBox="0 0 300 350"
	 overflow="visible" xml:space="preserve">
<g>
	<g>
		<g>
			<path fill="#FFFFFF" fill-opacity="0.7" d="M218.221,89.885"/>
		</g>
	</g>
	<path fill="#FF0046" fill-opacity="0.7" d="M219.967,88.25c0,0-1.585-0.174-2.522-0.563c-1.37-0.568-1.993-0.867-2.548-0.887
		l0-0.001c-0.002,0-0.004,0-0.005,0c-0.002,0-0.004,0-0.005,0l0,0.001c-0.556,0.019-1.178,0.318-2.548,0.887
		c-0.937,0.388-2.522,0.563-2.522,0.563s-0.348,0.055,0.108,0.105c0.887,0.099,1.795,0.276,2.414,0.532
		c1.349,0.559,1.974,0.857,2.523,0.884l0,0.003c0.004,0,0.009,0,0.013-0.001c0.004,0,0.009,0.001,0.013,0.001v-0.001
		c0.002,0,0.004,0,0.005,0c0.002,0,0.004,0,0.005,0v0.001c0.004,0,0.009,0,0.013-0.001c0.004,0,0.009,0.001,0.013,0.001l0-0.003
		c0.549-0.028,1.174-0.325,2.523-0.884c0.619-0.256,1.527-0.434,2.414-0.532C220.315,88.304,219.967,88.25,219.967,88.25z"/>
</g>
<style>
#g-liders2-mobile-baiden-img rect, #g-liders2-mobile-baiden-img circle, #g-liders2-mobile-baiden-img path, #g-liders2-mobile-baiden-img line, #g-liders2-mobile-baiden-img polyline, #g-liders2-mobile-baiden-img polygon { vector-effect: non-scaling-stroke; }
</style>
</svg>

