<?xml version="1.0" encoding="utf-8"?>
<!-- Generator: Adobe Illustrator 27.4.0, SVG Export Plug-In . SVG Version: 6.00 Build 0)  -->
<svg version="1.2" baseProfile="tiny" id="g-liders2-medium-obama-img"
	 xmlns="http://www.w3.org/2000/svg" xmlns:xlink="http://www.w3.org/1999/xlink" x="0px" y="0px" viewBox="0 0 800 502"
	 overflow="visible" xml:space="preserve">
<g>
	<path fill="#FF0046" fill-opacity="0.7" d="M597.401,150.441c0,0-2.562-0.329-4.84-1.043c-0.61-0.191-1.201-0.409-1.716-0.657
		c-3.562-1.717-5.18-2.619-6.626-2.678l0-0.002c-0.004,0-0.009,0.001-0.014,0.001c-0.005,0-0.009-0.001-0.014-0.001l0,0.002
		c-1.445,0.058-3.063,0.961-6.626,2.678c-2.435,1.173-6.556,1.7-6.556,1.7s-0.905,0.165,0.28,0.318
		c1.43,0.185,2.881,0.461,4.161,0.829c0.784,0.225,1.504,0.484,2.115,0.779c3.508,1.688,5.131,2.587,6.559,2.671l0,0.01
		c0.011,0,0.022-0.002,0.033-0.002c0.011,0,0.022,0.002,0.033,0.002v-0.004c0.005,0,0.009-0.001,0.014-0.001
		c0.005,0,0.009,0.001,0.014,0.001v0.004c0.011,0,0.022-0.002,0.033-0.002c0.011,0,0.022,0.002,0.033,0.002l0-0.01
		c1.428-0.083,3.052-0.982,6.559-2.671c1.609-0.775,3.971-1.31,6.276-1.608C598.306,150.607,597.401,150.441,597.401,150.441z"/>
	<path fill="#FF0046" fill-opacity="0.7" d="M390.158,148.202c-8.654,0-19.02-5.097-27.674-7.057
		c-8.65-1.959-19.102-3.331-27.754-4.703v-0.002c-0.002,0-0.004,0.001-0.006,0.001c-0.003,0-0.005-0.001-0.008-0.001v0.003
		c-0.005,0-0.009-0.002-0.014-0.003l0,0.006c-1.151,0.146-2.429,2.004-4.693,5.47l6.332,5.327l8.93,6.311
		c5.861,3.711,11.878,6.411,17.213,6.411C371.138,159.965,381.504,148.202,390.158,148.202z"/>
	<path fill="#FFFFFF" fill-opacity="0.7" d="M369.754,157.867c-2.502,0.818-4.949,1.572-7.27,2.098
		C364.806,159.965,367.252,159.105,369.754,157.867z"/>
	<path fill="#FFFFFF" fill-opacity="0.7" d="M445.6,157.612c8.654,0,19.067-1.568,27.721-2.352
		C464.667,156.044,454.255,156.044,445.6,157.612z"/>
	<path fill="#FFFFFF" fill-opacity="0.7" d="M390.158,148.202c-6.333,0-13.58,6.285-20.404,9.664
		c6.824-2.232,14.071-4.959,20.404-4.959c8.654,0,19.067,16.467,27.721,16.467c8.678,0,19.043-10.19,27.721-11.762
		c-8.678,0-19.043-0.784-27.721-2.352C409.225,153.696,398.813,148.202,390.158,148.202z"/>
	<path fill="#FFFFFF" fill-opacity="0.7" d="M345.108,153.452c0.054,0.034,0.108,0.067,0.162,0.102l-7.773-5.494l0,0
		c-0.943-0.732-1.874-1.47-2.781-2.21v0.026l0,0l-4.707-3.96c-0.579,0.887-1.207,1.852-1.933,2.952
		c-2.435,3.69-6.556,5.348-6.556,5.348s-0.905,0.52,0.28,1.001c2.305,0.937,4.667,2.62,6.276,5.056
		c3.508,5.31,5.131,8.138,6.559,8.4l0,0.032c0.011-0.001,0.022-0.005,0.033-0.006c0.011,0.001,0.022,0.005,0.033,0.006v-0.011
		c0.004,0,0.009-0.002,0.014-0.003c0.005,0,0.009,0.002,0.014,0.003v0.011c0.011-0.001,0.022-0.005,0.033-0.006
		c0.011,0.001,0.022,0.005,0.033,0.006l0-0.032c0.021-0.004,0.043-0.021,0.065-0.026c1.729-0.274,3.536-0.548,5.377-0.826
		c7.35-1.111,15.363-2.297,22.246-3.856c-5.281,0-11.234-2.634-17.039-6.286C345.332,153.607,345.221,153.524,345.108,153.452z"/>
	<path fill="#FF0046" fill-opacity="0.7" d="M514.14,150.46c0,0-4.121-0.299-6.556-0.965c-3.562-0.974-5.18-1.486-6.626-1.52
		l0-0.001c-0.004,0-0.009,0-0.014,0c-0.005,0-0.009,0-0.014,0l0,0.001c-0.347,0.008-0.706,0.045-1.098,0.108
		c-5.979-0.074-18.284-1.488-26.511-2.234c-8.654-0.784-19.067-0.784-27.721-2.352c-8.678-1.573-19.043-11.762-27.721-11.762
		c-8.654,0-19.067,16.467-27.721,16.467c8.654,0,19.067,5.493,27.721,7.057c8.678,1.568,19.043,2.352,27.721,2.352
		c8.654,0,19.067-1.568,27.721-2.352c8.29-0.751,21.032-2.18,26.96-2.235c0.2,0.023,0.394,0.038,0.583,0.044l0,0.006
		c0.011,0,0.022-0.001,0.033-0.001c0.011,0,0.022,0.001,0.033,0.001v-0.002c0.004,0,0.009,0,0.014-0.001
		c0.005,0,0.009,0,0.014,0.001v0.002c0.011,0,0.022-0.001,0.033-0.001c0.011,0,0.022,0.001,0.033,0.001l0-0.006
		c1.428-0.047,3.052-0.557,6.559-1.516c1.609-0.44,3.971-0.743,6.276-0.912C515.044,150.554,514.14,150.46,514.14,150.46z"/>
</g>
<style>
#g-liders2-medium-obama-img rect, #g-liders2-medium-obama-img circle, #g-liders2-medium-obama-img path, #g-liders2-medium-obama-img line, #g-liders2-medium-obama-img polyline, #g-liders2-medium-obama-img polygon { vector-effect: non-scaling-stroke; }
</style>
</svg>

