<?xml version="1.0" encoding="utf-8"?>
<!-- Generator: Adobe Illustrator 27.4.0, SVG Export Plug-In . SVG Version: 6.00 Build 0)  -->
<svg version="1.2" baseProfile="tiny" id="g-liders2-medium-clinton-img"
	 xmlns="http://www.w3.org/2000/svg" xmlns:xlink="http://www.w3.org/1999/xlink" x="0px" y="0px" viewBox="0 0 800 502"
	 overflow="visible" xml:space="preserve">
<g>
	<path fill="#FFFFFF" fill-opacity="0.7" d="M48.588,235.714c0,0-5.256-1.931-8.361-6.232c-4.543-6.292-6.606-9.599-8.45-9.814
		l0-0.007c-0.006,0.001-0.012,0.003-0.017,0.004v32.915c0.006,0.001,0.012,0.003,0.017,0.004v0.013
		c0.014-0.001,0.028-0.006,0.042-0.007c0.014,0.001,0.028,0.006,0.042,0.007l0-0.037c1.822-0.306,3.892-3.6,8.365-9.788
		c2.052-2.839,5.064-4.8,8.004-5.891C49.742,236.32,48.588,235.714,48.588,235.714z"/>
	<path fill="#FFFFFF" fill-opacity="0.7" d="M100.939,236.07c0,0-4.121-0.276-6.556-0.89c-3.562-0.899-5.18-1.371-6.626-1.402
		l0-0.001c-0.004,0-0.009,0-0.014,0c-0.005,0-0.009,0-0.014,0l0,0.001c-1.445,0.031-3.063,0.503-6.626,1.402
		c-2.435,0.614-6.556,0.89-6.556,0.89s-0.905,0.087,0.28,0.167c2.305,0.156,4.667,0.436,6.276,0.842
		c3.508,0.884,5.131,1.355,6.559,1.398l0,0.005c0.011,0,0.022-0.001,0.033-0.001c0.011,0,0.022,0.001,0.033,0.001v-0.002
		c0.004,0,0.009,0,0.014,0c0.005,0,0.009,0,0.014,0v0.002c0.011,0,0.022-0.001,0.033-0.001c0.011,0,0.022,0.001,0.033,0.001l0-0.005
		c1.428-0.044,3.052-0.514,6.559-1.398c1.609-0.406,3.971-0.686,6.276-0.842C101.843,236.157,100.939,236.07,100.939,236.07z"/>
	<path fill="#FFFFFF" fill-opacity="0.7" d="M239.544,236.07c0,0-4.121-0.276-6.556-0.89c-3.562-0.899-5.18-1.371-6.626-1.402
		l0-0.001c-0.004,0-0.009,0-0.014,0c-0.005,0-0.009,0-0.014,0l0,0.001c-1.445,0.031-3.063,0.503-6.626,1.402
		c-2.435,0.614-6.556,0.89-6.556,0.89s-0.905,0.087,0.28,0.167c2.305,0.156,4.667,0.436,6.276,0.842
		c3.508,0.884,5.131,1.355,6.559,1.398l0,0.005c0.011,0,0.022-0.001,0.033-0.001c0.011,0,0.022,0.001,0.033,0.001v-0.002
		c0.004,0,0.009,0,0.014,0c0.005,0,0.009,0,0.014,0v0.002c0.011,0,0.022-0.001,0.033-0.001c0.011,0,0.022,0.001,0.033,0.001l0-0.005
		c1.428-0.044,3.052-0.514,6.559-1.398c1.609-0.406,3.971-0.686,6.276-0.842C240.449,236.157,239.544,236.07,239.544,236.07z"/>
	<path fill="#FF0046" fill-opacity="0.7" d="M597.401,236.07c0,0-4.121-0.276-6.556-0.89c-3.562-0.899-5.18-1.371-6.626-1.402
		l0-0.001c-0.004,0-0.009,0-0.014,0c-0.005,0-0.009,0-0.014,0l0,0.001c-1.445,0.031-3.063,0.503-6.626,1.402
		c-2.435,0.614-6.556,0.89-6.556,0.89s-0.905,0.087,0.28,0.167c2.305,0.156,4.667,0.436,6.276,0.842
		c3.508,0.884,5.131,1.355,6.559,1.398l0,0.005c0.011,0,0.022-0.001,0.033-0.001c0.011,0,0.022,0.001,0.033,0.001v-0.002
		c0.005,0,0.009,0,0.014,0c0.005,0,0.009,0,0.014,0v0.002c0.011,0,0.022-0.001,0.033-0.001c0.011,0,0.022,0.001,0.033,0.001l0-0.005
		c1.428-0.044,3.052-0.514,6.559-1.398c1.609-0.406,3.971-0.686,6.276-0.842C598.306,236.157,597.401,236.07,597.401,236.07z"/>
	<path fill="#FFFFFF" fill-opacity="0.7" d="M514.238,236.07c0,0-4.121-0.276-6.556-0.89c-2.805-0.708-4.399-1.147-5.658-1.318
		c-0.133-0.049-0.271-0.084-0.415-0.084h-0.553l0-0.001c-0.004,0-0.009,0-0.014,0s-0.009,0-0.014,0l0,0.001h-82.711
		c-0.043,0-0.083,0.013-0.125,0.017c-0.1-0.006-0.202-0.015-0.299-0.017l0-0.001c-0.004,0-0.009,0-0.014,0c-0.005,0-0.009,0-0.014,0
		l0,0.001c-1.445,0.031-3.063,0.503-6.626,1.402c-2.435,0.614-6.556,0.89-6.556,0.89s-0.905,0.087,0.28,0.167
		c2.305,0.156,4.667,0.436,6.276,0.842c3.508,0.884,5.131,1.355,6.559,1.398l0,0.005c0.011,0,0.022-0.001,0.033-0.001
		c0.011,0,0.022,0.001,0.033,0.001v-0.002c0.004,0,0.009,0,0.014,0c0.005,0,0.009,0,0.014,0v0.002c0.011,0,0.022-0.001,0.033-0.001
		c0.011,0,0.022,0.001,0.033,0.001l0-0.005c0.071-0.002,0.145-0.01,0.217-0.014c0.047,0.006,0.093,0.02,0.142,0.02h83.292
		c0.149,0,0.291-0.037,0.428-0.089c1.257-0.173,2.85-0.61,5.645-1.314c1.609-0.406,3.971-0.686,6.276-0.842
		C515.143,236.157,514.238,236.07,514.238,236.07z"/>
</g>
<style>
#g-liders2-medium-clinton-img rect, #g-liders2-medium-clinton-img circle, #g-liders2-medium-clinton-img path, #g-liders2-medium-clinton-img line, #g-liders2-medium-clinton-img polyline, #g-liders2-medium-clinton-img polygon { vector-effect: non-scaling-stroke; }
</style>
</svg>

