<?xml version="1.0" encoding="utf-8"?>
<!-- Generator: Adobe Illustrator 27.4.0, SVG Export Plug-In . SVG Version: 6.00 Build 0)  -->
<svg version="1.2" baseProfile="tiny" id="g-liders2-mobile-zelensky-img"
	 xmlns="http://www.w3.org/2000/svg" xmlns:xlink="http://www.w3.org/1999/xlink" x="0px" y="0px" viewBox="0 0 300 350"
	 overflow="visible" xml:space="preserve">
<g>
	<g>
		<path fill="#FFFFFF" fill-opacity="0.7" d="M193.921,218.656L193.921,218.656c3.259-4.306,7.104-8.472,10.319-8.472
			c-3.329,0-7.334,2.975-10.663,5.95l-1.114,1.01c0.436,1.176,0.756,1.838,1.05,1.942l0,0.023c0.004,0,0.009-0.004,0.013-0.004
			c0.004,0.001,0.009,0.004,0.013,0.004v-0.009c0.002,0,0.004-0.002,0.005-0.002c0.002,0,0.004,0.002,0.005,0.002v0.009
			c0.004,0,0.009-0.004,0.013-0.004c0.004,0.001,0.009,0.004,0.013,0.004l0-0.023c0.001,0,0.002-0.001,0.002-0.002v0.025
			c0.014-0.019,0.029-0.038,0.043-0.057c0.099-0.056,0.2-0.17,0.308-0.341L193.921,218.656z"/>
		<path fill="#FF0046" fill-opacity="0.7" d="M230.641,208.659c0,0-1.585-0.174-2.522-0.563c-1.196-0.496-1.822-0.787-2.332-0.866
			v-0.022c-3.329-1.488-7.556-2.975-10.884-2.975c-3.338,0-7.325,2.975-10.663,2.975c-3.159,0-6.926-4.019-10.147-8.243
			c-0.174-0.347-0.332-0.561-0.481-0.636c-0.012-0.016-0.024-0.031-0.035-0.047v0.023c-0.009-0.003-0.019-0.016-0.028-0.019l0-0.005
			c-0.002,0-0.004,0.002-0.005,0.002s-0.004-0.002-0.005-0.002l0,0.005c-0.556,0.135-1.178,2.227-2.548,6.206
			c-0.937,2.719-2.522,3.94-2.522,3.94s-0.348,0.383,0.108,0.738c0.55,0.428,1.108,1.069,1.601,1.921
			c0.301,0.522,0.578,1.123,0.814,1.804c0.627,1.819,1.094,3.225,1.473,4.248l1.114-1.01c0,0,0.975-0.823,1.994-1.701
			c2.856-2.311,5.982-4.249,8.669-4.249c3.338,0,7.325,2.975,10.663,2.975c3.329,0,7.556-1.488,10.884-2.975v-0.024
			c0.51-0.079,1.136-0.368,2.332-0.863c0.619-0.256,1.527-0.434,2.414-0.532C230.989,208.714,230.641,208.659,230.641,208.659z"/>
	</g>
</g>
<style>
#g-liders2-mobile-zelensky-img rect, #g-liders2-mobile-zelensky-img circle, #g-liders2-mobile-zelensky-img path, #g-liders2-mobile-zelensky-img line, #g-liders2-mobile-zelensky-img polyline, #g-liders2-mobile-zelensky-img polygon { vector-effect: non-scaling-stroke; }
</style>
</svg>

