<?xml version="1.0" encoding="utf-8"?>
<!-- Generator: Adobe Illustrator 27.4.0, SVG Export Plug-In . SVG Version: 6.00 Build 0)  -->
<svg version="1.2" baseProfile="tiny" id="g-liders2-mobile-clinton-img"
	 xmlns="http://www.w3.org/2000/svg" xmlns:xlink="http://www.w3.org/1999/xlink" x="0px" y="0px" viewBox="0 0 300 350"
	 overflow="visible" xml:space="preserve">
<g>
	<path fill="#FFFFFF" fill-opacity="0.7" d="M19.544,183.265c0,0-2.022-1.221-3.216-3.941c-1.747-3.979-2.541-6.07-3.25-6.206
		l0-0.004c-0.002,0-0.004,0.002-0.007,0.002v20.814c0.002,0,0.005,0.002,0.007,0.002v0.008c0.005,0,0.011-0.003,0.016-0.004
		c0.005,0.001,0.011,0.004,0.016,0.004l0-0.023c0.701-0.193,1.497-2.277,3.218-6.19c0.789-1.795,1.948-3.035,3.079-3.725
		C19.987,183.647,19.544,183.265,19.544,183.265z"/>
	<path fill="#FFFFFF" fill-opacity="0.7" d="M39.68,183.49c0,0-1.585-0.174-2.522-0.563c-1.37-0.568-1.993-0.867-2.548-0.887
		l0-0.001c-0.002,0-0.004,0-0.005,0c-0.002,0-0.004,0-0.005,0l0,0.001c-0.556,0.019-1.178,0.318-2.548,0.887
		c-0.937,0.388-2.522,0.563-2.522,0.563s-0.348,0.055,0.108,0.105c0.887,0.099,1.795,0.276,2.414,0.532
		c1.349,0.559,1.974,0.857,2.523,0.884l0,0.003c0.004,0,0.009,0,0.013-0.001c0.004,0,0.009,0.001,0.013,0.001v-0.001
		c0.002,0,0.004,0,0.005,0c0.002,0,0.004,0,0.005,0v0.001c0.004,0,0.009,0,0.013-0.001c0.004,0,0.009,0.001,0.013,0.001l0-0.003
		c0.549-0.028,1.174-0.325,2.523-0.884c0.619-0.256,1.527-0.434,2.414-0.532C40.028,183.544,39.68,183.49,39.68,183.49z"/>
	<path fill="#FFFFFF" fill-opacity="0.7" d="M92.994,183.49c0,0-1.585-0.174-2.522-0.563c-1.37-0.568-1.993-0.867-2.548-0.887
		l0-0.001c-0.002,0-0.004,0-0.005,0c-0.002,0-0.004,0-0.005,0l0,0.001c-0.556,0.019-1.178,0.318-2.548,0.887
		c-0.937,0.388-2.522,0.563-2.522,0.563s-0.348,0.055,0.108,0.105c0.887,0.099,1.795,0.276,2.414,0.532
		c1.349,0.559,1.974,0.857,2.523,0.884l0,0.003c0.004,0,0.009,0,0.013-0.001c0.004,0,0.009,0.001,0.013,0.001v-0.001
		c0.002,0,0.004,0,0.005,0c0.002,0,0.004,0,0.005,0v0.001c0.004,0,0.009,0,0.013-0.001c0.004,0,0.009,0.001,0.013,0.001l0-0.003
		c0.549-0.028,1.174-0.325,2.523-0.884c0.619-0.256,1.527-0.434,2.414-0.532C93.342,183.544,92.994,183.49,92.994,183.49z"/>
	<path fill="#FF0046" fill-opacity="0.7" d="M230.641,183.49c0,0-1.585-0.174-2.522-0.563c-1.37-0.568-1.993-0.867-2.548-0.887
		l0-0.001c-0.002,0-0.004,0-0.005,0c-0.002,0-0.004,0-0.005,0l0,0.001c-0.556,0.019-1.178,0.318-2.548,0.887
		c-0.936,0.388-2.522,0.563-2.522,0.563s-0.348,0.055,0.108,0.105c0.887,0.099,1.795,0.276,2.414,0.532
		c1.349,0.559,1.974,0.857,2.523,0.884l0,0.003c0.004,0,0.009,0,0.013-0.001c0.004,0,0.009,0.001,0.013,0.001v-0.001
		c0.002,0,0.004,0,0.005,0c0.002,0,0.004,0,0.005,0v0.001c0.004,0,0.009,0,0.013-0.001c0.004,0,0.009,0.001,0.013,0.001l0-0.003
		c0.549-0.028,1.174-0.325,2.523-0.884c0.619-0.256,1.527-0.434,2.414-0.532C230.989,183.544,230.641,183.49,230.641,183.49z"/>
	<path fill="#FFFFFF" fill-opacity="0.7" d="M198.653,183.49c0,0-1.585-0.174-2.522-0.563c-1.079-0.448-1.692-0.725-2.176-0.834
		c-0.051-0.031-0.104-0.053-0.16-0.053h-0.213l0-0.001c-0.002,0-0.004,0-0.005,0s-0.004,0-0.005,0l0,0.001h-31.814
		c-0.017,0-0.032,0.008-0.048,0.011c-0.038-0.004-0.078-0.01-0.115-0.011l0-0.001c-0.002,0-0.004,0-0.005,0
		c-0.002,0-0.004,0-0.005,0l0,0.001c-0.556,0.019-1.178,0.318-2.548,0.887c-0.936,0.388-2.522,0.563-2.522,0.563
		s-0.348,0.055,0.108,0.105c0.887,0.099,1.795,0.276,2.414,0.532c1.349,0.559,1.974,0.857,2.523,0.884l0,0.003
		c0.004,0,0.009,0,0.013-0.001c0.004,0,0.009,0.001,0.013,0.001v-0.001c0.002,0,0.004,0,0.005,0c0.002,0,0.004,0,0.005,0v0.001
		c0.004,0,0.009,0,0.013-0.001c0.004,0,0.009,0.001,0.013,0.001l0-0.003c0.027-0.001,0.056-0.006,0.083-0.009
		c0.018,0.004,0.036,0.012,0.054,0.012h32.038c0.057,0,0.112-0.023,0.165-0.056c0.483-0.109,1.096-0.386,2.171-0.831
		c0.619-0.256,1.527-0.434,2.414-0.532C199.001,183.544,198.653,183.49,198.653,183.49z"/>
</g>
<style>
#g-liders2-mobile-clinton-img rect, #g-liders2-mobile-clinton-img circle, #g-liders2-mobile-clinton-img path, #g-liders2-mobile-clinton-img line, #g-liders2-mobile-clinton-img polyline, #g-liders2-mobile-clinton-img polygon { vector-effect: non-scaling-stroke; }
</style>
</svg>

