<?xml version="1.0" encoding="utf-8"?>
<!-- Generator: Adobe Illustrator 27.4.0, SVG Export Plug-In . SVG Version: 6.00 Build 0)  -->
<svg version="1.2" baseProfile="tiny" id="g-liders2-medium-bush-img"
	 xmlns="http://www.w3.org/2000/svg" xmlns:xlink="http://www.w3.org/1999/xlink" x="0px" y="0px" viewBox="0 0 800 502"
	 overflow="visible" xml:space="preserve">
<g>
	<path fill="#FFFFFF" fill-opacity="0.7" d="M528.764,183.91c-0.005,0-0.009,0.001-0.014,0.001v0.004h0.027v-0.004
		C528.773,183.911,528.768,183.91,528.764,183.91z"/>
	<path fill="#FFFFFF" fill-opacity="0.7" d="M528.684,183.915h0.066c-0.011,0-0.022-0.001-0.033-0.002
		C528.706,183.913,528.695,183.915,528.684,183.915z"/>
	<path fill="#FFFFFF" fill-opacity="0.7" d="M528.777,183.915h0.066c-0.011,0-0.022-0.001-0.033-0.002
		C528.8,183.913,528.788,183.915,528.777,183.915z"/>
	<path fill="#FFFFFF" fill-opacity="0.7" d="M535.403,177.608c-3.562-1.717-5.18-2.619-6.626-2.678l0-0.002
		c-0.005,0-0.009,0.001-0.014,0.001c-0.005,0-0.009-0.001-0.014-0.001l0,0.002c-1.445,0.058-3.063,0.961-6.626,2.678
		c-2.435,1.173-6.556,1.7-6.556,1.7s-0.905,0.165,0.28,0.318c1.43,0.185,2.881,0.461,4.161,0.829
		c5.703-0.722,11.406-1.473,17.11-2.191C536.509,178.073,535.918,177.856,535.403,177.608z"/>
	<path fill="#FF0046" fill-opacity="0.7" d="M522.124,181.234c3.508,1.688,5.131,2.587,6.559,2.671l0,0.01
		c0.011,0,0.022-0.001,0.033-0.002c0.011,0,0.022,0.002,0.033,0.002v-0.004c0.004,0,0.009-0.001,0.014-0.001
		c0.005,0,0.009,0.001,0.014,0.001v0.004c0.011,0,0.022-0.001,0.033-0.002c0.011,0,0.022,0.002,0.033,0.002l0-0.01
		c1.428-0.083,3.052-0.982,6.559-2.671c1.609-0.775,3.971-1.31,6.276-1.607c1.185-0.153,0.28-0.318,0.28-0.318
		s-2.562-0.329-4.84-1.043c-5.703,0.717-11.406,1.469-17.11,2.191C520.793,180.681,521.513,180.94,522.124,181.234z"/>
	<path fill="#FFFFFF" fill-opacity="0.7" d="M528.778,174.931l0-0.002c-0.005,0-0.009,0.001-0.014,0.001
		c-0.005,0-0.009-0.001-0.014-0.001l0,0.002c-1.445,0.058-3.063,0.961-6.626,2.678c-2.435,1.173-6.556,1.7-6.556,1.7
		s-0.905,0.165,0.28,0.318c1.43,0.185,2.881,0.461,4.161,0.829c5.703-0.722,11.406-1.473,17.11-2.191
		c-0.61-0.191-1.201-0.409-1.716-0.657C531.841,175.891,530.223,174.989,528.778,174.931z"/>
	<path fill="#FFFFFF" fill-opacity="0.7" d="M269.555,179.236c0,0-4.121-0.402-6.556-1.298c-1.297-0.477-2.33-0.869-3.197-1.18
		c-1.733-1.056-1.214-1.853-5.36-2.041c-8.654-0.392-19.963-3.529-28.618-4.705c-8.654-1.176-18.455-1.568-27.109-2.352
		c-8.654-0.784-19.6-0.788-28.255-2.352c-8.678-1.568-18.502-5.095-27.18-7.057c-8.654-1.957-19.6-3.137-28.255-4.705
		c-8.654-1.568-18.454-1.568-27.109-4.705c-8.654-3.137-18.454-9.802-27.109-16.467v0.047c-0.006-0.002-0.011-0.008-0.017-0.01
		v-0.037c-0.014,0.002-0.027,0.016-0.041,0.019c-0.013-0.003-0.027-0.017-0.041-0.019l0,0.105
		c-1.761,0.874-3.762,10.286-8.086,27.965c-1.984,8.111-4.895,13.714-7.737,16.833c-1.46,1.603-0.345,3.332-0.345,3.332
		s5.081,5.518,8.082,17.804c4.391,17.976,6.386,27.427,8.168,28.039l0,0.02c0.005-0.002,0.011-0.008,0.017-0.01v0.01
		c8.654-6.665,18.454-13.331,27.109-16.467c8.654-3.137,18.454-3.137,27.109-4.705s19.6-2.748,28.255-4.705
		c8.678-1.962,18.502-5.489,27.18-7.057c8.654-1.564,19.6-1.568,28.255-2.352c8.654-0.784,18.455-1.176,27.109-2.352
		c8.654-1.176,19.963-4.313,28.618-4.705c4.469-0.202,4.121-1.164,5.796-2.401c0.777-0.284,1.67-0.619,2.761-1.02
		c1.609-0.591,3.971-1,6.276-1.227C270.46,179.362,269.555,179.236,269.555,179.236z"/>
	<path fill="#FFFFFF" fill-opacity="0.7" d="M320.19,179.362c0,0-4.121-0.276-6.556-0.89c-3.562-0.899-5.18-1.371-6.626-1.402
		l0-0.001c-0.004,0-0.009,0-0.014,0.001c-0.005,0-0.009,0-0.014-0.001l0,0.001c-1.445,0.031-3.063,0.503-6.626,1.402
		c-2.435,0.614-6.556,0.89-6.556,0.89s-0.905,0.087,0.28,0.167c2.305,0.156,4.667,0.436,6.276,0.842
		c3.508,0.884,5.131,1.355,6.559,1.398l0,0.005c0.011,0,0.022-0.001,0.033-0.001c0.011,0,0.022,0.001,0.033,0.001v-0.002
		c0.004,0,0.009,0,0.014,0c0.005,0,0.009,0,0.014,0v0.002c0.011,0,0.022-0.001,0.033-0.001c0.011,0,0.022,0.001,0.033,0.001l0-0.005
		c1.428-0.044,3.052-0.514,6.559-1.398c1.609-0.406,3.971-0.686,6.276-0.842C321.095,179.449,320.19,179.362,320.19,179.362z"/>
	<path fill="#FF0046" fill-opacity="0.7" d="M347.911,179.362c0,0-4.121-0.276-6.556-0.89c-3.562-0.899-5.18-1.371-6.626-1.402
		l0-0.001c-0.004,0-0.009,0-0.014,0.001c-0.005,0-0.009,0-0.014-0.001l0,0.001c-1.445,0.031-3.063,0.503-6.626,1.402
		c-2.435,0.614-6.556,0.89-6.556,0.89s-0.905,0.087,0.28,0.167c2.305,0.156,4.667,0.436,6.276,0.842
		c3.508,0.884,5.131,1.355,6.559,1.398l0,0.005c0.011,0,0.022-0.001,0.033-0.001c0.011,0,0.022,0.001,0.033,0.001v-0.002
		c0.004,0,0.009,0,0.014,0c0.005,0,0.009,0,0.014,0v0.002c0.011,0,0.022-0.001,0.033-0.001c0.011,0,0.022,0.001,0.033,0.001l0-0.005
		c1.428-0.044,3.052-0.514,6.559-1.398c1.609-0.406,3.971-0.686,6.276-0.842C348.816,179.449,347.911,179.362,347.911,179.362z"/>
	<path fill="#FFFFFF" fill-opacity="0.7" d="M458.796,179.362c0,0-4.121-0.276-6.556-0.89c-3.562-0.899-5.18-1.371-6.626-1.402
		l0-0.001c-0.004,0-0.009,0-0.014,0.001c-0.005,0-0.009,0-0.014-0.001l0,0.001c-1.445,0.031-3.063,0.503-6.626,1.402
		c-2.435,0.614-6.556,0.89-6.556,0.89s-0.905,0.087,0.28,0.167c2.305,0.156,4.667,0.436,6.276,0.842
		c3.508,0.884,5.131,1.355,6.559,1.398l0,0.005c0.011,0,0.022-0.001,0.033-0.001c0.011,0,0.022,0.001,0.033,0.001v-0.002
		c0.004,0,0.009,0,0.014,0c0.005,0,0.009,0,0.014,0v0.002c0.011,0,0.022-0.001,0.033-0.001c0.011,0,0.022,0.001,0.033,0.001l0-0.005
		c1.428-0.044,3.052-0.514,6.559-1.398c1.609-0.406,3.971-0.686,6.276-0.842C459.7,179.449,458.796,179.362,458.796,179.362z"/>
</g>
<style>
#g-liders2-medium-bush-img rect, #g-liders2-medium-bush-img circle, #g-liders2-medium-bush-img path, #g-liders2-medium-bush-img line, #g-liders2-medium-bush-img polyline, #g-liders2-medium-bush-img polygon { vector-effect: non-scaling-stroke; }
</style>
</svg>

