<?xml version="1.0" encoding="utf-8"?>
<!-- Generator: Adobe Illustrator 27.4.0, SVG Export Plug-In . SVG Version: 6.00 Build 0)  -->
<svg version="1.2" baseProfile="tiny" id="g-liders2-medium-yuschenko-img"
	 xmlns="http://www.w3.org/2000/svg" xmlns:xlink="http://www.w3.org/1999/xlink" x="0px" y="0px" viewBox="0 0 800 502"
	 overflow="visible" xml:space="preserve">
<g>
	<g>
		<path fill="#FFFFFF" fill-opacity="0.7" d="M189.649,397.313c-0.005,0-0.009,0.001-0.014,0.001v0.004h0.027v-0.004
			C189.658,397.314,189.654,397.313,189.649,397.313z"/>
		<path fill="#FFFFFF" fill-opacity="0.7" d="M189.569,397.318h0.066c-0.011,0-0.022-0.001-0.033-0.002
			C189.591,397.316,189.58,397.318,189.569,397.318z"/>
		<path fill="#FFFFFF" fill-opacity="0.7" d="M189.663,397.318h0.066c-0.011,0-0.022-0.001-0.033-0.002
			C189.685,397.316,189.674,397.318,189.663,397.318z"/>
		<path fill="#FF0046" fill-opacity="0.7" d="M189.663,388.332c-0.009,0-0.018,0-0.027,0c0.004,0,0.009,0.001,0.014,0.001
			S189.658,388.332,189.663,388.332z"/>
		<path fill="#FF0046" fill-opacity="0.7" d="M191.323,399.921c4.195,1.571,4.801,4.666,7.225,4.645l0,0.021
			c0.011,0,0.022-0.003,0.033-0.004c0.011,0.001,0.022,0.003,0.033,0.004v-0.008c0.004,0,0.009-0.001,0.014-0.002
			c0.005,0,0.009,0.002,0.014,0.002v0.008c0.011,0,0.022-0.003,0.033-0.004c0.011,0.001,0.022,0.003,0.033,0.004l0-0.021
			c1.428-0.174,3.052-2.043,6.559-5.553c1.609-1.611,3.971-2.723,6.276-3.342c1.184-0.318,0.28-0.662,0.28-0.662
			s-2.562-0.685-4.84-2.169c-5.703,1.492-17.66,3.743-23.363,5.244C184.403,398.553,185.778,397.844,191.323,399.921z"/>
		<path fill="#FFFFFF" fill-opacity="0.7" d="M190.314,397.278c5.556-1.465,11.113-2.984,16.669-4.437
			c-0.61-0.398-1.201-0.85-1.716-1.365c-3.211-3.218-4.84-5.046-6.19-5.466c0,0-0.368-0.095-0.436-0.101l0-0.004
			c-0.004,0-0.009,0.002-0.014,0.002s-0.009-0.002-0.014-0.002l0,0.004c-0.229,0.019-0.467,0.098-0.712,0.206l-27.401,4.576
			c-0.003,0-0.005,0-0.008-0.001l0,0.002c-1.445,0.058-3.063,0.949-6.626,2.644c-2.435,1.159-6.556,1.679-6.556,1.679
			s-0.905,0.163,0.28,0.314c2.305,0.294,4.667,0.823,6.276,1.587c3.508,1.667,5.131,2.555,6.559,2.637l0,0.01
			c0.011,0,0.022-0.001,0.033-0.002c0.011,0,0.022,0.002,0.033,0.002v-0.003c0.004,0,0.009-0.001,0.014-0.001
			c0.005,0,0.009,0.001,0.014,0.001v0.003c0.011,0,0.022-0.001,0.033-0.002c0.011,0,0.022,0.002,0.033,0.002l0-0.01l10.096-1.148
			c0.018,0.011,9.172-1.02,9.19-1.01c0.076-0.02,0.152-0.041,0.228-0.061l0.185-0.021L190.314,397.278z"/>
	</g>
	<path fill="#FF0046" fill-opacity="0.7" d="M403.234,395.129c0,0-4.121-0.539-6.556-1.74c-3.562-1.757-5.18-2.681-6.626-2.741
		l0-0.002c-0.004,0-0.009,0.001-0.014,0.001c-0.005,0-0.009-0.001-0.014-0.001l0,0.002c-0.011,0-0.024,0.003-0.035,0.004
		l-27.682,0.041l-27.606,1.728l0,0.001c-1.445,0.031-3.063,0.503-6.626,1.402c-2.435,0.614-6.556,0.89-6.556,0.89
		s-0.905,0.087,0.28,0.167c2.305,0.156,4.667,0.436,6.276,0.842c3.508,0.884,5.131,1.355,6.559,1.398l0,0.005
		c0.011,0,0.022-0.001,0.033-0.001c0.011,0,0.022,0.001,0.033,0.001v-0.002c0.004,0,0.009,0,0.014,0c0.005,0,0.009,0,0.014,0v0.002
		c0.011,0,0.022-0.001,0.033-0.001c0.011,0,0.022,0.001,0.033,0.001l27.61,2.656l27.552,0.057v0.005
		c0.011,0,0.022-0.002,0.033-0.002c0.011,0,0.022,0.002,0.033,0.002v-0.004c0.004,0,0.009-0.001,0.014-0.001
		c0.005,0,0.009,0.001,0.014,0.001v0.004c0.011,0,0.022-0.002,0.033-0.002c0.011,0,0.022,0.002,0.033,0.002l0-0.01
		c1.428-0.085,3.052-1.005,6.559-2.734c1.609-0.793,3.971-1.34,6.276-1.645C404.138,395.298,403.234,395.129,403.234,395.129z"/>
	<path fill="#FF0046" fill-opacity="0.7" d="M596.612,395.129c0,0-4.121-0.539-6.556-1.74c-3.562-1.757-5.18-2.681-6.626-2.741
		l0-0.002c-0.004,0-0.009,0.001-0.014,0.001c-0.005,0-0.009-0.001-0.014-0.001l0,0.002c-0.011,0-0.024,0.003-0.035,0.004
		l-26.647,1.769l0,0.001c-1.445,0.031-3.063,0.503-6.626,1.402c-2.435,0.614-6.556,0.89-6.556,0.89s-0.905,0.087,0.28,0.167
		c2.305,0.156,4.667,0.436,6.276,0.842c3.508,0.884,5.131,1.355,6.559,1.398l0,0.005c0.011,0,0.022-0.001,0.033-0.001
		c0.011,0,0.022,0.001,0.033,0.001v-0.002c0.005,0,0.009,0,0.014,0c0.005,0,0.009,0,0.014,0v0.002c0.011,0,0.022-0.001,0.033-0.001
		c0.011,0,0.022,0.001,0.033,0.001l26.522,2.713v0.005c0.011,0,0.022-0.002,0.033-0.002c0.011,0,0.022,0.002,0.033,0.002v-0.004
		c0.004,0,0.009-0.001,0.014-0.001c0.005,0,0.009,0.001,0.014,0.001v0.004c0.011,0,0.022-0.002,0.033-0.002
		c0.011,0,0.022,0.002,0.033,0.002l0-0.01c1.428-0.085,3.052-1.005,6.559-2.734c1.609-0.793,3.971-1.34,6.276-1.645
		C597.516,395.298,596.612,395.129,596.612,395.129z"/>
</g>
<style>
#g-liders2-medium-yuschenko-img rect, #g-liders2-medium-yuschenko-img circle, #g-liders2-medium-yuschenko-img path, #g-liders2-medium-yuschenko-img line, #g-liders2-medium-yuschenko-img polyline, #g-liders2-medium-yuschenko-img polygon { vector-effect: non-scaling-stroke; }
</style>
</svg>

