<?xml version="1.0" encoding="utf-8"?>
<!-- Generator: Adobe Illustrator 27.4.0, SVG Export Plug-In . SVG Version: 6.00 Build 0)  -->
<svg version="1.2" baseProfile="tiny" id="g-liders2-mobile-obama-img"
	 xmlns="http://www.w3.org/2000/svg" xmlns:xlink="http://www.w3.org/1999/xlink" x="0px" y="0px" viewBox="0 0 300 350"
	 overflow="visible" xml:space="preserve">
<g>
	<path fill="#FF0046" fill-opacity="0.7" d="M230.641,129.341c0,0-0.986-0.208-1.862-0.66c-0.235-0.121-0.462-0.258-0.66-0.415
		c-1.37-1.086-1.993-1.656-2.548-1.693l0-0.001c-0.002,0-0.004,0.001-0.005,0.001c-0.002,0-0.004,0-0.005-0.001l0,0.001
		c-0.556,0.037-1.178,0.608-2.548,1.693c-0.936,0.742-2.522,1.075-2.522,1.075s-0.348,0.105,0.108,0.201
		c0.55,0.117,1.108,0.292,1.601,0.524c0.301,0.142,0.578,0.306,0.814,0.492c1.349,1.068,1.974,1.636,2.523,1.689l0,0.006
		c0.004,0,0.009-0.001,0.013-0.001c0.004,0,0.009,0.001,0.013,0.001v-0.002c0.002,0,0.004,0,0.005-0.001
		c0.002,0,0.004,0.001,0.005,0.001v0.002c0.004,0,0.009-0.001,0.013-0.001c0.004,0,0.009,0.001,0.013,0.001l0-0.006
		c0.549-0.053,1.174-0.621,2.523-1.689c0.619-0.49,1.527-0.828,2.414-1.017C230.989,129.446,230.641,129.341,230.641,129.341z"/>
	<path fill="#FF0046" fill-opacity="0.7" d="M150.927,127.925c-3.329,0-7.316-3.223-10.645-4.463
		c-3.327-1.239-7.348-2.107-10.676-2.974v-0.001c-0.001,0-0.001,0-0.002,0.001c-0.001,0-0.002-0.001-0.003-0.001v0.002
		c-0.002,0-0.004-0.002-0.005-0.002l0,0.004c-0.443,0.093-0.934,1.267-1.805,3.459l2.436,3.369l3.435,3.991
		c2.254,2.347,4.569,4.054,6.621,4.054C143.611,135.363,147.598,127.925,150.927,127.925z"/>
	<path fill="#FFFFFF" fill-opacity="0.7" d="M143.078,134.037c-0.962,0.518-1.903,0.994-2.797,1.327
		C141.175,135.363,142.116,134.82,143.078,134.037z"/>
	<path fill="#FFFFFF" fill-opacity="0.7" d="M172.252,133.876c3.329,0,7.334-0.992,10.663-1.488
		C179.586,132.884,175.581,132.884,172.252,133.876z"/>
	<path fill="#FFFFFF" fill-opacity="0.7" d="M150.927,127.925c-2.436,0-5.223,3.974-7.848,6.111
		c2.625-1.412,5.412-3.136,7.848-3.136c3.329,0,7.334,10.413,10.663,10.413c3.338,0,7.325-6.444,10.663-7.438
		c-3.338,0-7.325-0.496-10.663-1.488C158.26,131.399,154.255,127.925,150.927,127.925z"/>
	<path fill="#FFFFFF" fill-opacity="0.7" d="M133.598,131.245c0.021,0.021,0.042,0.043,0.062,0.064l-2.99-3.474l0,0
		c-0.363-0.463-0.721-0.93-1.07-1.397v0.016l0,0l-1.81-2.504c-0.223,0.561-0.464,1.171-0.743,1.867
		c-0.937,2.334-2.522,3.382-2.522,3.382s-0.348,0.329,0.108,0.633c0.887,0.592,1.795,1.657,2.414,3.197
		c1.349,3.358,1.974,5.146,2.523,5.312l0,0.02c0.004,0,0.009-0.003,0.013-0.003c0.004,0.001,0.009,0.003,0.013,0.003v-0.007
		c0.002,0,0.004-0.002,0.005-0.002c0.002,0,0.004,0.002,0.005,0.002v0.007c0.004,0,0.009-0.003,0.013-0.003
		c0.004,0.001,0.009,0.003,0.013,0.003l0-0.02c0.008-0.002,0.017-0.013,0.025-0.016c0.665-0.173,1.36-0.347,2.068-0.523
		c2.827-0.703,5.909-1.453,8.557-2.438c-2.031,0-4.321-1.666-6.554-3.975C133.684,131.343,133.642,131.291,133.598,131.245z"/>
	<path fill="#FF0046" fill-opacity="0.7" d="M198.615,129.353c0,0-1.585-0.189-2.522-0.61c-1.37-0.616-1.993-0.94-2.548-0.961
		l0-0.001c-0.002,0-0.004,0-0.005,0c-0.002,0-0.004,0-0.005,0l0,0.001c-0.134,0.005-0.272,0.029-0.422,0.068
		c-2.3-0.047-7.033-0.941-10.197-1.413c-3.329-0.496-7.334-0.496-10.663-1.488c-3.338-0.994-7.325-7.438-10.663-7.438
		c-3.329,0-7.334,10.413-10.663,10.413c3.329,0,7.334,3.474,10.663,4.463c3.338,0.992,7.325,1.488,10.663,1.488
		c3.329,0,7.334-0.992,10.663-1.488c3.189-0.475,8.09-1.379,10.37-1.413c0.077,0.014,0.152,0.024,0.224,0.028l0,0.004
		c0.004,0,0.009-0.001,0.013-0.001c0.004,0,0.009,0.001,0.013,0.001v-0.001c0.002,0,0.004,0,0.005,0c0.002,0,0.004,0,0.005,0v0.001
		c0.004,0,0.009-0.001,0.013-0.001c0.004,0,0.009,0.001,0.013,0.001l0-0.004c0.549-0.03,1.174-0.353,2.523-0.958
		c0.619-0.278,1.527-0.47,2.414-0.577C198.963,129.412,198.615,129.353,198.615,129.353z"/>
</g>
<style>
#g-liders2-mobile-obama-img rect, #g-liders2-mobile-obama-img circle, #g-liders2-mobile-obama-img path, #g-liders2-mobile-obama-img line, #g-liders2-mobile-obama-img polyline, #g-liders2-mobile-obama-img polygon { vector-effect: non-scaling-stroke; }
</style>
</svg>

