<?xml version="1.0" encoding="utf-8"?>
<!-- Generator: Adobe Illustrator 27.4.0, SVG Export Plug-In . SVG Version: 6.00 Build 0)  -->
<svg version="1.2" baseProfile="tiny" id="g-liders2-mobile-kuchma-img"
	 xmlns="http://www.w3.org/2000/svg" xmlns:xlink="http://www.w3.org/1999/xlink" x="0px" y="0px" viewBox="0 0 300 350"
	 overflow="visible" xml:space="preserve">
<g>
	<path fill="#FFFFFF" fill-opacity="0.7" d="M64.478,309.092c-0.536-0.183-1.563-0.483-3.393-3.965
		c-2.36-4.489-3.743-6.945-4.8-7.503c-0.107-0.087-0.205-0.133-0.296-0.133c-0.018,0-0.037,0.008-0.055,0.009
		c-0.005-0.001-0.01-0.003-0.014-0.004l0-0.005c-0.004,0-0.007,0.002-0.011,0.003v0.01c-3.314,0.139-7.34,8.913-10.642,8.913
		c-3.329,0-7.612-7.438-10.941-7.438c-3.329,0-7.098,7.438-10.427,7.438c-3.338,0-7.282,0-10.62,0v5.95c3.338,0,7.282,0,10.62,0
		c3.329,0,7.098,7.438,10.427,7.438c3.329,0,7.612-7.438,10.941-7.438c3.302,0,7.328,8.774,10.642,8.913v0.001
		c0.004,0,0.007,0.002,0.011,0.003v0.009c0.009-0.001,0.017-0.004,0.026-0.005c0.009,0.001,0.017,0.004,0.026,0.005v-0.003
		c0.006,0,0.012,0.003,0.017,0.003c0.313,0,0.564-0.185,0.78-0.509c0.976-0.922,2.177-3.126,4.315-6.592
		c1.266-2.052,1.467-3.197,3.173-4.258C65.172,309.366,64.478,309.092,64.478,309.092z"/>
	<path fill="#FF0046" fill-opacity="0.7" d="M145.339,309.355c0,0-1.585-0.174-2.522-0.563c-1.37-0.568-1.993-0.867-2.548-0.887
		l0-0.001c-0.002,0-0.004,0-0.005,0c-0.002,0-0.004,0-0.005,0l0,0.001c-0.556,0.019-1.178,0.318-2.548,0.887
		c-0.937,0.388-2.522,0.563-2.522,0.563s-0.348,0.055,0.108,0.105c0.887,0.099,1.795,0.276,2.414,0.532
		c1.349,0.559,1.974,0.857,2.523,0.884l0,0.003c0.004,0,0.009,0,0.013-0.001c0.004,0,0.009,0.001,0.013,0.001v-0.001
		c0.002,0,0.004,0,0.005,0c0.002,0,0.004,0,0.005,0v0.001c0.004,0,0.009,0,0.013-0.001c0.004,0,0.009,0.001,0.013,0.001l0-0.003
		c0.549-0.028,1.174-0.325,2.523-0.884c0.619-0.256,1.527-0.434,2.414-0.532C145.687,309.409,145.339,309.355,145.339,309.355z"/>
</g>
<style>
#g-liders2-mobile-kuchma-img rect, #g-liders2-mobile-kuchma-img circle, #g-liders2-mobile-kuchma-img path, #g-liders2-mobile-kuchma-img line, #g-liders2-mobile-kuchma-img polyline, #g-liders2-mobile-kuchma-img polygon { vector-effect: non-scaling-stroke; }
</style>
</svg>

