<?xml version="1.0" encoding="utf-8"?>
<!-- Generator: Adobe Illustrator 27.4.0, SVG Export Plug-In . SVG Version: 6.00 Build 0)  -->
<svg version="1.2" baseProfile="tiny" id="g-liders2-mobile-yuschenko-img"
	 xmlns="http://www.w3.org/2000/svg" xmlns:xlink="http://www.w3.org/1999/xlink" x="0px" y="0px" viewBox="0 0 300 350"
	 overflow="visible" xml:space="preserve">
<g>
	<g>
		<polygon fill="#FFFFFF" fill-opacity="0.7" points="73.802,285.454 73.796,285.454 73.796,285.457 73.807,285.457 73.807,285.454 
					"/>
		<path fill="#FFFFFF" fill-opacity="0.7" d="M73.771,285.457h0.026c-0.004,0-0.009-0.001-0.013-0.001
			C73.779,285.456,73.775,285.457,73.771,285.457z"/>
		<path fill="#FFFFFF" fill-opacity="0.7" d="M73.807,285.457h0.026c-0.004,0-0.009-0.001-0.013-0.001
			C73.816,285.456,73.811,285.457,73.807,285.457z"/>
		<polygon fill="#FF0046" fill-opacity="0.7" points="73.807,279.774 73.796,279.774 73.802,279.775 		"/>
		<path fill="#FF0046" fill-opacity="0.7" d="M74.446,287.103c1.613,0.993,1.847,2.95,2.779,2.937l0,0.013
			c0.004,0,0.009-0.002,0.013-0.002c0.004,0,0.009,0.002,0.013,0.002v-0.005c0.002,0,0.004-0.001,0.005-0.001
			c0.002,0,0.004,0.001,0.005,0.001v0.005c0.004,0,0.009-0.002,0.013-0.002c0.004,0,0.009,0.002,0.013,0.002l0-0.013
			c0.549-0.11,1.174-1.292,2.523-3.511c0.619-1.018,1.527-1.722,2.414-2.113c0.456-0.201,0.108-0.419,0.108-0.419
			s-0.986-0.433-1.862-1.372c-2.194,0.943-6.793,2.367-8.987,3.316C71.784,286.238,72.313,285.79,74.446,287.103z"/>
		<path fill="#FFFFFF" fill-opacity="0.7" d="M74.058,285.431c2.137-0.927,4.274-1.887,6.412-2.806
			c-0.235-0.252-0.462-0.537-0.66-0.863c-1.235-2.035-1.862-3.191-2.381-3.457c0,0-0.142-0.06-0.168-0.064l0-0.003
			c-0.002,0-0.004,0.001-0.005,0.001s-0.004-0.001-0.005-0.001l0,0.003c-0.088,0.012-0.18,0.062-0.274,0.13l-10.539,2.894
			c-0.001,0-0.002,0-0.003,0l0,0.001c-0.556,0.036-1.178,0.6-2.548,1.672C62.949,283.67,61.364,284,61.364,284
			s-0.348,0.103,0.108,0.199c0.887,0.186,1.795,0.52,2.414,1.004c1.349,1.054,1.974,1.616,2.523,1.668l0,0.006
			c0.004,0,0.009-0.001,0.013-0.001c0.004,0,0.009,0.001,0.013,0.001v-0.002c0.002,0,0.004,0,0.005-0.001
			c0.002,0,0.004,0,0.005,0.001v0.002c0.004,0,0.009-0.001,0.013-0.001c0.004,0,0.009,0.001,0.013,0.001l0-0.006l3.883-0.726
			c0.007,0.007,3.528-0.645,3.535-0.638c0.029-0.013,0.059-0.026,0.088-0.039l0.071-0.013L74.058,285.431z"/>
	</g>
	<path fill="#FF0046" fill-opacity="0.7" d="M155.956,284.073c0,0-1.585-0.341-2.522-1.101c-1.37-1.111-1.993-1.695-2.548-1.733
		l0-0.001c-0.002,0-0.004,0-0.005,0.001c-0.002,0-0.004-0.001-0.005-0.001l0,0.001c-0.004,0-0.009,0.002-0.014,0.003l-10.648,0.026
		l-10.618,1.093l0,0.001c-0.556,0.019-1.178,0.318-2.548,0.887c-0.937,0.388-2.522,0.563-2.522,0.563s-0.348,0.055,0.108,0.105
		c0.887,0.099,1.795,0.276,2.414,0.532c1.349,0.559,1.974,0.857,2.523,0.884l0,0.003c0.004,0,0.009-0.001,0.013-0.001
		c0.004,0,0.009,0.001,0.013,0.001v-0.001c0.002,0,0.004,0,0.005,0c0.002,0,0.004,0,0.005,0v0.001c0.004,0,0.009-0.001,0.013-0.001
		c0.004,0,0.009,0.001,0.013,0.001l10.62,1.679l10.598,0.036v0.003c0.004,0,0.009-0.001,0.013-0.001
		c0.004,0,0.009,0.001,0.013,0.001v-0.002c0.002,0,0.004-0.001,0.005-0.001c0.002,0,0.004,0,0.005,0.001v0.002
		c0.004,0,0.009-0.001,0.013-0.001c0.004,0,0.009,0.001,0.013,0.001l0-0.006c0.549-0.054,1.174-0.636,2.523-1.729
		c0.619-0.501,1.527-0.848,2.414-1.04C156.304,284.18,155.956,284.073,155.956,284.073z"/>
	<path fill="#FF0046" fill-opacity="0.7" d="M230.338,284.073c0,0-1.585-0.341-2.522-1.101c-1.37-1.111-1.993-1.695-2.548-1.733
		l0-0.001c-0.002,0-0.004,0-0.005,0.001c-0.002,0-0.004-0.001-0.005-0.001l0,0.001c-0.004,0-0.009,0.002-0.014,0.003l-10.25,1.119
		l0,0.001c-0.556,0.019-1.178,0.318-2.548,0.887c-0.936,0.388-2.522,0.563-2.522,0.563s-0.348,0.055,0.108,0.105
		c0.887,0.099,1.795,0.276,2.414,0.532c1.349,0.559,1.974,0.857,2.523,0.884l0,0.003c0.004,0,0.009-0.001,0.013-0.001
		c0.004,0,0.009,0.001,0.013,0.001v-0.001c0.002,0,0.004,0,0.005,0c0.002,0,0.004,0,0.005,0v0.001c0.004,0,0.009-0.001,0.013-0.001
		c0.004,0,0.009,0.001,0.013,0.001l10.202,1.716v0.003c0.004,0,0.009-0.001,0.013-0.001c0.004,0,0.009,0.001,0.013,0.001v-0.002
		c0.002,0,0.004-0.001,0.005-0.001c0.002,0,0.004,0,0.005,0.001v0.002c0.004,0,0.009-0.001,0.013-0.001
		c0.004,0,0.009,0.001,0.013,0.001l0-0.006c0.549-0.054,1.174-0.636,2.523-1.729c0.619-0.501,1.527-0.848,2.414-1.04
		C230.686,284.18,230.338,284.073,230.338,284.073z"/>
</g>
<style>
#g-liders2-mobile-yuschenko-img rect, #g-liders2-mobile-yuschenko-img circle, #g-liders2-mobile-yuschenko-img path, #g-liders2-mobile-yuschenko-img line, #g-liders2-mobile-yuschenko-img polyline, #g-liders2-mobile-yuschenko-img polygon { vector-effect: non-scaling-stroke; }
</style>
</svg>

