<?xml version="1.0" encoding="utf-8"?>
<!-- Generator: Adobe Illustrator 27.4.0, SVG Export Plug-In . SVG Version: 6.00 Build 0)  -->
<svg id="svg1" version="1.0" xmlns="http://www.w3.org/2000/svg" xmlns:xlink="http://www.w3.org/1999/xlink" x="0px" y="0px"
	 viewBox="0 0 846 517.6" style="enable-background:new 0 0 846 517.6;" xml:space="preserve">
<style type="text/css">
	.st0{fill:#070707;stroke:#000000;stroke-miterlimit:10;}
	.st1{fill:none;stroke:#FFFFFF;stroke-width:0.25;stroke-miterlimit:10;stroke-dasharray:4;}
	.st2{fill:none;stroke:#FFFFFF;stroke-width:0.25;stroke-miterlimit:10;}
	.st3{fill:#FFFFFF;}
	.st4{font-family:'ProximaNova', sans-serif;}
	.st5{font-size:13px;}
	.st6{fill:#FFFFFF;fill-opacity:0.7;}
	.st7{fill:#FF0046;fill-opacity:0.7;}
	.st8{display:none;fill:none;stroke:#FF0000;}
	.st9{display:none;fill:#4328E7;fill-opacity:0;}
	.st10{display:none;fill:#9654E5;fill-opacity:0;}
	.st11{display:none;fill:#FF6283;fill-opacity:0;}
	.st12{display:none;fill:#FF8800;fill-opacity:0;}
	.st13{display:none;fill:#FFC502;fill-opacity:0;}
	.st14{display:none;fill:#007D8E;fill-opacity:0;}
	.st15{display:none;fill:#1AA7EE;fill-opacity:0;}
	.st16{fill:#848484;}
	.st17{font-size:11px;}
	.st18{fill:none;}
	.st19{fill:#FF0046;}
	.st20{font-family:'ProximaNova', sans-serif; font-weight: bold; }
	.st21{font-size:15px;}
</style>

<g id="back">
	<g>
		<line class="st1" x1="599.8" y1="11" x2="599.8" y2="496.9"/>
		<line class="st1" x1="571.6" y1="83.5" x2="571.6" y2="496.9"/>
		<line class="st1" x1="543.4" y1="83.5" x2="543.4" y2="496.9"/>
		<line class="st1" x1="515.2" y1="83.5" x2="515.2" y2="496.9"/>
		<line class="st1" x1="487" y1="83.5" x2="487" y2="496.9"/>
		<line class="st1" x1="458.8" y1="83.5" x2="458.8" y2="496.9"/>
		<line class="st1" x1="430.7" y1="83.5" x2="430.7" y2="496.9"/>
		<line class="st1" x1="402.5" y1="83.5" x2="402.5" y2="496.9"/>
		<line class="st1" x1="374.3" y1="83.5" x2="374.3" y2="496.9"/>
		<line class="st1" x1="346.1" y1="83.5" x2="346.1" y2="496.9"/>
		<line class="st1" x1="317.9" y1="83.5" x2="317.9" y2="496.9"/>
		<line class="st1" x1="264.1" y1="83.5" x2="264.1" y2="496.9"/>
		<line class="st1" x1="236" y1="83.5" x2="236" y2="496.9"/>
		<line class="st1" x1="207.8" y1="83.5" x2="207.8" y2="496.9"/>
		<line class="st1" x1="179.6" y1="83.5" x2="179.6" y2="496.9"/>
		<line class="st1" x1="151.4" y1="83.5" x2="151.4" y2="496.9"/>
		<line class="st1" x1="123.2" y1="83.5" x2="123.2" y2="496.9"/>
		<line class="st1" x1="95.1" y1="83.5" x2="95.1" y2="496.9"/>
		<line class="st1" x1="66.9" y1="83.5" x2="66.9" y2="496.9"/>
		<line class="st1" x1="38.7" y1="83.5" x2="38.7" y2="496.9"/>
	</g>
	<line class="st2" x1="25.6" y1="122.2" x2="608.8" y2="122.2"/>
	<line class="st2" x1="25.6" y1="191.1" x2="608.8" y2="191.1"/>
	<line class="st2" x1="25.6" y1="254.4" x2="608.8" y2="254.4"/>
	<line class="st2" x1="25.6" y1="294.7" x2="608.8" y2="294.7"/>
	<line class="st2" x1="25.6" y1="329.8" x2="608.8" y2="329.8"/>
	<line class="st2" x1="25.6" y1="358.9" x2="608.8" y2="358.9"/>
	<line class="st2" x1="25.6" y1="385.6" x2="608.8" y2="385.6"/>
	<line class="st2" x1="25.6" y1="409.6" x2="608.8" y2="409.6"/>
	<line class="st2" x1="25.6" y1="432" x2="608.8" y2="432"/>
	<line class="st2" x1="25.6" y1="453.2" x2="608.8" y2="453.2"/>
	<line class="st2" x1="25.6" y1="473.6" x2="608.8" y2="473.6"/>
	<line class="st2" x1="25.6" y1="494.9" x2="608.8" y2="494.9"/>
	<g>
		<path class="st3" d="M764.7,451.5c-1.8,0-3.3-0.4-4.4-1.2c-1.4-0.9-2-2.3-2-4c0-1.6,0.6-2.9,1.8-3.8s2.8-1.4,4.7-1.4
			c1.8,0,3.3,0.4,4.5,1.3c1.3,0.9,1.9,2.2,1.9,3.9c0,1.7-0.6,3-1.9,3.9C768.1,451.1,766.6,451.5,764.7,451.5z M764.7,450.5
			c1.7,0,3-0.4,4-1.1s1.5-1.8,1.5-3.1c0-1.3-0.5-2.4-1.6-3.1c-1-0.7-2.3-1-3.8-1c-1.6,0-2.9,0.3-3.8,1c-1.1,0.7-1.7,1.8-1.7,3.2
			c0,1.4,0.6,2.5,1.7,3.2C761.9,450.2,763.2,450.5,764.7,450.5z"/>
		<path class="st3" d="M763.1,433.2h-4.9v-2.6h4.9l7.7-4.1v3l-5.1,2.4l5.1,2.5v3L763.1,433.2z"/>
		<path class="st3" d="M768.5,425.1v-3.7h-10.3v-2.7h10.3V415h2.4v10h-2.4V425.1z"/>
		<path class="st3" d="M764.8,409.8l-6.6,4.3v-3.2l4.4-2.7l-4.4-2.7v-3l6.6,4.3l6-4v3.1l-4.1,2.4l4.1,2.4v2.9L764.8,409.8z"/>
		<path class="st3" d="M768.6,400.6v-5h-2.8v4.5h-2.2v-4.5h-3.1v5.1h-2.3V393h12.7v7.6H768.6z"/>
		<path class="st3" d="M768.5,390.6V387h-10.3v-2.7h10.3v-3.7h2.4v10L768.5,390.6L768.5,390.6z"/>
		<path class="st3" d="M758.5,474.8v-0.9h2.1c-0.8-0.4-1.4-1-1.8-1.6c-0.4-0.7-0.6-1.5-0.6-2.5c0-1.6,0.6-2.9,1.9-3.8
			c1.2-0.8,2.7-1.2,4.7-1.2s3.5,0.4,4.7,1.3s1.8,2.2,1.8,3.8c0,1.2-0.3,2.3-1,3.1c-0.7,0.8-1.6,1.4-2.9,1.6v-1.1
			c0.9-0.2,1.6-0.6,2.1-1.3c0.5-0.7,0.8-1.4,0.8-2.3c0-1.4-0.5-2.5-1.6-3.2c-1-0.7-2.4-1-4.2-1c-1.4,0-2.7,0.4-3.6,1.1
			c-1,0.8-1.5,1.8-1.5,3c0,1.1,0.4,2,1.1,2.7c0.4,0.4,0.9,0.7,1.5,0.9c0.6,0.2,1.3,0.3,2.1,0.3v-3.8h1v4.8h-6.6V474.8z"/>
		<path class="st3" d="M763.4,490.4c-1.7,0-3-0.4-3.9-1.2c-0.9-0.8-1.3-1.9-1.3-3.3s0.4-2.5,1.1-3.2c0.9-0.9,2.2-1.3,4-1.3h7.5v1.1
			h-7.2c-1.6,0-2.7,0.3-3.4,0.8c-0.7,0.6-1,1.4-1,2.6c0,1.1,0.3,2,0.9,2.5c0.7,0.6,1.8,0.9,3.5,0.9h7.3v1.1H763.4z"/>
		<path class="st3" d="M758.2,502v-1.1l4-1.4v-5.3l-4-1.4v-1.1l12.6,4.6v1.2L758.2,502z M763.2,499.1l6.6-2.3l-6.6-2.3V499.1z"/>
		<circle class="st3" cx="759.4" cy="438.4" r="1.1"/>
		<circle class="st3" cx="759.4" cy="478.7" r="1.1"/>
		<path class="st3" d="M758.3,463.4l5.5-3.5c0.1,0.4,0.2,0.6,0.4,1c0.7,1.7,2.7,1.9,3.5,1.9c1.2,0,2.1-0.4,2.6-1.1
			c0.5-0.6,0.7-1.6,0.7-2.9v-4.6h-12.8v1.1h5.4v3.3l-5.4,3.5L758.3,463.4z M770,455.3v3.5c0,1-0.2,1.8-0.7,2.3
			c-0.4,0.4-0.9,0.6-1.7,0.6s-1.8-0.3-2.3-0.8c-0.4-0.5-0.7-1.2-0.7-2.1v-3.5H770z"/>
	</g>
</g>
<g id="other" mask="url(#mask2)">
	<text transform="matrix(1 0 0 1 613.2998 499.1282)" class="st3 st4 st5">Франція</text>
	<path class="st6" d="M136.7,494.2c0,0-4.2-0.8-6.7-2.7c-3.6-2.7-5.3-4.1-6.7-4.2l0,0l0,0l0,0l0,0c-1.5,0.1-3.1,1.5-6.7,4.2
		c-2.5,1.8-6.7,2.7-6.7,2.7s-0.9,0.3,0.3,0.5c2.3,0.5,4.7,1.3,6.4,2.5c3.6,2.7,5.2,4.1,6.7,4.2l0,0l0,0l0,0l0,0l0,0l0,0l0,0l0,0l0,0
		l0,0c1.5-0.1,3.1-1.5,6.7-4.2c1.6-1.2,4-2.1,6.4-2.5C137.6,494.4,136.7,494.2,136.7,494.2z"/>
	<path class="st6" d="M550.9,493.1c-0.1,0-0.3-0.1-0.4-0.1c-3.8-1.2-5.6-1.9-7.1-2l0,0l0,0l0,0l0,0l0,0l0,0l0,0l0,0l0,0l0,0
		c-1.5,0.1-3.3,0.7-7.1,2c-0.1,0-0.3,0.1-0.4,0.1c2.8-0.1,5.6-0.1,7.6-0.1C545.4,493,548.1,493.1,550.9,493.1z"/>
	<path class="st7" d="M557.3,494.2c-2.3-0.2-4.7-0.6-6.4-1.1c-2.8-0.1-5.5-0.1-7.6-0.1l0,0l0,0l0,0l0,0c-2,0-4.7,0.1-7.6,0.1
		c-1.7,0.5-4.1,0.9-6.4,1.1c-1.3,0.1-0.3,0.2-0.3,0.2s4.5,0.4,7.1,1.3c3.8,1.3,5.6,1.9,7.2,2l0,0l0,0l0,0l0,0l0,0l0,0l0,0l0,0
		c1.6,0,3.3-0.7,7.2-2c2.6-0.9,7.1-1.3,7.1-1.3S558.6,494.3,557.3,494.2z"/>
	<text transform="matrix(1 0 0 1 613.2998 477.2112)" class="st3 st4 st5">Туреччина</text>
	<path class="st6" d="M528.9,474.5c-2.5-0.4-5.1-1.1-6.8-2.2c-3.7-2.2-5.5-3.4-7-3.6l0,0l0,0l0,0l0,0l0,0l0,0l0,0l0,0l0,0l0,0l0,0
		l0,0l0,0l0,0c-1.5,0.2-3.3,1.4-7,3.6c-1.7,1-4.3,1.8-6.8,2.2c-1.3,0.2-0.3,0.4-0.3,0.4s4.5,0.7,7.1,2.3c3.7,2.2,5.5,3.4,7,3.6l0,0
		l0,0l0,0h0.1h0.1l0,0l0,0l0,0c1.5-0.2,3.3-1.4,7-3.6c2.6-1.6,7.1-2.3,7.1-2.3S530.2,474.7,528.9,474.5z"/>
	<path class="st7" d="M402.5,478.1L402.5,478.1C402.5,478.1,402.6,478.1,402.5,478.1C402.6,478.1,402.5,478.1,402.5,478.1z"/>
	<path class="st6" d="M403.7,478.4c-0.4-0.1-0.7-0.2-1.1-0.3C402.8,478.2,403.2,478.3,403.7,478.4z"/>
	<path class="st7" d="M402.3,478.1L402.3,478.1C402.3,478.1,402.2,478.1,402.3,478.1C402.2,478.1,402.3,478.1,402.3,478.1z"/>
	<path class="st6" d="M401.1,478.4c0.4-0.1,0.7-0.2,1.1-0.3C402,478.2,401.6,478.3,401.1,478.4z"/>
	<path class="st6" d="M416.6,474.6c0,0-4.5-0.7-7.1-2.3c-3.7-2.2-5.5-3.4-7-3.6l0,0l0,0l0,0h-0.1h-0.1l0,0l0,0l0,0
		c-1.5,0.2-3.3,1.4-7,3.6c-2.6,1.6-7.1,2.3-7.1,2.3s-1,0.2,0.3,0.4c2.5,0.4,5.1,1.1,6.8,2.2c1.2,0.7,2.1,1.3,3,1.8
		c1.5-0.3,2.9-0.6,4.1-0.9c1.2,0.3,2.6,0.6,4.1,0.9c0.8-0.5,1.8-1.1,3-1.8c1.7-1,4.3-1.8,6.8-2.2
		C417.6,474.8,416.6,474.6,416.6,474.6z"/>
	<path class="st7" d="M406.5,479c-1.5-0.3-2.8-0.6-4-0.9V478h-0.1h-0.1v0.1c-1.2,0.3-2.5,0.6-4,0.9c1.8,1.1,3,1.7,4,1.8l0,0l0,0l0,0
		l0,0l0,0l0,0l0,0l0,0l0,0l0,0l0,0l0,0l0,0l0,0C403.5,480.7,404.7,480.1,406.5,479z"/>
	<path class="st6" d="M473.8,474.6c0,0-4.6-0.9-7.3-2.8c-4-2.9-5.8-4.4-7.4-4.5l0,0l0,0l0,0l0,0c-1.6,0.1-3.4,1.6-7.4,4.5
		c-2.7,2-7.3,2.8-7.3,2.8s-1,0.3,0.3,0.5c2.6,0.5,5.2,1.4,7,2.7c3.9,2.8,5.7,4.3,7.3,4.5l0,0l0,0l0,0l0,0l0,0l0,0l0,0l0,0l0,0l0,0
		c1.6-0.1,3.4-1.6,7.3-4.5c1.8-1.3,4.4-2.2,7-2.7C474.9,474.8,473.8,474.6,473.8,474.6z"/>
	<text transform="matrix(1 0 0 1 613.2998 456.7357)" class="st3 st4 st5">Іран</text>
	<path class="st6" d="M249,452.5c0,0-4.2-0.9-6.7-2.8c-3.6-2.9-5.3-4.4-6.7-4.5l0,0l0,0l0,0l0,0c-1.5,0.1-3.1,1.6-6.7,4.5
		c-2.5,2-6.7,2.8-6.7,2.8s-0.9,0.3,0.3,0.5c2.3,0.5,4.7,1.4,6.4,2.7c3.6,2.8,5.2,4.3,6.7,4.5l0,0l0,0l0,0l0,0l0,0l0,0l0,0l0,0l0,0
		l0,0c1.5-0.1,3.1-1.6,6.7-4.5c1.6-1.3,4-2.2,6.4-2.7C249.9,452.8,249,452.5,249,452.5z"/>
	<path class="st6" d="M221.2,452.6c0,0-4.2-0.7-6.7-2.4c-3.6-2.4-5.3-3.6-6.7-3.7l0,0l0,0l0,0l0,0l0,0c-1.5,0.1-3.1,1.3-6.7,3.7
		c-2.5,1.6-6.7,2.4-6.7,2.4s-0.9,0.2,0.3,0.4c2.3,0.4,4.7,1.2,6.4,2.2c0.9,0.6,1.7,1.2,2.4,1.6c1.6-0.3,3-0.6,4.3-0.8l0,0
		c1.3,0.2,2.7,0.5,4.3,0.8c0.7-0.5,1.5-1,2.4-1.6c1.6-1.1,4-1.8,6.4-2.2C222.1,452.8,221.2,452.6,221.2,452.6z"/>
	<path class="st7" d="M212.1,456.9c-1.6-0.3-4.3-0.8-4.3-0.8c-1.3,0.2-2.7,0.5-4.3,0.8c2,1.3,3.2,2,4.2,2.1l0,0l0,0l0,0l0,0l0,0l0,0
		l0,0l0,0l0,0l0,0l0,0C209,458.9,210.1,458.2,212.1,456.9z"/>
	<path class="st6" d="M500.9,452.4c-2.5-0.4-5.1-1.1-6.8-2.2c-3.8-2.3-5.6-3.5-7.1-3.6l0,0l0,0l0,0l0,0l0,0l0,0l0,0l0,0l0,0l0,0
		c-1.5,0.1-3.3,1.3-7.1,3.6c-1.7,1-4.3,1.8-6.8,2.2c-1.3,0.2-0.3,0.4-0.3,0.4s4.5,0.7,7.1,2.3c3.9,2.3,5.6,3.5,7.2,3.6l0,0l0,0l0,0
		l0,0c1.6-0.1,3.3-1.3,7.2-3.6c2.6-1.6,7.1-2.3,7.1-2.3S502.2,452.6,500.9,452.4z"/>
	<text transform="matrix(1 0 0 1 613.2998 436.3431)" class="st3 st4 st5">Ірак</text>
	<path class="st6" d="M158,435.2c1.6-1.6,4-2.6,6.4-3.2c1.2-0.3,0.3-0.6,0.3-0.6s-4.2-1.1-6.7-3.4c-3.6-3.4-5.3-5.3-6.7-5.4l0,0l0,0
		l0,0l0,0c-1.5,0.1-3.1,1.9-6.7,5.4c-2.5,2.4-6.7,3.4-6.7,3.4s-0.9,0.3,0.3,0.6c2.3,0.6,4.7,1.7,6.4,3.2c1.4,1.4,2.6,2.5,3.5,3.3
		l6.8-0.2C155.6,437.5,156.7,436.5,158,435.2z"/>
	<path class="st7" d="M151.2,440.6L151.2,440.6L151.2,440.6L151.2,440.6L151.2,440.6L151.2,440.6L151.2,440.6c0.1,0,0.1,0,0.1,0l0,0
		l0,0c0.9-0.1,1.9-0.9,3.4-2.3l-6.8,0.2C149.3,439.8,150.3,440.5,151.2,440.6L151.2,440.6z"/>
	<path class="st6" d="M192.6,431.5c0,0-4.2-0.4-6.7-1.4c-3.6-1.4-5.3-2.1-6.7-2.2l0,0l0,0l0,0l0,0c-1.5,0-3.1,0.8-6.7,2.2
		c-2.5,1-6.7,1.4-6.7,1.4s-0.9,0.1,0.3,0.3c2.3,0.2,4.7,0.7,6.4,1.3c3.6,1.4,5.2,2.1,6.7,2.2l0,0l0,0l0,0l0,0l0,0l0,0l0,0l0,0l0,0
		l0,0c1.5-0.1,3.1-0.8,6.7-2.2c1.6-0.6,4-1.1,6.4-1.3C193.5,431.6,192.6,431.5,192.6,431.5z"/>
	<path class="st6" d="M136.7,431.2c0,0-4.2-1.8-6.7-5.9c-3.6-5.9-5.3-9-6.7-9.2l0,0l0,0l0,0l0,0c-1.5,0.2-3.1,3.3-6.7,9.2
		c-2.5,4-6.7,5.9-6.7,5.9s-0.9,0.6,0.3,1.1c2.3,1,4.7,2.9,6.4,5.5c0.3,0.4,0.5,0.9,0.8,1.3l6,0.2l6-0.2c0.2-0.4,0.5-0.8,0.8-1.3
		c1.6-2.7,4-4.5,6.4-5.5C137.6,431.7,136.7,431.2,136.7,431.2z"/>
	<path class="st7" d="M129.3,439.1l-6,0.2l-6-0.2c3,5,4.6,7.7,5.9,7.9l0,0l0,0l0,0l0,0l0,0l0,0l0,0l0,0l0,0l0,0
		C124.7,446.8,126.2,444.1,129.3,439.1z"/>
	<text transform="matrix(1 0 0 1 613.2998 414.1702)" class="st3 st4 st5">Афганістан</text>
	<path class="st7" d="M66.6,404.9v0.4C79.6,406.1,75,405.8,66.6,404.9z"/>
	<path class="st6" d="M101.7,405c-3.7-4.1-5.3-6.2-6.8-6.3l0,0l0,0l0,0l0,0c-1.5,0.1-3.2,2.3-6.8,6.3c-0.5,0.5-1,1-1.5,1.4
		c6.4,0.3,12.7,0.5,17.6,0.6C103.3,406.5,102.4,405.8,101.7,405z"/>
	<path class="st7" d="M81.6,409.8c2.4,0.7,4.8,2,6.5,3.8c3.6,4,5.3,6.1,6.8,6.3l0,0l0,0l0,0l0,0l0,0l0,0l0,0l0,0l0,0l0,0
		c1.5-0.2,3.1-2.3,6.8-6.3c1.7-1.8,4.1-3.1,6.5-3.8c1.2-0.4,0.3-0.8,0.3-0.8s-2.2-0.6-4.3-2c-4.9-0.1-11.3-0.3-17.6-0.6
		c-2.4,1.8-5.2,2.6-5.2,2.6S80.4,409.4,81.6,409.8z"/>
	<path class="st6" d="M74.1,404.4c-3.7-4.7-5.4-7.2-6.9-7.3l0,0l0,0l0,0l0,0l0,0c-1.5,0.2-3.2,2.6-6.9,7.3c-0.4,0.5-0.8,1-1.3,1.4
		c3-0.2,5.9-0.3,8.2-0.4l0,0c2.4,0.1,5.2,0.3,8.2,0.4C75,405.4,74.5,404.9,74.1,404.4z"/>
	<path class="st7" d="M81,409.1c0,0-3-1-5.5-3.3c-3-0.2-5.9-0.3-8.2-0.4l0,0c-2.4,0.1-5.2,0.3-8.2,0.4c-2.5,2.2-5.5,3.3-5.5,3.3
		s-0.9,0.5,0.3,0.9c2.4,0.8,4.9,2.3,6.5,4.4c3.7,4.6,5.3,7.1,6.8,7.3l0,0l0,0l0,0l0,0l0,0l0,0l0,0l0,0l0,0l0,0l0,0
		c1.5-0.2,3.2-2.7,6.8-7.3c1.7-2.1,4.1-3.6,6.5-4.4C81.9,409.5,81,409.1,81,409.1z"/>
	<path class="st6" d="M585.6,409.1c-2.5-0.5-5.1-1.3-6.8-2.5c-3.8-2.6-5.6-4-7.1-4.1l0,0l0,0l0,0l0,0l0,0l0,0l0,0l0,0l0,0l0,0
		c-1.5,0.1-3.3,1.5-7.1,4.1c-1.7,1.2-4.3,2-6.8,2.5c-1.3,0.2-0.3,0.5-0.3,0.5s0.5,0.1,1.2,0.3h13.1h13.1c0.7-0.2,1.2-0.3,1.2-0.3
		S586.9,409.3,585.6,409.1z"/>
	<path class="st7" d="M571.6,409.8h-13.1c1.5,0.4,4.1,1.1,5.9,2.4c3.9,2.7,5.6,4.1,7.2,4.1l0,0l0,0l0,0l0,0c1.6-0.1,3.3-1.5,7.2-4.1
		c1.8-1.2,4.4-2,5.9-2.4H571.6z"/>
	<text transform="matrix(1 0 0 1 613.2998 390.4905)" class="st3 st4 st5">Білорусь</text>
	<path class="st6" d="M52.1,384.8c0,0-4.2-0.6-6.7-1.8c-3.6-1.8-5.3-2.8-6.7-2.8l0,0l0,0v9.5l0,0l0,0l0,0l0,0l0,0
		c1.5-0.1,3.1-1,6.7-2.8c1.6-0.8,4-1.4,6.4-1.7C53,385,52.1,384.8,52.1,384.8z"/>
	<path class="st6" d="M585.9,385.1c0,0,4.5,0.8,7.1,2.6c3.9,2.7,5.6,4.1,7.2,4.1l0,0l0,0V378l0,0l0,0l0,0l0,0l0,0
		c-1.5,0.1-3.3,1.5-7.1,4.1c-1.7,1.2-4.3,2-6.8,2.5C584.9,384.9,585.9,385.1,585.9,385.1z"/>
	<path class="st6" d="M585.6,384.8c0,0-4.6-0.8-7.3-2.6c-4-2.6-5.8-4-7.4-4.1l0,0l0,0l0,0l0,0c-1.6,0.1-3.4,1.5-7.4,4.1
		c-2.7,1.8-7.3,2.6-7.3,2.6s-1,0.3,0.3,0.5c2.6,0.5,5.2,1.3,7,2.4c3.9,2.6,5.7,3.9,7.3,4.1l0,0l0,0l0,0l0,0l0,0l0,0l0,0l0,0l0,0l0,0
		c1.6-0.1,3.4-1.5,7.3-4.1c1.8-1.2,4.4-2,7-2.4C586.6,385,585.6,384.8,585.6,384.8z"/>
	<path class="st6" d="M332.7,384.8c0,0-4.6-0.8-7.3-2.5c-4-2.5-5.8-3.9-7.4-3.9l0,0l0,0l0,0l0,0c-1.6,0.1-3.4,1.4-7.4,3.9
		c-2.7,1.7-7.3,2.5-7.3,2.5s-1,0.2,0.3,0.5c2.6,0.4,5.2,1.2,7,2.4c3.9,2.5,5.7,3.8,7.3,3.9l0,0l0,0l0,0l0,0l0,0l0,0l0,0l0,0l0,0l0,0
		c1.6-0.1,3.4-1.4,7.3-3.9c1.8-1.1,4.4-1.9,7-2.4C333.7,385,332.7,384.8,332.7,384.8z"/>
	<path class="st6" d="M360.9,384.8c0,0-4.6-0.8-7.3-2.5c-4-2.5-5.8-3.9-7.4-3.9l0,0l0,0l0,0l0,0c-1.6,0.1-3.4,1.4-7.4,3.9
		c-2.7,1.7-7.3,2.5-7.3,2.5s-1,0.2,0.3,0.5c2.6,0.4,5.2,1.2,7,2.4c3.9,2.5,5.7,3.8,7.3,3.9l0,0l0,0l0,0l0,0l0,0l0,0l0,0l0,0l0,0l0,0
		c1.6-0.1,3.4-1.4,7.3-3.9c1.8-1.1,4.4-1.9,7-2.4C361.9,385,360.9,384.8,360.9,384.8z"/>
	<text transform="matrix(1 0 0 1 613.3027 362.972)" class="st3 st4 st5">Казахстан</text>
	<path class="st6" d="M117.6,357.4"/>
	<path class="st6" d="M194.4,357.1"/>
	<path class="st6" d="M332.7,358.6c0,0-4.6-1.1-7.3-3.7c-4-3.7-5.8-5.7-7.4-5.8l0,0l0,0l0,0l0,0c-1.6,0.1-3.4,2.1-7.4,5.8
		c-2.7,2.5-7.3,3.7-7.3,3.7s-1,0.4,0.3,0.7c2.6,0.6,5.2,1.8,7,3.5c3.9,3.6,5.7,5.6,7.3,5.8l0,0l0,0l0,0l0,0l0,0l0,0l0,0l0,0l0,0l0,0
		c1.6-0.2,3.4-2.1,7.3-5.8c1.8-1.7,4.4-2.8,7-3.5C333.7,359,332.7,358.6,332.7,358.6z"/>
	<path class="st6" d="M250.1,358.6c0,0-4.4-1.1-7-3.7c-3.8-3.7-5.5-5.7-7.1-5.8l0,0l0,0l0,0l0,0c-1.5,0.1-3.3,2.1-7.1,5.8
		c-2.6,2.5-7,3.7-7,3.7s-1,0.4,0.3,0.7c2.5,0.6,5,1.8,6.7,3.5c3.7,3.6,5.5,5.6,7,5.8l0,0l0,0l0,0l0,0l0,0l0,0l0,0l0,0l0,0l0,0
		c1.5-0.2,3.3-2.1,7-5.8c1.7-1.7,4.2-2.8,6.7-3.5C251.1,359,250.1,358.6,250.1,358.6z"/>
	<path class="st6" d="M221.2,358.6c0,0-4.2-1.1-6.7-3.4c-3.6-3.4-5.3-5.3-6.7-5.4l0,0l0,0l0,0l0,0c-1.5,0.1-3.1,1.9-6.7,5.4
		c-2.5,2.4-6.7,3.4-6.7,3.4s-0.9,0.3,0.3,0.6c2.3,0.6,4.7,1.7,6.4,3.2c3.6,3.4,5.2,5.2,6.7,5.4l0,0l0,0l0,0l0,0l0,0l0,0l0,0l0,0l0,0
		l0,0c1.5-0.2,3.1-2,6.7-5.4c1.6-1.6,4-2.6,6.4-3.2C222.1,359,221.2,358.6,221.2,358.6z"/>
	<path class="st6" d="M108.5,358.7c0,0-4.2-0.9-6.7-2.9c-3.6-2.9-5.3-4.5-6.7-4.6l0,0l0,0l0,0l0,0c-1.5,0.1-3.1,1.6-6.7,4.6
		c-2.5,2-6.7,2.9-6.7,2.9s-0.9,0.3,0.3,0.5c2.3,0.5,4.7,1.4,6.4,2.7c3.6,2.9,5.2,4.4,6.7,4.6l0,0l0,0l0,0l0,0l0,0l0,0l0,0l0,0l0,0
		l0,0c1.5-0.1,3.1-1.7,6.7-4.6c1.6-1.3,4-2.2,6.4-2.7C109.4,359,108.5,358.7,108.5,358.7z"/>
	<path class="st6" d="M586.3,359c0,0,4.2,0.8,6.7,2.5c3.6,2.5,5.3,3.8,6.7,3.9l0,0l0,0v-13.1l0,0l0,0l0,0l0,0l0,0
		c-1.5,0.1-3.1,1.4-6.7,3.9c-1.6,1.1-4,1.9-6.4,2.3C585.4,358.8,586.3,359,586.3,359z"/>
	<path class="st6" d="M389.1,358.7c0,0-4.6-0.6-7.3-2.1c-4-2.1-5.8-3.2-7.4-3.2l0,0l0,0l0,0l0,0c-1.6,0.1-3.4,1.2-7.4,3.2
		c-2.7,1.4-7.3,2.1-7.3,2.1s-1,0.2,0.3,0.4c2.6,0.4,5.2,1,7,1.9c3.9,2,5.7,3.1,7.3,3.2l0,0l0,0l0,0l0,0l0,0l0,0l0,0l0,0l0,0l0,0
		c1.6-0.1,3.4-1.2,7.3-3.2c1.8-0.9,4.4-1.6,7-1.9C390.1,358.9,389.1,358.7,389.1,358.7z"/>
	<text transform="matrix(1 0 0 1 613.2998 334.053)" class="st3 st4 st5">Сирія</text>
	<path class="st6" d="M360.9,329.1c0,0-4.6-1.2-7.3-3.9c-4-3.9-5.8-6-7.4-6.1l0,0l0,0l0,0l0,0c-1.6,0.1-3.4,2.2-7.4,6.1
		c-2.7,2.7-7.3,3.9-7.3,3.9s-1,0.4,0.3,0.7c2.6,0.7,5.2,1.9,7,3.7c3.9,3.9,5.7,5.9,7.3,6.1l0,0l0,0l0,0l0,0l0,0l0,0l0,0l0,0l0,0l0,0
		c1.6-0.2,3.4-2.2,7.3-6.1c1.8-1.8,4.4-3,7-3.7C361.9,329.5,360.9,329.1,360.9,329.1z"/>
	<path class="st6" d="M556.7,329.4c0,0-4.2-0.4-6.7-1.4c-3.6-1.4-5.3-2.1-6.7-2.1l0,0l0,0v0.1c-9.6-1-18-2-27.5-4
		c-9.6-2-18-5.7-27.6-7.9c-9.6-2.3-19.2-5.7-28.8-5.7c-9.6,0-19.2,6.6-28.8,7.5c-9.6,0.9-28.8,1.3-28.8,1.3c0.1,0,0.1,0,0.1,0
		c-1.6,0.2-3.4,2.7-7.3,7.3c-2.7,3.2-7.3,4.7-7.3,4.7s-1,0.5,0.3,0.9c2.6,0.8,5.2,2.3,7,4.4c2,2.4,3.5,4.2,4.6,5.4c0.9,0,0.5,0,0,0
		c1.1,1.2,2,1.8,2.7,1.9l0,0l0,0l0,0l0,0l0,0l0,0l0,0l0,0l0,0l0,0c0.8-0.1,14,0.2,16-0.8c5.1,0.5,10.2,1,12.4,1.3
		c9.6,1.5,19.2,8.4,28.8,8.4c9.6,0,19.2-3.5,28.8-5.7c9.6-2.3,18-6,27.6-7.9c9.6-2,18-3,27.5-4l0,0l0,0l0,0l0,0l0,0l0,0
		c1.5-0.1,3.1-0.8,6.7-2.1c1.6-0.6,4-1,6.4-1.3C557.7,329.5,556.7,329.4,556.7,329.4z"/>
	<text transform="matrix(1 0 0 1 613.2998 300.2269)" class="st3 st4 st5">Німеччина</text>
	<path class="st7" d="M122.9,299.5c8-0.4,19.5-1.3,27.5-1.3s19.5,7.9,27.5,7.9c-8,0-19.5-8.8-27.5-8.8
		C142.4,297.3,130.9,299,122.9,299.5z"/>
	<path class="st7" d="M122.9,299.5c-8,0.4-19.5,0.5-27.5,0.9C103.4,300,114.9,300,122.9,299.5z"/>
	<path class="st6" d="M235.1,289.8c-7.9-1.8-19.5-3.2-27.5-4.4c-8-1.2-21.8-3.1-29.8-3.1s-19.5,7.9-27.5,7.9s-19.5-1-27.5-1.3
		c-8-0.4-19.5-0.5-27.5-0.9s-20.6-1.3-28.6-1.3S46,288.9,38,291.1v6.2c8,2.2,20.7,4.4,28.7,4.4s20.6-1,28.6-1.3
		c8-0.4,19.5-0.4,27.5-0.9s19.5-2.2,27.5-2.2s19.5,8.8,27.5,8.8s21.8-4,29.8-5.7s19.5-3.8,27.5-4.4s14.6-1.2,15.7-1.3
		C241.7,294.2,239.6,291.1,235.1,289.8z"/>
	<path class="st6" d="M381.3,291.9c-4-2.2-5.8-3.4-7.4-3.4l0,0l0,0l0,0l0,0l0,0l0,0c-16,1-40.1,1.9-56.1,2.6
		c-5.6,0.2-2.2,2.6-13.8,3.7c10.6,0.1,8,2.5,13.8,2.5c12.4,0,29.6-1.1,44.1-2.3c0.1,0,0.3,0.1,0.5,0.1c5.4-0.5,11.9-1,12.7-1.2
		l9-0.8C383.1,292.7,382.1,292.4,381.3,291.9z"/>
	<path class="st7" d="M388.6,294.1c0,0-2.3-0.3-4.6-1.1l-10.2,0.7c-16,1.8-40.1,3.5-56.1,3.5c15.9,0.7,39.7,1.7,55.7,2.6
		c0.1,0,0.2,0,0.3,0l0,0l0,0l0,0l0,0l0,0l0,0l0,0l0,0l0,0l0,0c1.6-0.1,3.4-1.3,7.3-3.4c1.8-1,4.4-1.7,7-2.1
		C389.7,294.3,388.6,294.1,388.6,294.1z"/>
	<path class="st7" d="M277.1,294.6c0,0-4-0.1-6.4-0.5c-3.5-0.5-5.1-0.7-6.5-0.7l0,0l0,0l0,0l0,0c-1.4,0-3,0.3-6.5,0.7
		c-2.4,0.3-6.4,0.5-6.4,0.5s-0.8,0,0.2,0.1c-4.9,0.3-10.4,0.7-16.3,1.3c-8,0.6-19.5,2.7-27.5,4.4c-8,1.7-21.8,5.7-29.8,5.7
		c8,0,21.8-1.8,29.8-3.1c8-1.2,19.4-3.4,27.5-4.4c6.5-0.8,20.6-1.7,28.9-2.7l0,0l0,0l0,0l0,0l0,0l0,0l0,0l0,0l0,0l0,0l0,0
		c1.4,0,3-0.3,6.4-0.7c1.6-0.2,3.9-0.4,6.2-0.4C278,294.7,277.1,294.6,277.1,294.6z"/>
	<text transform="matrix(1 0 0 1 613.3027 259.5218)" class="st3 st4 st5">Китай</text>
	<path class="st6" d="M249.4,253.7c0,0-4.2-0.8-6.7-2.7c-3.6-2.7-5.3-4.1-6.7-4.2l0,0l0,0h-0.4c-8.5,0-19.3-1.3-27.8-1.3
		s-21.6,3.1-30.1,3.1s-12.5-0.7-26.7-0.5v0.1c-1.4,0.3-3,1.4-6.3,3.4c-2.5,1.5-6.7,2.2-6.7,2.2s-0.9,0.2,0.3,0.4
		c2.3,0.4,4.7,1.1,6.4,2.1c3.3,2,4.9,3.1,6.3,3.4v0.1c20.5,1,18.2-0.5,26.7-0.5s21.6,3.1,30.1,3.1s19.3-1.3,27.8-1.3l0,0V261
		c0.1,0,0.2,0,0.3,0.1l0,0l0,0l0,0l0,0l0,0l0,0l0,0l0,0l0,0l0,0c1.5-0.1,3.1-1.5,6.7-4.2c1.6-1.2,4-2.1,6.4-2.5
		C250.3,253.9,249.4,253.7,249.4,253.7z"/>
	<path class="st6" d="M571.6,245.9c-8.5,0.9-19.4,4.9-27.9,4.9s-20.5-15-29-15s-19.3,4.9-27.8,4.9s-19.3-2.2-27.8-2.2
		s-19.4,3-27.9,4s-20.5,1.8-29,1.8s-20.5-3.1-29-3.1s-19.3,4.3-27.8,4.9c-8.5,0.6-19.4,0.9-27.9,0.9H317v0.1c-1.4,0.4-3,1.7-6.2,4.1
		c-2.5,1.8-6.7,2.7-6.7,2.7s-0.9,0.3,0.3,0.5c2.3,0.5,4.7,1.3,6.4,2.5c3.6,2.6,5.2,4.1,6.7,4.2l0,0l0,0l0,0l0,0l0,0l0,0l0,0l0,0l0,0
		l0,0c0.1,0,0.2,0,0.3-0.1v0.1h-0.4c8.5,0,19.4,0.3,27.9,0.9s19.3,4.9,27.8,4.9s20.5-3.1,29-3.1s20.5,0.8,29,1.8s19.4,4,27.9,4
		s19.3-2.2,27.8-2.2s19.3,4.9,27.8,4.9s20.5-15,29-15s19.4,4,27.9,4.9s19.3,1.1,27.8,1.3V245C590.9,244.8,580.1,245,571.6,245.9z"/>
	<path class="st6" d="M52.4,253.7c0,0-4.2-0.5-6.7-1.7c-3.6-1.7-5.3-2.6-6.7-2.6l0,0l0,0v8.8l0,0l0,0l0,0l0,0l0,0
		c1.5-0.1,3.1-1,6.7-2.6c1.6-0.8,4-1.3,6.4-1.6C53.4,253.9,52.4,253.7,52.4,253.7z"/>
	<text transform="matrix(1 0 0 1 613.0882 195.2114)" class="st3 st4 st5">Україна</text>
	<path class="st6" d="M66.688,183.2L66.688,183.2L66.688,183.2L66.688,183.2L66.688,183.2L66.688,183.2c-1.5,0.2-3.2,1.7-6.7,4.7
		c-1.6,1.4-4,2.3-6.4,2.8c-1.2,0.3-0.3,0.6-0.3,0.6s4.2,0.9,6.7,3c1.5,1.2,2.6,2.2,3.6,3h3.2v-14.1H66.688z"/>
	<path class="st7" d="M94.088,197.7c-8.4-0.1-19-0.3-27.4-0.4l0,0h-3.2c1.4,1.1,2.3,1.7,3.2,1.8l0,0l0,0l0,0
		C75.088,198.3,85.788,197.7,94.088,197.7z"/>
	<path class="st7" d="M178.688,186.7c-8.4,0-20.3,14.6-28.6,14.6c-8.4,0-19-2.8-27.4-3.1c-7.4-0.3-17.6-0.3-25.6-0.4
		c8,0.2,18.2,1.2,25.6,2.2c8.4,1,19,4,27.4,4s20.2-1.1,28.6-1.3c7.1-0.2,7.8-9,16.1-11.6C188.588,188.8,183.088,186.7,178.688,186.7
		z"/>
	<path class="st6" d="M178.688,179.6c-8.4-0.6-20.3-1.3-28.6-1.3c-8.4,0-19,2.9-27.4,4c-8.4,1-20.2,2.2-28.6,2.2s-19-0.7-27.4-1.3
		v14.1c8.4,0.1,19,0.3,27.4,0.4c8.4,0.1,20.2,0.1,28.6,0.4c8.4,0.3,19,3.1,27.4,3.1s20.3-14.6,28.6-14.6c6.6,0.7,10,2.2,16.3,4.3
		C188.888,190,183.388,180,178.688,179.6z"/>
	<g>
		<path class="st6" d="M264.388,191.7"/>
		<path class="st6" d="M278.188,191.4c1.2-0.2,0.3-0.4,0.3-0.4s-4.2-0.6-6.7-2.1c-3.6-2.1-5.3-3.2-6.7-3.3l0,0l0,0l0,0l0,0
			c-1.5,0.1-3.1,1.2-6.7,3.3c-1.6,0.9-3.9,1.5-5.4,1.8c4.8,0.4,13.1,0.9,23.5,1C276.988,191.6,277.588,191.5,278.188,191.4z"/>
		<path class="st7" d="M251.888,191.4c2.3,0.4,4.7,1,6.4,2c3.6,2.1,5.2,3.2,6.7,3.3l0,0l0,0l0,0l0,0l0,0l0,0l0,0l0,0l0,0l0,0
			c1.5-0.1,3.1-1.2,6.7-3.3c1.2-0.7,2.9-1.3,4.6-1.6c-10.4-0.1-18.6-0.6-23.5-1c-0.8,0.2-1.3,0.2-1.3,0.2
			S250.688,191.2,251.888,191.4z"/>
	</g>
	<path class="st7" d="M570.788,180.1c-0.2,0-0.4,0.1-0.5,0.2c-1.4,0.5-3,2.6-6.3,6.5c-1.6,1.9-4,3.2-6.4,3.9
		c-1.2,0.4-0.3,0.8-0.3,0.8s4.2,1.3,6.7,4.2c3.6,4.2,5.3,6.4,6.7,6.6l0,0l0,0v-0.1h0.1c8.4,0,20.2,10.8,28.6,21.6v-65.3
		C590.988,169.3,579.188,180.1,570.788,180.1z"/>
	<g>
		<path class="st6" d="M458.788,183.2c-8.4-1.2-19.1-3.2-27.5-5.3C439.688,180.2,450.488,183.2,458.788,183.2z"/>
		<path class="st6" d="M458.788,183.2c8.4,1.2,20.2,1.8,28.6,1.8s20.2-7.5,28.6-7.5c-8.4,0-20.2,4.3-28.6,4.9
			C478.988,182.9,467.188,183.2,458.788,183.2z"/>
		<path class="st6" d="M402.788,169.1c-8.4-4-20.2-15-28.6-15s-22.6,19.5-28.6,25.1c-2.9,2.8-6.9,9.8-13.9,11.6
			c0,0-2.4,0.8,13.9-0.2c8.3-0.5,20.2-26.9,28.6-26.9s20.2,4.7,28.6,7.1s20.2,5,28.6,7.1C422.988,175.5,411.188,173,402.788,169.1z"
			/>
		<path class="st7" d="M529.388,190.7c0,0-4.2-1.6-6.7-5.1c-2.9-4.1-4.5-6.6-5.8-7.6c-0.3-0.3-0.6-0.5-1-0.5l0,0l0,0l0,0
			c-8.4,0-20.2,7.5-28.6,7.5s-20.2-0.6-28.6-1.8c-8.4-1.2-19.1-3.2-27.5-5.3s-20.2-4.7-28.6-7.1c-8.4-2.4-20.2-7.1-28.6-7.1
			s-20.2,26.7-28.6,26.9c-7.9,0.2-15.8,0.4-14,0.4c5.7-0.1,8.8,7.4,14,12c6.2,5.4,20.2,25.1,28.6,25.1s20.2-11,28.6-15
			s20.2-6.5,28.6-8.8c8.4-2.4,19.1-5.3,27.5-5.3s20.2,0.3,28.6,0.9c8.4,0.6,20.2,4.9,28.6,4.9c0.7,0,1.3-0.5,1.8-1.5
			c1.2-1.3,2.7-3.6,5-6.9c1.6-2.3,4-4,6.4-4.8C530.288,191.1,529.388,190.7,529.388,190.7z"/>
	</g>
</g>
<g id="ukraine" class="countries">
	<text transform="matrix(1 0 0 1 612.1198 126.0615)" class="st3 st4 st5">Україна</text>
	<path class="st6" d="M65.72,114.05L65.72,114.05L65.72,114.05L65.72,114.05L65.72,114.05L65.72,114.05c-1.5,0.2-3.2,1.7-6.7,4.7
		c-1.6,1.4-4,2.3-6.4,2.8c-1.2,0.3-0.3,0.6-0.3,0.6s4.2,0.9,6.7,3c1.5,1.2,2.6,2.2,3.6,3h3.2v-14.1H65.72z"/>
	<path class="st7" d="M93.12,128.55c-8.4-0.1-19-0.3-27.4-0.4l0,0h-3.2c1.4,1.1,2.3,1.7,3.2,1.8l0,0l0,0l0,0
		C74.12,129.15,84.82,128.55,93.12,128.55z"/>
	<path class="st7" d="M177.72,117.55c-8.4,0-20.3,14.6-28.6,14.6c-8.4,0-19-2.8-27.4-3.1c-7.4-0.3-17.6-0.3-25.6-0.4
		c8,0.2,18.2,1.2,25.6,2.2c8.4,1,19,4,27.4,4s20.2-1.1,28.6-1.3c7.1-0.2,7.8-9,16.1-11.6C187.62,119.65,182.12,117.55,177.72,117.55
		z"/>
	<path class="st6" d="M177.72,110.45c-8.4-0.6-20.3-1.3-28.6-1.3c-8.4,0-19,2.9-27.4,4c-8.4,1-20.2,2.2-28.6,2.2s-19-0.7-27.4-1.3
		v14.1c8.4,0.1,19,0.3,27.4,0.4s20.2,0.1,28.6,0.4s19,3.1,27.4,3.1s20.3-14.6,28.6-14.6c6.6,0.7,10,2.2,16.3,4.3
		C187.92,120.85,182.42,110.85,177.72,110.45z"/>
	<g>
		<path class="st6" d="M263.42,122.55"/>
		<path class="st6" d="M277.22,122.25c1.2-0.2,0.3-0.4,0.3-0.4s-4.2-0.6-6.7-2.1c-3.6-2.1-5.3-3.2-6.7-3.3l0,0l0,0l0,0l0,0
			c-1.5,0.1-3.1,1.2-6.7,3.3c-1.6,0.9-3.9,1.5-5.4,1.8c4.8,0.4,13.1,0.9,23.5,1C276.02,122.45,276.62,122.35,277.22,122.25z"/>
		<path class="st7" d="M250.92,122.25c2.3,0.4,4.7,1,6.4,2c3.6,2.1,5.2,3.2,6.7,3.3l0,0l0,0l0,0l0,0l0,0l0,0l0,0l0,0l0,0l0,0
			c1.5-0.1,3.1-1.2,6.7-3.3c1.2-0.7,2.9-1.3,4.6-1.6c-10.4-0.1-18.6-0.6-23.5-1c-0.8,0.2-1.3,0.2-1.3,0.2
			S249.72,122.05,250.92,122.25z"/>
	</g>
	<path class="st7" d="M569.82,110.95c-0.2,0-0.4,0.1-0.5,0.2c-1.4,0.5-3,2.6-6.3,6.5c-1.6,1.9-4,3.2-6.4,3.9
		c-1.2,0.4-0.3,0.8-0.3,0.8s4.2,1.3,6.7,4.2c3.6,4.2,5.3,6.4,6.7,6.6l0,0l0,0v-0.1h0.1c8.4,0,20.2,10.8,28.6,21.6v-65.3
		C590.02,100.15,578.22,110.95,569.82,110.95z"/>
	<g>
		<path class="st6" d="M457.82,114.05c-8.4-1.2-19.1-3.2-27.5-5.3C438.72,111.05,449.52,114.05,457.82,114.05z"/>
		<path class="st6" d="M457.82,114.05c8.4,1.2,20.2,1.8,28.6,1.8s20.2-7.5,28.6-7.5c-8.4,0-20.2,4.3-28.6,4.9
			C478.02,113.75,466.22,114.05,457.82,114.05z"/>
		<path class="st6" d="M401.82,99.95c-8.4-4-20.2-15-28.6-15s-22.6,19.5-28.6,25.1c-2.9,2.8-6.9,9.8-13.9,11.6c0,0-2.4,0.8,13.9-0.2
			c8.3-0.5,20.2-26.9,28.6-26.9s20.2,4.7,28.6,7.1c8.4,2.4,20.2,5,28.6,7.1C422.02,106.35,410.22,103.85,401.82,99.95z"/>
		<path class="st7" d="M528.42,121.55c0,0-4.2-1.6-6.7-5.1c-2.9-4.1-4.5-6.6-5.8-7.6c-0.3-0.3-0.6-0.5-1-0.5l0,0l0,0l0,0
			c-8.4,0-20.2,7.5-28.6,7.5s-20.2-0.6-28.6-1.8s-19.1-3.2-27.5-5.3s-20.2-4.7-28.6-7.1c-8.4-2.4-20.2-7.1-28.6-7.1
			s-20.2,26.7-28.6,26.9c-7.9,0.2-15.8,0.4-14,0.4c5.7-0.1,8.8,7.4,14,12c6.2,5.4,20.2,25.1,28.6,25.1s20.2-11,28.6-15
			s20.2-6.5,28.6-8.8c8.4-2.4,19.1-5.3,27.5-5.3s20.2,0.3,28.6,0.9s20.2,4.9,28.6,4.9c0.7,0,1.3-0.5,1.8-1.5c1.2-1.3,2.7-3.6,5-6.9
			c1.6-2.3,4-4,6.4-4.8C529.32,121.95,528.42,121.55,528.42,121.55z"/>
	</g>
</g>
<g id="china" class="countries">
	<text transform="matrix(1 0 0 1 614.0217 127.6718)" class="st3 st4 st5">Китай</text>
	<path class="st6" d="M250.119,121.85c0,0-4.2-0.8-6.7-2.7c-3.6-2.7-5.3-4.1-6.7-4.2l0,0l0,0h-0.4c-8.5,0-19.3-1.3-27.8-1.3
		s-21.6,3.1-30.1,3.1s-12.5-0.7-26.7-0.5v0.1c-1.4,0.3-3,1.4-6.3,3.4c-2.5,1.5-6.7,2.2-6.7,2.2s-0.9,0.2,0.3,0.4
		c2.3,0.4,4.7,1.1,6.4,2.1c3.3,2,4.9,3.1,6.3,3.4v0.1c20.5,1,18.2-0.5,26.7-0.5s21.6,3.1,30.1,3.1s19.3-1.3,27.8-1.3l0,0v-0.1
		c0.1,0,0.2,0,0.3,0.1l0,0l0,0l0,0l0,0l0,0l0,0l0,0l0,0l0,0l0,0c1.5-0.1,3.1-1.5,6.7-4.2c1.6-1.2,4-2.1,6.4-2.5
		C251.019,122.05,250.119,121.85,250.119,121.85z"/>
	<path class="st6" d="M572.319,114.05c-8.5,0.9-19.4,4.9-27.9,4.9s-20.5-15-29-15s-19.3,4.9-27.8,4.9s-19.3-2.2-27.8-2.2
		s-19.4,3-27.9,4s-20.5,1.8-29,1.8s-20.5-3.1-29-3.1s-19.3,4.3-27.8,4.9c-8.5,0.6-19.4,0.9-27.9,0.9h-0.5v0.1
		c-1.4,0.4-3,1.7-6.2,4.1c-2.5,1.8-6.7,2.7-6.7,2.7s-0.9,0.3,0.3,0.5c2.3,0.5,4.7,1.3,6.4,2.5c3.6,2.6,5.2,4.1,6.7,4.2l0,0l0,0l0,0
		l0,0l0,0l0,0l0,0l0,0l0,0l0,0c0.1,0,0.2,0,0.3-0.1v0.1h-0.4c8.5,0,19.4,0.3,27.9,0.9s19.3,4.9,27.8,4.9s20.5-3.1,29-3.1
		s20.5,0.8,29,1.8s19.4,4,27.9,4s19.3-2.2,27.8-2.2s19.3,4.9,27.8,4.9s20.5-15,29-15s19.4,4,27.9,4.9s19.3,1.1,27.8,1.3v-18.5
		C591.619,112.95,580.819,113.15,572.319,114.05z"/>
	<path class="st6" d="M53.119,121.85c0,0-4.2-0.5-6.7-1.7c-3.6-1.7-5.3-2.6-6.7-2.6l0,0l0,0v8.8l0,0l0,0l0,0l0,0l0,0
		c1.5-0.1,3.1-1,6.7-2.6c1.6-0.8,4-1.3,6.4-1.6C54.119,122.05,53.119,121.85,53.119,121.85z"/>
</g>
<g id="usa" class="countries">
	<text transform="matrix(1 0 0 1 613.3027 126.47)" class="st3 st4 st5">США</text>
	<path class="st7" d="M38.7,132.2v0.9c8.5,6,19.4,11.9,28,11.9c5.5,0,11.9-3.7,18-6.6c-6.2,2-12.6,3.9-18,3.9
		C58.1,142.3,47.2,137.3,38.7,132.2z"/>
	<path class="st7" d="M279.8,121.9c-4,0.1-9,0.1-15.6,0.1c-8.5,0-20.5-8.4-29-8.4s-18.2,2.1-26.7,4.9s-20.5,11.9-29,11.9
		s-19.4-5.7-28-5.7c-8.5,0-19.4,1.4-27.9,3.1c-8.5,1.7-20.5,4.7-29,7.1c8.5-0.6,20.5-0.3,29-0.9c8.5-0.6,19.4-5.7,27.9-5.7
		s19.4,5.7,28,5.7c8.5,0,20.5-1.3,29-1.3s18.2,1.3,26.7,1.3s20.9-10.7,29.4-10.7C271.1,123.2,279.8,122.3,279.8,121.9z"/>
	<path class="st6" d="M279.4,121.8c-3.9,0.1-8.4-1.3-14.8-1.3c-8.5,0-21-10.6-29.5-10.6s-18.2,1.3-26.7,1.3s-20.5-1.3-29-1.3
		s-19.4,5.7-28,5.7c-8.5,0-19.4-5.1-27.9-5.7s-20.5-0.3-29-0.9s-19.4-9.7-27.9-9.7s-19.4,6-28,11.9v21.2c8.5,5.1,19.4,10.1,28,10.1
		c8.5,0,19.4-4.7,27.9-7.1c8.5-2.4,20.5-5.4,29-7.1c8.5-1.7,19.4-3.1,27.9-3.1s19.4,5.7,28,5.7c8.5,0,20.5-9.1,29-11.9
		s18.2-4.9,26.7-4.9s20.5,8.4,29,8.4c6.5,0,11.6,0,15.6-0.1C279.7,122.2,279.9,121.9,279.4,121.8z"/>
	<path class="st7" d="M572.2,104.6c-8.5,3-20.6,8.4-29.1,8.4s-19.4-12.3-27.9-12.3s-19.4,5.8-27.9,7.5s-20.5,2.6-29,2.6
		s-19.4-2.6-28-2.6c-8.5,0-19.4,0.4-27.9,0.4s-19.4-4-27.9-4s-19.4,2.9-27.9,5.3s-21.9,7.4-30.3,8.8c-16.6,2.8-19.8,2.6-20.3,3.7
		c0.7,1.1,10.9,3.4,20.3,5.1c8.4,1.5,21.7,7.3,30.3,9.7c8.5,2.3,19.4,4.4,27.9,4.4s19.4-5.7,27.9-5.7s19.4,1.3,27.9,1.3
		s19.4-1.3,28-1.8c8.5-0.4,20.5-0.9,29-0.9s19.4,6.6,27.9,6.6s19.4-12.3,27.9-12.3s20.6,6.2,29.1,9.3c8.5,3,19.4,5.9,27.9,8.8v-52
		C591.6,98.2,580.8,101.6,572.2,104.6z"/>
	<path class="st6" d="M458.3,106.4c-8.5-0.4-19.4-1.8-28-1.8c-8.5,0-19.4,1.3-27.9,1.3s-19.4-5.7-27.9-5.7s-19.4,2.1-27.9,4.4
		c-8.5,2.4-9.7,6.7-17.3,10.7c-2,1,8.8-2.9,17.3-5.4c8.5-2.6,19.4-5.3,27.9-5.3s19.4,4,27.9,4s19.4-0.4,27.9-0.4s19.4,2.6,28,2.6
		c8.5,0,20.5-1,29-2.6c2.3-0.5,4.8-1.2,7.3-2.1c-2.5,0.7-5,1.2-7.3,1.2C478.8,107.2,466.8,106.8,458.3,106.4z"/>
	<path class="st6" d="M494.6,106c6.9-1.9,14.4-5.4,20.6-5.4C509,100.6,501.5,103.7,494.6,106z"/>
	<path class="st6" d="M572.2,103.7c-8.5,3-20.6,9.3-29.1,9.3c8.5,0,20.6-5.4,29.1-8.4s19.4-6.4,27.9-9.7
		C591.6,97.8,580.8,100.7,572.2,103.7z"/>
</g>
<g id="header">
	<g id="text">
		<rect x="618.9" y="-669.3" class="st8" width="173.6" height="165.9"/>
		<g>
			<g transform="translate(17.712158203125, 21)">
				<path id="point-0-5" class="st9" d="M50.9-605.9c0-1.9,1.6-3.5,3.5-3.5s3.5,1.6,3.5,3.5s-1.6,3.5-3.5,3.5S50.9-604,50.9-605.9z"
					/>
				<path id="point-0-6" class="st9" d="M58.3-605.9c0-1.9,1.6-3.5,3.5-3.5s3.5,1.6,3.5,3.5s-1.6,3.5-3.5,3.5S58.3-604,58.3-605.9z"
					/>
				<path id="point-0-9" class="st9" d="M102.6-606.8c0-1.9,1.6-3.5,3.5-3.5s3.5,1.6,3.5,3.5s-1.6,3.5-3.5,3.5
					S102.6-604.9,102.6-606.8z"/>
				<path id="point-0-10" class="st9" d="M110-607.4c0-1.9,1.6-3.5,3.5-3.5s3.5,1.6,3.5,3.5s-1.6,3.5-3.5,3.5S110-605.5,110-607.4z"
					/>
				<path id="point-0-11" class="st9" d="M117.3-608c0-1.9,1.6-3.5,3.5-3.5s3.5,1.6,3.5,3.5s-1.6,3.5-3.5,3.5S117.3-606,117.3-608z"
					/>
				<path id="point-0-12" class="st9" d="M124.7-606.8c0-1.9,1.6-3.5,3.5-3.5c1.9,0,3.5,1.6,3.5,3.5s-1.6,3.5-3.5,3.5
					S124.7-604.9,124.7-606.8z"/>
				<path id="point-0-13" class="st9" d="M132.1-606.8c0-1.9,1.6-3.5,3.5-3.5s3.5,1.6,3.5,3.5s-1.6,3.5-3.5,3.5
					S132.1-604.9,132.1-606.8z"/>
				<path id="point-0-14" class="st9" d="M139.5-606.8c0-1.9,1.6-3.5,3.5-3.5s3.5,1.6,3.5,3.5s-1.6,3.5-3.5,3.5
					S139.5-604.9,139.5-606.8z"/>
				<path id="point-0-15" class="st9" d="M146.9-607.4c0-1.9,1.6-3.5,3.5-3.5s3.5,1.6,3.5,3.5s-1.6,3.5-3.5,3.5
					S146.9-605.5,146.9-607.4z"/>
				<path id="point-0-16" class="st9" d="M154.2-607.4c0-1.9,1.6-3.5,3.5-3.5s3.5,1.6,3.5,3.5s-1.6,3.5-3.5,3.5
					S154.2-605.5,154.2-607.4z"/>
				<path id="point-0-17" class="st9" d="M161.6-605.9c0-1.9,1.6-3.5,3.5-3.5s3.5,1.6,3.5,3.5s-1.6,3.5-3.5,3.5
					S161.6-604,161.6-605.9z"/>
				<path id="point-0-18" class="st9" d="M169-608c0-1.9,1.6-3.5,3.5-3.5s3.5,1.6,3.5,3.5s-1.6,3.5-3.5,3.5S169-606,169-608z"/>
				<path id="point-0-19" class="st9" d="M176.4-611.4c0-1.9,1.6-3.5,3.5-3.5s3.5,1.6,3.5,3.5s-1.6,3.5-3.5,3.5
					S176.4-609.5,176.4-611.4z"/>
			</g>
		</g>
		<g>
			<g transform="translate(212.28411865234375, 21)">
				<path id="point-1-0" class="st10" d="M14-611.2c0-1.9,1.6-3.5,3.5-3.5s3.5,1.6,3.5,3.5s-1.6,3.5-3.5,3.5S14-609.2,14-611.2z"/>
				<path id="point-1-1" class="st10" d="M21.4-610.6c0-1.9,1.6-3.5,3.5-3.5s3.5,1.6,3.5,3.5l0,0c0,1.9-1.6,3.5-3.5,3.5
					S21.4-608.6,21.4-610.6L21.4-610.6z"/>
				<path id="point-1-2" class="st10" d="M28.8-612.9c0-1.9,1.6-3.5,3.5-3.5c1.9,0,3.5,1.6,3.5,3.5s-1.6,3.5-3.5,3.5
					C30.3-609.4,28.8-611,28.8-612.9z"/>
				<path id="point-1-3" class="st10" d="M36.1-613.2c0-1.9,1.6-3.5,3.5-3.5s3.5,1.6,3.5,3.5s-1.6,3.5-3.5,3.5
					C37.7-609.7,36.1-611.2,36.1-613.2z"/>
				<path id="point-1-4" class="st10" d="M43.5-607.7c0-1.9,1.6-3.5,3.5-3.5s3.5,1.6,3.5,3.5s-1.6,3.5-3.5,3.5
					S43.5-605.7,43.5-607.7z"/>
				<path id="point-1-5" class="st10" d="M50.9-612c0-1.9,1.6-3.5,3.5-3.5s3.5,1.6,3.5,3.5s-1.6,3.5-3.5,3.5S50.9-610.1,50.9-612z"
					/>
				<path id="point-1-6" class="st10" d="M58.3-611.4c0-1.9,1.6-3.5,3.5-3.5s3.5,1.6,3.5,3.5s-1.6,3.5-3.5,3.5
					S58.3-609.5,58.3-611.4z"/>
				<path id="point-1-7" class="st10" d="M65.7-610c0-1.9,1.6-3.5,3.5-3.5s3.5,1.6,3.5,3.5s-1.6,3.5-3.5,3.5
					C67.2-606.5,65.7-608.1,65.7-610z"/>
				<path id="point-1-8" class="st10" d="M73-606.2c0-1.9,1.6-3.5,3.5-3.5s3.5,1.6,3.5,3.5s-1.6,3.5-3.5,3.5S73-604.3,73-606.2z"/>
				<path id="point-1-9" class="st10" d="M102.6-609.7c0-1.9,1.6-3.5,3.5-3.5s3.5,1.6,3.5,3.5s-1.6,3.5-3.5,3.5
					S102.6-607.8,102.6-609.7z"/>
				<path id="point-1-10" class="st10" d="M110-610.3c0-1.9,1.6-3.5,3.5-3.5s3.5,1.6,3.5,3.5s-1.6,3.5-3.5,3.5S110-608.4,110-610.3z
					"/>
				<path id="point-1-11" class="st10" d="M117.3-608.3c0-1.9,1.6-3.5,3.5-3.5s3.5,1.6,3.5,3.5s-1.6,3.5-3.5,3.5
					S117.3-606.3,117.3-608.3z"/>
				<path id="point-1-12" class="st10" d="M124.7-608.8c0-1.9,1.6-3.5,3.5-3.5c1.9,0,3.5,1.6,3.5,3.5s-1.6,3.5-3.5,3.5
					S124.7-606.9,124.7-608.8z"/>
				<path id="point-1-13" class="st10" d="M132.1-609.4c0-1.9,1.6-3.5,3.5-3.5s3.5,1.6,3.5,3.5s-1.6,3.5-3.5,3.5
					S132.1-607.5,132.1-609.4z"/>
				<path id="point-1-14" class="st10" d="M139.5-608c0-1.9,1.6-3.5,3.5-3.5s3.5,1.6,3.5,3.5s-1.6,3.5-3.5,3.5S139.5-606,139.5-608z
					"/>
				<path id="point-1-15" class="st10" d="M146.9-612.6c0-1.9,1.6-3.5,3.5-3.5s3.5,1.6,3.5,3.5s-1.6,3.5-3.5,3.5
					S146.9-610.7,146.9-612.6z"/>
				<path id="point-1-16" class="st10" d="M154.2-610.3c0-1.9,1.6-3.5,3.5-3.5s3.5,1.6,3.5,3.5s-1.6,3.5-3.5,3.5
					S154.2-608.4,154.2-610.3z"/>
				<path id="point-1-17" class="st10" d="M161.6-611.2c0-1.9,1.6-3.5,3.5-3.5s3.5,1.6,3.5,3.5s-1.6,3.5-3.5,3.5
					S161.6-609.2,161.6-611.2z"/>
				<path id="point-1-18" class="st10" d="M169-606.8c0-1.9,1.6-3.5,3.5-3.5s3.5,1.6,3.5,3.5s-1.6,3.5-3.5,3.5S169-604.9,169-606.8z
					"/>
				<path id="point-1-19" class="st10" d="M176.4-617.2c0-1.9,1.6-3.5,3.5-3.5s3.5,1.6,3.5,3.5s-1.6,3.5-3.5,3.5
					S176.4-615.3,176.4-617.2z"/>
			</g>
		</g>
		<g>
			<g transform="translate(406.8560791015625, 21)">
				<path id="point-2-11" class="st11" d="M117.3-606.8c0-1.9,1.6-3.5,3.5-3.5s3.5,1.6,3.5,3.5s-1.6,3.5-3.5,3.5
					S117.3-604.9,117.3-606.8z"/>
				<path id="point-2-12" class="st11" d="M124.7-606.2c0-1.9,1.6-3.5,3.5-3.5c1.9,0,3.5,1.6,3.5,3.5s-1.6,3.5-3.5,3.5
					S124.7-604.3,124.7-606.2z"/>
				<path id="point-2-13" class="st11" d="M132.1-605.9c0-1.9,1.6-3.5,3.5-3.5s3.5,1.6,3.5,3.5s-1.6,3.5-3.5,3.5
					S132.1-604,132.1-605.9z"/>
				<path id="point-2-14" class="st11" d="M139.5-607.1c0-1.9,1.6-3.5,3.5-3.5s3.5,1.6,3.5,3.5s-1.6,3.5-3.5,3.5
					S139.5-605.2,139.5-607.1z"/>
				<path id="point-2-15" class="st11" d="M146.9-608.3c0-1.9,1.6-3.5,3.5-3.5s3.5,1.6,3.5,3.5s-1.6,3.5-3.5,3.5
					S146.9-606.3,146.9-608.3z"/>
				<path id="point-2-16" class="st11" d="M154.2-607.1c0-1.9,1.6-3.5,3.5-3.5s3.5,1.6,3.5,3.5s-1.6,3.5-3.5,3.5
					S154.2-605.2,154.2-607.1z"/>
				<path id="point-2-17" class="st11" d="M161.6-606.2c0-1.9,1.6-3.5,3.5-3.5s3.5,1.6,3.5,3.5s-1.6,3.5-3.5,3.5
					S161.6-604.3,161.6-606.2z"/>
				<path id="point-2-18" class="st11" d="M169-607.1c0-1.9,1.6-3.5,3.5-3.5s3.5,1.6,3.5,3.5s-1.6,3.5-3.5,3.5S169-605.2,169-607.1z
					"/>
				<path id="point-2-19" class="st11" d="M176.4-612c0-1.9,1.6-3.5,3.5-3.5s3.5,1.6,3.5,3.5s-1.6,3.5-3.5,3.5
					S176.4-610.1,176.4-612z"/>
			</g>
		</g>
		<g>
			<g transform="translate(601.4280395507812, 21)">
				<path id="point-3-0" class="st12" d="M14-606.2c0-1.9,1.6-3.5,3.5-3.5s3.5,1.6,3.5,3.5s-1.6,3.5-3.5,3.5S14-604.3,14-606.2z"/>
				<path id="point-3-2" class="st12" d="M28.8-605.9c0-1.9,1.6-3.5,3.5-3.5c1.9,0,3.5,1.6,3.5,3.5s-1.6,3.5-3.5,3.5
					C30.3-602.4,28.8-604,28.8-605.9z"/>
				<path id="point-3-3" class="st12" d="M36.1-605.9c0-1.9,1.6-3.5,3.5-3.5s3.5,1.6,3.5,3.5s-1.6,3.5-3.5,3.5
					C37.7-602.4,36.1-604,36.1-605.9z"/>
				<path id="point-3-5" class="st12" d="M50.9-607.1c0-1.9,1.6-3.5,3.5-3.5s3.5,1.6,3.5,3.5s-1.6,3.5-3.5,3.5
					S50.9-605.2,50.9-607.1z"/>
				<path id="point-3-6" class="st12" d="M58.3-605.9c0-1.9,1.6-3.5,3.5-3.5s3.5,1.6,3.5,3.5s-1.6,3.5-3.5,3.5S58.3-604,58.3-605.9z
					"/>
				<path id="point-3-8" class="st12" d="M73-606.5c0-1.9,1.6-3.5,3.5-3.5s3.5,1.6,3.5,3.5s-1.6,3.5-3.5,3.5S73-604.6,73-606.5z"/>
				<path id="point-3-9" class="st12" d="M102.6-605.9c0-1.9,1.6-3.5,3.5-3.5s3.5,1.6,3.5,3.5s-1.6,3.5-3.5,3.5
					S102.6-604,102.6-605.9z"/>
				<path id="point-3-11" class="st12" d="M117.3-606.5c0-1.9,1.6-3.5,3.5-3.5s3.5,1.6,3.5,3.5s-1.6,3.5-3.5,3.5
					S117.3-604.6,117.3-606.5z"/>
				<path id="point-3-12" class="st12" d="M124.7-606.2c0-1.9,1.6-3.5,3.5-3.5c1.9,0,3.5,1.6,3.5,3.5s-1.6,3.5-3.5,3.5
					S124.7-604.3,124.7-606.2z"/>
				<path id="point-3-13" class="st12" d="M132.1-605.9c0-1.9,1.6-3.5,3.5-3.5s3.5,1.6,3.5,3.5s-1.6,3.5-3.5,3.5
					S132.1-604,132.1-605.9z"/>
				<path id="point-3-15" class="st12" d="M146.9-605.9c0-1.9,1.6-3.5,3.5-3.5s3.5,1.6,3.5,3.5s-1.6,3.5-3.5,3.5
					S146.9-604,146.9-605.9z"/>
				<path id="point-3-16" class="st12" d="M154.2-606.2c0-1.9,1.6-3.5,3.5-3.5s3.5,1.6,3.5,3.5s-1.6,3.5-3.5,3.5
					S154.2-604.3,154.2-606.2z"/>
				<path id="point-3-17" class="st12" d="M161.6-608.5c0-1.9,1.6-3.5,3.5-3.5s3.5,1.6,3.5,3.5s-1.6,3.5-3.5,3.5
					S161.6-606.6,161.6-608.5z"/>
				<path id="point-3-18" class="st12" d="M169-608c0-1.9,1.6-3.5,3.5-3.5s3.5,1.6,3.5,3.5s-1.6,3.5-3.5,3.5S169-606,169-608z"/>
				<path id="point-3-19" class="st12" d="M176.4-614.3c0-1.9,1.6-3.5,3.5-3.5s3.5,1.6,3.5,3.5s-1.6,3.5-3.5,3.5
					S176.4-612.4,176.4-614.3z"/>
			</g>
		</g>
		<g>
			<g transform="translate(17.712158203125, 228.8713836669922)">
				<path id="point-4-0" class="st13" d="M14-616.1c0-1.9,1.6-3.5,3.5-3.5s3.5,1.6,3.5,3.5s-1.6,3.5-3.5,3.5S14-614.1,14-616.1z"/>
				<path id="point-4-1" class="st13" d="M21.4-611.4c0-1.9,1.6-3.5,3.5-3.5s3.5,1.6,3.5,3.5l0,0c0,1.9-1.6,3.5-3.5,3.5
					S21.4-609.5,21.4-611.4L21.4-611.4z"/>
				<path id="point-4-2" class="st13" d="M28.8-608.5c0-1.9,1.6-3.5,3.5-3.5c1.9,0,3.5,1.6,3.5,3.5s-1.6,3.5-3.5,3.5
					C30.3-605,28.8-606.6,28.8-608.5z"/>
				<path id="point-4-3" class="st13" d="M36.1-616.4c0-1.9,1.6-3.5,3.5-3.5s3.5,1.6,3.5,3.5s-1.6,3.5-3.5,3.5
					C37.7-612.9,36.1-614.4,36.1-616.4z"/>
				<path id="point-4-4" class="st13" d="M43.5-630c0-1.9,1.6-3.5,3.5-3.5s3.5,1.6,3.5,3.5s-1.6,3.5-3.5,3.5S43.5-628.1,43.5-630z"
					/>
				<path id="point-4-5" class="st13" d="M50.9-616.4c0-1.9,1.6-3.5,3.5-3.5s3.5,1.6,3.5,3.5s-1.6,3.5-3.5,3.5
					S50.9-614.4,50.9-616.4z"/>
				<path id="point-4-6" class="st13" d="M58.3-613.8c0-1.9,1.6-3.5,3.5-3.5s3.5,1.6,3.5,3.5s-1.6,3.5-3.5,3.5
					S58.3-611.8,58.3-613.8z"/>
				<path id="point-4-7" class="st13" d="M65.7-630c0-1.9,1.6-3.5,3.5-3.5s3.5,1.6,3.5,3.5s-1.6,3.5-3.5,3.5
					C67.2-626.5,65.7-628.1,65.7-630z"/>
				<path id="point-4-8" class="st13" d="M73-610c0-1.9,1.6-3.5,3.5-3.5s3.5,1.6,3.5,3.5s-1.6,3.5-3.5,3.5S73-608.1,73-610z"/>
				<path id="point-4-9" class="st13" d="M102.6-611.7c0-1.9,1.6-3.5,3.5-3.5s3.5,1.6,3.5,3.5s-1.6,3.5-3.5,3.5
					S102.6-609.8,102.6-611.7z"/>
				<path id="point-4-10" class="st13" d="M110-626.8c0-1.9,1.6-3.5,3.5-3.5s3.5,1.6,3.5,3.5s-1.6,3.5-3.5,3.5S110-624.9,110-626.8z
					"/>
				<path id="point-4-11" class="st13" d="M117.3-610.9c0-1.9,1.6-3.5,3.5-3.5s3.5,1.6,3.5,3.5s-1.6,3.5-3.5,3.5
					S117.3-608.9,117.3-610.9z"/>
				<path id="point-4-12" class="st13" d="M124.7-614.9c0-1.9,1.6-3.5,3.5-3.5c1.9,0,3.5,1.6,3.5,3.5s-1.6,3.5-3.5,3.5
					S124.7-613,124.7-614.9z"/>
				<path id="point-4-13" class="st13" d="M132.1-615.5c0-1.9,1.6-3.5,3.5-3.5s3.5,1.6,3.5,3.5s-1.6,3.5-3.5,3.5
					S132.1-613.6,132.1-615.5z"/>
				<path id="point-4-14" class="st13" d="M139.5-631.4c0-1.9,1.6-3.5,3.5-3.5s3.5,1.6,3.5,3.5s-1.6,3.5-3.5,3.5
					S139.5-629.5,139.5-631.4z"/>
				<path id="point-4-15" class="st13" d="M146.9-610.9c0-1.9,1.6-3.5,3.5-3.5s3.5,1.6,3.5,3.5s-1.6,3.5-3.5,3.5
					S146.9-608.9,146.9-610.9z"/>
				<path id="point-4-16" class="st13" d="M154.2-618.7c0-1.9,1.6-3.5,3.5-3.5s3.5,1.6,3.5,3.5s-1.6,3.5-3.5,3.5
					S154.2-616.8,154.2-618.7z"/>
				<path id="point-4-17" class="st13" d="M161.6-610.9c0-1.9,1.6-3.5,3.5-3.5s3.5,1.6,3.5,3.5s-1.6,3.5-3.5,3.5
					S161.6-608.9,161.6-610.9z"/>
				<path id="point-4-18" class="st13" d="M169-609.1c0-1.9,1.6-3.5,3.5-3.5s3.5,1.6,3.5,3.5s-1.6,3.5-3.5,3.5S169-607.2,169-609.1z
					"/>
				<path id="point-4-19" class="st13" d="M176.4-612.6c0-1.9,1.6-3.5,3.5-3.5s3.5,1.6,3.5,3.5s-1.6,3.5-3.5,3.5
					S176.4-610.7,176.4-612.6z"/>
			</g>
		</g>
		<g>
			<g transform="translate(212.28411865234375, 228.8713836669922)">
				<path id="point-5-10" class="st14" d="M110-605.9c0-1.9,1.6-3.5,3.5-3.5s3.5,1.6,3.5,3.5s-1.6,3.5-3.5,3.5S110-604,110-605.9z"
					/>
				<path id="point-5-11" class="st14" d="M117.3-609.4c0-1.9,1.6-3.5,3.5-3.5s3.5,1.6,3.5,3.5s-1.6,3.5-3.5,3.5
					S117.3-607.5,117.3-609.4z"/>
				<path id="point-5-12" class="st14" d="M124.7-606.2c0-1.9,1.6-3.5,3.5-3.5c1.9,0,3.5,1.6,3.5,3.5s-1.6,3.5-3.5,3.5
					S124.7-604.3,124.7-606.2z"/>
				<path id="point-5-14" class="st14" d="M139.5-606.2c0-1.9,1.6-3.5,3.5-3.5s3.5,1.6,3.5,3.5s-1.6,3.5-3.5,3.5
					S139.5-604.3,139.5-606.2z"/>
				<path id="point-5-19" class="st14" d="M176.4-606.8c0-1.9,1.6-3.5,3.5-3.5s3.5,1.6,3.5,3.5s-1.6,3.5-3.5,3.5
					S176.4-604.9,176.4-606.8z"/>
			</g>
		</g>
		<g>
			<g transform="translate(406.8560791015625, 228.8713836669922)">
				<path id="point-6-0" class="st15" d="M14-617.8c0-1.9,1.6-3.5,3.5-3.5s3.5,1.6,3.5,3.5s-1.6,3.5-3.5,3.5S14-615.9,14-617.8z"/>
				<path id="point-6-1" class="st15" d="M21.4-619.6c0-1.9,1.6-3.5,3.5-3.5s3.5,1.6,3.5,3.5l0,0c0,1.9-1.6,3.5-3.5,3.5
					S21.4-617.6,21.4-619.6L21.4-619.6z"/>
				<path id="point-6-2" class="st15" d="M28.8-615.2c0-1.9,1.6-3.5,3.5-3.5c1.9,0,3.5,1.6,3.5,3.5s-1.6,3.5-3.5,3.5
					C30.3-611.7,28.8-613.3,28.8-615.2z"/>
				<path id="point-6-3" class="st15" d="M36.1-619.3c0-1.9,1.6-3.5,3.5-3.5s3.5,1.6,3.5,3.5s-1.6,3.5-3.5,3.5
					C37.7-615.8,36.1-617.3,36.1-619.3z"/>
				<path id="point-6-4" class="st15" d="M43.5-627.1c0-1.9,1.6-3.5,3.5-3.5s3.5,1.6,3.5,3.5s-1.6,3.5-3.5,3.5
					S43.5-625.2,43.5-627.1z"/>
				<path id="point-6-5" class="st15" d="M50.9-677.8c0-1.9,1.6-3.5,3.5-3.5s3.5,1.6,3.5,3.5l0,0c0,1.9-1.6,3.5-3.5,3.5
					S50.9-675.9,50.9-677.8L50.9-677.8z"/>
				<path id="point-6-6" class="st15" d="M58.3-616.4c0-1.9,1.6-3.5,3.5-3.5s3.5,1.6,3.5,3.5s-1.6,3.5-3.5,3.5
					S58.3-614.4,58.3-616.4z"/>
				<path id="point-6-7" class="st15" d="M65.7-617.5c0-1.9,1.6-3.5,3.5-3.5s3.5,1.6,3.5,3.5s-1.6,3.5-3.5,3.5
					C67.2-614,65.7-615.6,65.7-617.5z"/>
				<path id="point-6-8" class="st15" d="M73-611.4c0-1.9,1.6-3.5,3.5-3.5s3.5,1.6,3.5,3.5s-1.6,3.5-3.5,3.5S73-609.5,73-611.4z"/>
				<path id="point-6-9" class="st15" d="M102.6-622.2c0-1.9,1.6-3.5,3.5-3.5s3.5,1.6,3.5,3.5s-1.6,3.5-3.5,3.5
					S102.6-620.2,102.6-622.2z"/>
				<path id="point-6-10" class="st15" d="M110-655.2c0-1.9,1.6-3.5,3.5-3.5s3.5,1.6,3.5,3.5s-1.6,3.5-3.5,3.5S110-653.3,110-655.2z
					"/>
				<path id="point-6-11" class="st15" d="M117.3-640.1c0-1.9,1.6-3.5,3.5-3.5s3.5,1.6,3.5,3.5s-1.6,3.5-3.5,3.5
					S117.3-638.2,117.3-640.1L117.3-640.1z"/>
				<path id="point-6-12" class="st15" d="M124.7-674.9c0-1.9,1.6-3.5,3.5-3.5c1.9,0,3.5,1.6,3.5,3.5s-1.6,3.5-3.5,3.5
					S124.7-673,124.7-674.9z"/>
				<path id="point-6-13" class="st15" d="M132.1-632.6c0-1.9,1.6-3.5,3.5-3.5s3.5,1.6,3.5,3.5s-1.6,3.5-3.5,3.5
					S132.1-630.7,132.1-632.6z"/>
				<path id="point-6-14" class="st15" d="M139.5-629.4c0-1.9,1.6-3.5,3.5-3.5s3.5,1.6,3.5,3.5l0,0c0,1.9-1.6,3.5-3.5,3.5
					S139.5-627.5,139.5-629.4L139.5-629.4z"/>
				<path id="point-6-15" class="st15" d="M146.9-630.6c0-1.9,1.6-3.5,3.5-3.5s3.5,1.6,3.5,3.5l0,0c0,1.9-1.6,3.5-3.5,3.5
					S146.9-628.6,146.9-630.6L146.9-630.6z"/>
				<path id="point-6-16" class="st15" d="M154.2-661c0-1.9,1.6-3.5,3.5-3.5s3.5,1.6,3.5,3.5s-1.6,3.5-3.5,3.5
					S154.2-659.1,154.2-661z"/>
				<path id="point-6-17" class="st15" d="M161.6-679.9c0-1.9,1.6-3.5,3.5-3.5s3.5,1.6,3.5,3.5s-1.6,3.5-3.5,3.5
					S161.6-677.9,161.6-679.9z"/>
				<path id="point-6-18" class="st15" d="M169-649.4c0-1.9,1.6-3.5,3.5-3.5s3.5,1.6,3.5,3.5s-1.6,3.5-3.5,3.5S169-647.5,169-649.4z
					"/>
				<path id="point-6-19" class="st15" d="M176.4-642.2c0-1.9,1.6-3.5,3.5-3.5s3.5,1.6,3.5,3.5s-1.6,3.5-3.5,3.5
					S176.4-640.2,176.4-642.2z"/>
			</g>
		</g>
		<g id="lines-secondary">
		</g>
		<g id="data-points-secondary">
		</g>
		<g id="axes-highlights">
			<g>
				<g transform="translate(17.712158203125, 21)">
				</g>
			</g>
			<g>
				<g transform="translate(212.28411865234375, 21)">
				</g>
			</g>
			<g>
				<g transform="translate(406.8560791015625, 21)">
				</g>
			</g>
			<g>
				<g transform="translate(601.4280395507812, 21)">
				</g>
			</g>
			<g>
				<g transform="translate(17.712158203125, 228.8713836669922)">
				</g>
			</g>
			<g>
				<g transform="translate(212.28411865234375, 228.8713836669922)">
				</g>
			</g>
			<g>
				<g transform="translate(406.8560791015625, 228.8713836669922)">
				</g>
			</g>
		</g>
		
			<text transform="matrix(1 0 0 1 254.7224 821.1373)" class="st4" style="display:none;fill:#848484;enable-background:new    ; font-size:10px;">2000</text>

			<text transform="matrix(1 0 0 1 259.9084 712.2619)" class="st4 st17" style="text-anchor: right; display:none;fill:#848484;enable-background:new    ;">min 1</text>
		
			<text transform="matrix(1 0 0 1 411.7867 704.6153)" class="st4 st17" style="display:none;fill:#848484;enable-background:new    ;">ставлення партнерське</text>
		
			<text transform="matrix(1 0 0 1 411.7867 721.1356)" class="st4 st17" style="display:none;fill:#FF0046;enable-background:new    ;">ставлення негативне</text>
		
			<text transform="matrix(1 0 0 1 314.4431 712.2615)" class="st4 st17" style="display:none;fill:#848484;enable-background:new    ;">max 74</text>
		
			<text transform="matrix(1 0 0 1 257.4524 840.7287)" class="st4" style="display:none;fill:#848484;enable-background:new    ; font-size:10px;">2001</text>
		
			<text transform="matrix(1 0 0 1 254.9625 860.3201)" class="st4" style="display:none;fill:#848484;enable-background:new    ; font-size:10px;">2002</text>
		
			<text transform="matrix(1 0 0 1 255.2722 879.912)" class="st4" style="display:none;fill:#848484;enable-background:new    ; font-size:10px;">2003</text>
		
			<text transform="matrix(1 0 0 1 255.262 899.5035)" class="st4" style="display:none;fill:#848484;enable-background:new    ; font-size:10px;">2004</text>
		
			<text transform="matrix(1 0 0 1 254.9424 919.0955)" class="st4" style="display:none;fill:#848484;enable-background:new    ; font-size:10px;">2005</text>
		
			<text transform="matrix(1 0 0 1 254.9326 938.6866)" class="st4" style="display:none;fill:#848484;enable-background:new    ; font-size:10px;">2006</text>
		
			<text transform="matrix(1 0 0 1 255.6922 958.2784)" class="st4" style="display:none;fill:#848484;enable-background:new    ; font-size:10px;">2007</text>
		
			<text transform="matrix(1 0 0 1 255.0325 978.8705)" class="st4" style="display:none;fill:#848484;enable-background:new    ; font-size:10px;">2008</text>
		
			<text transform="matrix(1 0 0 1 257.6926 1015.2225)" class="st4" style="display:none;fill:#848484;enable-background:new    ; font-size:10px;">2012</text>
		
			<text transform="matrix(1 0 0 1 258.0026 1034.8391)" class="st4" style="display:none;fill:#848484;enable-background:new    ; font-size:10px;">2013</text>
		
			<text transform="matrix(1 0 0 1 257.9929 1054.4557)" class="st4" style="display:none;fill:#848484;enable-background:new    ; font-size:10px;">2014</text>
		
			<text transform="matrix(1 0 0 1 257.6725 1074.0731)" class="st4" style="display:none;fill:#848484;enable-background:new    ; font-size:10px;">2015</text>
		
			<text transform="matrix(1 0 0 1 257.6628 1093.689)" class="st4" style="display:none;fill:#848484;enable-background:new    ; font-size:10px;">2016</text>
		
			<text transform="matrix(1 0 0 1 258.4221 1113.3057)" class="st4" style="display:none;fill:#848484;enable-background:new    ; font-size:10px;">2017</text>
		
			<text transform="matrix(1 0 0 1 257.7624 1132.9227)" class="st4" style="display:none;fill:#848484;enable-background:new    ; font-size:10px;">2018</text>
		
			<text transform="matrix(1 0 0 1 257.6628 1152.5393)" class="st4" style="display:none;fill:#848484;enable-background:new    ; font-size:10px;">2019</text>
		
			<text transform="matrix(1 0 0 1 254.9626 1172.1561)" class="st4" style="display:none;fill:#848484;enable-background:new    ; font-size:10px;">2020</text>
		
			<text transform="matrix(1 0 0 1 257.6931 1191.7722)" class="st4" style="display:none;fill:#848484;enable-background:new    ; font-size:10px;">2021</text>
		
			<text transform="matrix(1 0 0 1 255.2028 1211.389)" class="st4" style="display:none;fill:#848484;enable-background:new    ; font-size:10px;">2022</text>
		<text transform="matrix(0 -1 1 0 37.9448 72.5615)" class="st16 st4 st17">2000</text>
		<text transform="matrix(1 0 0 1 620.3447 73.6869)" class="st16 st4 st17">min 1</text>
		<text transform="matrix(1 0 0 1 650.8089 42.3404)" class="st16 st4 st17">max 74</text>
		<text transform="matrix(0 -1 1 0 65.9751 70.9258)" class="st16 st4 st17">2001</text>
		<text transform="matrix(0 -1 1 0 94.0044 72.418)" class="st16 st4 st17">2002</text>
		<text transform="matrix(0 -1 1 0 122.0327 72.2314)" class="st16 st4 st17">2003</text>
		<text transform="matrix(0 -1 1 0 150.063 72.2363)" class="st16 st4 st17">2004</text>
		<text transform="matrix(0 -1 1 0 178.0913 72.4297)" class="st16 st4 st17">2005</text>
		<text transform="matrix(0 -1 1 0 206.1216 72.4355)" class="st16 st4 st17">2006</text>
		<text transform="matrix(0 -1 1 0 234.1499 71.9795)" class="st16 st4 st17">2007</text>
		<text transform="matrix(0 -1 1 0 262.1802 72.375)" class="st16 st4 st17">2008</text>
		<text transform="matrix(0 -1 1 0 315.6665 70.7793)" class="st16 st4 st17">2012</text>
		<text transform="matrix(0 -1 1 0 343.6978 70.5957)" class="st16 st4 st17">2013</text>
		<text transform="matrix(0 -1 1 0 371.7251 70.5996)" class="st16 st4 st17">2014</text>
		<text transform="matrix(0 -1 1 0 399.7544 70.793)" class="st16 st4 st17">2015</text>
		<text transform="matrix(0 -1 1 0 427.7832 70.7979)" class="st16 st4 st17">2016</text>
		<text transform="matrix(0 -1 1 0 455.8135 70.3438)" class="st16 st4 st17">2017</text>
		<text transform="matrix(0 -1 1 0 483.8418 70.7373)" class="st16 st4 st17">2018</text>
		<text transform="matrix(0 -1 1 0 511.8721 70.7979)" class="st16 st4 st17">2019</text>
		<text transform="matrix(0 -1 1 0 539.8994 72.418)" class="st16 st4 st17">2020</text>
		<text transform="matrix(0 -1 1 0 567.9297 70.7793)" class="st16 st4 st17">2021</text>
		<text transform="matrix(0 -1 1 0 595.959 72.2754)" class="st16 st4 st17">2022</text>
		<rect x="693.1" y="73.7" class="st18" width="76.6" height="30.7"/>
		<text transform="matrix(1 0 0 1 693.0933 81.691)" class="st19 st4 st17">ставлення </text>
		<text transform="matrix(1 0 0 1 693.0933 93.591)" class="st19 st4 st17">негативне</text>
		<rect x="693.1" y="44.8" class="st18" width="93.4" height="30.7"/>
		<text transform="matrix(1 0 0 1 693.0933 52.8498)" class="st16 st4 st17">ставлення </text>
		<text transform="matrix(1 0 0 1 693.0933 64.7498)" class="st16 st4 st17">партнерське</text>
	</g>
	<text transform="matrix(1 0 0 1 29.0208 24.7928)" class="st16 st20 st21">Згадки про країни в офіційній мові Путіна</text>
	<path class="st6" d="M688.6,48.3L688.6,48.3L688.6,48.3c-0.1,0-0.1,0-0.1,0h-0.1v0.1c-4.3,0.4-9.1,4.9-19.5,13.4
		c-4.8,3.9-11.8,6.6-18.7,8.1c-1.7,0.4-1.9,0.7-1.8,1h40.2L688.6,48.3L688.6,48.3z"/>
	<path class="st7" d="M649.4,71.4c0,0,12.3,2.6,19.5,8.5c10.6,8.6,15.4,13.1,19.7,13.4l0,0l0,0V70.8h-40.2
		C648.6,71.1,649.4,71.4,649.4,71.4z"/>
</g>
</svg>
