<?xml version="1.0" encoding="utf-8"?>
<!-- Generator: Adobe Illustrator 27.4.0, SVG Export Plug-In . SVG Version: 6.00 Build 0)  -->
<svg version="1.0" id="svg2" xmlns="http://www.w3.org/2000/svg" xmlns:xlink="http://www.w3.org/1999/xlink" x="0px" y="0px"
	 viewBox="0 0 846 510.5" style="enable-background:new 0 0 846 510.5;" xml:space="preserve">
<style type="text/css">
	.st_p0{fill:#070707;stroke:#000000;stroke-miterlimit:10;}
	.st_p1{fill:none;stroke:#FFFFFF;stroke-width:0.25;stroke-miterlimit:10;stroke-dasharray:4;}
	.st_p2{fill:none;stroke:#FFFFFF;stroke-width:0.25;stroke-miterlimit:10;}
	.st_p3{fill:#FFFFFF;}
	.st_p4{fill:#FFFFFF;fill-opacity:0.7;}
	.st_p5{fill:#FF0046;fill-opacity:0.7;}
	.st_p6{font-family:'ProximaNova';}
	.st_p7{font-size:11px;}
	.st_p8{fill:#848484;}
	.st_p9{font-family:'ProximaNova'; font-weight: bold}
	.st_p10{font-size:15px;}
	.st_p11{display:none;fill:none;stroke:#FF0000;}
	.st_p12{display:none;fill:#4328E7;fill-opacity:0;}
	.st_p13{display:none;fill:#9654E5;fill-opacity:0;}
	.st_p14{display:none;fill:#FF6283;fill-opacity:0;}
	.st_p15{display:none;fill:#FF8800;fill-opacity:0;}
	.st_p16{display:none;fill:#FFC502;fill-opacity:0;}
	.st_p17{display:none;fill:#007D8E;fill-opacity:0;}
	.st_p18{display:none;fill:#1AA7EE;fill-opacity:0;}
	.st_p19{fill:none;}
	.st_p20{fill:#FF0046;}
</style>

<g id="back">
	<g>
		<line class="st_p1" x1="584.2" y1="85.7" x2="584.2" y2="492.3"/>
		<line class="st_p1" x1="556.5" y1="85.7" x2="556.5" y2="492.3"/>
		<line class="st_p1" x1="528.8" y1="85.7" x2="528.8" y2="492.3"/>
		<line class="st_p1" x1="501" y1="85.7" x2="501" y2="492.3"/>
		<line class="st_p1" x1="473.3" y1="85.7" x2="473.3" y2="492.3"/>
		<line class="st_p1" x1="445.6" y1="85.7" x2="445.6" y2="492.3"/>
		<line class="st_p1" x1="417.9" y1="85.7" x2="417.9" y2="492.3"/>
		<line class="st_p1" x1="390.2" y1="85.7" x2="390.2" y2="492.3"/>
		<line class="st_p1" x1="362.4" y1="85.7" x2="362.4" y2="492.3"/>
		<line class="st_p1" x1="334.7" y1="85.7" x2="334.7" y2="492.3"/>
		<line class="st_p1" x1="307" y1="85.7" x2="307" y2="492.3"/>
		<line class="st_p1" x1="254.1" y1="85.7" x2="254.1" y2="492.3"/>
		<line class="st_p1" x1="226.3" y1="85.7" x2="226.3" y2="492.3"/>
		<line class="st_p1" x1="198.6" y1="85.7" x2="198.6" y2="492.3"/>
		<line class="st_p1" x1="170.9" y1="85.7" x2="170.9" y2="492.3"/>
		<line class="st_p1" x1="143.2" y1="85.7" x2="143.2" y2="492.3"/>
		<line class="st_p1" x1="115.5" y1="85.7" x2="115.5" y2="492.3"/>
		<line class="st_p1" x1="87.7" y1="85.7" x2="87.7" y2="492.3"/>
		<line class="st_p1" x1="60" y1="85.7" x2="60" y2="492.3"/>
		<line class="st_p1" x1="32.3" y1="85.7" x2="32.3" y2="492.3"/>
	</g>
	<line class="st_p2" x1="19.5" y1="244.6" x2="593.1" y2="244.6"/>
	<line class="st_p2" x1="19.5" y1="187.9" x2="593.1" y2="187.9"/>
	<line class="st_p2" x1="19.5" y1="443.7" x2="593.1" y2="443.7"/>
	<line class="st_p2" x1="19.5" y1="364" x2="593.1" y2="364"/>
	<line class="st_p2" x1="19.5" y1="403.9" x2="593.1" y2="403.9"/>
	<line class="st_p2" x1="19.5" y1="483.5" x2="593.1" y2="483.5"/>
	<line class="st_p2" x1="19.5" y1="159" x2="593.1" y2="159"/>
	<line class="st_p2" x1="19.5" y1="324.2" x2="593.1" y2="324.2"/>
	<line class="st_p2" x1="19.5" y1="119.6" x2="593.1" y2="119.6"/>
	<line class="st_p2" x1="19.5" y1="284.4" x2="593.1" y2="284.4"/>
	<line class="st_p2" x1="19.5" y1="94" x2="593.1" y2="94"/>
	<g>
		<path class="st_p3" d="M781.9,444.2c-1.5,0-2.8-0.3-3.8-1c-1.2-0.8-1.7-1.9-1.7-3.4c0-1.4,0.5-2.4,1.5-3.2c1-0.8,2.3-1.2,4-1.2
			c1.6,0,2.8,0.4,3.8,1.1c1.1,0.8,1.6,1.9,1.6,3.3s-0.5,2.5-1.6,3.3C784.8,443.8,783.5,444.2,781.9,444.2z M781.9,443.3
			c1.4,0,2.6-0.3,3.4-0.9c0.8-0.6,1.3-1.5,1.3-2.6s-0.5-2-1.4-2.7c-0.9-0.6-1.9-0.9-3.3-0.9c-1.3,0-2.4,0.3-3.3,0.8
			c-0.9,0.6-1.4,1.5-1.4,2.8c0,1.2,0.5,2.1,1.5,2.7C779.6,443,780.6,443.3,781.9,443.3z"/>
		<path class="st_p3" d="M780.6,428.6h-4.1v-2.2h4.2l6.6-3.5v2.6l-4.3,2.1l4.3,2.1v2.5L780.6,428.6z"/>
		<path class="st_p3" d="M785.2,421.7v-3.1h-8.8v-2.3h8.8v-3.1h2v8.5H785.2z"/>
		<path class="st_p3" d="M782.1,408.7l-5.6,3.6v-2.7l3.7-2.3l-3.7-2.3v-2.6l5.6,3.6l5.1-3.4v2.6l-3.5,2.1l3.5,2.1v2.5L782.1,408.7z"/>
		<path class="st_p3" d="M785.3,400.8v-4.3H783v3.8h-1.9v-3.8h-2.6v4.4h-2v-6.6h10.8v6.5H785.3z"/>
		<path class="st_p3" d="M785.2,392.4v-3.1h-8.8V387h8.8v-3.1h2v8.5H785.2z"/>
		<path class="st_p3" d="M776.7,463.9v-0.8h1.8c-0.7-0.4-1.2-0.8-1.5-1.4s-0.5-1.3-0.5-2.1c0-1.4,0.5-2.5,1.6-3.2c1-0.7,2.3-1,4-1
			s3,0.4,4,1.1c1,0.8,1.5,1.9,1.5,3.3c0,1.1-0.3,1.9-0.8,2.7c-0.6,0.7-1.4,1.2-2.5,1.4V463c0.8-0.2,1.4-0.5,1.8-1.1
			c0.4-0.6,0.7-1.2,0.7-1.9c0-1.2-0.5-2.1-1.4-2.7s-2.1-0.9-3.6-0.9c-1.2,0-2.3,0.3-3.1,0.9c-0.9,0.6-1.3,1.5-1.3,2.6
			c0,0.9,0.3,1.7,1,2.3c0.3,0.3,0.8,0.6,1.3,0.7s1.1,0.3,1.8,0.3V460h0.8v4.1h-5.6V463.9z"/>
		<path class="st_p3" d="M780.8,477.2c-1.5,0-2.6-0.3-3.3-1s-1.1-1.6-1.1-2.8c0-1.2,0.3-2.1,1-2.7c0.7-0.7,1.9-1.1,3.4-1.1h6.4v0.9
			h-6.1c-1.3,0-2.3,0.2-2.9,0.7c-0.6,0.5-0.9,1.2-0.9,2.2s0.3,1.7,0.8,2.2c0.6,0.5,1.6,0.8,2.9,0.8h6.2v0.9h-6.4V477.2z"/>
		<path class="st_p3" d="M776.4,487v-1l3.4-1.2v-4.5l-3.4-1.2v-1l10.8,3.9v1.1L776.4,487z M780.7,484.6l5.6-2l-5.6-1.9V484.6z"/>
		<circle class="st_p3" cx="777.4" cy="433" r="1"/>
		<circle class="st_p3" cx="777.4" cy="467.3" r="1"/>
		<path class="st_p3" d="M776.5,454.2l4.7-3c0.1,0.3,0.2,0.5,0.3,0.9c0.6,1.4,2.3,1.6,3,1.6c1,0,1.7-0.3,2.2-0.9
			c0.4-0.6,0.6-1.4,0.6-2.5v-3.9h-10.9v0.9h4.6v2.8l-4.6,3L776.5,454.2z M786.4,447.4v3c0,0.9-0.2,1.5-0.6,1.9
			c-0.3,0.3-0.8,0.5-1.4,0.5c-0.7,0-1.6-0.2-1.9-0.7c-0.4-0.4-0.6-1-0.6-1.8v-3h4.5V447.4z"/>
	</g>
</g>
<g id="ukraine" class="president">
	<g>
		<path class="st_p4" d="M501.9,109.8L501.9,109.8c8.5-6.8,18.5-13.4,26.8-13.4c-8.7,0-19.1,4.7-27.7,9.4l-2.9,1.6
			c1.1,1.9,2,2.9,2.7,3.1l0,0l0,0l0,0l0,0l0,0l0,0l0,0l0,0l0,0l0,0l0,0l0,0l0.1-0.1C501.4,110.3,501.7,110.1,501.9,109.8
			L501.9,109.8z"/>
		<path class="st_p5" d="M597.4,94c0,0-4.1-0.3-6.6-0.9c-3.1-0.8-4.7-1.2-6.1-1.4l0,0c-8.7-2.4-19.6-4.7-28.3-4.7s-19,4.7-27.7,4.7
			c-8.2,0-18-6.4-26.4-13c-0.5-0.5-0.9-0.9-1.2-1c0,0-0.1,0-0.1-0.1l0,0c0,0,0,0-0.1,0l0,0l0,0l0,0l0,0c-1.4,0.2-3.1,3.5-6.6,9.8
			c-2.4,4.3-6.6,6.2-6.6,6.2s-0.9,0.6,0.3,1.2c1.4,0.7,2.9,1.7,4.2,3c0.8,0.8,1.5,1.8,2.1,2.9c1.6,2.9,2.8,5.1,3.8,6.7l2.9-1.6
			c0,0,2.5-1.3,5.2-2.7c7.4-3.7,15.6-6.7,22.5-6.7c8.7,0,19,4.7,27.7,4.7s19.6-2.4,28.3-4.7l0,0c1.3-0.1,3-0.6,6.1-1.4
			c1.6-0.4,4-0.7,6.3-0.8C598.3,94.1,597.4,94,597.4,94z"/>
	</g>
	<text transform="matrix(1 0 0 1 601.751 98.1694)" class="st_p3 st_p6 st_p7">Володимир Зеленський</text>
	<path class="st_p5" d="M597.4,119c0,0-4.1-0.3-6.6-0.9c-3.2-0.8-4.9-1.3-6.2-1.4l0,0c-8.6-1.7-19.4-4.7-28.1-4.7
		c-0.1,0-0.2,0.1-0.3,0.3c-1.4,0.3-3,1.6-6.3,4c-2.4,1.8-6.6,2.6-6.6,2.6s-0.9,0.3,0.3,0.5c1.4,0.3,2.9,0.7,4.2,1.3
		c0.8,0.3,1.5,0.7,2.1,1.2c3.2,2.3,4.8,3.7,6.1,4c0.1,0.2,0.3,0.3,0.5,0.3c8.7,0,19.5-3,28.1-4.7l0,0c1.4-0.1,3-0.6,6.2-1.4
		c1.6-0.4,4-0.7,6.3-0.8C598.3,119.1,597.4,119,597.4,119z"/>
	<g>
		<path class="st_p5" d="M514.2,118.7c0,0-4.1-1.4-6.6-4.5c-3.6-4.5-5.2-6.9-6.6-7l0,0l0,0l0,0l0,0l0,0l0,0c-8.7,0-19.1,9.4-27.7,9.4
			c-8.7,0-19.1-2.4-27.7-2.4h-83.1l0,0c-1.4,0.1-3,1-6.5,2.8c-0.1,0.1-0.2,0.1-0.4,0.2l6.8,1.7l7,1.8c6.8,1.6,14,2.9,20.4,2.9h55.6
			c8.7,0,19.1-2.4,27.7-2.4s19,9.3,27.6,9.4l0,0l0,0l0,0l0,0l0,0l0,0l0,0l0,0l0,0l0,0l0,0h0.1c1.4-0.3,3-2.7,6.4-6.9
			c1.6-2,4-3.4,6.3-4.2C515.1,119.2,514.2,118.7,514.2,118.7z"/>
		<path class="st_p4" d="M369.5,120.8l-7-1.8l-6.8-1.7c-2.5,1.1-6.2,1.6-6.2,1.6s-0.9,0.2,0.3,0.3c1.4,0.2,2.9,0.5,4.2,0.9
			c0.8,0.2,1.5,0.5,2.1,0.8c3.4,1.7,5.1,2.7,6.5,2.8l0,0c1,0,2.1,0,3.2,0c7.9,0,16.6,0,24.2,0C383.6,123.7,376.4,122.4,369.5,120.8z
			"/>
	</g>
	<text transform="matrix(1 0 0 1 601.751 123.0222)" class="st_p3 st_p6 st_p7">Петро Порошенко</text>
	<g>
		<path class="st_p4" d="M187.9,189.9L187.9,189.9L187.9,189.9L187.9,189.9L187.9,189.9L187.9,189.9z"/>
		<path class="st_p4" d="M187.8,189.9L187.8,189.9C187.9,189.9,187.9,189.9,187.8,189.9C187.9,189.9,187.8,189.9,187.8,189.9z"/>
		<path class="st_p4" d="M187.9,189.9L187.9,189.9C188,189.9,188,189.9,187.9,189.9L187.9,189.9z"/>
		<path class="st_p5" d="M187.9,180.9L187.9,180.9L187.9,180.9L187.9,180.9z"/>
		<path class="st_p5" d="M189.6,192.5c4.2,1.6,4.8,4.7,7.2,4.6l0,0l0,0l0,0l0,0l0,0l0,0l0,0l0,0l0,0l0,0c1.4-0.2,3.1-2,6.6-5.6
			c1.6-1.6,4-2.7,6.3-3.3c1.2-0.3,0.3-0.7,0.3-0.7s-2.6-0.7-4.8-2.2c-5.7,1.5-17.7,3.7-23.4,5.2C182.7,191.1,184,190.4,189.6,192.5z
			"/>
		<path class="st_p4" d="M188.6,189.8c5.6-1.5,11.1-3,16.7-4.4c-0.6-0.4-1.2-0.8-1.7-1.4c-3.2-3.2-4.8-5-6.2-5.5l-0.4-0.1l0,0l0,0l0,0
			l0,0c-0.2,0-0.5,0.1-0.7,0.2l-27.4,4.6l0,0l0,0c-1.4,0.1-3.1,0.9-6.6,2.6c-2.4,1.2-6.6,1.7-6.6,1.7s-0.9,0.2,0.3,0.3
			c2.3,0.3,4.7,0.8,6.3,1.6c3.5,1.7,5.1,2.6,6.6,2.6l0,0l0,0l0,0l0,0l0,0l0,0l0,0l0,0l0,0l0,0l10.1-1.1l9.2-1c0.1,0,0.2,0,0.2-0.1
			L188.6,189.8L188.6,189.8z"/>
	</g>
	<path class="st_p5" d="M401.5,187.7c0,0-4.1-0.5-6.6-1.7c-3.6-1.8-5.2-2.7-6.6-2.7l0,0l0,0l0,0l0,0l0,0h-27.7L333,185l0,0
		c-1.4,0-3.1,0.5-6.6,1.4c-2.4,0.6-6.6,0.9-6.6,0.9s-0.9,0.1,0.3,0.2c2.3,0.2,4.7,0.4,6.3,0.8c3.5,0.9,5.1,1.4,6.6,1.4l0,0l0,0l0,0
		l0,0l0,0l0,0l0,0l0,0l0,0l27.6,2.7l27.6,0.1l0,0l0,0l0,0l0,0l0,0l0,0l0,0l0,0l0,0l0,0c1.4-0.1,3.1-1,6.6-2.7c1.6-0.8,4-1.3,6.3-1.6
		C402.4,187.8,401.5,187.7,401.5,187.7z"/>
	<path class="st_p5" d="M594.9,187.7c0,0-4.1-0.5-6.6-1.7c-3.6-1.8-5.2-2.7-6.6-2.7l0,0l0,0l0,0l0,0l0,0L555,185l0,0
		c-1.4,0-3.1,0.5-6.6,1.4c-2.4,0.6-6.6,0.9-6.6,0.9s-0.9,0.1,0.3,0.2c2.3,0.2,4.7,0.4,6.3,0.8c3.5,0.9,5.1,1.4,6.6,1.4l0,0l0,0l0,0
		l0,0l0,0l0,0l0,0l0,0l0,0l26.5,2.7l0,0l0,0l0,0l0,0l0,0l0,0l0,0l0,0l0,0l0,0c1.4-0.1,3.1-1,6.6-2.7c1.6-0.8,4-1.3,6.3-1.6
		C595.8,187.8,594.9,187.7,594.9,187.7z"/>
	<text transform="matrix(1 0 0 1 600.01 191.7914)" class="st_p3 st_p6 st_p7">Віктор Ющенко</text>
	<path class="st_p4" d="M156.4,158.8c0,0-4.1-1-6.6-3.4c-3.6-3.4-5.2-5.2-6.6-5.3l0,0l0,0l0,0l0,0c-1.4,0.1-3.1,1.9-6.6,5.3
		c-2.4,2.3-6.6,3.4-6.6,3.4s-0.9,0.3,0.3,0.6c2.3,0.6,4.7,1.6,6.3,3.2c3.5,3.3,5.1,5.1,6.6,5.3l0,0l0,0l0,0l0,0l0,0l0,0l0,0l0,0l0,0
		l0,0c1.4-0.2,3.1-1.9,6.6-5.3c1.6-1.5,4-2.6,6.3-3.2C157.3,159.1,156.4,158.8,156.4,158.8z"/>
	<g>
		<path class="st_p4" d="M362.4,163.5L362.4,163.5L362.4,163.5L362.4,163.5L362.4,163.5L362.4,163.5z"/>
		<path class="st_p4" d="M362.4,163.5L362.4,163.5L362.4,163.5L362.4,163.5z"/>
		<path class="st_p4" d="M362.5,163.5L362.5,163.5L362.5,163.5L362.5,163.5z"/>
		<path class="st_p5" d="M362.5,154.5C362.4,154.5,362.4,154.5,362.5,154.5C362.4,154.5,362.4,154.5,362.5,154.5
			C362.4,154.5,362.4,154.5,362.5,154.5z"/>
		<path class="st_p4" d="M362.7,159c-5.1-0.4-8.4,0.2-13.8,0c0,0.9,4.4,0.3,6.6,1.7c2.1,1,4.1,2.8,7.3,2.8c2.3,0,4.9-2.4,10.2-3.1
			l4.7-0.2C372.4,159.7,374.8,159.9,362.7,159z"/>
		<path class="st_p5" d="M403.4,159c0,0-4.1-0.3-6.6-0.9c-3.6-0.9-5.2-1.4-6.6-1.4l0,0c-5.3-0.7-15.5-2.1-27.6-2.1
			c-2.3,0.1-3.9,1.2-5.6,2c-3,1.9-8.2,2.2-8.1,2.5c5.4,0.2,8.7-0.4,13.8,0c11.2,0.8,20.7,1.7,26.2,2.2c0.4,0.1,0.8,0.1,1.2,0.1l0,0
			l0,0l0,0l0,0l0,0l0,0l0,0l0,0l0,0c1.4,0,3.1-0.5,6.6-1.4c1.6-0.4,4-0.7,6.3-0.8C404.3,159.1,403.4,159,403.4,159z"/>
	</g>
	<path class="st_p4" d="M320.2,159c0,0-4.1-0.3-6.6-0.9c-3.6-0.9-5.2-1.4-6.6-1.4l0,0l0,0l0,0l0,0c-1.4,0-3.1,0.5-6.6,1.4
		c-2.4,0.6-6.6,0.9-6.6,0.9s-0.9,0.1,0.3,0.2c2.3,0.2,4.7,0.4,6.3,0.8c3.5,0.9,5.1,1.4,6.6,1.4l0,0l0,0l0,0l0,0l0,0l0,0l0,0l0,0l0,0
		l0,0c1.4,0,3.1-0.5,6.6-1.4c1.6-0.4,4-0.7,6.3-0.8C321.1,159.1,320.2,159,320.2,159z"/>
	<text transform="matrix(1 0 0 1 601.751 162.0556)" class="st_p3 st_p6 st_p7">Віктор Янукович</text>
	<path class="st_p4" d="M165.4,243.5c-1.4-0.3-4.1-0.8-8.8-6.3c-6.1-7.1-9.7-11-12.5-11.9c-0.3-0.1-0.5-0.2-0.8-0.2h-0.1l0,0l0,0l0,0
		l0,0c-8.6,0.2-19.1,14.1-27.7,14.1c-8.7,0-19.8-11.8-28.4-11.8c-8.7,0-18.5,11.8-27.1,11.8c-8.7,0-18.9,0-27.6,0v9.4
		c8.7,0,18.9,0,27.6,0s18.5,11.8,27.1,11.8c8.7,0,19.8-11.8,28.4-11.8s19.1,13.9,27.7,14.1l0,0l0,0l0,0c0,0,0,0,0.1,0c0,0,0,0,0.1,0
		l0,0l0,0c0.8,0,1.5-0.3,2-0.8c2.5-1.5,5.7-4.9,11.2-10.4c3.3-3.2,3.8-5.1,8.2-6.7C167.2,244,165.4,243.5,165.4,243.5z"/>
	<path class="st_p5" d="M375.6,243.9c0,0-4.1-0.3-6.6-0.9c-3.6-0.9-5.2-1.4-6.6-1.4l0,0l0,0l0,0l0,0c-1.4,0-3.1,0.5-6.6,1.4
		c-2.4,0.6-6.6,0.9-6.6,0.9s-0.9,0.1,0.3,0.2c2.3,0.2,4.7,0.4,6.3,0.8c3.5,0.9,5.1,1.4,6.6,1.4l0,0l0,0l0,0l0,0l0,0l0,0l0,0l0,0l0,0
		l0,0c1.4,0,3.1-0.5,6.6-1.4c1.6-0.4,4-0.7,6.3-0.8C376.5,244,375.6,243.9,375.6,243.9z"/>
	<text transform="matrix(1 0 0 1 601.8789 248.3552)" class="st_p3 st_p6 st_p7">Леонід Кучма</text>
	<path class="st_p4" d="M183.7,284.4c0,0-4.1-0.3-6.6-0.9c-3.6-0.9-5.2-1.4-6.6-1.4l0,0l0,0l0,0l0,0c-1.4,0-3.1,0.5-6.6,1.4
		c-2.4,0.6-6.6,0.9-6.6,0.9s-0.9,0.1,0.3,0.2c2.3,0.2,4.7,0.4,6.3,0.8c3.5,0.9,5.1,1.4,6.6,1.4l0,0l0,0l0,0l0,0l0,0l0,0l0,0l0,0l0,0
		l0,0c1.4,0,3.1-0.5,6.6-1.4c1.6-0.4,4-0.7,6.3-0.8C184.6,284.5,183.7,284.4,183.7,284.4z"/>
	<path class="st_p5" d="M375.6,284.4c0,0-4.1-0.3-6.6-0.9c-3.6-0.9-5.2-1.4-6.6-1.4l0,0l0,0l0,0l0,0c-1.4,0-3.1,0.5-6.6,1.4
		c-2.4,0.6-6.6,0.9-6.6,0.9s-0.9,0.1,0.3,0.2c2.3,0.2,4.7,0.4,6.3,0.8c3.5,0.9,5.1,1.4,6.6,1.4l0,0l0,0l0,0l0,0l0,0l0,0l0,0l0,0l0,0
		l0,0c1.4,0,3.1-0.5,6.6-1.4c1.6-0.4,4-0.7,6.3-0.8C376.5,284.5,375.6,284.4,375.6,284.4z"/>
	<text transform="matrix(1 0 0 1 601.8789 287.9168)" class="st_p3 st_p6 st_p7">Леонід Кравчук</text>
</g>
<g id="usa" class="president">
	<path class="st_p4" d="M569.7,119c0,0-2.6-0.2-4.8-0.5c-0.6-0.1-1.2-0.2-1.7-0.3c-3.6-0.9-5.2-1.4-6.6-1.4l0,0l0,0l0,0
		c-8.7-0.4-9-0.8-17.6-2.4c-8.7-1.6-29.2-7.1-37.8-7.1c-8.7,0-19.1,0-27.7,0c-8.7,0-19.1,0-27.7,0c-8.7,0-19,0-27.7,0v0.1
		c-0.1,0-0.1,0-0.2,0l0,0l0,0l0,0l0,0c-1.4,0.2-3.1,2.5-6.6,7c-2.4,3.1-6.6,4.5-6.6,4.5s-0.9,0.4,0.3,0.8c1.4,0.5,2.9,1.2,4.2,2.2
		c0.8,0.6,1.5,1.3,2.1,2c3.5,4.4,5.1,6.8,6.6,7l0,0l0,0l0,0l0,0l0,0l0,0l0,0l0,0l0,0l0,0h0.1v0.1c8.7,0,19,0,27.7,0s19.1,0,27.7,0
		c8.7,0,19.1,0,27.7,0c8.7,0,29.2-5.5,37.8-7.1c8.7-1.6,9-2,17.6-2.4l0,0l0,0l0,0l0,0l0,0l0,0c1.4,0,3.1-0.5,6.6-1.4
		c1.6-0.4,4-0.7,6.3-0.8C570.6,119.1,569.7,119,569.7,119z"/>
	<text transform="matrix(1 0 0 1 601.751 123.2963)" class="st_p3 st_p6 st_p7">Дональд Трамп</text>
	<text transform="matrix(1 0 0 1 601.751 97.7709)" class="st_p3 st_p6 st_p7">Джо Байден</text>
	<g pointer-events="none">
		<g>
			<path class="st_p4" d="M565.1,96.6"/>
		</g>
	</g>
	<path class="st_p5" d="M569.7,94c0,0-4.1-0.3-6.6-0.9c-3.6-0.9-5.2-1.4-6.6-1.4l0,0l0,0l0,0l0,0c-1.4,0-3.1,0.5-6.6,1.4
		c-2.4,0.6-6.6,0.9-6.6,0.9s-0.9,0.1,0.3,0.2c2.3,0.2,4.7,0.4,6.3,0.8c3.5,0.9,5.1,1.4,6.6,1.4l0,0l0,0l0,0l0,0l0,0l0,0l0,0l0,0l0,0
		l0,0c1.4,0,3.1-0.5,6.6-1.4c1.6-0.4,4-0.7,6.3-0.8C570.6,94.1,569.7,94,569.7,94z"/>
	<path class="st_p5" d="M597.4,158.9c0,0-2.6-0.3-4.8-1c-0.6-0.2-1.2-0.4-1.7-0.7c-3.6-1.7-5.2-2.6-6.6-2.7l0,0l0,0l0,0l0,0
		c-1.4,0.1-3.1,1-6.6,2.7c-2.4,1.2-6.6,1.7-6.6,1.7s-0.9,0.2,0.3,0.3c1.4,0.2,2.9,0.5,4.2,0.8c0.8,0.2,1.5,0.5,2.1,0.8
		c3.5,1.7,5.1,2.6,6.6,2.7l0,0l0,0l0,0l0,0l0,0l0,0l0,0l0,0l0,0l0,0c1.4-0.1,3.1-1,6.6-2.7c1.6-0.8,4-1.3,6.3-1.6
		C598.3,159.1,597.4,158.9,597.4,158.9z"/>
	<path class="st_p5" d="M390.2,156.7c-8.7,0-19-5.1-27.7-7.1c-8.6-2-19.1-3.3-27.8-4.7l0,0l0,0l0,0l0,0l0,0l0,0
		c-1.2,0.1-2.4,2-4.7,5.5l6.3,5.3l8.9,6.3c5.9,3.7,11.9,6.4,17.2,6.4C371.1,168.4,381.5,156.7,390.2,156.7z"/>
	<path class="st_p4" d="M369.8,166.3c-2.5,0.8-4.9,1.6-7.3,2.1C364.8,168.4,367.3,167.6,369.8,166.3z"/>
	<path class="st_p4" d="M445.6,166.1c8.7,0,19.1-1.6,27.7-2.4C464.7,164.5,454.3,164.5,445.6,166.1z"/>
	<path class="st_p4" d="M390.2,156.7c-6.3,0-13.6,6.3-20.4,9.7c6.8-2.2,14.1-5,20.4-5c8.7,0,19.1,16.5,27.7,16.5
		c8.7,0,19-10.2,27.7-11.8c-8.7,0-19-0.8-27.7-2.4C409.2,162.2,398.8,156.7,390.2,156.7z"/>
	<path class="st_p4" d="M345.1,161.9c0.1,0,0.1,0.1,0.2,0.1l-7.8-5.5l0,0c-0.9-0.7-1.9-1.5-2.8-2.2l0,0l0,0l-4.7-4
		c-0.6,0.9-1.2,1.9-1.9,3c-2.4,3.7-6.6,5.3-6.6,5.3s-0.9,0.5,0.3,1c2.3,0.9,4.7,2.6,6.3,5.1c3.5,5.3,5.1,8.1,6.6,8.4l0,0l0,0l0,0
		l0,0l0,0l0,0l0,0l0,0l0,0l0,0c0,0,0,0,0.1,0c1.7-0.3,3.5-0.5,5.4-0.8c7.4-1.1,15.4-2.3,22.2-3.9c-5.3,0-11.2-2.6-17-6.3
		C345.3,162.1,345.2,162,345.1,161.9z"/>
	<path class="st_p5" d="M514.1,158.9c0,0-4.1-0.3-6.6-1c-3.6-1-5.2-1.5-6.6-1.5l0,0l0,0l0,0l0,0c-0.3,0-0.7,0-1.1,0.1
		c-6-0.1-18.3-1.5-26.5-2.2c-8.7-0.8-19.1-0.8-27.7-2.4c-8.7-1.6-19-11.8-27.7-11.8s-19.1,16.5-27.7,16.5c8.7,0,19.1,5.5,27.7,7.1
		c8.7,1.6,19,2.4,27.7,2.4s19.1-1.6,27.7-2.4c8.3-0.8,21-2.2,27-2.2c0.2,0,0.4,0,0.6,0l0,0l0,0l0,0l0,0l0,0l0,0l0,0l0,0l0,0l0,0
		c1.4,0,3.1-0.6,6.6-1.5c1.6-0.4,4-0.7,6.3-0.9C515,159,514.1,158.9,514.1,158.9z"/>
	<text transform="matrix(1 0 0 1 601.751 162.8763)" class="st_p3 st_p6 st_p7">Барак Обама</text>
	<path class="st_p4" d="M528.8,192.5L528.8,192.5L528.8,192.5L528.8,192.5L528.8,192.5L528.8,192.5z"/>
	<path class="st_p4" d="M528.7,192.5L528.7,192.5L528.7,192.5L528.7,192.5z"/>
	<path class="st_p4" d="M528.8,192.5L528.8,192.5L528.8,192.5L528.8,192.5z"/>
	<path class="st_p4" d="M535.4,186.2c-3.6-1.7-5.2-2.6-6.6-2.7l0,0l0,0l0,0l0,0c-1.4,0.1-3.1,1-6.6,2.7c-2.4,1.2-6.6,1.7-6.6,1.7
		s-0.9,0.2,0.3,0.3c1.4,0.2,2.9,0.5,4.2,0.8c5.7-0.7,11.4-1.5,17.1-2.2C536.5,186.7,535.9,186.5,535.4,186.2z"/>
	<path class="st_p5" d="M522.1,189.8c3.5,1.7,5.1,2.6,6.6,2.7l0,0l0,0l0,0l0,0l0,0l0,0l0,0l0,0l0,0l0,0c1.4-0.1,3.1-1,6.6-2.7
		c1.6-0.8,4-1.3,6.3-1.6c1.2-0.2,0.3-0.3,0.3-0.3s-2.6-0.3-4.8-1c-5.7,0.7-11.4,1.5-17.1,2.2C520.8,189.3,521.5,189.5,522.1,189.8z"
		/>
	<path class="st_p4" d="M528.8,183.5L528.8,183.5L528.8,183.5L528.8,183.5L528.8,183.5c-1.5,0.1-3.1,1-6.7,2.7
		c-2.4,1.2-6.6,1.7-6.6,1.7s-0.9,0.2,0.3,0.3c1.4,0.2,2.9,0.5,4.2,0.8c5.7-0.7,11.4-1.5,17.1-2.2c-0.6-0.2-1.2-0.4-1.7-0.7
		C531.8,184.5,530.2,183.6,528.8,183.5z"/>
	<path class="st_p4" d="M269.6,187.8c0,0-4.1-0.4-6.6-1.3c-1.3-0.5-2.3-0.9-3.2-1.2c-1.7-1.1-1.2-1.9-5.4-2c-8.7-0.4-20-3.5-28.6-4.7
		c-8.7-1.2-18.5-1.6-27.1-2.4c-8.7-0.8-19.6-0.8-28.3-2.4s-18.5-5.1-27.2-7.1s-19.6-3.1-28.3-4.7c-8.7-1.6-18.5-1.6-27.1-4.7
		c-8.7-3.1-18.5-9.8-27.1-16.5l0,0l0,0l0,0l0,0l0,0v0.1c-1.8,0.9-3.8,10.3-8.1,28c-2,8.1-4.9,13.7-7.7,16.8
		c-1.5,1.6-0.3,3.3-0.3,3.3s5.1,5.5,8.1,17.8c4.4,18,6.4,27.4,8.2,28l0,0l0,0l0,0c8.7-6.7,18.5-13.3,27.1-16.5
		c8.7-3.1,18.5-3.1,27.1-4.7s19.6-2.7,28.3-4.7s18.5-5.5,27.2-7.1c8.7-1.6,19.6-1.6,28.3-2.4s18.5-1.2,27.1-2.4
		c8.7-1.2,20-4.3,28.6-4.7c4.5-0.2,4.1-1.2,5.8-2.4c0.8-0.3,1.7-0.6,2.8-1c1.6-0.6,4-1,6.3-1.2C270.5,188,269.6,187.8,269.6,187.8z"
		/>
	<path class="st_p4" d="M320.2,188c0,0-4.1-0.3-6.6-0.9c-3.6-0.9-5.2-1.4-6.6-1.4l0,0l0,0l0,0l0,0c-1.4,0-3.1,0.5-6.6,1.4
		c-2.4,0.6-6.6,0.9-6.6,0.9s-0.9,0.1,0.3,0.2c2.3,0.2,4.7,0.4,6.3,0.8c3.5,0.9,5.1,1.4,6.6,1.4l0,0l0,0l0,0l0,0l0,0l0,0l0,0l0,0l0,0
		l0,0c1.4,0,3.1-0.5,6.6-1.4c1.6-0.4,4-0.7,6.3-0.8C321.1,188.1,320.2,188,320.2,188z"/>
	<path class="st_p5" d="M347.9,188c0,0-4.1-0.3-6.6-0.9c-3.6-0.9-5.2-1.4-6.6-1.4l0,0l0,0l0,0l0,0c-1.4,0-3.1,0.5-6.6,1.4
		c-2.4,0.6-6.6,0.9-6.6,0.9s-0.9,0.1,0.3,0.2c2.3,0.2,4.7,0.4,6.3,0.8c3.5,0.9,5.1,1.4,6.6,1.4l0,0l0,0l0,0l0,0l0,0l0,0l0,0l0,0l0,0
		l0,0c1.4,0,3.1-0.5,6.6-1.4c1.6-0.4,4-0.7,6.3-0.8C348.8,188.1,347.9,188,347.9,188z"/>
	<path class="st_p4" d="M458.8,188c0,0-4.1-0.3-6.6-0.9c-3.6-0.9-5.2-1.4-6.6-1.4l0,0l0,0l0,0l0,0c-1.4,0-3.1,0.5-6.6,1.4
		c-2.4,0.6-6.6,0.9-6.6,0.9s-0.9,0.1,0.3,0.2c2.3,0.2,4.7,0.4,6.3,0.8c3.5,0.9,5.1,1.4,6.6,1.4l0,0l0,0l0,0l0,0l0,0l0,0l0,0l0,0l0,0
		l0,0c1.4,0,3.1-0.5,6.6-1.4c1.6-0.4,4-0.7,6.3-0.8C459.7,188.1,458.8,188,458.8,188z"/>
	<text transform="matrix(1 0 0 1 601.751 191.5524)" class="st_p3 st_p6 st_p7">Джордж Буш</text>
	<path class="st_p4" d="M48.6,244.6c0,0-5.3-1.9-8.4-6.2c-4.5-6.3-6.6-9.6-8.4-9.8l0,0l0,0v32.9l0,0l0,0l0,0l0,0l0,0
		c1.8-0.3,3.9-3.6,8.4-9.8c2.1-2.8,5.1-4.8,8-5.9C49.7,245.2,48.6,244.6,48.6,244.6z"/>
	<path class="st_p4" d="M100.9,245c0,0-4.1-0.3-6.6-0.9c-3.6-0.9-5.2-1.4-6.6-1.4l0,0l0,0l0,0l0,0c-1.4,0-3.1,0.5-6.6,1.4
		c-2.4,0.6-6.6,0.9-6.6,0.9s-0.9,0.1,0.3,0.2c2.3,0.2,4.7,0.4,6.3,0.8c3.5,0.9,5.1,1.4,6.6,1.4l0,0l0,0l0,0l0,0l0,0l0,0l0,0l0,0l0,0
		l0,0c1.4,0,3.1-0.5,6.6-1.4c1.6-0.4,4-0.7,6.3-0.8C101.8,245.1,100.9,245,100.9,245z"/>
	<path class="st_p4" d="M239.5,245c0,0-4.1-0.3-6.6-0.9c-3.6-0.9-5.2-1.4-6.6-1.4l0,0l0,0l0,0l0,0c-1.4,0-3.1,0.5-6.6,1.4
		c-2.4,0.6-6.6,0.9-6.6,0.9s-0.9,0.1,0.3,0.2c2.3,0.2,4.7,0.4,6.3,0.8c3.5,0.9,5.1,1.4,6.6,1.4l0,0l0,0l0,0l0,0l0,0l0,0l0,0l0,0l0,0
		l0,0c1.4,0,3.1-0.5,6.6-1.4c1.6-0.4,4-0.7,6.3-0.8C240.4,245.1,239.5,245,239.5,245z"/>
	<path class="st_p5" d="M597.4,245c0,0-4.1-0.3-6.6-0.9c-3.6-0.9-5.2-1.4-6.6-1.4l0,0l0,0l0,0l0,0c-1.4,0-3.1,0.5-6.6,1.4
		c-2.4,0.6-6.6,0.9-6.6,0.9s-0.9,0.1,0.3,0.2c2.3,0.2,4.7,0.4,6.3,0.8c3.5,0.9,5.1,1.4,6.6,1.4l0,0l0,0l0,0l0,0l0,0l0,0l0,0l0,0l0,0
		l0,0c1.4,0,3.1-0.5,6.6-1.4c1.6-0.4,4-0.7,6.3-0.8C598.3,245.1,597.4,245,597.4,245z"/>
	<path class="st_p4" d="M514.2,245c0,0-4.1-0.3-6.6-0.9c-2.8-0.7-4.4-1.1-5.7-1.3c-0.1,0-0.3-0.1-0.4-0.1h-0.6l0,0l0,0l0,0l0,0h-82.7
		h-0.1c-0.1,0-0.2,0-0.3,0l0,0l0,0l0,0l0,0c-1.4,0-3.1,0.5-6.6,1.4c-2.4,0.6-6.6,0.9-6.6,0.9s-0.9,0.1,0.3,0.2
		c2.3,0.2,4.7,0.4,6.3,0.8c3.5,0.9,5.1,1.4,6.6,1.4l0,0l0,0l0,0l0,0l0,0l0,0l0,0l0,0l0,0l0,0c0.1,0,0.1,0,0.2,0h0.1h83.3
		c0.1,0,0.3,0,0.4-0.1c1.3-0.2,2.8-0.6,5.6-1.3c1.6-0.4,4-0.7,6.3-0.8C515.1,245.1,514.2,245,514.2,245z"/>
	<text transform="matrix(1 0 0 1 601.751 249.3734)" class="st_p3 st_p6 st_p7">Білл Клінтон</text>
</g>
<g id="header">
	<text transform="matrix(1 0 0 1 29.0208 19.2396)" class="st_p8 st_p9 st_p10">Згадки про лідерів країн в офіційній мові Путіна</text>
	<text transform="matrix(0 -1 1 0 31.8081 75.7422)" class="st_p8 st_p6 st_p7">2000</text>
	<text transform="matrix(0 -1 1 0 59.5576 75.7422)" class="st_p8 st_p6 st_p7">2001</text>
	<text transform="matrix(0 -1 1 0 87.3066 75.7422)" class="st_p8 st_p6 st_p7">2002</text>
	<text transform="matrix(0 -1 1 0 115.0562 75.7432)" class="st_p8 st_p6 st_p7">2003</text>
	<text transform="matrix(0 -1 1 0 142.8062 75.7422)" class="st_p8 st_p6 st_p7">2004</text>
	<text transform="matrix(0 -1 1 0 170.5552 75.7422)" class="st_p8 st_p6 st_p7">2005</text>
	<text transform="matrix(0 -1 1 0 198.3052 75.7422)" class="st_p8 st_p6 st_p7">2006</text>
	<text transform="matrix(0 -1 1 0 226.0552 75.7422)" class="st_p8 st_p6 st_p7">2007</text>
	<text transform="matrix(0 -1 1 0 253.8032 75.7432)" class="st_p8 st_p6 st_p7">2008</text>
	<text transform="matrix(0 -1 1 0 306.7583 75.7432)" class="st_p8 st_p6 st_p7">2012</text>
	<text transform="matrix(0 -1 1 0 334.5073 75.7432)" class="st_p8 st_p6 st_p7">2013</text>
	<text transform="matrix(0 -1 1 0 362.2573 75.7432)" class="st_p8 st_p6 st_p7">2014</text>
	<text transform="matrix(0 -1 1 0 390.0068 75.7422)" class="st_p8 st_p6 st_p7">2015</text>
	<text transform="matrix(0 -1 1 0 417.7559 75.7422)" class="st_p8 st_p6 st_p7">2016</text>
	<text transform="matrix(0 -1 1 0 445.5049 75.7422)" class="st_p8 st_p6 st_p7">2017</text>
	<text transform="matrix(0 -1 1 0 473.2539 75.7432)" class="st_p8 st_p6 st_p7">2018</text>
	<text transform="matrix(0 -1 1 0 501.0039 75.7422)" class="st_p8 st_p6 st_p7">2019</text>
	<text transform="matrix(0 -1 1 0 528.7539 75.7422)" class="st_p8 st_p6 st_p7">2020</text>
	<text transform="matrix(0 -1 1 0 556.502 75.7432)" class="st_p8 st_p6 st_p7">2021</text>
	<text transform="matrix(0 -1 1 0 584.2539 75.7432)" class="st_p8 st_p6 st_p7">2022</text>
	<rect x="618.9" y="67" class="st_p11" width="173.6" height="165.9"/>
	<g>
		<g transform="translate(17.712158203125, 21)">
			<path id="point-0-5" class="st_p12" d="M50.9,130.4c0-1.9,1.6-3.5,3.5-3.5s3.5,1.6,3.5,3.5s-1.6,3.5-3.5,3.5S50.9,132.3,50.9,130.4
				z"/>
			<path id="point-0-6" class="st_p12" d="M58.3,130.4c0-1.9,1.6-3.5,3.5-3.5s3.5,1.6,3.5,3.5s-1.6,3.5-3.5,3.5S58.3,132.3,58.3,130.4
				z"/>
			<path id="point-0-9" class="st_p12" d="M102.6,129.5c0-1.9,1.6-3.5,3.5-3.5s3.5,1.6,3.5,3.5c0,1.9-1.6,3.5-3.5,3.5
				S102.6,131.5,102.6,129.5z"/>
			<path id="point-0-10" class="st_p12" d="M110,129c0-1.9,1.6-3.5,3.5-3.5s3.5,1.6,3.5,3.5c0,1.9-1.6,3.5-3.5,3.5S110,130.9,110,129z
				"/>
			<path id="point-0-11" class="st_p12" d="M117.3,128.4c0-1.9,1.6-3.5,3.5-3.5s3.5,1.6,3.5,3.5c0,1.9-1.6,3.5-3.5,3.5
				S117.3,130.3,117.3,128.4z"/>
			<path id="point-0-12" class="st_p12" d="M124.7,129.5c0-1.9,1.6-3.5,3.5-3.5c1.9,0,3.5,1.6,3.5,3.5c0,1.9-1.6,3.5-3.5,3.5
				S124.7,131.5,124.7,129.5z"/>
			<path id="point-0-13" class="st_p12" d="M132.1,129.5c0-1.9,1.6-3.5,3.5-3.5s3.5,1.6,3.5,3.5c0,1.9-1.6,3.5-3.5,3.5
				S132.1,131.5,132.1,129.5z"/>
			<path id="point-0-14" class="st_p12" d="M139.5,129.5c0-1.9,1.6-3.5,3.5-3.5s3.5,1.6,3.5,3.5c0,1.9-1.6,3.5-3.5,3.5
				S139.5,131.5,139.5,129.5z"/>
			<path id="point-0-15" class="st_p12" d="M146.9,129c0-1.9,1.6-3.5,3.5-3.5s3.5,1.6,3.5,3.5c0,1.9-1.6,3.5-3.5,3.5
				S146.9,130.9,146.9,129z"/>
			<path id="point-0-16" class="st_p12" d="M154.2,129c0-1.9,1.6-3.5,3.5-3.5s3.5,1.6,3.5,3.5c0,1.9-1.6,3.5-3.5,3.5
				S154.2,130.9,154.2,129z"/>
			<path id="point-0-17" class="st_p12" d="M161.6,130.4c0-1.9,1.6-3.5,3.5-3.5s3.5,1.6,3.5,3.5s-1.6,3.5-3.5,3.5
				S161.6,132.3,161.6,130.4z"/>
			<path id="point-0-18" class="st_p12" d="M169,128.4c0-1.9,1.6-3.5,3.5-3.5s3.5,1.6,3.5,3.5c0,1.9-1.6,3.5-3.5,3.5
				S169,130.3,169,128.4z"/>
			<path id="point-0-19" class="st_p12" d="M176.4,124.9c0-1.9,1.6-3.5,3.5-3.5s3.5,1.6,3.5,3.5s-1.6,3.5-3.5,3.5
				S176.4,126.8,176.4,124.9z"/>
		</g>
	</g>
	<g>
		<g transform="translate(212.28411865234375, 21)">
			<path id="point-1-0" class="st_p13" d="M14,125.2c0-1.9,1.6-3.5,3.5-3.5s3.5,1.6,3.5,3.5s-1.6,3.5-3.5,3.5S14,127.1,14,125.2z"/>
			<path id="point-1-1" class="st_p13" d="M21.4,125.8c0-1.9,1.6-3.5,3.5-3.5s3.5,1.6,3.5,3.5l0,0c0,1.9-1.6,3.5-3.5,3.5
				S21.4,127.7,21.4,125.8L21.4,125.8z"/>
			<path id="point-1-2" class="st_p13" d="M28.8,123.4c0-1.9,1.6-3.5,3.5-3.5c1.9,0,3.5,1.6,3.5,3.5s-1.6,3.5-3.5,3.5
				C30.3,126.9,28.8,125.4,28.8,123.4z"/>
			<path id="point-1-3" class="st_p13" d="M36.1,123.2c0-1.9,1.6-3.5,3.5-3.5s3.5,1.6,3.5,3.5s-1.6,3.5-3.5,3.5
				C37.7,126.7,36.1,125.1,36.1,123.2z"/>
			<path id="point-1-4" class="st_p13" d="M43.5,128.7c0-1.9,1.6-3.5,3.5-3.5s3.5,1.6,3.5,3.5c0,1.9-1.6,3.5-3.5,3.5
				S43.5,130.6,43.5,128.7z"/>
			<path id="point-1-5" class="st_p13" d="M50.9,124.3c0-1.9,1.6-3.5,3.5-3.5s3.5,1.6,3.5,3.5s-1.6,3.5-3.5,3.5S50.9,126.3,50.9,124.3
				z"/>
			<path id="point-1-6" class="st_p13" d="M58.3,124.9c0-1.9,1.6-3.5,3.5-3.5s3.5,1.6,3.5,3.5s-1.6,3.5-3.5,3.5S58.3,126.8,58.3,124.9
				z"/>
			<path id="point-1-7" class="st_p13" d="M65.7,126.3c0-1.9,1.6-3.5,3.5-3.5s3.5,1.6,3.5,3.5c0,1.9-1.6,3.5-3.5,3.5
				C67.2,129.8,65.7,128.3,65.7,126.3z"/>
			<path id="point-1-8" class="st_p13" d="M73,130.1c0-1.9,1.6-3.5,3.5-3.5s3.5,1.6,3.5,3.5s-1.6,3.5-3.5,3.5S73,132,73,130.1z"/>
			<path id="point-1-9" class="st_p13" d="M102.6,126.6c0-1.9,1.6-3.5,3.5-3.5s3.5,1.6,3.5,3.5s-1.6,3.5-3.5,3.5
				S102.6,128.6,102.6,126.6z"/>
			<path id="point-1-10" class="st_p13" d="M110,126.1c0-1.9,1.6-3.5,3.5-3.5s3.5,1.6,3.5,3.5s-1.6,3.5-3.5,3.5S110,128,110,126.1z"/>
			<path id="point-1-11" class="st_p13" d="M117.3,128.1c0-1.9,1.6-3.5,3.5-3.5s3.5,1.6,3.5,3.5c0,1.9-1.6,3.5-3.5,3.5
				S117.3,130,117.3,128.1z"/>
			<path id="point-1-12" class="st_p13" d="M124.7,127.5c0-1.9,1.6-3.5,3.5-3.5c1.9,0,3.5,1.6,3.5,3.5c0,1.9-1.6,3.5-3.5,3.5
				S124.7,129.4,124.7,127.5z"/>
			<path id="point-1-13" class="st_p13" d="M132.1,126.9c0-1.9,1.6-3.5,3.5-3.5s3.5,1.6,3.5,3.5s-1.6,3.5-3.5,3.5
				S132.1,128.9,132.1,126.9z"/>
			<path id="point-1-14" class="st_p13" d="M139.5,128.4c0-1.9,1.6-3.5,3.5-3.5s3.5,1.6,3.5,3.5c0,1.9-1.6,3.5-3.5,3.5
				S139.5,130.3,139.5,128.4z"/>
			<path id="point-1-15" class="st_p13" d="M146.9,123.7c0-1.9,1.6-3.5,3.5-3.5s3.5,1.6,3.5,3.5s-1.6,3.5-3.5,3.5
				S146.9,125.7,146.9,123.7z"/>
			<path id="point-1-16" class="st_p13" d="M154.2,126.1c0-1.9,1.6-3.5,3.5-3.5s3.5,1.6,3.5,3.5s-1.6,3.5-3.5,3.5
				S154.2,128,154.2,126.1z"/>
			<path id="point-1-17" class="st_p13" d="M161.6,125.2c0-1.9,1.6-3.5,3.5-3.5s3.5,1.6,3.5,3.5s-1.6,3.5-3.5,3.5
				S161.6,127.1,161.6,125.2z"/>
			<path id="point-1-18" class="st_p13" d="M169,129.5c0-1.9,1.6-3.5,3.5-3.5s3.5,1.6,3.5,3.5c0,1.9-1.6,3.5-3.5,3.5
				S169,131.5,169,129.5z"/>
			<path id="point-1-19" class="st_p13" d="M176.4,119.1c0-1.9,1.6-3.5,3.5-3.5s3.5,1.6,3.5,3.5s-1.6,3.5-3.5,3.5
				S176.4,121,176.4,119.1z"/>
		</g>
	</g>
	<g>
		<g transform="translate(406.8560791015625, 21)">
			<path id="point-2-11" class="st_p14" d="M117.3,129.5c0-1.9,1.6-3.5,3.5-3.5s3.5,1.6,3.5,3.5c0,1.9-1.6,3.5-3.5,3.5
				S117.3,131.5,117.3,129.5z"/>
			<path id="point-2-12" class="st_p14" d="M124.7,130.1c0-1.9,1.6-3.5,3.5-3.5c1.9,0,3.5,1.6,3.5,3.5s-1.6,3.5-3.5,3.5
				S124.7,132,124.7,130.1z"/>
			<path id="point-2-13" class="st_p14" d="M132.1,130.4c0-1.9,1.6-3.5,3.5-3.5s3.5,1.6,3.5,3.5s-1.6,3.5-3.5,3.5
				S132.1,132.3,132.1,130.4z"/>
			<path id="point-2-14" class="st_p14" d="M139.5,129.2c0-1.9,1.6-3.5,3.5-3.5s3.5,1.6,3.5,3.5c0,1.9-1.6,3.5-3.5,3.5
				S139.5,131.2,139.5,129.2z"/>
			<path id="point-2-15" class="st_p14" d="M146.9,128.1c0-1.9,1.6-3.5,3.5-3.5s3.5,1.6,3.5,3.5c0,1.9-1.6,3.5-3.5,3.5
				S146.9,130,146.9,128.1z"/>
			<path id="point-2-16" class="st_p14" d="M154.2,129.2c0-1.9,1.6-3.5,3.5-3.5s3.5,1.6,3.5,3.5c0,1.9-1.6,3.5-3.5,3.5
				S154.2,131.2,154.2,129.2z"/>
			<path id="point-2-17" class="st_p14" d="M161.6,130.1c0-1.9,1.6-3.5,3.5-3.5s3.5,1.6,3.5,3.5s-1.6,3.5-3.5,3.5
				S161.6,132,161.6,130.1z"/>
			<path id="point-2-18" class="st_p14" d="M169,129.2c0-1.9,1.6-3.5,3.5-3.5s3.5,1.6,3.5,3.5c0,1.9-1.6,3.5-3.5,3.5
				S169,131.2,169,129.2z"/>
			<path id="point-2-19" class="st_p14" d="M176.4,124.3c0-1.9,1.6-3.5,3.5-3.5s3.5,1.6,3.5,3.5s-1.6,3.5-3.5,3.5
				S176.4,126.3,176.4,124.3z"/>
		</g>
	</g>
	<g>
		<g transform="translate(601.4280395507812, 21)">
			<path id="point-3-0" class="st_p15" d="M14,130.1c0-1.9,1.6-3.5,3.5-3.5s3.5,1.6,3.5,3.5s-1.6,3.5-3.5,3.5S14,132,14,130.1z"/>
			<path id="point-3-2" class="st_p15" d="M28.8,130.4c0-1.9,1.6-3.5,3.5-3.5c1.9,0,3.5,1.6,3.5,3.5s-1.6,3.5-3.5,3.5
				C30.3,133.9,28.8,132.3,28.8,130.4z"/>
			<path id="point-3-3" class="st_p15" d="M36.1,130.4c0-1.9,1.6-3.5,3.5-3.5s3.5,1.6,3.5,3.5s-1.6,3.5-3.5,3.5
				C37.7,133.9,36.1,132.3,36.1,130.4z"/>
			<path id="point-3-5" class="st_p15" d="M50.9,129.2c0-1.9,1.6-3.5,3.5-3.5s3.5,1.6,3.5,3.5c0,1.9-1.6,3.5-3.5,3.5
				S50.9,131.2,50.9,129.2z"/>
			<path id="point-3-6" class="st_p15" d="M58.3,130.4c0-1.9,1.6-3.5,3.5-3.5s3.5,1.6,3.5,3.5s-1.6,3.5-3.5,3.5S58.3,132.3,58.3,130.4
				z"/>
			<path id="point-3-8" class="st_p15" d="M73,129.8c0-1.9,1.6-3.5,3.5-3.5s3.5,1.6,3.5,3.5c0,1.9-1.6,3.5-3.5,3.5S73,131.8,73,129.8z
				"/>
			<path id="point-3-9" class="st_p15" d="M102.6,130.4c0-1.9,1.6-3.5,3.5-3.5s3.5,1.6,3.5,3.5s-1.6,3.5-3.5,3.5
				S102.6,132.3,102.6,130.4z"/>
			<path id="point-3-11" class="st_p15" d="M117.3,129.8c0-1.9,1.6-3.5,3.5-3.5s3.5,1.6,3.5,3.5c0,1.9-1.6,3.5-3.5,3.5
				S117.3,131.8,117.3,129.8z"/>
			<path id="point-3-12" class="st_p15" d="M124.7,130.1c0-1.9,1.6-3.5,3.5-3.5c1.9,0,3.5,1.6,3.5,3.5s-1.6,3.5-3.5,3.5
				S124.7,132,124.7,130.1z"/>
			<path id="point-3-13" class="st_p15" d="M132.1,130.4c0-1.9,1.6-3.5,3.5-3.5s3.5,1.6,3.5,3.5s-1.6,3.5-3.5,3.5
				S132.1,132.3,132.1,130.4z"/>
			<path id="point-3-15" class="st_p15" d="M146.9,130.4c0-1.9,1.6-3.5,3.5-3.5s3.5,1.6,3.5,3.5s-1.6,3.5-3.5,3.5
				S146.9,132.3,146.9,130.4z"/>
			<path id="point-3-16" class="st_p15" d="M154.2,130.1c0-1.9,1.6-3.5,3.5-3.5s3.5,1.6,3.5,3.5s-1.6,3.5-3.5,3.5
				S154.2,132,154.2,130.1z"/>
			<path id="point-3-17" class="st_p15" d="M161.6,127.8c0-1.9,1.6-3.5,3.5-3.5s3.5,1.6,3.5,3.5c0,1.9-1.6,3.5-3.5,3.5
				S161.6,129.7,161.6,127.8z"/>
			<path id="point-3-18" class="st_p15" d="M169,128.4c0-1.9,1.6-3.5,3.5-3.5s3.5,1.6,3.5,3.5c0,1.9-1.6,3.5-3.5,3.5
				S169,130.3,169,128.4z"/>
			<path id="point-3-19" class="st_p15" d="M176.4,122c0-1.9,1.6-3.5,3.5-3.5s3.5,1.6,3.5,3.5s-1.6,3.5-3.5,3.5S176.4,123.9,176.4,122
				z"/>
		</g>
	</g>
	<g>
		<g transform="translate(17.712158203125, 228.8713836669922)">
			<path id="point-4-0" class="st_p16" d="M14,120.3c0-1.9,1.6-3.5,3.5-3.5s3.5,1.6,3.5,3.5s-1.6,3.5-3.5,3.5S14,122.2,14,120.3z"/>
			<path id="point-4-1" class="st_p16" d="M21.4,124.9c0-1.9,1.6-3.5,3.5-3.5s3.5,1.6,3.5,3.5l0,0c0,1.9-1.6,3.5-3.5,3.5
				S21.4,126.8,21.4,124.9L21.4,124.9z"/>
			<path id="point-4-2" class="st_p16" d="M28.8,127.8c0-1.9,1.6-3.5,3.5-3.5c1.9,0,3.5,1.6,3.5,3.5c0,1.9-1.6,3.5-3.5,3.5
				C30.3,131.3,28.8,129.7,28.8,127.8z"/>
			<path id="point-4-3" class="st_p16" d="M36.1,120c0-1.9,1.6-3.5,3.5-3.5s3.5,1.6,3.5,3.5s-1.6,3.5-3.5,3.5
				C37.7,123.5,36.1,121.9,36.1,120z"/>
			<path id="point-4-4" class="st_p16" d="M43.5,106.3c0-1.9,1.6-3.5,3.5-3.5s3.5,1.6,3.5,3.5s-1.6,3.5-3.5,3.5S43.5,108.3,43.5,106.3
				z"/>
			<path id="point-4-5" class="st_p16" d="M50.9,120c0-1.9,1.6-3.5,3.5-3.5s3.5,1.6,3.5,3.5s-1.6,3.5-3.5,3.5S50.9,121.9,50.9,120z"/>
			<path id="point-4-6" class="st_p16" d="M58.3,122.6c0-1.9,1.6-3.5,3.5-3.5s3.5,1.6,3.5,3.5s-1.6,3.5-3.5,3.5S58.3,124.5,58.3,122.6
				z"/>
			<path id="point-4-7" class="st_p16" d="M65.7,106.3c0-1.9,1.6-3.5,3.5-3.5s3.5,1.6,3.5,3.5s-1.6,3.5-3.5,3.5
				C67.2,109.8,65.7,108.3,65.7,106.3z"/>
			<path id="point-4-8" class="st_p16" d="M73,126.3c0-1.9,1.6-3.5,3.5-3.5s3.5,1.6,3.5,3.5c0,1.9-1.6,3.5-3.5,3.5S73,128.3,73,126.3z
				"/>
			<path id="point-4-9" class="st_p16" d="M102.6,124.6c0-1.9,1.6-3.5,3.5-3.5s3.5,1.6,3.5,3.5s-1.6,3.5-3.5,3.5
				S102.6,126.5,102.6,124.6z"/>
			<path id="point-4-10" class="st_p16" d="M110,109.5c0-1.9,1.6-3.5,3.5-3.5s3.5,1.6,3.5,3.5s-1.6,3.5-3.5,3.5S110,111.5,110,109.5z"
				/>
			<path id="point-4-11" class="st_p16" d="M117.3,125.5c0-1.9,1.6-3.5,3.5-3.5s3.5,1.6,3.5,3.5s-1.6,3.5-3.5,3.5
				S117.3,127.4,117.3,125.5z"/>
			<path id="point-4-12" class="st_p16" d="M124.7,121.4c0-1.9,1.6-3.5,3.5-3.5c1.9,0,3.5,1.6,3.5,3.5s-1.6,3.5-3.5,3.5
				S124.7,123.4,124.7,121.4z"/>
			<path id="point-4-13" class="st_p16" d="M132.1,120.8c0-1.9,1.6-3.5,3.5-3.5s3.5,1.6,3.5,3.5s-1.6,3.5-3.5,3.5
				S132.1,122.8,132.1,120.8z"/>
			<path id="point-4-14" class="st_p16" d="M139.5,104.9c0-1.9,1.6-3.5,3.5-3.5s3.5,1.6,3.5,3.5s-1.6,3.5-3.5,3.5
				S139.5,106.8,139.5,104.9z"/>
			<path id="point-4-15" class="st_p16" d="M146.9,125.5c0-1.9,1.6-3.5,3.5-3.5s3.5,1.6,3.5,3.5s-1.6,3.5-3.5,3.5
				S146.9,127.4,146.9,125.5z"/>
			<path id="point-4-16" class="st_p16" d="M154.2,117.6c0-1.9,1.6-3.5,3.5-3.5s3.5,1.6,3.5,3.5s-1.6,3.5-3.5,3.5
				S154.2,119.6,154.2,117.6z"/>
			<path id="point-4-17" class="st_p16" d="M161.6,125.5c0-1.9,1.6-3.5,3.5-3.5s3.5,1.6,3.5,3.5s-1.6,3.5-3.5,3.5
				S161.6,127.4,161.6,125.5z"/>
			<path id="point-4-18" class="st_p16" d="M169,127.2c0-1.9,1.6-3.5,3.5-3.5s3.5,1.6,3.5,3.5c0,1.9-1.6,3.5-3.5,3.5
				S169,129.1,169,127.2z"/>
			<path id="point-4-19" class="st_p16" d="M176.4,123.7c0-1.9,1.6-3.5,3.5-3.5s3.5,1.6,3.5,3.5s-1.6,3.5-3.5,3.5
				S176.4,125.7,176.4,123.7z"/>
		</g>
	</g>
	<g>
		<g transform="translate(212.28411865234375, 228.8713836669922)">
			<path id="point-5-10" class="st_p17" d="M110,130.4c0-1.9,1.6-3.5,3.5-3.5s3.5,1.6,3.5,3.5s-1.6,3.5-3.5,3.5S110,132.3,110,130.4z"
				/>
			<path id="point-5-11" class="st_p17" d="M117.3,126.9c0-1.9,1.6-3.5,3.5-3.5s3.5,1.6,3.5,3.5s-1.6,3.5-3.5,3.5
				S117.3,128.9,117.3,126.9z"/>
			<path id="point-5-12" class="st_p17" d="M124.7,130.1c0-1.9,1.6-3.5,3.5-3.5c1.9,0,3.5,1.6,3.5,3.5s-1.6,3.5-3.5,3.5
				S124.7,132,124.7,130.1z"/>
			<path id="point-5-14" class="st_p17" d="M139.5,130.1c0-1.9,1.6-3.5,3.5-3.5s3.5,1.6,3.5,3.5s-1.6,3.5-3.5,3.5
				S139.5,132,139.5,130.1z"/>
			<path id="point-5-19" class="st_p17" d="M176.4,129.5c0-1.9,1.6-3.5,3.5-3.5s3.5,1.6,3.5,3.5c0,1.9-1.6,3.5-3.5,3.5
				S176.4,131.5,176.4,129.5z"/>
		</g>
	</g>
	<g>
		<g transform="translate(406.8560791015625, 228.8713836669922)">
			<path id="point-6-0" class="st_p18" d="M14,118.5c0-1.9,1.6-3.5,3.5-3.5s3.5,1.6,3.5,3.5s-1.6,3.5-3.5,3.5S14,120.5,14,118.5z"/>
			<path id="point-6-1" class="st_p18" d="M21.4,116.8c0-1.9,1.6-3.5,3.5-3.5s3.5,1.6,3.5,3.5l0,0c0,1.9-1.6,3.5-3.5,3.5
				S21.4,118.7,21.4,116.8L21.4,116.8z"/>
			<path id="point-6-2" class="st_p18" d="M28.8,121.1c0-1.9,1.6-3.5,3.5-3.5c1.9,0,3.5,1.6,3.5,3.5s-1.6,3.5-3.5,3.5
				C30.3,124.6,28.8,123.1,28.8,121.1z"/>
			<path id="point-6-3" class="st_p18" d="M36.1,117.1c0-1.9,1.6-3.5,3.5-3.5s3.5,1.6,3.5,3.5s-1.6,3.5-3.5,3.5
				C37.7,120.6,36.1,119,36.1,117.1z"/>
			<path id="point-6-4" class="st_p18" d="M43.5,109.2c0-1.9,1.6-3.5,3.5-3.5s3.5,1.6,3.5,3.5s-1.6,3.5-3.5,3.5S43.5,111.2,43.5,109.2
				z"/>
			<path id="point-6-5" class="st_p18" d="M50.9,58.5c0-1.9,1.6-3.5,3.5-3.5s3.5,1.6,3.5,3.5l0,0c0,1.9-1.6,3.5-3.5,3.5
				S50.9,60.4,50.9,58.5L50.9,58.5z"/>
			<path id="point-6-6" class="st_p18" d="M58.3,120c0-1.9,1.6-3.5,3.5-3.5s3.5,1.6,3.5,3.5s-1.6,3.5-3.5,3.5S58.3,121.9,58.3,120z"/>
			<path id="point-6-7" class="st_p18" d="M65.7,118.8c0-1.9,1.6-3.5,3.5-3.5s3.5,1.6,3.5,3.5s-1.6,3.5-3.5,3.5
				C67.2,122.3,65.7,120.7,65.7,118.8z"/>
			<path id="point-6-8" class="st_p18" d="M73,124.9c0-1.9,1.6-3.5,3.5-3.5s3.5,1.6,3.5,3.5s-1.6,3.5-3.5,3.5S73,126.8,73,124.9z"/>
			<path id="point-6-9" class="st_p18" d="M102.6,114.2c0-1.9,1.6-3.5,3.5-3.5s3.5,1.6,3.5,3.5s-1.6,3.5-3.5,3.5
				S102.6,116.1,102.6,114.2z"/>
			<path id="point-6-10" class="st_p18" d="M110,81.1c0-1.9,1.6-3.5,3.5-3.5s3.5,1.6,3.5,3.5s-1.6,3.5-3.5,3.5S110,83,110,81.1z"/>
			<path id="point-6-11" class="st_p18" d="M117.3,96.2c0-1.9,1.6-3.5,3.5-3.5s3.5,1.6,3.5,3.5s-1.6,3.5-3.5,3.5
				S117.3,98.1,117.3,96.2L117.3,96.2z"/>
			<path id="point-6-12" class="st_p18" d="M124.7,61.4c0-1.9,1.6-3.5,3.5-3.5c1.9,0,3.5,1.6,3.5,3.5s-1.6,3.5-3.5,3.5
				S124.7,63.3,124.7,61.4z"/>
			<path id="point-6-13" class="st_p18" d="M132.1,103.7c0-1.9,1.6-3.5,3.5-3.5s3.5,1.6,3.5,3.5s-1.6,3.5-3.5,3.5
				S132.1,105.7,132.1,103.7z"/>
			<path id="point-6-14" class="st_p18" d="M139.5,106.9c0-1.9,1.6-3.5,3.5-3.5s3.5,1.6,3.5,3.5l0,0c0,1.9-1.6,3.5-3.5,3.5
				S139.5,108.9,139.5,106.9L139.5,106.9z"/>
			<path id="point-6-15" class="st_p18" d="M146.9,105.8c0-1.9,1.6-3.5,3.5-3.5s3.5,1.6,3.5,3.5l0,0c0,1.9-1.6,3.5-3.5,3.5
				S146.9,107.7,146.9,105.8L146.9,105.8z"/>
			<path id="point-6-16" class="st_p18" d="M154.2,75.3c0-1.9,1.6-3.5,3.5-3.5s3.5,1.6,3.5,3.5s-1.6,3.5-3.5,3.5
				S154.2,77.2,154.2,75.3z"/>
			<path id="point-6-17" class="st_p18" d="M161.6,56.5c0-1.9,1.6-3.5,3.5-3.5s3.5,1.6,3.5,3.5S167,60,165.1,60S161.6,58.4,161.6,56.5
				z"/>
			<path id="point-6-18" class="st_p18" d="M169,86.9c0-1.9,1.6-3.5,3.5-3.5s3.5,1.6,3.5,3.5s-1.6,3.5-3.5,3.5S169,88.8,169,86.9z"/>
			<path id="point-6-19" class="st_p18" d="M176.4,94.2c0-1.9,1.6-3.5,3.5-3.5s3.5,1.6,3.5,3.5s-1.6,3.5-3.5,3.5
				S176.4,96.1,176.4,94.2z"/>
		</g>
	</g>
	<g id="lines-secondary">
	</g>
	<g id="data-points-secondary">
	</g>
	<g id="axes-highlights">
		<g>
			<g transform="translate(17.712158203125, 21)">
			</g>
		</g>
		<g>
			<g transform="translate(212.28411865234375, 21)">
			</g>
		</g>
		<g>
			<g transform="translate(406.8560791015625, 21)">
			</g>
		</g>
		<g>
			<g transform="translate(601.4280395507812, 21)">
			</g>
		</g>
		<g>
			<g transform="translate(17.712158203125, 228.8713836669922)">
			</g>
		</g>
		<g>
			<g transform="translate(212.28411865234375, 228.8713836669922)">
			</g>
		</g>
		<g>
			<g transform="translate(406.8560791015625, 228.8713836669922)">
			</g>
		</g>
	</g>
	<path class="st_p4" d="m 715.7,28.8 v 0 0 c -0.1,0 -0.1,0 -0.1,0 h -0.1 v 0.1 c -4.3,0.4 -9.1,4.9 -19.5,13.4 -4.8,3.9 -11.8,6.6 -18.7,8.1 -1.7,0.4 -1.9,0.7 -1.8,1 h 40.2 z"/>
	<path class="st_p5" d="m 676.5,51.9 c 0,0 12.3,2.6 19.5,8.5 10.6,8.6 15.4,13.1 19.7,13.4 v 0 0 -22.5 h -40.2 c 0.2,0.3 1,0.6 1,0.6 z"/>
	<text transform="matrix(1 0 0 1 644.5734 55)" class="st_p8 st_p6 st_p7">min 1</text>
	<!-- <text transform="matrix(1 0 0 1 676.3774 32.8337)" class="st_p8 st_p6 st_p7">max 20</text> -->
	<rect x="720.2" y="64.2" class="st_p19" width="76.6" height="30.7"/>
	<text transform="matrix(1 0 0 1 720.1852 63)" class="st_p20 st_p6 st_p7">ставлення </text>
	<text transform="matrix(1 0 0 1 720.1852 75)" class="st_p20 st_p6 st_p7">негативне</text>
	<rect x="720.2" y="35.3" class="st_p19" width="93.4" height="30.7"/>
	<text transform="matrix(1 0 0 1 720.1852 38)" class="st_p8 st_p6 st_p7">ставлення </text>
	<text transform="matrix(1 0 0 1 720.1852 50)" class="st_p8 st_p6 st_p7">партнерське</text>
</g>
<g id="other" mask="url(#mask4)">
	<text transform="matrix(1 0 0 1 676.3774 25)" class="st_p8 st_p6 st_p7">max 20</text>

	<path class="st_p4" d="M183.7,483.4c0,0-4.1-0.3-6.6-0.9c-3.6-0.9-5.2-1.4-6.6-1.4l0,0l0,0l0,0l0,0c-1.4,0-3.1,0.5-6.6,1.4
		c-2.4,0.6-6.6,0.9-6.6,0.9s-0.9,0.1,0.3,0.2c2.3,0.2,4.7,0.4,6.3,0.8c3.5,0.9,5.1,1.4,6.6,1.4l0,0l0,0l0,0l0,0l0,0l0,0l0,0l0,0l0,0
		l0,0c1.4,0,3.1-0.5,6.6-1.4c1.6-0.4,4-0.7,6.3-0.8C184.6,483.5,183.7,483.4,183.7,483.4z"/>
	<path class="st_p5" d="M375.6,483.4c0,0-4.1-0.3-6.6-0.9c-3.6-0.9-5.2-1.4-6.6-1.4l0,0l0,0l0,0l0,0c-1.4,0-3.1,0.5-6.6,1.4
		c-2.4,0.6-6.6,0.9-6.6,0.9s-0.9,0.1,0.3,0.2c2.3,0.2,4.7,0.4,6.3,0.8c3.5,0.9,5.1,1.4,6.6,1.4l0,0l0,0l0,0l0,0l0,0l0,0l0,0l0,0l0,0
		l0,0c1.4,0,3.1-0.5,6.6-1.4c1.6-0.4,4-0.7,6.3-0.8C376.5,483.5,375.6,483.4,375.6,483.4z"/>
	<text transform="matrix(1 0 0 1 601.8789 486.8769)" class="st_p3 st_p6 st_p7">Леонід Кравчук</text>
	<path class="st_p4" d="M165.4,443.2c-1.4-0.3-4.1-0.8-8.8-6.3c-6.1-7.1-9.7-11-12.5-11.9c-0.3-0.1-0.5-0.2-0.8-0.2h-0.1l0,0l0,0l0,0
		l0,0c-8.6,0.2-19.1,14.1-27.7,14.1c-8.7,0-19.8-11.8-28.4-11.8c-8.7,0-18.5,11.8-27.1,11.8c-8.7,0-18.9,0-27.6,0v9.4
		c8.7,0,18.9,0,27.6,0s18.5,11.8,27.1,11.8c8.7,0,19.8-11.8,28.4-11.8s19.1,13.9,27.7,14.1l0,0l0,0l0,0c0,0,0,0,0.1,0c0,0,0,0,0.1,0
		l0,0l0,0c0.8,0,1.5-0.3,2-0.8c2.5-1.5,5.7-4.9,11.2-10.4c3.3-3.2,3.8-5.1,8.2-6.7C167.2,443.6,165.4,443.2,165.4,443.2z"/>
	<path class="st_p5" d="M375.6,443.6c0,0-4.1-0.3-6.6-0.9c-3.6-0.9-5.2-1.4-6.6-1.4l0,0l0,0l0,0l0,0c-1.4,0-3.1,0.5-6.6,1.4
		c-2.4,0.6-6.6,0.9-6.6,0.9s-0.9,0.1,0.3,0.2c2.3,0.2,4.7,0.4,6.3,0.8c3.5,0.9,5.1,1.4,6.6,1.4l0,0l0,0l0,0l0,0l0,0l0,0l0,0l0,0l0,0
		l0,0c1.4,0,3.1-0.5,6.6-1.4c1.6-0.4,4-0.7,6.3-0.8C376.5,443.7,375.6,443.6,375.6,443.6z"/>
	<text transform="matrix(1 0 0 1 601.8789 448.039)" class="st_p3 st_p6 st_p7">Леонід Кучма</text>
	<g>
		<path class="st_p4" d="M189.6,405.8L189.6,405.8L189.6,405.8L189.6,405.8L189.6,405.8C189.7,405.8,189.7,405.8,189.6,405.8z"/>
		<path class="st_p4" d="M189.6,405.8L189.6,405.8L189.6,405.8L189.6,405.8z"/>
		<path class="st_p4" d="M189.7,405.8L189.7,405.8L189.7,405.8L189.7,405.8z"/>
		<path class="st_p5" d="M189.7,396.8C189.7,396.8,189.6,396.8,189.7,396.8C189.6,396.8,189.6,396.8,189.7,396.8L189.7,396.8z"/>
		<path class="st_p5" d="M191.3,408.4c4.2,1.6,4.8,4.7,7.2,4.6l0,0l0,0l0,0l0,0l0,0l0,0l0,0l0,0l0,0l0,0c1.4-0.2,3.1-2,6.6-5.6
			c1.6-1.6,4-2.7,6.3-3.3c1.2-0.3,0.3-0.7,0.3-0.7s-2.6-0.7-4.8-2.2c-5.7,1.5-17.7,3.7-23.4,5.2
			C184.4,407.1,185.8,406.4,191.3,408.4z"/>
		<path class="st_p4" d="M190.3,405.8c5.6-1.5,11.1-3,16.7-4.4c-0.6-0.4-1.2-0.8-1.7-1.4c-3.2-3.2-4.8-5-6.2-5.5l-0.4-0.1l0,0l0,0l0,0
			l0,0c-0.2,0-0.5,0.1-0.7,0.2l-27.4,4.6l0,0l0,0c-1.4,0.1-3.1,0.9-6.6,2.6c-2.4,1.2-6.6,1.7-6.6,1.7s-0.9,0.2,0.3,0.3
			c2.3,0.3,4.7,0.8,6.3,1.6c3.5,1.7,5.1,2.6,6.6,2.6l0,0l0,0l0,0l0,0l0,0l0,0l0,0l0,0l0,0l0,0l10.1-1.1l9.2-1c0.1,0,0.2,0,0.2-0.1
			L190.3,405.8L190.3,405.8z"/>
	</g>
	<path class="st_p5" d="M403.2,403.6c0,0-4.1-0.5-6.6-1.7c-3.6-1.8-5.2-2.7-6.6-2.7l0,0l0,0l0,0l0,0l0,0h-27.7l-27.6,1.7l0,0
		c-1.4,0-3.1,0.5-6.6,1.4c-2.4,0.6-6.6,0.9-6.6,0.9s-0.9,0.1,0.3,0.2c2.3,0.2,4.7,0.4,6.3,0.8c3.5,0.9,5.1,1.4,6.6,1.4l0,0l0,0l0,0
		l0,0l0,0l0,0l0,0l0,0l0,0l27.6,2.7l27.6,0.1l0,0l0,0l0,0l0,0l0,0l0,0l0,0l0,0l0,0l0,0c1.4-0.1,3.1-1,6.6-2.7c1.6-0.8,4-1.3,6.3-1.6
		C404.1,403.8,403.2,403.6,403.2,403.6z"/>
	<path class="st_p5" d="M596.6,403.6c0,0-4.1-0.5-6.6-1.7c-3.6-1.8-5.2-2.7-6.6-2.7l0,0l0,0l0,0l0,0l0,0l-26.6,1.8l0,0
		c-1.4,0-3.1,0.5-6.6,1.4c-2.4,0.6-6.6,0.9-6.6,0.9s-0.9,0.1,0.3,0.2c2.3,0.2,4.7,0.4,6.3,0.8c3.5,0.9,5.1,1.4,6.6,1.4l0,0l0,0l0,0
		l0,0l0,0l0,0l0,0l0,0l0,0l26.5,2.7l0,0l0,0l0,0l0,0l0,0l0,0l0,0l0,0l0,0l0,0c1.4-0.1,3.1-1,6.6-2.7c1.6-0.8,4-1.3,6.3-1.6
		C597.5,403.8,596.6,403.6,596.6,403.6z"/>
	<text transform="matrix(1 0 0 1 601.751 407.7548)" class="st_p3 st_p6 st_p7">Віктор Ющенко</text>
	<path class="st_p4" d="M156.4,363.5c0,0-4.1-1-6.6-3.4c-3.6-3.4-5.2-5.2-6.6-5.3l0,0l0,0l0,0l0,0c-1.4,0.1-3.1,1.9-6.6,5.3
		c-2.4,2.3-6.6,3.4-6.6,3.4s-0.9,0.3,0.3,0.6c2.3,0.6,4.7,1.6,6.3,3.2c3.5,3.3,5.1,5.1,6.6,5.3l0,0l0,0l0,0l0,0l0,0l0,0l0,0l0,0l0,0
		l0,0c1.4-0.2,3.1-1.9,6.6-5.3c1.6-1.5,4-2.6,6.3-3.2C157.3,363.8,156.4,363.5,156.4,363.5z"/>
	<g>
		<path class="st_p4" d="M362.4,368.2L362.4,368.2L362.4,368.2L362.4,368.2L362.4,368.2L362.4,368.2z"/>
		<path class="st_p4" d="M362.4,368.2L362.4,368.2L362.4,368.2L362.4,368.2z"/>
		<path class="st_p4" d="M362.5,368.2L362.5,368.2L362.5,368.2L362.5,368.2z"/>
		<path class="st_p5" d="M362.5,359.2C362.4,359.2,362.4,359.2,362.5,359.2C362.4,359.2,362.4,359.2,362.5,359.2
			C362.4,359.2,362.4,359.2,362.5,359.2z"/>
		<path class="st_p4" d="M362.7,363.7c-5.1-0.4-8.4,0.2-13.8,0c0,0.9,4.4,0.3,6.6,1.7c2.1,1,4.1,2.8,7.3,2.8c2.3,0,4.9-2.4,10.2-3.1
			l4.7-0.2C372.4,364.4,374.8,364.7,362.7,363.7z"/>
		<path class="st_p5" d="M403.4,363.7c0,0-4.1-0.3-6.6-0.9c-3.6-0.9-5.2-1.4-6.6-1.4l0,0c-5.3-0.7-15.5-2.1-27.6-2.1
			c-2.3,0.1-3.9,1.2-5.6,2c-3,1.9-8.2,2.2-8.1,2.5c5.4,0.2,8.7-0.4,13.8,0c11.2,0.8,20.7,1.7,26.2,2.2c0.4,0.1,0.8,0.1,1.2,0.1l0,0
			l0,0l0,0l0,0l0,0l0,0l0,0l0,0l0,0c1.4,0,3.1-0.5,6.6-1.4c1.6-0.4,4-0.7,6.3-0.8C404.3,363.8,403.4,363.7,403.4,363.7z"/>
	</g>
	<path class="st_p4" d="M320.2,363.7c0,0-4.1-0.3-6.6-0.9c-3.6-0.9-5.2-1.4-6.6-1.4l0,0l0,0l0,0l0,0c-1.4,0-3.1,0.5-6.6,1.4
		c-2.4,0.6-6.6,0.9-6.6,0.9s-0.9,0.1,0.3,0.2c2.3,0.2,4.7,0.4,6.3,0.8c3.5,0.9,5.1,1.4,6.6,1.4l0,0l0,0l0,0l0,0l0,0l0,0l0,0l0,0l0,0
		l0,0c1.4,0,3.1-0.5,6.6-1.4c1.6-0.4,4-0.7,6.3-0.8C321.1,363.8,320.2,363.7,320.2,363.7z"/>
	<text transform="matrix(1 0 0 1 601.751 366.7636)" class="st_p3 st_p6 st_p7">Віктор Янукович</text>
	<path class="st_p5" d="M597.4,324.2c0,0-4.1-0.3-6.6-0.9c-3.2-0.8-4.9-1.3-6.2-1.4l0,0c-8.7-1.7-19.4-4.7-28.1-4.7
		c-0.1,0-0.2,0.1-0.3,0.3c-1.4,0.3-3,1.6-6.3,4c-2.4,1.8-6.6,2.6-6.6,2.6s-0.9,0.3,0.3,0.5c1.4,0.3,2.9,0.7,4.2,1.3
		c0.8,0.3,1.5,0.7,2.1,1.2c3.2,2.3,4.8,3.7,6.1,4c0.1,0.2,0.3,0.3,0.5,0.3c8.7,0,19.5-3,28.1-4.7l0,0c1.4-0.1,3-0.6,6.2-1.4
		c1.6-0.4,4-0.7,6.3-0.8C598.3,324.3,597.4,324.2,597.4,324.2z"/>
	<g>
		<path class="st_p5" d="M514.2,324c0,0-4.1-1.4-6.6-4.5c-3.6-4.5-5.2-6.9-6.6-7l0,0l0,0l0,0l0,0l0,0l0,0c-8.7,0-19.1,9.4-27.7,9.4
			c-8.7,0-19.1-2.4-27.7-2.4h-83.1l0,0c-1.4,0.1-3,1-6.5,2.8c-0.1,0.1-0.2,0.1-0.4,0.2l6.8,1.7l7,1.8c6.8,1.6,14,2.9,20.4,2.9h55.6
			c8.7,0,19.1-2.4,27.7-2.4s19,9.3,27.6,9.4l0,0l0,0l0,0l0,0l0,0l0,0l0,0l0,0l0,0l0,0l0,0h0.1c1.4-0.3,3-2.7,6.4-6.9
			c1.6-2,4-3.4,6.3-4.2C515.1,324.4,514.2,324,514.2,324z"/>
		<path class="st_p4" d="M369.5,326.1l-7-1.8l-6.8-1.7c-2.5,1.1-6.2,1.6-6.2,1.6s-0.9,0.2,0.3,0.3c1.4,0.2,2.9,0.5,4.2,0.9
			c0.8,0.2,1.5,0.5,2.1,0.8c3.4,1.7,5.1,2.7,6.5,2.8l0,0c1,0,2.1,0,3.2,0c7.9,0,16.6,0,24.2,0C383.6,329,376.4,327.7,369.5,326.1z"
			/>
	</g>
	<text transform="matrix(1 0 0 1 601.751 328.2987)" class="st_p3 st_p6 st_p7">Петро Порошенко</text>
	<g>
		<path class="st_p4" d="M501.9,300.2L501.9,300.2c8.5-6.8,18.5-13.4,26.8-13.4c-8.7,0-19.1,4.7-27.7,9.4l-2.9,1.6
			c1.1,1.9,2,2.9,2.7,3.1l0,0l0,0l0,0l0,0l0,0l0,0l0,0l0,0l0,0l0,0l0,0l0,0l0.1-0.1C501.4,300.7,501.7,300.6,501.9,300.2
			L501.9,300.2z"/>
		<path class="st_p5" d="M597.4,284.4c0,0-4.1-0.3-6.6-0.9c-3.1-0.8-4.7-1.2-6.1-1.4l0,0c-8.7-2.4-19.6-4.7-28.3-4.7s-19,4.7-27.7,4.7
			c-8.2,0-18-6.4-26.4-13c-0.5-0.5-0.9-0.9-1.2-1c0,0-0.1,0-0.1-0.1l0,0c0,0,0,0-0.1,0l0,0l0,0l0,0l0,0c-1.4,0.2-3.1,3.5-6.6,9.8
			c-2.4,4.3-6.6,6.2-6.6,6.2s-0.9,0.6,0.3,1.2c1.4,0.7,2.9,1.7,4.2,3c0.8,0.8,1.5,1.8,2.1,2.9c1.6,2.9,2.8,5.1,3.8,6.7l2.9-1.6
			c0,0,2.5-1.3,5.2-2.7c7.4-3.7,15.6-6.7,22.5-6.7c8.7,0,19,4.7,27.7,4.7s19.6-2.4,28.3-4.7l0,0c1.3-0.1,3-0.6,6.1-1.4
			c1.6-0.4,4-0.7,6.3-0.8C598.3,284.5,597.4,284.4,597.4,284.4z"/>
	</g>
	<text transform="matrix(1 0 0 1 601.751 288.5819)" class="st_p3 st_p6 st_p7">Володимир Зеленський</text>
	<path class="st_p4" d="M48.6,244.2c0,0-5.3-1.9-8.4-6.2c-4.5-6.3-6.6-9.6-8.4-9.8l0,0l0,0v32.9l0,0l0,0l0,0l0,0l0,0
		c1.8-0.3,3.9-3.6,8.4-9.8c2.1-2.8,5.1-4.8,8-5.9C49.7,244.8,48.6,244.2,48.6,244.2z"/>
	<path class="st_p4" d="M100.9,244.6c0,0-4.1-0.3-6.6-0.9c-3.6-0.9-5.2-1.4-6.6-1.4l0,0l0,0l0,0l0,0c-1.4,0-3.1,0.5-6.6,1.4
		c-2.4,0.6-6.6,0.9-6.6,0.9s-0.9,0.1,0.3,0.2c2.3,0.2,4.7,0.4,6.3,0.8c3.5,0.9,5.1,1.4,6.6,1.4l0,0l0,0l0,0l0,0l0,0l0,0l0,0l0,0l0,0
		l0,0c1.4,0,3.1-0.5,6.6-1.4c1.6-0.4,4-0.7,6.3-0.8C101.8,244.7,100.9,244.6,100.9,244.6z"/>
	<path class="st_p4" d="M239.5,244.6c0,0-4.1-0.3-6.6-0.9c-3.6-0.9-5.2-1.4-6.6-1.4l0,0l0,0l0,0l0,0c-1.4,0-3.1,0.5-6.6,1.4
		c-2.4,0.6-6.6,0.9-6.6,0.9s-0.9,0.1,0.3,0.2c2.3,0.2,4.7,0.4,6.3,0.8c3.5,0.9,5.1,1.4,6.6,1.4l0,0l0,0l0,0l0,0l0,0l0,0l0,0l0,0l0,0
		l0,0c1.4,0,3.1-0.5,6.6-1.4c1.6-0.4,4-0.7,6.3-0.8C240.4,244.7,239.5,244.6,239.5,244.6z"/>
	<path class="st_p5" d="M597.4,244.6c0,0-4.1-0.3-6.6-0.9c-3.6-0.9-5.2-1.4-6.6-1.4l0,0l0,0l0,0l0,0c-1.4,0-3.1,0.5-6.6,1.4
		c-2.4,0.6-6.6,0.9-6.6,0.9s-0.9,0.1,0.3,0.2c2.3,0.2,4.7,0.4,6.3,0.8c3.5,0.9,5.1,1.4,6.6,1.4l0,0l0,0l0,0l0,0l0,0l0,0l0,0l0,0l0,0
		l0,0c1.4,0,3.1-0.5,6.6-1.4c1.6-0.4,4-0.7,6.3-0.8C598.3,244.7,597.4,244.6,597.4,244.6z"/>
	<path class="st_p4" d="M514.2,244.6c0,0-4.1-0.3-6.6-0.9c-2.8-0.7-4.4-1.1-5.7-1.3c-0.1,0-0.3-0.1-0.4-0.1h-0.6l0,0l0,0l0,0l0,0
		h-82.7h-0.1c-0.1,0-0.2,0-0.3,0l0,0l0,0l0,0l0,0c-1.4,0-3.1,0.5-6.6,1.4c-2.4,0.6-6.6,0.9-6.6,0.9s-0.9,0.1,0.3,0.2
		c2.3,0.2,4.7,0.4,6.3,0.8c3.5,0.9,5.1,1.4,6.6,1.4l0,0l0,0l0,0l0,0l0,0l0,0l0,0l0,0l0,0l0,0c0.1,0,0.1,0,0.2,0h0.1h83.3
		c0.1,0,0.3,0,0.4-0.1c1.3-0.2,2.8-0.6,5.6-1.3c1.6-0.4,4-0.7,6.3-0.8C515.1,244.7,514.2,244.6,514.2,244.6z"/>
	<text transform="matrix(1 0 0 1 601.751 248.9833)" class="st_p3 st_p6 st_p7">Білл Клінтон</text>
	<path class="st_p4" d="M528.8,192.4L528.8,192.4L528.8,192.4L528.8,192.4L528.8,192.4L528.8,192.4z"/>
	<path class="st_p4" d="M528.7,192.4L528.7,192.4L528.7,192.4L528.7,192.4z"/>
	<path class="st_p4" d="M528.8,192.4L528.8,192.4L528.8,192.4L528.8,192.4z"/>
	<path class="st_p4" d="M535.4,186.1c-3.6-1.7-5.2-2.6-6.6-2.7l0,0l0,0l0,0l0,0c-1.4,0.1-3.1,1-6.6,2.7c-2.4,1.2-6.6,1.7-6.6,1.7
		s-0.9,0.2,0.3,0.3c1.4,0.2,2.9,0.5,4.2,0.8c5.7-0.7,11.4-1.5,17.1-2.2C536.5,186.6,535.9,186.4,535.4,186.1z"/>
	<path class="st_p5" d="M522.1,189.7c3.5,1.7,5.1,2.6,6.6,2.7l0,0l0,0l0,0l0,0l0,0l0,0l0,0l0,0l0,0l0,0c1.4-0.1,3.1-1,6.6-2.7
		c1.6-0.8,4-1.3,6.3-1.6c1.2-0.2,0.3-0.3,0.3-0.3s-2.6-0.3-4.8-1c-5.7,0.7-11.4,1.5-17.1,2.2C520.8,189.2,521.5,189.5,522.1,189.7z"
		/>
	<path class="st_p4" d="M528.8,183.4L528.8,183.4L528.8,183.4L528.8,183.4L528.8,183.4c-1.5,0.1-3.1,1-6.7,2.7
		c-2.4,1.2-6.6,1.7-6.6,1.7s-0.9,0.2,0.3,0.3c1.4,0.2,2.9,0.5,4.2,0.8c5.7-0.7,11.4-1.5,17.1-2.2c-0.6-0.2-1.2-0.4-1.7-0.7
		C531.8,184.4,530.2,183.5,528.8,183.4z"/>
	<path class="st_p4" d="M269.6,187.7c0,0-4.1-0.4-6.6-1.3c-1.3-0.5-2.3-0.9-3.2-1.2c-1.7-1.1-1.2-1.9-5.4-2c-8.7-0.4-20-3.5-28.6-4.7
		c-8.7-1.2-18.5-1.6-27.1-2.4c-8.7-0.8-19.6-0.8-28.3-2.4c-8.7-1.6-18.5-5.1-27.2-7.1s-19.6-3.1-28.3-4.7
		c-8.7-1.6-18.5-1.6-27.1-4.7c-8.7-3.1-18.5-9.8-27.1-16.5l0,0l0,0l0,0l0,0l0,0v0.1c-1.8,0.9-3.8,10.3-8.1,28
		c-2,8.1-4.9,13.7-7.7,16.8c-1.5,1.6-0.3,3.3-0.3,3.3s5.1,5.5,8.1,17.8c4.4,18,6.4,27.4,8.2,28l0,0l0,0l0,0
		c8.7-6.7,18.5-13.3,27.1-16.5c8.7-3.1,18.5-3.1,27.1-4.7c8.7-1.6,19.6-2.7,28.3-4.7s18.5-5.5,27.2-7.1s19.6-1.6,28.3-2.4
		c8.7-0.8,18.5-1.2,27.1-2.4c8.7-1.2,20-4.3,28.6-4.7c4.5-0.2,4.1-1.2,5.8-2.4c0.8-0.3,1.7-0.6,2.8-1c1.6-0.6,4-1,6.3-1.2
		C270.5,187.9,269.6,187.7,269.6,187.7z"/>
	<path class="st_p4" d="M320.2,187.9c0,0-4.1-0.3-6.6-0.9c-3.6-0.9-5.2-1.4-6.6-1.4l0,0l0,0l0,0l0,0c-1.4,0-3.1,0.5-6.6,1.4
		c-2.4,0.6-6.6,0.9-6.6,0.9s-0.9,0.1,0.3,0.2c2.3,0.2,4.7,0.4,6.3,0.8c3.5,0.9,5.1,1.4,6.6,1.4l0,0l0,0l0,0l0,0l0,0l0,0l0,0l0,0l0,0
		l0,0c1.4,0,3.1-0.5,6.6-1.4c1.6-0.4,4-0.7,6.3-0.8C321.1,188,320.2,187.9,320.2,187.9z"/>
	<path class="st_p5" d="M347.9,187.9c0,0-4.1-0.3-6.6-0.9c-3.6-0.9-5.2-1.4-6.6-1.4l0,0l0,0l0,0l0,0c-1.4,0-3.1,0.5-6.6,1.4
		c-2.4,0.6-6.6,0.9-6.6,0.9s-0.9,0.1,0.3,0.2c2.3,0.2,4.7,0.4,6.3,0.8c3.5,0.9,5.1,1.4,6.6,1.4l0,0l0,0l0,0l0,0l0,0l0,0l0,0l0,0l0,0
		l0,0c1.4,0,3.1-0.5,6.6-1.4c1.6-0.4,4-0.7,6.3-0.8C348.8,188,347.9,187.9,347.9,187.9z"/>
	<path class="st_p4" d="M458.8,187.9c0,0-4.1-0.3-6.6-0.9c-3.6-0.9-5.2-1.4-6.6-1.4l0,0l0,0l0,0l0,0c-1.4,0-3.1,0.5-6.6,1.4
		c-2.4,0.6-6.6,0.9-6.6,0.9s-0.9,0.1,0.3,0.2c2.3,0.2,4.7,0.4,6.3,0.8c3.5,0.9,5.1,1.4,6.6,1.4l0,0l0,0l0,0l0,0l0,0l0,0l0,0l0,0l0,0
		l0,0c1.4,0,3.1-0.5,6.6-1.4c1.6-0.4,4-0.7,6.3-0.8C459.7,188,458.8,187.9,458.8,187.9z"/>
	<text transform="matrix(1 0 0 1 601.751 191.4545)" class="st_p3 st_p6 st_p7">Джордж Буш</text>
	<path class="st_p5" d="M597.4,159c0,0-2.6-0.3-4.8-1c-0.6-0.2-1.2-0.4-1.7-0.7c-3.6-1.7-5.2-2.6-6.6-2.7l0,0l0,0l0,0l0,0
		c-1.4,0.1-3.1,1-6.6,2.7c-2.4,1.2-6.6,1.7-6.6,1.7s-0.9,0.2,0.3,0.3c1.4,0.2,2.9,0.5,4.2,0.8c0.8,0.2,1.5,0.5,2.1,0.8
		c3.5,1.7,5.1,2.6,6.6,2.7l0,0l0,0l0,0l0,0l0,0l0,0l0,0l0,0l0,0l0,0c1.4-0.1,3.1-1,6.6-2.7c1.6-0.8,4-1.3,6.3-1.6
		C598.3,159.1,597.4,159,597.4,159z"/>
	<path class="st_p5" d="M390.2,156.7c-8.7,0-19-5.1-27.7-7.1c-8.6-2-19.1-3.3-27.8-4.7l0,0l0,0l0,0l0,0l0,0l0,0
		c-1.2,0.1-2.4,2-4.7,5.5l6.3,5.3l8.9,6.3c5.9,3.7,11.9,6.4,17.2,6.4C371.1,168.5,381.5,156.7,390.2,156.7z"/>
	<path class="st_p4" d="M369.8,166.4c-2.5,0.8-4.9,1.6-7.3,2.1C364.8,168.5,367.3,167.6,369.8,166.4z"/>
	<path class="st_p4" d="M445.6,166.1c8.7,0,19.1-1.6,27.7-2.4C464.7,164.6,454.3,164.6,445.6,166.1z"/>
	<path class="st_p4" d="M390.2,156.7c-6.3,0-13.6,6.3-20.4,9.7c6.8-2.2,14.1-5,20.4-5c8.7,0,19.1,16.5,27.7,16.5
		c8.7,0,19-10.2,27.7-11.8c-8.7,0-19-0.8-27.7-2.4C409.2,162.2,398.8,156.7,390.2,156.7z"/>
	<path class="st_p4" d="M345.1,162c0.1,0,0.1,0.1,0.2,0.1l-7.8-5.5l0,0c-0.9-0.7-1.9-1.5-2.8-2.2l0,0l0,0l-4.7-4
		c-0.6,0.9-1.2,1.9-1.9,3c-2.4,3.7-6.6,5.3-6.6,5.3s-0.9,0.5,0.3,1c2.3,0.9,4.7,2.6,6.3,5.1c3.5,5.3,5.1,8.1,6.6,8.4l0,0l0,0l0,0
		l0,0l0,0l0,0l0,0l0,0l0,0l0,0c0,0,0,0,0.1,0c1.7-0.3,3.5-0.5,5.4-0.8c7.4-1.1,15.4-2.3,22.2-3.9c-5.3,0-11.2-2.6-17-6.3
		C345.3,162.1,345.2,162,345.1,162z"/>
	<path class="st_p5" d="M514.1,159c0,0-4.1-0.3-6.6-1c-3.6-1-5.2-1.5-6.6-1.5l0,0l0,0l0,0l0,0c-0.3,0-0.7,0-1.1,0.1
		c-6-0.1-18.3-1.5-26.5-2.2c-8.7-0.8-19.1-0.8-27.7-2.4c-8.7-1.6-19-11.8-27.7-11.8s-19.1,16.5-27.7,16.5c8.7,0,19.1,5.5,27.7,7.1
		c8.7,1.6,19,2.4,27.7,2.4s19.1-1.6,27.7-2.4c8.3-0.8,21-2.2,27-2.2c0.2,0,0.4,0,0.6,0l0,0l0,0l0,0l0,0l0,0l0,0l0,0l0,0l0,0l0,0
		c1.4,0,3.1-0.6,6.6-1.5c1.6-0.4,4-0.7,6.3-0.9C515,159.1,514.1,159,514.1,159z"/>
	<text transform="matrix(1 0 0 1 601.751 162.9115)" class="st_p3 st_p6 st_p7">Барак Обама</text>
	<text transform="matrix(1 0 0 1 601.751 123.2963)" class="st_p3 st_p6 st_p7">Дональд Трамп</text>
	<path class="st_p4" d="M569.7,119.5c0,0-2.6-0.2-4.8-0.5c-0.6-0.1-1.2-0.2-1.7-0.3c-3.6-0.9-5.2-1.4-6.6-1.4l0,0l0,0l0,0
		c-8.7-0.4-9-0.8-17.6-2.4c-8.7-1.6-29.2-7.1-37.8-7.1c-8.7,0-19.1,0-27.7,0c-8.7,0-19.1,0-27.7,0c-8.7,0-19,0-27.7,0v0.1
		c-0.1,0-0.1,0-0.2,0l0,0l0,0l0,0l0,0c-1.4,0.2-3.1,2.5-6.6,7c-2.4,3.1-6.6,4.5-6.6,4.5s-0.9,0.4,0.3,0.8c1.4,0.5,2.9,1.2,4.2,2.2
		c0.8,0.6,1.5,1.3,2.1,2c3.5,4.4,5.1,6.8,6.6,7l0,0l0,0l0,0l0,0l0,0l0,0l0,0l0,0l0,0l0,0h0.1v0.1c8.7,0,19,0,27.7,0s19.1,0,27.7,0
		c8.7,0,19.1,0,27.7,0c8.7,0,29.2-5.5,37.8-7.1c8.7-1.6,9-2,17.6-2.4l0,0l0,0l0,0l0,0l0,0l0,0c1.4,0,3.1-0.5,6.6-1.4
		c1.6-0.4,4-0.7,6.3-0.8C570.6,119.6,569.7,119.5,569.7,119.5z"/>
	<text transform="matrix(1 0 0 1 601.751 97.7709)" class="st_p3 st_p6 st_p7">Джо Байден</text>
	<g pointer-events="none">
		<g>
			<path class="st_p4" d="M565.1,96.6"/>
		</g>
	</g>
	<path class="st_p5" d="M569.7,94c0,0-4.1-0.3-6.6-0.9c-3.6-0.9-5.2-1.4-6.6-1.4l0,0l0,0l0,0l0,0c-1.4,0-3.1,0.5-6.6,1.4
		c-2.4,0.6-6.6,0.9-6.6,0.9s-0.9,0.1,0.3,0.2c2.3,0.2,4.7,0.4,6.3,0.8c3.5,0.9,5.1,1.4,6.6,1.4l0,0l0,0l0,0l0,0l0,0l0,0l0,0l0,0l0,0
		l0,0c1.4,0,3.1-0.5,6.6-1.4c1.6-0.4,4-0.7,6.3-0.8C570.6,94.1,569.7,94,569.7,94z"/>
</g>
</svg>
