<?xml version="1.0" encoding="utf-8"?>
<!-- Generator: Adobe Illustrator 27.4.0, SVG Export Plug-In . SVG Version: 6.00 Build 0)  -->
<svg id="svg3" version="1.0" xmlns="http://www.w3.org/2000/svg" xmlns:xlink="http://www.w3.org/1999/xlink" x="0px" y="0px"
	 viewBox="0 0 845 502" style="enable-background:new 0 0 846 502;" xml:space="preserve">
<style type="text/css">
	.st_t0{fill:none;stroke:#FFFFFF;stroke-width:0.25;stroke-miterlimit:10;stroke-dasharray:4;}
	.st_t1{fill:none;stroke:#FFFFFF;stroke-width:0.25;stroke-miterlimit:10;}
	.st_t2{fill:#848484;}
	.st_t3{font-family:'ProximaNova';}
	.st_t4{font-size:11px;}
	.st_t5{font-size:9.8px;}
	.st_t6{display:none;fill:none;stroke:#FF0000;}
	.st_t7{display:none;fill:#4328E7;fill-opacity:0;}
	.st_t8{display:none;fill:#9654E5;fill-opacity:0;}
	.st_t9{display:none;fill:#FF6283;fill-opacity:0;}
	.st_t10{display:none;fill:#FF8800;fill-opacity:0;}
	.st_t11{display:none;fill:#FFC502;fill-opacity:0;}
	.st_t12{display:none;fill:#007D8E;fill-opacity:0;}
	.st_t13{display:none;fill:#1AA7EE;fill-opacity:0;}
	.st_t14{opacity:0.42;fill:#FFFFFF;fill-opacity:0.7;enable-background:new    ;}
	.st_t15{opacity:0.9;fill:#FFFFFF;enable-background:new    ;}
	.st_t16{fill:#FFFFFF;}
	.st_t17{fill:none;}
	.st_t18{font-family:'ProximaNova'; font-weight: bold; }
	.st_t19{font-size:15px;}
	.st_t20{font-size:13px;}
</style>
<g id="back">
	<!-- <rect width="800" height="502"/> -->
	<g>
		<line class="st_t0" x1="642.6" y1="77.3" x2="642.6" y2="494"/>
		<line class="st_t0" x1="611.9" y1="77.3" x2="611.9" y2="494"/>
		<line class="st_t0" x1="581.2" y1="77.3" x2="581.2" y2="494"/>
		<line class="st_t0" x1="550.5" y1="77.3" x2="550.5" y2="494"/>
		<line class="st_t0" x1="519.8" y1="77.3" x2="519.8" y2="494"/>
		<line class="st_t0" x1="489.1" y1="77.3" x2="489.1" y2="494"/>
		<line class="st_t0" x1="458.4" y1="77.3" x2="458.4" y2="494"/>
		<line class="st_t0" x1="427.7" y1="77.3" x2="427.7" y2="494"/>
		<line class="st_t0" x1="397" y1="77.3" x2="397" y2="494"/>
		<line class="st_t0" x1="366.3" y1="77.3" x2="366.3" y2="494"/>
		<line class="st_t0" x1="335.6" y1="77.3" x2="335.6" y2="494"/>
		<line class="st_t0" x1="277" y1="77.3" x2="277" y2="494"/>
		<line class="st_t0" x1="246.3" y1="77.3" x2="246.3" y2="494"/>
		<line class="st_t0" x1="215.6" y1="77.3" x2="215.6" y2="494"/>
		<line class="st_t0" x1="184.9" y1="77.3" x2="184.9" y2="494"/>
		<line class="st_t0" x1="154.2" y1="77.3" x2="154.2" y2="494"/>
		<line class="st_t0" x1="123.5" y1="77.3" x2="123.5" y2="494"/>
		<line class="st_t0" x1="92.8" y1="77.3" x2="92.8" y2="494"/>
		<line class="st_t0" x1="62.1" y1="77.3" x2="62.1" y2="494"/>
		<line class="st_t0" x1="31.4" y1="77.3" x2="31.4" y2="494"/>
	</g>
	<line class="st_t1" x1="17.2" y1="158.7" x2="652.5" y2="158.7"/>
	<line class="st_t1" x1="16.6" y1="263.4" x2="651.8" y2="263.4"/>
	<line class="st_t1" x1="17.2" y1="313.9" x2="652.5" y2="313.9"/>
	<line class="st_t1" x1="17.2" y1="354.5" x2="652.5" y2="354.5"/>
	<line class="st_t1" x1="18" y1="396.6" x2="653.3" y2="396.6"/>
	<line class="st_t1" x1="17.2" y1="431.2" x2="652.5" y2="431.2"/>
	<line class="st_t1" x1="17.2" y1="464.5" x2="652.5" y2="464.5"/>
</g>
<g id="text">
	<text transform="matrix(0 -1 1 0 30.9355 70.4492)" class="st_t2 st_t3 st_t4">2000</text>
	<text transform="matrix(1 0 0 1 700 41.7268)" class="st_t2 st_t3 st_t5" style='text-anchor: end;'>min 1</text>
	<!-- <text transform="matrix(1 0 0 1 743.8377 27.0867)" class="st_t2 st_t3 st_t5">max 249 </text> -->
	<text transform="matrix(0 -1 1 0 61.6758 68.9482)" class="st_t2 st_t3 st_t4">2001</text>
	<text transform="matrix(0 -1 1 0 92.418 70.3174)" class="st_t2 st_t3 st_t4">2002</text>
	<text transform="matrix(0 -1 1 0 123.1602 70.1475)" class="st_t2 st_t3 st_t4">2003</text>
	<text transform="matrix(0 -1 1 0 153.9023 70.1523)" class="st_t2 st_t3 st_t4">2004</text>
	<text transform="matrix(0 -1 1 0 184.6436 70.3291)" class="st_t2 st_t3 st_t4">2005</text>
	<text transform="matrix(0 -1 1 0 215.3857 70.335)" class="st_t2 st_t3 st_t4">2006</text>
	<text transform="matrix(0 -1 1 0 246.127 69.918)" class="st_t2 st_t3 st_t4">2007</text>
	<text transform="matrix(0 -1 1 0 276.8691 70.2812)" class="st_t2 st_t3 st_t4">2008</text>
	<text transform="matrix(0 -1 1 0 335.5322 68.8154)" class="st_t2 st_t3 st_t4">2012</text>
	<text transform="matrix(0 -1 1 0 366.2725 68.6445)" class="st_t2 st_t3 st_t4">2013</text>
	<text transform="matrix(0 -1 1 0 397.0156 68.6514)" class="st_t2 st_t3 st_t4">2014</text>
	<text transform="matrix(0 -1 1 0 427.7578 68.8281)" class="st_t2 st_t3 st_t4">2015</text>
	<text transform="matrix(0 -1 1 0 458.499 68.832)" class="st_t2 st_t3 st_t4">2016</text>
	<text transform="matrix(0 -1 1 0 489.2402 68.4141)" class="st_t2 st_t3 st_t4">2017</text>
	<text transform="matrix(0 -1 1 0 519.9824 68.7773)" class="st_t2 st_t3 st_t4">2018</text>
	<text transform="matrix(0 -1 1 0 550.7246 68.833)" class="st_t2 st_t3 st_t4">2019</text>
	<text transform="matrix(0 -1 1 0 581.4658 70.3174)" class="st_t2 st_t3 st_t4">2020</text>
	<text transform="matrix(0 -1 1 0 612.207 68.8164)" class="st_t2 st_t3 st_t4">2021</text>
	<text transform="matrix(0 -1 1 0 642.9512 70.1865)" class="st_t2 st_t3 st_t4">2022</text>
	<rect x="618.9" y="58.5" class="st_t6" width="173.6" height="165.9"/>
	<g>
		<g transform="translate(17.712158203125, 21)">
			<path id="point-0-5" class="st_t7" d="M50.9,121.9c0-1.9,1.6-3.5,3.5-3.5s3.5,1.6,3.5,3.5s-1.6,3.5-3.5,3.5S50.9,123.8,50.9,121.9z
				"/>
			<path id="point-0-6" class="st_t7" d="M58.3,121.9c0-1.9,1.6-3.5,3.5-3.5s3.5,1.6,3.5,3.5s-1.6,3.5-3.5,3.5S58.3,123.8,58.3,121.9z
				"/>
			<path id="point-0-9" class="st_t7" d="M102.6,121c0-1.9,1.6-3.5,3.5-3.5s3.5,1.6,3.5,3.5s-1.6,3.5-3.5,3.5S102.6,123,102.6,121z"/>
			<path id="point-0-10" class="st_t7" d="M110,120.4c0-1.9,1.6-3.5,3.5-3.5s3.5,1.6,3.5,3.5s-1.6,3.5-3.5,3.5S110,122.4,110,120.4z"
				/>
			<path id="point-0-11" class="st_t7" d="M117.3,119.9c0-1.9,1.6-3.5,3.5-3.5s3.5,1.6,3.5,3.5s-1.6,3.5-3.5,3.5
				S117.3,121.8,117.3,119.9z"/>
			<path id="point-0-12" class="st_t7" d="M124.7,121c0-1.9,1.6-3.5,3.5-3.5c1.9,0,3.5,1.6,3.5,3.5s-1.6,3.5-3.5,3.5
				S124.7,123,124.7,121z"/>
			<path id="point-0-13" class="st_t7" d="M132.1,121c0-1.9,1.6-3.5,3.5-3.5s3.5,1.6,3.5,3.5s-1.6,3.5-3.5,3.5S132.1,123,132.1,121z"
				/>
			<path id="point-0-14" class="st_t7" d="M139.5,121c0-1.9,1.6-3.5,3.5-3.5s3.5,1.6,3.5,3.5s-1.6,3.5-3.5,3.5S139.5,123,139.5,121z"
				/>
			<path id="point-0-15" class="st_t7" d="M146.9,120.4c0-1.9,1.6-3.5,3.5-3.5s3.5,1.6,3.5,3.5s-1.6,3.5-3.5,3.5
				S146.9,122.4,146.9,120.4z"/>
			<path id="point-0-16" class="st_t7" d="M154.2,120.4c0-1.9,1.6-3.5,3.5-3.5s3.5,1.6,3.5,3.5s-1.6,3.5-3.5,3.5
				S154.2,122.4,154.2,120.4z"/>
			<path id="point-0-17" class="st_t7" d="M161.6,121.9c0-1.9,1.6-3.5,3.5-3.5s3.5,1.6,3.5,3.5s-1.6,3.5-3.5,3.5
				S161.6,123.8,161.6,121.9z"/>
			<path id="point-0-18" class="st_t7" d="M169,119.9c0-1.9,1.6-3.5,3.5-3.5s3.5,1.6,3.5,3.5s-1.6,3.5-3.5,3.5S169,121.8,169,119.9z"
				/>
			<path id="point-0-19" class="st_t7" d="M176.4,116.4c0-1.9,1.6-3.5,3.5-3.5s3.5,1.6,3.5,3.5s-1.6,3.5-3.5,3.5
				S176.4,118.3,176.4,116.4z"/>
		</g>
	</g>
	<g>
		<g transform="translate(212.28411865234375, 21)">
			<path id="point-1-0" class="st_t8" d="M14,116.7c0-1.9,1.6-3.5,3.5-3.5s3.5,1.6,3.5,3.5s-1.6,3.5-3.5,3.5S14,118.6,14,116.7z"/>
			<path id="point-1-1" class="st_t8" d="M21.4,117.3c0-1.9,1.6-3.5,3.5-3.5s3.5,1.6,3.5,3.5l0,0c0,1.9-1.6,3.5-3.5,3.5
				S21.4,119.2,21.4,117.3L21.4,117.3z"/>
			<path id="point-1-2" class="st_t8" d="M28.8,114.9c0-1.9,1.6-3.5,3.5-3.5c1.9,0,3.5,1.6,3.5,3.5s-1.6,3.5-3.5,3.5
				C30.3,118.4,28.8,116.9,28.8,114.9z"/>
			<path id="point-1-3" class="st_t8" d="M36.1,114.6c0-1.9,1.6-3.5,3.5-3.5s3.5,1.6,3.5,3.5s-1.6,3.5-3.5,3.5
				C37.7,118.1,36.1,116.6,36.1,114.6z"/>
			<path id="point-1-4" class="st_t8" d="M43.5,120.2c0-1.9,1.6-3.5,3.5-3.5s3.5,1.6,3.5,3.5s-1.6,3.5-3.5,3.5S43.5,122.1,43.5,120.2z
				"/>
			<path id="point-1-5" class="st_t8" d="M50.9,115.8c0-1.9,1.6-3.5,3.5-3.5s3.5,1.6,3.5,3.5s-1.6,3.5-3.5,3.5S50.9,117.7,50.9,115.8z
				"/>
			<path id="point-1-6" class="st_t8" d="M58.3,116.4c0-1.9,1.6-3.5,3.5-3.5s3.5,1.6,3.5,3.5s-1.6,3.5-3.5,3.5S58.3,118.3,58.3,116.4z
				"/>
			<path id="point-1-7" class="st_t8" d="M65.7,117.8c0-1.9,1.6-3.5,3.5-3.5s3.5,1.6,3.5,3.5s-1.6,3.5-3.5,3.5
				C67.2,121.3,65.7,119.8,65.7,117.8z"/>
			<path id="point-1-8" class="st_t8" d="M73,121.6c0-1.9,1.6-3.5,3.5-3.5s3.5,1.6,3.5,3.5s-1.6,3.5-3.5,3.5S73,123.5,73,121.6z"/>
			<path id="point-1-9" class="st_t8" d="M102.6,118.1c0-1.9,1.6-3.5,3.5-3.5s3.5,1.6,3.5,3.5s-1.6,3.5-3.5,3.5
				S102.6,120.1,102.6,118.1z"/>
			<path id="point-1-10" class="st_t8" d="M110,117.5c0-1.9,1.6-3.5,3.5-3.5s3.5,1.6,3.5,3.5s-1.6,3.5-3.5,3.5S110,119.5,110,117.5z"
				/>
			<path id="point-1-11" class="st_t8" d="M117.3,119.6c0-1.9,1.6-3.5,3.5-3.5s3.5,1.6,3.5,3.5s-1.6,3.5-3.5,3.5
				S117.3,121.5,117.3,119.6z"/>
			<path id="point-1-12" class="st_t8" d="M124.7,119c0-1.9,1.6-3.5,3.5-3.5c1.9,0,3.5,1.6,3.5,3.5s-1.6,3.5-3.5,3.5
				S124.7,120.9,124.7,119z"/>
			<path id="point-1-13" class="st_t8" d="M132.1,118.4c0-1.9,1.6-3.5,3.5-3.5s3.5,1.6,3.5,3.5s-1.6,3.5-3.5,3.5
				S132.1,120.3,132.1,118.4z"/>
			<path id="point-1-14" class="st_t8" d="M139.5,119.9c0-1.9,1.6-3.5,3.5-3.5s3.5,1.6,3.5,3.5s-1.6,3.5-3.5,3.5
				S139.5,121.8,139.5,119.9z"/>
			<path id="point-1-15" class="st_t8" d="M146.9,115.2c0-1.9,1.6-3.5,3.5-3.5s3.5,1.6,3.5,3.5s-1.6,3.5-3.5,3.5
				S146.9,117.2,146.9,115.2z"/>
			<path id="point-1-16" class="st_t8" d="M154.2,117.5c0-1.9,1.6-3.5,3.5-3.5s3.5,1.6,3.5,3.5s-1.6,3.5-3.5,3.5
				S154.2,119.5,154.2,117.5z"/>
			<path id="point-1-17" class="st_t8" d="M161.6,116.7c0-1.9,1.6-3.5,3.5-3.5s3.5,1.6,3.5,3.5s-1.6,3.5-3.5,3.5
				S161.6,118.6,161.6,116.7z"/>
			<path id="point-1-18" class="st_t8" d="M169,121c0-1.9,1.6-3.5,3.5-3.5s3.5,1.6,3.5,3.5s-1.6,3.5-3.5,3.5S169,123,169,121z"/>
			<path id="point-1-19" class="st_t8" d="M176.4,110.6c0-1.9,1.6-3.5,3.5-3.5s3.5,1.6,3.5,3.5s-1.6,3.5-3.5,3.5
				S176.4,112.5,176.4,110.6z"/>
		</g>
	</g>
	<g>
		<g transform="translate(406.8560791015625, 21)">
			<path id="point-2-11" class="st_t9" d="M117.3,121c0-1.9,1.6-3.5,3.5-3.5s3.5,1.6,3.5,3.5s-1.6,3.5-3.5,3.5S117.3,123,117.3,121z"
				/>
			<path id="point-2-12" class="st_t9" d="M124.7,121.6c0-1.9,1.6-3.5,3.5-3.5c1.9,0,3.5,1.6,3.5,3.5s-1.6,3.5-3.5,3.5
				S124.7,123.5,124.7,121.6z"/>
			<path id="point-2-13" class="st_t9" d="M132.1,121.9c0-1.9,1.6-3.5,3.5-3.5s3.5,1.6,3.5,3.5s-1.6,3.5-3.5,3.5
				S132.1,123.8,132.1,121.9z"/>
			<path id="point-2-14" class="st_t9" d="M139.5,120.7c0-1.9,1.6-3.5,3.5-3.5s3.5,1.6,3.5,3.5s-1.6,3.5-3.5,3.5
				S139.5,122.7,139.5,120.7z"/>
			<path id="point-2-15" class="st_t9" d="M146.9,119.6c0-1.9,1.6-3.5,3.5-3.5s3.5,1.6,3.5,3.5s-1.6,3.5-3.5,3.5
				S146.9,121.5,146.9,119.6z"/>
			<path id="point-2-16" class="st_t9" d="M154.2,120.7c0-1.9,1.6-3.5,3.5-3.5s3.5,1.6,3.5,3.5s-1.6,3.5-3.5,3.5
				S154.2,122.7,154.2,120.7z"/>
			<path id="point-2-17" class="st_t9" d="M161.6,121.6c0-1.9,1.6-3.5,3.5-3.5s3.5,1.6,3.5,3.5s-1.6,3.5-3.5,3.5
				S161.6,123.5,161.6,121.6z"/>
			<path id="point-2-18" class="st_t9" d="M169,120.7c0-1.9,1.6-3.5,3.5-3.5s3.5,1.6,3.5,3.5s-1.6,3.5-3.5,3.5S169,122.7,169,120.7z"
				/>
			<path id="point-2-19" class="st_t9" d="M176.4,115.8c0-1.9,1.6-3.5,3.5-3.5s3.5,1.6,3.5,3.5s-1.6,3.5-3.5,3.5
				S176.4,117.7,176.4,115.8z"/>
		</g>
	</g>
	<g>
		<g transform="translate(601.4280395507812, 21)">
			<path id="point-3-0" class="st_t10" d="M14,121.6c0-1.9,1.6-3.5,3.5-3.5s3.5,1.6,3.5,3.5s-1.6,3.5-3.5,3.5S14,123.5,14,121.6z"/>
			<path id="point-3-2" class="st_t10" d="M28.8,121.9c0-1.9,1.6-3.5,3.5-3.5c1.9,0,3.5,1.6,3.5,3.5s-1.6,3.5-3.5,3.5
				C30.3,125.4,28.8,123.8,28.8,121.9z"/>
			<path id="point-3-3" class="st_t10" d="M36.1,121.9c0-1.9,1.6-3.5,3.5-3.5s3.5,1.6,3.5,3.5s-1.6,3.5-3.5,3.5
				C37.7,125.4,36.1,123.8,36.1,121.9z"/>
			<path id="point-3-5" class="st_t10" d="M50.9,120.7c0-1.9,1.6-3.5,3.5-3.5s3.5,1.6,3.5,3.5s-1.6,3.5-3.5,3.5S50.9,122.7,50.9,120.7
				z"/>
			<path id="point-3-6" class="st_t10" d="M58.3,121.9c0-1.9,1.6-3.5,3.5-3.5s3.5,1.6,3.5,3.5s-1.6,3.5-3.5,3.5S58.3,123.8,58.3,121.9
				z"/>
			<path id="point-3-8" class="st_t10" d="M73,121.3c0-1.9,1.6-3.5,3.5-3.5s3.5,1.6,3.5,3.5s-1.6,3.5-3.5,3.5S73,123.2,73,121.3z"/>
			<path id="point-3-9" class="st_t10" d="M102.6,121.9c0-1.9,1.6-3.5,3.5-3.5s3.5,1.6,3.5,3.5s-1.6,3.5-3.5,3.5
				S102.6,123.8,102.6,121.9z"/>
			<path id="point-3-11" class="st_t10" d="M117.3,121.3c0-1.9,1.6-3.5,3.5-3.5s3.5,1.6,3.5,3.5s-1.6,3.5-3.5,3.5
				S117.3,123.2,117.3,121.3z"/>
			<path id="point-3-12" class="st_t10" d="M124.7,121.6c0-1.9,1.6-3.5,3.5-3.5c1.9,0,3.5,1.6,3.5,3.5s-1.6,3.5-3.5,3.5
				S124.7,123.5,124.7,121.6z"/>
			<path id="point-3-13" class="st_t10" d="M132.1,121.9c0-1.9,1.6-3.5,3.5-3.5s3.5,1.6,3.5,3.5s-1.6,3.5-3.5,3.5
				S132.1,123.8,132.1,121.9z"/>
			<path id="point-3-15" class="st_t10" d="M146.9,121.9c0-1.9,1.6-3.5,3.5-3.5s3.5,1.6,3.5,3.5s-1.6,3.5-3.5,3.5
				S146.9,123.8,146.9,121.9z"/>
			<path id="point-3-16" class="st_t10" d="M154.2,121.6c0-1.9,1.6-3.5,3.5-3.5s3.5,1.6,3.5,3.5s-1.6,3.5-3.5,3.5
				S154.2,123.5,154.2,121.6z"/>
			<path id="point-3-17" class="st_t10" d="M161.6,119.3c0-1.9,1.6-3.5,3.5-3.5s3.5,1.6,3.5,3.5s-1.6,3.5-3.5,3.5
				S161.6,121.2,161.6,119.3z"/>
			<path id="point-3-18" class="st_t10" d="M169,119.9c0-1.9,1.6-3.5,3.5-3.5s3.5,1.6,3.5,3.5s-1.6,3.5-3.5,3.5S169,121.8,169,119.9z"
				/>
			<path id="point-3-19" class="st_t10" d="M176.4,113.5c0-1.9,1.6-3.5,3.5-3.5s3.5,1.6,3.5,3.5s-1.6,3.5-3.5,3.5
				S176.4,115.4,176.4,113.5z"/>
		</g>
	</g>
	<g>
		<g transform="translate(17.712158203125, 228.8713836669922)">
			<path id="point-4-0" class="st_t11" d="M14,111.7c0-1.9,1.6-3.5,3.5-3.5s3.5,1.6,3.5,3.5s-1.6,3.5-3.5,3.5S14,113.7,14,111.7z"/>
			<path id="point-4-1" class="st_t11" d="M21.4,116.4c0-1.9,1.6-3.5,3.5-3.5s3.5,1.6,3.5,3.5l0,0c0,1.9-1.6,3.5-3.5,3.5
				S21.4,118.3,21.4,116.4L21.4,116.4z"/>
			<path id="point-4-2" class="st_t11" d="M28.8,119.3c0-1.9,1.6-3.5,3.5-3.5c1.9,0,3.5,1.6,3.5,3.5s-1.6,3.5-3.5,3.5
				C30.3,122.8,28.8,121.2,28.8,119.3z"/>
			<path id="point-4-3" class="st_t11" d="M36.1,111.5c0-1.9,1.6-3.5,3.5-3.5s3.5,1.6,3.5,3.5s-1.6,3.5-3.5,3.5
				C37.7,115,36.1,113.4,36.1,111.5z"/>
			<path id="point-4-4" class="st_t11" d="M43.5,97.8c0-1.9,1.6-3.5,3.5-3.5s3.5,1.6,3.5,3.5s-1.6,3.5-3.5,3.5S43.5,99.8,43.5,97.8z"
				/>
			<path id="point-4-5" class="st_t11" d="M50.9,111.5c0-1.9,1.6-3.5,3.5-3.5s3.5,1.6,3.5,3.5s-1.6,3.5-3.5,3.5S50.9,113.4,50.9,111.5
				z"/>
			<path id="point-4-6" class="st_t11" d="M58.3,114.1c0-1.9,1.6-3.5,3.5-3.5s3.5,1.6,3.5,3.5s-1.6,3.5-3.5,3.5S58.3,116,58.3,114.1z"
				/>
			<path id="point-4-7" class="st_t11" d="M65.7,97.8c0-1.9,1.6-3.5,3.5-3.5s3.5,1.6,3.5,3.5s-1.6,3.5-3.5,3.5
				C67.2,101.3,65.7,99.8,65.7,97.8z"/>
			<path id="point-4-8" class="st_t11" d="M73,117.8c0-1.9,1.6-3.5,3.5-3.5s3.5,1.6,3.5,3.5s-1.6,3.5-3.5,3.5S73,119.8,73,117.8z"/>
			<path id="point-4-9" class="st_t11" d="M102.6,116.1c0-1.9,1.6-3.5,3.5-3.5s3.5,1.6,3.5,3.5s-1.6,3.5-3.5,3.5
				S102.6,118,102.6,116.1z"/>
			<path id="point-4-10" class="st_t11" d="M110,101c0-1.9,1.6-3.5,3.5-3.5s3.5,1.6,3.5,3.5s-1.6,3.5-3.5,3.5S110,103,110,101z"/>
			<path id="point-4-11" class="st_t11" d="M117.3,117c0-1.9,1.6-3.5,3.5-3.5s3.5,1.6,3.5,3.5s-1.6,3.5-3.5,3.5S117.3,118.9,117.3,117
				z"/>
			<path id="point-4-12" class="st_t11" d="M124.7,112.9c0-1.9,1.6-3.5,3.5-3.5c1.9,0,3.5,1.6,3.5,3.5s-1.6,3.5-3.5,3.5
				S124.7,114.8,124.7,112.9z"/>
			<path id="point-4-13" class="st_t11" d="M132.1,112.3c0-1.9,1.6-3.5,3.5-3.5s3.5,1.6,3.5,3.5s-1.6,3.5-3.5,3.5
				S132.1,114.3,132.1,112.3z"/>
			<path id="point-4-14" class="st_t11" d="M139.5,96.4c0-1.9,1.6-3.5,3.5-3.5s3.5,1.6,3.5,3.5s-1.6,3.5-3.5,3.5
				S139.5,98.3,139.5,96.4z"/>
			<path id="point-4-15" class="st_t11" d="M146.9,117c0-1.9,1.6-3.5,3.5-3.5s3.5,1.6,3.5,3.5s-1.6,3.5-3.5,3.5S146.9,118.9,146.9,117
				z"/>
			<path id="point-4-16" class="st_t11" d="M154.2,109.1c0-1.9,1.6-3.5,3.5-3.5s3.5,1.6,3.5,3.5s-1.6,3.5-3.5,3.5
				S154.2,111.1,154.2,109.1z"/>
			<path id="point-4-17" class="st_t11" d="M161.6,117c0-1.9,1.6-3.5,3.5-3.5s3.5,1.6,3.5,3.5s-1.6,3.5-3.5,3.5S161.6,118.9,161.6,117
				z"/>
			<path id="point-4-18" class="st_t11" d="M169,118.7c0-1.9,1.6-3.5,3.5-3.5s3.5,1.6,3.5,3.5s-1.6,3.5-3.5,3.5S169,120.6,169,118.7z"
				/>
			<path id="point-4-19" class="st_t11" d="M176.4,115.2c0-1.9,1.6-3.5,3.5-3.5s3.5,1.6,3.5,3.5s-1.6,3.5-3.5,3.5
				S176.4,117.2,176.4,115.2z"/>
		</g>
	</g>
	<g>
		<g transform="translate(212.28411865234375, 228.8713836669922)">
			<path id="point-5-10" class="st_t12" d="M110,121.9c0-1.9,1.6-3.5,3.5-3.5s3.5,1.6,3.5,3.5s-1.6,3.5-3.5,3.5S110,123.8,110,121.9z"
				/>
			<path id="point-5-11" class="st_t12" d="M117.3,118.4c0-1.9,1.6-3.5,3.5-3.5s3.5,1.6,3.5,3.5s-1.6,3.5-3.5,3.5
				S117.3,120.3,117.3,118.4z"/>
			<path id="point-5-12" class="st_t12" d="M124.7,121.6c0-1.9,1.6-3.5,3.5-3.5c1.9,0,3.5,1.6,3.5,3.5s-1.6,3.5-3.5,3.5
				S124.7,123.5,124.7,121.6z"/>
			<path id="point-5-14" class="st_t12" d="M139.5,121.6c0-1.9,1.6-3.5,3.5-3.5s3.5,1.6,3.5,3.5s-1.6,3.5-3.5,3.5
				S139.5,123.5,139.5,121.6z"/>
			<path id="point-5-19" class="st_t12" d="M176.4,121c0-1.9,1.6-3.5,3.5-3.5s3.5,1.6,3.5,3.5s-1.6,3.5-3.5,3.5S176.4,123,176.4,121z"
				/>
		</g>
	</g>
	<g>
		<g transform="translate(406.8560791015625, 228.8713836669922)">
			<path id="point-6-0" class="st_t13" d="M14,110c0-1.9,1.6-3.5,3.5-3.5s3.5,1.6,3.5,3.5s-1.6,3.5-3.5,3.5S14,111.9,14,110z"/>
			<path id="point-6-1" class="st_t13" d="M21.4,108.3c0-1.9,1.6-3.5,3.5-3.5s3.5,1.6,3.5,3.5l0,0c0,1.9-1.6,3.5-3.5,3.5
				S21.4,110.2,21.4,108.3L21.4,108.3z"/>
			<path id="point-6-2" class="st_t13" d="M28.8,112.6c0-1.9,1.6-3.5,3.5-3.5c1.9,0,3.5,1.6,3.5,3.5s-1.6,3.5-3.5,3.5
				C30.3,116.1,28.8,114.6,28.8,112.6z"/>
			<path id="point-6-3" class="st_t13" d="M36.1,108.6c0-1.9,1.6-3.5,3.5-3.5s3.5,1.6,3.5,3.5s-1.6,3.5-3.5,3.5
				C37.7,112.1,36.1,110.5,36.1,108.6z"/>
			<path id="point-6-4" class="st_t13" d="M43.5,100.7c0-1.9,1.6-3.5,3.5-3.5s3.5,1.6,3.5,3.5s-1.6,3.5-3.5,3.5S43.5,102.7,43.5,100.7
				z"/>
			<path id="point-6-5" class="st_t13" d="M50.9,50c0-1.9,1.6-3.5,3.5-3.5s3.5,1.6,3.5,3.5l0,0c0,1.9-1.6,3.5-3.5,3.5
				S50.9,51.9,50.9,50L50.9,50z"/>
			<path id="point-6-6" class="st_t13" d="M58.3,111.5c0-1.9,1.6-3.5,3.5-3.5s3.5,1.6,3.5,3.5s-1.6,3.5-3.5,3.5S58.3,113.4,58.3,111.5
				z"/>
			<path id="point-6-7" class="st_t13" d="M65.7,110.3c0-1.9,1.6-3.5,3.5-3.5s3.5,1.6,3.5,3.5s-1.6,3.5-3.5,3.5
				C67.2,113.8,65.7,112.2,65.7,110.3z"/>
			<path id="point-6-8" class="st_t13" d="M73,116.4c0-1.9,1.6-3.5,3.5-3.5s3.5,1.6,3.5,3.5s-1.6,3.5-3.5,3.5S73,118.3,73,116.4z"/>
			<path id="point-6-9" class="st_t13" d="M102.6,105.7c0-1.9,1.6-3.5,3.5-3.5s3.5,1.6,3.5,3.5s-1.6,3.5-3.5,3.5
				S102.6,107.6,102.6,105.7z"/>
			<path id="point-6-10" class="st_t13" d="M110,72.6c0-1.9,1.6-3.5,3.5-3.5s3.5,1.6,3.5,3.5s-1.6,3.5-3.5,3.5S110,74.5,110,72.6z"/>
			<path id="point-6-11" class="st_t13" d="M117.3,87.7c0-1.9,1.6-3.5,3.5-3.5s3.5,1.6,3.5,3.5s-1.6,3.5-3.5,3.5
				S117.3,89.6,117.3,87.7L117.3,87.7z"/>
			<path id="point-6-12" class="st_t13" d="M124.7,52.9c0-1.9,1.6-3.5,3.5-3.5c1.9,0,3.5,1.6,3.5,3.5s-1.6,3.5-3.5,3.5
				S124.7,54.8,124.7,52.9z"/>
			<path id="point-6-13" class="st_t13" d="M132.1,95.2c0-1.9,1.6-3.5,3.5-3.5s3.5,1.6,3.5,3.5s-1.6,3.5-3.5,3.5
				S132.1,97.2,132.1,95.2z"/>
			<path id="point-6-14" class="st_t13" d="M139.5,98.4c0-1.9,1.6-3.5,3.5-3.5s3.5,1.6,3.5,3.5l0,0c0,1.9-1.6,3.5-3.5,3.5
				S139.5,100.3,139.5,98.4L139.5,98.4z"/>
			<path id="point-6-15" class="st_t13" d="M146.9,97.3c0-1.9,1.6-3.5,3.5-3.5s3.5,1.6,3.5,3.5l0,0c0,1.9-1.6,3.5-3.5,3.5
				S146.9,99.2,146.9,97.3L146.9,97.3z"/>
			<path id="point-6-16" class="st_t13" d="M154.2,66.8c0-1.9,1.6-3.5,3.5-3.5s3.5,1.6,3.5,3.5s-1.6,3.5-3.5,3.5
				S154.2,68.7,154.2,66.8z"/>
			<path id="point-6-17" class="st_t13" d="M161.6,48c0-1.9,1.6-3.5,3.5-3.5s3.5,1.6,3.5,3.5s-1.6,3.5-3.5,3.5S161.6,49.9,161.6,48z"
				/>
			<path id="point-6-18" class="st_t13" d="M169,78.4c0-1.9,1.6-3.5,3.5-3.5s3.5,1.6,3.5,3.5s-1.6,3.5-3.5,3.5S169,80.3,169,78.4z"/>
			<path id="point-6-19" class="st_t13" d="M176.4,85.7c0-1.9,1.6-3.5,3.5-3.5s3.5,1.6,3.5,3.5s-1.6,3.5-3.5,3.5
				S176.4,87.6,176.4,85.7z"/>
		</g>
	</g>
	<g id="lines-secondary">
	</g>
	<g id="data-points-secondary">
	</g>
	<g id="axes-highlights">
		<g>
			<g transform="translate(17.712158203125, 21)">
			</g>
		</g>
		<g>
			<g transform="translate(212.28411865234375, 21)">
			</g>
		</g>
		<g>
			<g transform="translate(406.8560791015625, 21)">
			</g>
		</g>
		<g>
			<g transform="translate(601.4280395507812, 21)">
			</g>
		</g>
		<g>
			<g transform="translate(17.712158203125, 228.8713836669922)">
			</g>
		</g>
		<g>
			<g transform="translate(212.28411865234375, 228.8713836669922)">
			</g>
		</g>
		<g>
			<g transform="translate(406.8560791015625, 228.8713836669922)">
			</g>
		</g>
	</g>
	<path class="st_t14" d="M737.8,21.9c-2.8,0.2-5.9,3.7-12.8,10.5c-4.7,4.6-12.6,5.5-12.6,5.5s-1.7,1.8,0.5,2.4c4.4,1.2,9,3.3,12.1,6.3
		c6.9,6.8,10,10.3,12.8,10.5l0,0c0,0,0,0,0.1,0c0,0,0,0,0.1,0"/>
	<rect x="736.9" y="21.9" class="st_t15" width="1.9" height="35.3"/>
	<rect x="711.4" y="37.7" class="st_t15" width="2.9" height="2.6"/>
	<g>
		<path class="st_t16" d="M781.9,444.2c-1.5,0-2.8-0.3-3.8-1c-1.2-0.8-1.7-1.9-1.7-3.4c0-1.4,0.5-2.4,1.5-3.2c1-0.8,2.3-1.2,4-1.2
			c1.6,0,2.8,0.4,3.8,1.1c1.1,0.8,1.6,1.9,1.6,3.3s-0.5,2.5-1.6,3.3C784.8,443.8,783.5,444.2,781.9,444.2z M781.9,443.3
			c1.4,0,2.6-0.3,3.4-0.9c0.8-0.6,1.3-1.5,1.3-2.6s-0.5-2-1.4-2.7c-0.9-0.6-1.9-0.9-3.3-0.9c-1.3,0-2.4,0.3-3.3,0.8
			c-0.9,0.6-1.4,1.5-1.4,2.8c0,1.2,0.5,2.1,1.5,2.7C779.6,443,780.6,443.3,781.9,443.3z"/>
		<path class="st_t16" d="M780.6,428.6h-4.1v-2.2h4.2l6.6-3.5v2.6l-4.3,2.1l4.3,2.1v2.5L780.6,428.6z"/>
		<path class="st_t16" d="M785.2,421.7v-3.1h-8.8v-2.3h8.8v-3.1h2v8.5H785.2z"/>
		<path class="st_t16" d="M782.1,408.7l-5.6,3.6v-2.7l3.7-2.3l-3.7-2.3v-2.6l5.6,3.6l5.1-3.4v2.6l-3.5,2.1l3.5,2.1v2.5L782.1,408.7z"
			/>
		<path class="st_t16" d="M785.3,400.8v-4.3H783v3.8h-1.9v-3.8h-2.6v4.4h-2v-6.6h10.8v6.5H785.3z"/>
		<path class="st_t16" d="M785.2,392.4v-3.1h-8.8V387h8.8v-3.1h2v8.5H785.2z"/>
		<path class="st_t16" d="M776.7,463.9v-0.8h1.8c-0.7-0.4-1.2-0.8-1.5-1.4s-0.5-1.3-0.5-2.1c0-1.4,0.5-2.5,1.6-3.2c1-0.7,2.3-1,4-1
			s3,0.4,4,1.1c1,0.8,1.5,1.9,1.5,3.3c0,1.1-0.3,1.9-0.8,2.7c-0.6,0.7-1.4,1.2-2.5,1.4V463c0.8-0.2,1.4-0.5,1.8-1.1
			c0.4-0.6,0.7-1.2,0.7-1.9c0-1.2-0.5-2.1-1.4-2.7s-2.1-0.9-3.6-0.9c-1.2,0-2.3,0.3-3.1,0.9c-0.9,0.6-1.3,1.5-1.3,2.6
			c0,0.9,0.3,1.7,1,2.3c0.3,0.3,0.8,0.6,1.3,0.7s1.1,0.3,1.8,0.3V460h0.8v4.1h-5.6V463.9z"/>
		<path class="st_t16" d="M780.8,477.2c-1.5,0-2.6-0.3-3.3-1s-1.1-1.6-1.1-2.8c0-1.2,0.3-2.1,1-2.7c0.7-0.7,1.9-1.1,3.4-1.1h6.4v0.9
			h-6.1c-1.3,0-2.3,0.2-2.9,0.7c-0.6,0.5-0.9,1.2-0.9,2.2s0.3,1.7,0.8,2.2c0.6,0.5,1.6,0.8,2.9,0.8h6.2v0.9h-6.4V477.2z"/>
		<path class="st_t16" d="M776.4,487v-1l3.4-1.2v-4.5l-3.4-1.2v-1l10.8,3.9v1.1L776.4,487z M780.7,484.6l5.6-2l-5.6-1.9V484.6z"/>
		<circle class="st_t16" cx="777.4" cy="433" r="1"/>
		<circle class="st_t16" cx="777.4" cy="467.3" r="1"/>
		<path class="st_t16" d="M776.5,454.2l4.7-3c0.1,0.3,0.2,0.5,0.3,0.9c0.6,1.4,2.3,1.6,3,1.6c1,0,1.7-0.3,2.2-0.9
			c0.4-0.6,0.6-1.4,0.6-2.5v-3.9h-10.9v0.9h4.6v2.8l-4.6,3L776.5,454.2z M786.4,447.4v3c0,0.9-0.2,1.5-0.6,1.9
			c-0.3,0.3-0.8,0.5-1.4,0.5c-0.7,0-1.6-0.2-1.9-0.7c-0.4-0.4-0.6-1-0.6-1.8v-3h4.5V447.4z"/>
	</g>
	<rect x="29" y="9.7" class="st_t17" width="470.8" height="22.7"/>
	<text transform="matrix(1 0 0 1 29.0208 19.7289)" class="st_t2 st_t18 st_t19">Згадки різних тем в офіційній мові Путіна</text>
</g>
<g id="other" mask="url(#mask6)">
	<text transform="matrix(1 0 0 1 743.8377 27.0867)" class="st_t2 st_t3 st_t5">max 249 </text>

	<g>
		<path class="st_t14" d="M653.1,464c0,0-3.3-0.3-5.2-0.9c-2.8-0.9-4.1-1.4-5.2-1.5l0,0l0,0l0,0l0,0c-1.1,0-2.4,0.5-5.2,1.5
			c-1.9,0.6-5.2,0.9-5.2,0.9s-0.7,0.1,0.2,0.2c1.8,0.2,3.7,0.5,5,0.9c2.8,0.9,4.1,1.4,5.2,1.5l0,0l0,0l0,0l0,0l0,0l0,0l0,0l0,0l0,0
			l0,0c1.1,0,2.4-0.5,5.2-1.5c1.3-0.4,3.1-0.7,5-0.9C653.8,464.1,653.1,464,653.1,464z"/>
		<path class="st_t14" d="M499.6,464c0,0-3.3-0.2-5.2-0.6c-2.8-0.6-4.1-0.9-5.2-0.9l0,0l0,0l0,0l0,0c-1.1,0-2.4,0.3-5.2,0.9
			c-1.9,0.4-5.2,0.6-5.2,0.6s-0.7,0.1,0.2,0.1c1.8,0.1,3.7,0.3,5,0.5c2.8,0.6,4.1,0.9,5.2,0.9l0,0l0,0l0,0l0,0l0,0l0,0l0,0l0,0l0,0
			l0,0c1.1,0,2.4-0.3,5.2-0.9c1.3-0.3,3.1-0.4,5-0.5C500.3,464,499.6,464,499.6,464z"/>
		<path class="st_t14" d="M443.8,464c0,0-5-0.2-8-0.6c-4.3-0.6-6.3-0.9-8.1-0.9l0,0l0,0c-15.1-0.7-22.8-3.7-30.7-3.7
			c-9,0-19.4,3.2-30,4.3l0,0l0,0l0,0l0,0l0,0c-1.8,0-3.7,0.2-8.1,0.7c-3,0.3-8,0.4-8,0.4s-1.1,0,0.3,0.1c2.8,0.1,5.7,0.2,7.7,0.4
			c4.3,0.4,6.3,0.6,8,0.7l0,0l0,0l0,0l0,0l0,0l0,0l0,0l0,0l0,0l0,0c0.3,0,0.5,0,0.8,0c10.2,1,20.3,3.9,29.1,4
			c7.9,0,15.7-2.6,30.9-3.5l0,0c1.7,0,3.7-0.3,8-0.9c2-0.3,4.8-0.5,7.7-0.6C444.9,464,443.8,464,443.8,464z"/>
		<text transform="matrix(1 5.700000e-04 -7.600000e-04 1 661.6092 467.8415)" class="st_t16 st_t3 st_t20">Maidan</text>
		<path id="point-5-10_00000088116165588646845290000002549269163372838787_" class="st_t15" d="M364,464.4h4.8v-0.7H364V464.4z"/>
		<path id="point-5-11_00000002346475135409156380000001309425307290504582_" class="st_t15" d="M394.6,468.4h4.8v-8.9h-4.8V468.4z"/>
		<path id="point-5-12_00000125565621617351102110000014709338739953322679_" class="st_t15" d="M425.4,464.7h4.8v-1.4h-4.8V464.7z"/>
		<path id="point-5-14_00000117663696785104472090000011925905661581083286_" class="st_t15" d="M486.8,464.7h4.8v-1.4h-4.8V464.7z"/>
		<path id="point-5-19_00000094618239076198404010000003129313133918988432_" class="st_t15" d="M640.2,465.4h4.8v-2.7h-4.8V465.4z"/>
	</g>
	<g>
		<path class="st_t14" d="M287.5,396.5c0,0-3.3-0.2-5.2-0.7c-2.8-0.7-4.1-1.1-5.2-1.1l0,0l0,0l0,0l0,0c-1.1,0-2.4,0.4-5.2,1.1
			c-1.9,0.5-5.2,0.7-5.2,0.7s-0.7,0.1,0.2,0.1c1.8,0.1,3.7,0.4,5,0.7c2.8,0.7,4.1,1.1,5.2,1.1l0,0l0,0l0,0l0,0l0,0l0,0l0,0l0,0l0,0
			l0,0c1.1,0,2.4-0.4,5.2-1.1c1.3-0.3,3.1-0.6,5-0.7C288.2,396.6,287.5,396.5,287.5,396.5z"/>
		<path class="st_t14" d="M41.9,396.5c0,0-3.3-0.2-5.2-0.6c-2.8-0.6-4.1-0.9-5.2-0.9l0,0l0,0l0,0l0,0c-1.1,0-2.4,0.3-5.2,0.9
			c-1.9,0.4-5.2,0.6-5.2,0.6s-0.7,0.1,0.2,0.1c1.8,0.1,3.7,0.3,5,0.6c2.8,0.6,4.1,0.9,5.2,0.9l0,0l0,0l0,0l0,0l0,0l0,0l0,0l0,0l0,0
			l0,0c1.1,0,2.4-0.3,5.2-0.9c1.3-0.3,3.1-0.5,5-0.6C42.6,396.6,41.9,396.5,41.9,396.5z"/>
		<path class="st_t14" d="M103.3,396.5c0,0-3.3-0.1-5.2-0.4c-2.8-0.5-4.1-0.7-5.2-0.7l0,0l0,0l0,0l0,0c-1.1,0-2.4,0.3-5.2,0.7
			c-1.9,0.3-5.2,0.4-5.2,0.4s-0.7,0,0.2,0.1c1.8,0.1,3.7,0.2,5,0.4c2.8,0.4,4.1,0.7,5.2,0.7l0,0l0,0l0,0l0,0l0,0l0,0l0,0l0,0l0,0
			l0,0c1.1,0,2.4-0.3,5.2-0.7c1.3-0.2,3.1-0.3,5-0.4C104,396.6,103.3,396.5,103.3,396.5z"/>
		<path class="st_t14" d="M134,396.5c0,0-3.3-0.1-5.2-0.4c-2.8-0.5-4.1-0.7-5.2-0.7l0,0l0,0l0,0l0,0c-1.1,0-2.4,0.3-5.2,0.7
			c-1.9,0.3-5.2,0.4-5.2,0.4s-0.7,0,0.2,0.1c1.8,0.1,3.7,0.2,5,0.4c2.8,0.4,4.1,0.7,5.2,0.7l0,0l0,0l0,0l0,0l0,0l0,0l0,0l0,0l0,0
			l0,0c1.1,0,2.4-0.3,5.2-0.7c1.3-0.2,3.1-0.3,5-0.4C134.7,396.6,134,396.5,134,396.5z"/>
		<path class="st_t14" d="M226.1,396.5c0,0-3.3-0.2-5.2-0.6c-2.8-0.6-4.1-0.8-5.2-0.9l0,0l0,0l0,0l0,0c-1.1,0-2.4,0.3-5.2,0.9
			c-0.5,0.1-1,0.2-1.5,0.2c-1,0-2.2,0-3.6,0c-8.3,0-19.5-1.9-20-1.9l0,0l0,0l0,0l0,0c-1.1,0-2.4,0.5-5.2,1.3
			c-1.9,0.6-5.2,0.8-5.2,0.8s-0.7,0.1,0.2,0.2c1.8,0.1,3.7,0.4,5,0.8c2.8,0.8,4.1,1.3,5.2,1.3l0,0l0,0l0,0l0,0l0,0l0,0l0,0l0,0l0,0
			l0,0c0.5,0,11.7-1.9,19.9-1.9c1.5,0,2.8,0,4,0.1c0.4,0.1,0.8,0.1,1.2,0.2c2.8,0.5,4.1,0.8,5.2,0.9l0,0l0,0l0,0l0,0l0,0l0,0l0,0
			l0,0l0,0l0,0c1.1,0,2.4-0.3,5.2-0.9c1.3-0.3,3.1-0.4,5-0.5C226.8,396.6,226.1,396.5,226.1,396.5z"/>
		<path class="st_t14" d="M611.9,393.5c-8.9,0-21.8-0.8-30.7-0.8c-8.8,0-21.9,2.3-30.7,2.6c-8.2,0.2-29.9,0-30.7,0l0,0l0,0l0,0l0,0
			c-1.1,0-2.4,0.3-5.2,0.8c-1.9,0.3-5.2,0.5-5.2,0.5s-0.7,0,0.2,0.1c1.8,0.1,3.7,0.2,5,0.5c2.8,0.5,4.1,0.7,5.2,0.8l0,0l0,0l0,0l0,0
			l0,0l0,0l0,0l0,0l0,0l0,0c1.1,0,23.1-0.3,30.6-0.1c8.8,0.2,21.9,2.6,30.7,2.6c8.9,0,21.8-0.8,30.7-0.8c8.8,0,19.5,3.2,28.3,6.7
			v-19.5C631.4,390.4,620.8,393.5,611.9,393.5z"/>
		<path class="st_t14" d="M458.4,395.6c-8.8-0.4-21.5-0.1-30.3-0.2c-30.4,0-25.6-0.7-30.6-0.7c-0.9,0,0.3,0-0.5,0l0,0
			c-1.1,0-2.4,0.4-5.2,1.1c-1.9,0.5-5.2,0.7-5.2,0.7s-0.7,0.1,0.2,0.1c1.8,0.1,3.7,0.3,5,0.7c2.8,0.7,4.1,1,5.2,1.1l0,0l0,0l0,0l0,0
			l0,0l0,0l0,0l0,0l0,0c0.1,0,0.2,0,0.2,0c0.1,0,0.1,0,0.2,0c5,0,0.2-0.6,30.6-0.6c8.8,0,21.4-0.1,30.2-0.3c3.5-0.1,4.8-0.3,4.8-0.3
			c0-0.2,0-1,0-1.2C463.2,396,461.8,395.7,458.4,395.6z"/>
		<text transform="matrix(1 0 0 1 661.7129 400.4868)" class="st_t16 st_t3 st_t20">Genocide</text>
		<path id="point-3-0_00000054984191767479806840000010514514848848405181_" class="st_t15" d="M29.1,397.2h4.8v-1.3h-4.8L29.1,397.2z
			"/>
		<path id="point-3-2_00000044150068822941911660000015316545575109813178_" class="st_t15" d="M90.5,396.9h4.8v-0.6h-4.8V396.9z"/>
		<path id="point-3-3_00000113354018667246747400000015315281704763958189_" class="st_t15" d="M121.2,396.9h4.8v-0.6h-4.8V396.9z"/>
		<path id="point-3-5_00000178896803962814799750000003164335377707980471_" class="st_t15" d="M182.5,398.2h4.8V395h-4.8V398.2z"/>
		<path id="point-3-6_00000062890184332370141450000007482732979149371019_" class="st_t15" d="M213.2,396.9h4.8v-0.6h-4.8V396.9z"/>
		<path id="point-3-8_00000052092184324722641610000002280061705011748750_" class="st_t15" d="M274.6,397.5h4.8v-1.9h-4.8V397.5z"/>
		<path id="point-3-9_00000010276895374096523290000013010389727674332300_" class="st_t15" d="M333.6,396.9h4.8v-0.6h-4.8V396.9z"/>
		<path id="point-3-11_00000150790753401566771140000001974174765089087129_" class="st_t15" d="M394.7,397.5h4.8v-1.9h-4.8V397.5z"/>
		<path id="point-3-12_00000036211382856277849960000015522710771387654537_" class="st_t15" d="M425.4,397.2h4.8v-1.3h-4.8V397.2z"/>
		<path id="point-3-13_00000149377148289510407560000006363122662656937344_" class="st_t15" d="M456.1,396.9h4.8v-0.6h-4.8V396.9z"/>
		<path id="point-3-15_00000018234569489253535840000014195991363138535348_" class="st_t15" d="M517.4,396.9h4.8v-0.6h-4.8V396.9z"/>
		<path id="point-3-16_00000127736540913008793030000008859633404125176245_" class="st_t15" d="M548.1,397.2h4.8v-1.3h-4.8V397.2z"/>
		<path id="point-3-17_00000152237719483376513220000016568549989653612690_" class="st_t15" d="M578.8,399.8h4.8v-6.5h-4.8V399.8z"/>
		<path id="point-3-18_00000168106166291070788430000005168692810570486431_" class="st_t15" d="M609.5,399.2h4.8V394h-4.8V399.2z"/>
		<path id="point-3-19_00000168093535216436661140000009365045979866921909_" class="st_t15" d="M640.2,406.3h4.8v-19.5h-4.8V406.3z"
			/>
		<path class="st_t14" d="M346.1,396.6c0,0-3.3-0.1-5.2-0.4c-2.8-0.5-4.1-0.7-5.2-0.7l0,0l0,0l0,0l0,0c-1.1,0-2.4,0.3-5.2,0.7
			c-1.9,0.3-5.2,0.4-5.2,0.4s-0.7,0,0.2,0.1c1.8,0.1,3.7,0.2,5,0.4c2.8,0.4,4.1,0.7,5.2,0.7l0,0l0,0l0,0l0,0l0,0l0,0l0,0l0,0l0,0
			l0,0c1.1,0,2.4-0.3,5.2-0.7c1.3-0.2,3.1-0.3,5-0.4C346.8,396.7,346.1,396.6,346.1,396.6z"/>
	</g>
	<g>
		<path class="st_t14" d="M611.9,428.9c-9.1,0.6-21.7,0.8-30.8,0.8s-21.4-0.5-30.5-0.8c-9.1-0.4-21.7-1.3-30.8-1.3
			c-9.1,0-21.6,1-30.7,1.4c-8.2,0.4-15.9,1.6-24.1,1.7c-0.5-0.1-1-0.2-1.4-0.2c-2.8-0.6-5.3-0.6-5.3-0.6s-2.3,0-4.9,0.5
			c-4.1-0.1-12.6-0.1-21.9-0.2c-1.9-0.4-2.9-0.7-3.9-0.7l0,0l0,0l0,0l0,0c-0.9,0-1.9,0.2-3.6,0.6c-9-0.1-17.8-0.2-23.2-0.3
			c-1.9-0.6-2.9-0.9-3.9-0.9l0,0l0,0l0,0l0,0c-1.1,0-2.4,0.5-5.2,1.3c-1.9,0.6-5.2,0.8-5.2,0.8s-0.7,0.1,0.2,0.2
			c1.8,0.1,3.7,0.4,5,0.8c2.8,0.8,4.1,1.3,5.2,1.3l0,0l0,0l0,0l0,0l0,0l0,0l0,0l0,0l0,0l0,0c1,0,2.2-0.4,4.5-1.1
			c5.3-0.1,13.5-0.2,21.9-0.2c2.1,0.5,3.3,0.7,4.3,0.8l0,0l0,0l0,0l0,0l0,0l0,0l0,0l0,0l0,0l0,0c1,0,2.2-0.3,4.6-0.9
			c8.5-0.1,16.2-0.1,20.4-0.2c0.1,0,0.3,0.1,0.4,0.1c2.8,0.6,4.1,0.6,5.2,0.6c0,0,2.5,0,5.3-0.6c0.6-0.1,1.4-0.3,2.3-0.4
			c7.9,0.2,15.3,1.5,23.1,1.8c9.1,0.4,21.6,1.4,30.7,1.4c9.1,0,21.6-1,30.7-1.4c9.1-0.4,21.8-1.1,30.8-1.1c9.1,0,21.5,0.5,30.6,1.1
			c7.8,0.6,18.1,2.2,28.3,4.9v-14.3C631.2,426.4,621,428.3,611.9,428.9z"/>
		<text transform="matrix(1 0 0 1 661.7119 435.0837)" class="st_t16 st_t3 st_t20">Russophobia</text>
		<path id="point-2-11_00000146487008153310135680000017004451605095681717_" class="st_t15" d="M394.7,432.4h4.8v-2.6h-4.8V432.4z"/>
		<path id="point-2-12_00000080895277840745544400000009337562483553916807_" class="st_t15" d="M425.4,431.8h4.8v-1.3h-4.8V431.8z"/>
		<path id="point-2-13_00000039812685214235963620000013696198551053444798_" class="st_t15" d="M456.1,431.5h4.8v-0.6h-4.8V431.5z"/>
		<path id="point-2-14_00000090274204789427940120000012135396446551977391_" class="st_t15" d="M486.7,432.8h4.8v-3.2h-4.8V432.8z"/>
		<path id="point-2-15_00000127039608679815769710000013003777841194190233_" class="st_t15" d="M517.4,434.1h4.8v-5.8h-4.8V434.1z"/>
		<path id="point-2-16_00000080912739283675857160000002030683429418208413_" class="st_t15" d="M548.1,432.8h4.8v-3.2h-4.8V432.8z"/>
		<path id="point-2-17_00000145760680881759933300000004335169646795444107_" class="st_t15" d="M578.8,431.8h4.8v-1.3h-4.8V431.8z"/>
		<path id="point-2-18_00000127031878051516417420000004165556241478127267_" class="st_t15" d="M609.5,432.8h4.8v-3.2h-4.8V432.8z"/>
		<path id="point-2-19_00000010282808500262202990000015982215961797608894_" class="st_t15" d="M640.2,438.3h4.8V424h-4.8V438.3z"/>
	</g>
	<g>
		<path class="st_t14" d="M611.9,351.2c-9,1-21.6,2.3-30.6,2.3c-8.9,0-21.9-1.4-30.8-1.4c-8.9,0-21.7-0.1-30.7-0.1
			c-8.9,0-21.7,0.8-30.6,0.8s-21.8-0.1-30.8-0.1c-8.9,0-21.8,0-30.7,0c-8.9,0-21.8-1.4-30.7-1.4c-8.9,0-21.8,0.5-30.7,0.7
			c-7.8,0.2-29.8,0.5-30.7,0.5l0,0l0,0l0,0l0,0c-1.1,0-2.4,0-5.2,0.8c-1.9,0.6-5.2,0.8-5.2,0.8s-0.7,0.1,0.2,0.2
			c1.8,0.1,3.7,0.4,5,0.8c2.8,0.8,4.1,0.8,5.2,0.9l0,0l0,0l0,0l0,0l0,0l0,0l0,0l0,0l0,0l0,0c1,0,23.1,0.3,30.6,0.5
			c8.9,0.2,21.8,0.7,30.7,0.7c8.9,0,21.8-1.4,30.7-1.4c8.9,0,21.8,0,30.7,0c9,0,21.8-0.1,30.8-0.1c8.9,0,21.7,0.7,30.6,0.7
			c8.9,0,21.7,0,30.6,0c8.9,0,21.9-1.5,30.9-1.5s21.8,1.3,30.7,2.3s19.3,1.7,28.2,3.1l0.1-12.3C631.3,349.5,620.8,350.2,611.9,351.2
			z"/>
		<text transform="matrix(1 0 0 1 661.7119 358.1531)" class="st_t16 st_t3 st_t20">Traditional Values</text>
		<path id="point-0-5_00000140010828445546558060000002630454040200251559_" class="st_t15" d="M182.8,354.5h4.8v-0.6h-4.8V354.5z"/>
		<path id="point-0-6_00000044897642720988787040000014927076470265645967_" class="st_t15" d="M213.5,354.5h4.8v-0.6h-4.8V354.5z"/>
		<path id="point-0-9_00000089569058381314423650000005261415135053533095_" class="st_t15" d="M333.3,355.5h4.8V353h-4.8V355.5z"/>
		<path id="point-0-10_00000083790779375612989320000003632431413167541416_" class="st_t15" d="M364,356.1h4.8v-3.7H364V356.1z"/>
		<path id="point-0-11_00000146477554120108880230000015685658520959188105_" class="st_t15" d="M394.7,356.7h4.8v-4.9h-4.8V356.7z"/>
		<path id="point-0-12_00000043437571370924686870000001767439820633085105_" class="st_t15" d="M425.4,355.5h4.8V353h-4.8V355.5z"/>
		<path id="point-0-13_00000119813690773636881580000008728537705313133452_" class="st_t15" d="M456.1,355.5h4.8V353h-4.8V355.5z"/>
		<path id="point-0-14_00000023255172818218218790000005970800542238510503_" class="st_t15" d="M486.7,355.5h4.8V353h-4.8V355.5z"/>
		<path id="point-0-15_00000081605600613291939680000005832535332379313838_" class="st_t15" d="M517.4,356.1h4.8v-3.7h-4.8V356.1z"/>
		<path id="point-0-16_00000062176778749503167080000010714956935875393419_" class="st_t15" d="M548.1,356.1h4.8v-3.7h-4.8V356.1z"/>
		<path id="point-0-17_00000180355497426509176670000010297496235110741164_" class="st_t15" d="M578.8,354.5h4.8v-0.6h-4.8V354.5z"/>
		<path id="point-0-18_00000123420555240786029050000008810877877245025408_" class="st_t15" d="M609.5,356.7h4.8v-4.9h-4.8V356.7z"/>
		<path id="point-0-19_00000086660037276569797880000001937345225158792895_" class="st_t15" d="M640.2,360.4h4.8v-12.3h-4.8V360.4z"
			/>
		<path class="st_t14" d="M226.1,354.2c0,0-3.3-0.2-5.2-0.5c-2.8-0.5-4.1-0.8-5.2-0.8l0,0l0,0l0,0l0,0c-1.1,0-2.4,0.3-5.2,0.8
			c-1.9,0.4-5.2,0.5-5.2,0.5s-0.7,0.1,0.2,0.1c1.8,0.1,3.7,0.3,5,0.5c2.8,0.5,4.1,0.8,5.2,0.8l0,0l0,0l0,0l0,0l0,0l0,0l0,0l0,0l0,0
			l0,0c1.1,0,2.4-0.3,5.2-0.8c1.3-0.2,3.1-0.4,5-0.5C226.8,354.2,226.1,354.2,226.1,354.2z"/>
		<path class="st_t14" d="M195.3,354.2c0,0-3.3-0.2-5.2-0.5c-2.8-0.5-4.1-0.8-5.2-0.8l0,0l0,0l0,0l0,0c-1.1,0-2.4,0.3-5.2,0.8
			c-1.9,0.4-5.2,0.5-5.2,0.5s-0.7,0.1,0.2,0.1c1.8,0.1,3.7,0.3,5,0.5c2.8,0.5,4.1,0.8,5.2,0.8l0,0l0,0l0,0l0,0l0,0l0,0l0,0l0,0l0,0
			l0,0c1.1,0,2.4-0.3,5.2-0.8c1.3-0.2,3.1-0.4,5-0.5C196,354.2,195.3,354.2,195.3,354.2z"/>
	</g>
	<path class="st_t14" d="M287.5,313.9c0,0-3.3,0.1-5.2-0.5c-2.5-0.8-4.2-0.8-5.2-0.9c0,0-19.3-2.9-30.7-4.1c-8.8-1-22-1.3-30.7-1.6
		c-8.8-0.4-21.9-0.6-30.7-0.6s-21.9,4.9-30.7,4.9s-21.9-6-30.7-6s-21.9,0-30.7,0.3c-8.8,0.2-21.9,2.6-30.7,2.6s-22.3,0-31.1-0.3
		L31,320c8.8-0.3,22.3-0.1,31.1-0.1s22,2.5,30.7,2.7c8.8,0.2,21.9,0.1,30.7,0.1s21.8-5.9,30.6-5.9s22,4.9,30.8,4.9
		s21.9-0.3,30.7-0.7c8.8-0.4,21.9-0.6,30.7-1.6c11.6-1.3,30.7-4.1,30.7-4.1s2.7,0,5.3-0.8c1.3-0.4,3.1-0.3,5-0.4
		C288.2,314,287.5,313.9,287.5,313.9z"/>
	<text transform="matrix(1 0 0 1 661.7129 317.7684)" class="st_t16 st_t3 st_t20">Nuclear Weapons</text>
	<path class="st_t14" d="M611.9,312.1c-8.8,0-21.9-4.8-30.7-4.8s-22,0.9-30.8,0.9s-21.8-2.8-30.6-2.8s-21.9,5.3-30.7,5.3
		c-8.8,0-22-1.6-30.8-1.6s-21.7,0.4-30.5,0.6s-21.8,0.7-30.6,0.7c-8.8,0-22.1-2.4-30.9-2.4s-31.2,0.6-32.8,1.2v9.1
		c1.7,0.5,24.1,1.2,32.9,1.2s22-2.4,30.7-2.4c8.8,0,21.6,0.4,30.4,0.7c8.8,0.2,22,0.8,30.8,0.8s21.8-1.8,30.6-1.8
		c8.8,0,22,5.4,30.8,5.4c8.8,0,21.9-2.7,30.7-2.7s22,0.9,30.7,0.9c8.8,0,21.8-4.9,30.6-4.9s19.6,5.4,28.3,11.2l0.1-26
		C631.5,306.7,620.7,312.1,611.9,312.1z"/>
	<path id="point-1-0_00000113348434240557978140000012087497135324285627_" class="st_t15" d="M29.1,320h4.8v-12.3h-4.8L29.1,320z"/>
	<path id="point-1-1_00000127007605701188678410000015780416101735180732_" class="st_t15" d="M59.8,319.4h4.8v-11h-4.8V319.4z"/>
	<path id="point-1-2_00000033343839016323537860000009494676982107595138_" class="st_t15" d="M90.4,322h4.8v-16.2h-4.8V322z"/>
	<path id="point-1-3_00000062175975659408987540000010447720010596227712_" class="st_t15" d="M121.1,322.3h4.8v-16.9h-4.8V322.3z"/>
	<path id="point-1-4_00000138568578564230651640000013503704605067552911_" class="st_t15" d="M151.9,316.1h4.8v-4.5h-4.8V316.1z"/>
	<path id="point-1-5_00000173839287100976754470000016072134129643229099_" class="st_t15" d="M182.5,321h4.8v-14.3h-4.8V321z"/>
	<path id="point-1-6_00000000919279843168144980000017621303869567734951_" class="st_t15" d="M213.2,320.3h4.8v-13h-4.8V320.3z"/>
	<path id="point-1-7_00000152232814038012452560000004901602394561146514_" class="st_t15" d="M243.9,318.7h4.8V309h-4.8V318.7z"/>
	<path id="point-1-8_00000057133532282783205270000016833782915342102450_" class="st_t15" d="M274.7,314.5h4.8v-1.3h-4.8V314.5z"/>
	<path id="point-1-9_00000103952272651268643020000004167645978865713330_" class="st_t15" d="M333.3,318.4h4.8v-9.1h-4.8V318.4z"/>
	<path id="point-1-10_00000055680232121031412230000015600090483781000124_" class="st_t15" d="M364.1,319h4.8v-10.4h-4.8V319z"/>
	<path id="point-1-11_00000082343952887682939570000007927608985930916240_" class="st_t15" d="M394.7,316.8h4.8V311h-4.8V316.8z"/>
	<path id="point-1-12_00000144323380235755590980000012547600899233047945_" class="st_t15" d="M425.3,317.4h4.8v-7.1h-4.8V317.4z"/>
	<path id="point-1-13_00000013160143932689892290000012372533943448145559_" class="st_t15" d="M456,318.1h4.8v-8.4H456V318.1z"/>
	<path id="point-1-14_00000171692255742984857420000005522751397179377077_" class="st_t15" d="M486.7,316.4h4.8v-5.2h-4.8V316.4z"/>
	<path id="point-1-15_00000113345138786141113050000016621494189234026428_" class="st_t15" d="M517.4,321.6h4.8V306h-4.8V321.6z"/>
	<path id="point-1-16_00000105409648287239973930000003761919560559893135_" class="st_t15" d="M548.1,319h4.8v-10.4h-4.8V319z"/>
	<path id="point-1-17_00000054246458436217263330000013986857374464396437_" class="st_t15" d="M578.8,320h4.8v-12.3h-4.8V320z"/>
	<path id="point-1-18_00000052091768949004734680000015312765389656028053_" class="st_t15" d="M609.5,315.1h4.8v-2.6h-4.8V315.1z"/>
	<path id="point-1-19_00000106864603194833478320000017090033445073135496_" class="st_t15" d="M640.2,326.8h4.8l0.1-26h-4.8
		L640.2,326.8z"/>
	<g>
		<path class="st_t14" d="M277.5,258.5c-8.9,0-21.9-23.2-30.8-23.2c-8.9,0-22.2,18.5-31.1,18.5c-8.9,0-21.1-1.3-30-3.3
			s-22-15.2-30.9-15.2s-24,11.5-32.9,15.5s-20,8.7-28.9,8.7s-21.8-2-30.7-3.4s-19.7-2.6-28.6-4.5l0.2,23.3
			c8.9-1.9,19.7-3.2,28.6-4.6s21.5-3.3,30.4-3.3s19.8,4.8,28.7,8.8s24,15.2,32.9,15.3c8.9,0,22.2-12.9,31.1-14.9
			c8.9-1.9,21.2-3.3,30.1-3.3c8.9,0,21.8,18.5,30.7,18.5s22.2-23.2,31.1-23.2c5,0-1.6,0,1.7,0.1v-9.9
			C275.8,258.5,282.5,258.5,277.5,258.5z"/>
		<text transform="matrix(1 5.700000e-04 -7.600000e-04 1 661.6094 267.1721)" class="st_t16 st_t3 st_t20">Orthodoxy</text>
		<path class="st_t14" d="M611.9,259.1c-8.9,0-21.7-1.2-30.6-2.5c-8.9-1.3-21.9-8.5-30.8-8.5c-8.9,0-21.8,8.7-30.7,8.7
			c-8.9,0-22.1-23.1-31-23.1s-21.7,17.6-30.6,18s-21.8,0.1-30.7,0.5c-8.9,0.4-21.6,4.7-30.5,4.7s-21.8-18.3-30.7-18.3
			c-8.9,0-21.5,17.7-30.4,18c-1.1,0.8-0.6,13.1,1.3,13.5c8.9,0.3,20.1,18,29,18s22.1-18.1,31-18.1s21.6,4.3,30.5,4.7
			s21.7,0.1,30.6,0.5s21.9,17.9,30.8,17.9s22.2-23.1,31.1-23.1c8.9,0,21.4,8.6,30.3,8.6c8.9,0,21.6-7.4,30.5-8.7
			c8.9-1.3,22.1-2,31-2s19.6,1.2,28.4,3.2l0.1-15.5C631.7,257.5,620.8,259.1,611.9,259.1z"/>
		<path id="point-4-0_00000090991190057715412370000018383493836245727153_" class="st_t15" d="M29,275h4.8l0.1-23.3h-4.8L29,275z"/>
		<path id="point-4-1_00000034079310160507843200000011148263412133203898_" class="st_t15" d="M59.5,269.8h4.8l0.1-12.9h-4.8
			L59.5,269.8z"/>
		<path id="point-4-2_00000177465004929562081240000005686016274974380672_" class="st_t15" d="M90.5,266.6h4.8v-6.5h-4.8V266.6z"/>
		<path id="point-4-3_00000170982878044192415760000000348621287489285275_" class="st_t15" d="M121.1,275.3h4.8l0.1-23.9h-4.8
			L121.1,275.3z"/>
		<path id="point-4-4_00000070090773482038113660000007968126458426537607_" class="st_t15" d="M151.6,290.5h4.8l0.2-54.3h-4.8
			L151.6,290.5z"/>
		<path id="point-4-5_00000174559912354848969940000016162828138073037955_" class="st_t15" d="M182.5,275.3h4.8l0.1-23.9h-4.8
			L182.5,275.3z"/>
		<path id="point-4-6_00000128462638984541102260000015241883782288591232_" class="st_t15" d="M213.2,272.4h4.8l0.1-18.1h-4.8
			L213.2,272.4z"/>
		<path id="point-4-7_00000100359792803858297000000003307409545220250038_" class="st_t15" d="M243.8,290.5h4.8l0.2-54.3H244
			L243.8,290.5z"/>
		<path id="point-4-8_00000034061053326460466650000012719103591686416794_" class="st_t15" d="M274.6,268.2h4.8v-9.7h-4.8V268.2z"/>
		<path id="point-4-9_00000049906881486983790050000001204916232406158499_" class="st_t15" d="M333.2,270.1h4.8l0.1-13.6h-4.8
			L333.2,270.1z"/>
		<path id="point-4-10_00000137826764795747952670000014275844724757263500_" class="st_t15" d="M363.9,286.9h4.8l0.2-47.2h-4.8
			L363.9,286.9z"/>
		<path id="point-4-11_00000017513591970374952670000017943569317375298716_" class="st_t15" d="M394.6,269.2h4.8v-11.6h-4.8V269.2z"
			/>
		<path id="point-4-12_00000075871674920811095390000007309864776000799398_" class="st_t15" d="M425.3,273.7h4.8l0.1-20.7h-4.8
			L425.3,273.7z"/>
		<path id="point-4-13_00000173877183029057866790000015370146505184892842_" class="st_t15" d="M456,274.3h4.8l0.1-22h-4.8L456,274.3
			z"/>
		<path id="point-4-14_00000136406824296227019090000011055418461944138684_" class="st_t15" d="M486.6,292.1h4.8l0.2-57.6h-4.8
			L486.6,292.1z"/>
		<path id="point-4-15_00000155106542168385602830000014346537031632458886_" class="st_t15" d="M517.4,269.2h4.8v-11.6h-4.8V269.2z"
			/>
		<path id="point-4-16_00000034047216675686453620000013046074639377583505_" class="st_t15" d="M548.1,277.9h4.8l0.1-29.1h-4.8
			L548.1,277.9z"/>
		<path id="point-4-17_00000168117629125248700300000006619277912435936388_" class="st_t15" d="M578.8,269.2h4.8v-11.6h-4.8V269.2z"
			/>
		<path id="point-4-18_00000054231278655191168320000015753763626781340840_" class="st_t15" d="M609.5,267.2h4.8v-7.8h-4.8V267.2z"/>
		<path id="point-4-19_00000073683417583662059260000015158820698595365523_" class="st_t15" d="M640.5,271.1h4.8l0.1-15.5h-4.8
			L640.5,271.1z"/>
	</g>
</g>
<g id="religion" class='topic'>
	<g>
		<path class="st_t14" d="M277.5,154.1c-8.9,0-21.9-23.2-30.8-23.2c-8.9,0-22.2,18.5-31.1,18.5c-8.9,0-21.1-1.3-30-3.3
			s-22-15.2-30.9-15.2s-24,11.5-32.9,15.5s-20,8.7-28.9,8.7s-21.8-2-30.7-3.4s-19.7-2.6-28.6-4.5l0.2,23.3
			c8.9-1.9,19.7-3.2,28.6-4.6c8.9-1.4,21.5-3.3,30.4-3.3s19.8,4.8,28.7,8.8s24,15.2,32.9,15.3c8.9,0,22.2-12.9,31.1-14.9
			c8.9-1.9,21.2-3.3,30.1-3.3c8.9,0,21.8,18.5,30.7,18.5s22.2-23.2,31.1-23.2c5,0-1.6,0,1.7,0.1V154
			C275.8,154.1,282.5,154.1,277.5,154.1z"/>
		<text transform="matrix(1 5.700000e-04 -7.600000e-04 1 661.6094 162.7998)" class="st_t16 st_t3 st_t20">Orthodoxy</text>
		<path class="st_t14" d="M611.9,154.7c-8.9,0-21.7-1.2-30.6-2.5c-8.9-1.3-21.9-8.5-30.8-8.5c-8.9,0-21.8,8.7-30.7,8.7
			c-8.9,0-22.1-23.1-31-23.1s-21.7,17.6-30.6,18s-21.8,0.1-30.7,0.5c-8.9,0.4-21.6,4.7-30.5,4.7s-21.8-18.3-30.7-18.3
			c-8.9,0-21.5,17.7-30.4,18c-1.1,0.8-0.6,13.1,1.3,13.5c8.9,0.3,20.1,18,29,18s22.1-18.1,31-18.1s21.6,4.3,30.5,4.7
			s21.7,0.1,30.6,0.5s21.9,17.9,30.8,17.9s22.2-23.1,31.1-23.1c8.9,0,21.4,8.6,30.3,8.6c8.9,0,21.6-7.4,30.5-8.7s22.1-2,31-2
			s19.6,1.2,28.4,3.2l0.1-15.5C631.7,153.1,620.8,154.7,611.9,154.7z"/>
		<path id="point-4-0_00000093141721254495795420000014923132115007226009_" class="st_t15" d="M29,170.6h4.8l0.1-23.3h-4.8L29,170.6z
			"/>
		<path id="point-4-1_00000145751852403195107710000002720934372185737359_" class="st_t15" d="M59.5,165.4h4.8l0.1-12.9h-4.8
			L59.5,165.4z"/>
		<path id="point-4-2_00000047764626689866739810000007077606527367155852_" class="st_t15" d="M90.5,162.2h4.8v-6.5h-4.8V162.2z"/>
		<path id="point-4-3_00000132799697911367090250000011374779452804949123_" class="st_t15" d="M121.1,170.9h4.8L126,147h-4.8
			L121.1,170.9z"/>
		<path id="point-4-4_00000047738931118113764020000005988323120102087843_" class="st_t15" d="M151.6,186.1h4.8l0.2-54.3h-4.8
			L151.6,186.1z"/>
		<path id="point-4-5_00000080198767005310789770000002480517605346029228_" class="st_t15" d="M182.5,170.9h4.8l0.1-23.9h-4.8
			L182.5,170.9z"/>
		<path id="point-4-6_00000174599559455240580050000006311961292842513325_" class="st_t15" d="M213.2,168h4.8l0.1-18.1h-4.8
			L213.2,168z"/>
		<path id="point-4-7_00000011017985467457542050000006584163385662549161_" class="st_t15" d="M243.8,186.1h4.8l0.2-54.3H244
			L243.8,186.1z"/>
		<path id="point-4-8_00000018915500431750663900000000514113967773180048_" class="st_t15" d="M274.6,163.8h4.8v-9.7h-4.8V163.8z"/>
		<path id="point-4-9_00000076569524813876718020000008862828626275913662_" class="st_t15" d="M333.2,165.8h4.8l0.1-13.6h-4.8
			L333.2,165.8z"/>
		<path id="point-4-10_00000073705050405410026640000004895711117654041524_" class="st_t15" d="M363.9,182.6h4.8l0.2-47.2h-4.8
			L363.9,182.6z"/>
		<path id="point-4-11_00000019656191987702598010000009198852251165404544_" class="st_t15" d="M394.6,164.8h4.8v-11.6h-4.8V164.8z"
			/>
		<path id="point-4-12_00000104699497865706043260000015473253309144530354_" class="st_t15" d="M425.3,169.3h4.8l0.1-20.7h-4.8
			L425.3,169.3z"/>
		<path id="point-4-13_00000111158337004897766440000003218717712352045985_" class="st_t15" d="M456,170h4.8l0.1-22h-4.8L456,170z"/>
		<path id="point-4-14_00000001647703033821134610000011817470256786666120_" class="st_t15" d="M486.6,187.8h4.8l0.2-57.6h-4.8
			L486.6,187.8z"/>
		<path id="point-4-15_00000128444995010085251390000009851112968003932060_" class="st_t15" d="M517.4,164.8h4.8v-11.6h-4.8V164.8z"
			/>
		<path id="point-4-16_00000059269834021809933780000014920960409527992241_" class="st_t15" d="M548.1,173.5h4.8l0.1-29.1h-4.8
			L548.1,173.5z"/>
		<path id="point-4-17_00000120527922922849121110000006809577727720176808_" class="st_t15" d="M578.8,164.8h4.8v-11.6h-4.8V164.8z"
			/>
		<path id="point-4-18_00000024698627100522228320000014341858105755780538_" class="st_t15" d="M609.5,162.8h4.8V155h-4.8V162.8z"/>
		<path id="point-4-19_00000060727112502792452720000006614518334947893916_" class="st_t15" d="M640.5,166.7h4.8l0.1-15.5h-4.8
			L640.5,166.7z"/>
	</g>
</g>
<g id="vov" class='topic'>
	<g>
		<text transform="matrix(1 5.700000e-04 -7.600000e-04 1 661.6094 163.9632)" class="st_t16 st_t3 st_t20">The Great Patriotic War
</text>
		<path class="st_t14" d="M614.8,109.6c-8.9-5.4-21.8-34.9-33.5-34.6c-8.9,0.2-24.3,12.1-33.3,21.3s-21.4,33.2-30.3,34.1
			c-8.9,0.9-19.6,1.2-28.5,1.2s-19.4-1.1-28.3-3.5c-8.9-2.4-20.3-48-33.1-47.9c-10.5,0-21.8,39.2-30.7,39.2
			c-8.9,0-21.8-17.7-30.7-17.5c-10,0.2-25.1,36-28.3,38.2l-0.1,37.1c2.7,1.6,18.6,38,28.2,38c9.7,0,22-17.2,30.9-17.2
			s20.7,39.4,30.7,39.4c9.6,0,24.2-45.6,33.1-48s19.3-3.6,28.3-3.6c8.9,0,19.4,0.4,28.3,1.3c8.9,0.9,21.8,24.8,30.6,34
			c8.9,9.2,24.1,21.6,33,21.6c14.1,0,24.4-29.1,33.4-34.5c8.9-5.4,16.8-7.2,25.7-8.6l0.2-82C631.4,116.4,623.7,115,614.8,109.6z"/>
		<path class="st_t14" d="M274.7,152.1c0,0-19.4-7.3-28.3-7.3c-8.9,0-21.8,1-30.7,0.9c-8.9,0-18.7-69.6-30.5-69.6
			c-8.9,0-24.6,52.6-33.6,58.4c-8.9,5.8-19.1,5.9-28,8.2c-8.9,2.2-21.8,4.6-30.7,4.6s-21.9-4.8-30.8-4.8S42.8,144,33.9,145
			l-0.1,27.3c8.9,1,19.5,2.5,28.4,2.5s21.7-4.8,30.6-4.7c8.9,0,22.1,2.6,31,4.8s18.7,2,27.5,7.9c8.9,5.9,24.7,58.6,33.6,58.6
			c9.4,0,22-69.9,30.9-69.9s21.7,1.4,30.6,1.4c8.9,0,28.3-7.7,28.3-7.7V152.1z"/>
		<path id="point-6-0_00000049908122937155539550000009156224136801124232_" class="st_t15" d="M29,172.4h4.8l0.1-27.3h-4.8L29,172.4z
			"/>
		<path id="point-6-1_00000026848315202198454740000002601718275666090172_" class="st_t15" d="M59.7,174.3h4.8l0.1-31.2h-4.8
			L59.7,174.3z"/>
		<path id="point-6-2_00000070841554901725682300000015120797749469217431_" class="st_t15" d="M90.4,169.4h4.8v-21.5h-4.8V169.4z"/>
		<path id="point-6-3_00000085251827805171634360000000632679018818878134_" class="st_t15" d="M121.1,174h4.8l0.1-30.6h-4.8
			L121.1,174z"/>
		<path id="point-6-4_00000142143480759239203880000017166482090093467061_" class="st_t15" d="M151.8,182.8h4.8l0.1-48.2h-4.8
			L151.8,182.8z"/>
		<path id="point-6-5_00000132057296419476395390000012026845633618711719_" class="st_t15" d="M182.3,239.7h4.8l0.3-162.1h-4.8
			L182.3,239.7z"/>
		<path id="point-6-6_00000036950145466711415220000001090594732647023247_" class="st_t15" d="M213.2,170.8h4.8l0.1-24.1h-4.8
			L213.2,170.8z"/>
		<path id="point-6-7_00000001658045150652510740000012469325378464509351_" class="st_t15" d="M243.9,172.1h4.8l0.1-26.7H244
			L243.9,172.1z"/>
		<path id="point-6-8_00000171700308847870809270000014180563208402759840_" class="st_t15" d="M274.6,165.2h4.8v-13h-4.8V165.2z"/>
		<path id="point-6-9_00000173134960261841617220000004964674299254369684_" class="st_t15" d="M333.2,177.3h4.8l0.1-37.1h-4.8
			L333.2,177.3z"/>
		<path id="point-6-10_00000180356190499620946390000002544892328244418953_" class="st_t15" d="M363.8,214.4h4.8l0.2-111.3H364
			L363.8,214.4z"/>
		<path id="point-6-11_00000042736201869157306770000016822125464047927712_" class="st_t15" d="M394.6,197.5h4.8l0.2-77.4h-4.8
			L394.6,197.5z"/>
		<path id="point-6-12_00000005984449612109276440000012878990511153446836_" class="st_t15" d="M425.2,236.5h4.8L430.3,81h-4.8
			L425.2,236.5z"/>
		<path id="point-6-13_00000087382568171224209400000016255426972304329350_" class="st_t15" d="M456,189h4.8l0.1-60.5h-4.8L456,189z"
			/>
		<path id="point-6-14_00000036942887690604782380000007445922144864402868_" class="st_t15" d="M486.7,185.5h4.8l0.1-53.4h-4.8
			L486.7,185.5z"/>
		<path id="point-6-15_00000092458582610795024700000009123729183291651480_" class="st_t15" d="M517.4,186.8h4.8l0.1-56h-4.8
			L517.4,186.8z"/>
		<path id="point-6-16_00000041280604227008160910000006351333641057872264_" class="st_t15" d="M548,220.9h4.8L553,96.6h-4.8
			L548,220.9z"/>
		<path id="point-6-17_00000055695122701508372960000016992175414314385825_" class="st_t15" d="M578.7,242.3h4.8l0.4-166.6h-4.8
			L578.7,242.3z"/>
		<path id="point-6-18_00000142178483636375336840000008296178972824867504_" class="st_t15" d="M609.4,207.9h4.8l0.2-98.3h-4.8
			L609.4,207.9z"/>
		<path id="point-6-19_00000008119302135479857580000003145733349390308788_" class="st_t15" d="M640.2,199.8h4.8l0.2-82h-4.8
			L640.2,199.8z"/>
	</g>
</g>
<g id="nuclear_weapon" class='topic'>
	<path class="st_t14" d="M287.5,159c0,0-3.3,0.1-5.2-0.5c-2.5-0.8-4.2-0.8-5.2-0.9c0,0-19.3-2.9-30.7-4.1c-8.8-1-22-1.3-30.7-1.6
		c-8.8-0.4-21.9-0.6-30.7-0.6s-21.9,4.9-30.7,4.9s-21.9-6-30.7-6s-21.9,0-30.7,0.3c-8.8,0.2-21.9,2.6-30.7,2.6s-22.3,0-31.1-0.3
		L31,165.1c8.8-0.3,22.3-0.1,31.1-0.1s22,2.5,30.7,2.7c8.8,0.2,21.9,0.1,30.7,0.1s21.8-5.9,30.6-5.9s22,4.9,30.8,4.9
		s21.9-0.3,30.7-0.7s21.9-0.6,30.7-1.6c11.6-1.3,30.7-4.1,30.7-4.1s2.7,0,5.3-0.8c1.3-0.4,3.1-0.3,5-0.4
		C288.2,159.1,287.5,159,287.5,159z"/>
	<text transform="matrix(1 0 0 1 661.7129 162.9061)" class="st_t16 st_t3 st_t20">Nuclear Weapons</text>
	<path class="st_t14" d="M611.9,157.3c-8.8,0-21.9-4.8-30.7-4.8s-22,0.9-30.8,0.9s-21.8-2.8-30.6-2.8s-21.9,5.3-30.7,5.3
		c-8.8,0-22-1.6-30.8-1.6s-21.7,0.4-30.5,0.6s-21.8,0.7-30.6,0.7c-8.8,0-22.1-2.4-30.9-2.4s-31.2,0.6-32.8,1.2v9.1
		c1.7,0.5,24.1,1.2,32.9,1.2s22-2.4,30.7-2.4c8.8,0,21.6,0.4,30.4,0.7c8.8,0.2,22,0.8,30.8,0.8s21.8-1.8,30.6-1.8
		c8.8,0,22,5.4,30.8,5.4c8.8,0,21.9-2.7,30.7-2.7s22,0.9,30.7,0.9c8.8,0,21.8-4.9,30.6-4.9s19.6,5.4,28.3,11.2l0.1-26
		C631.5,151.8,620.7,157.3,611.9,157.3z"/>
	<path id="point-1-0_00000132788402814011405430000005849363110952305299_" class="st_t15" d="M29.1,165.2h4.8v-12.3h-4.8L29.1,165.2z
		"/>
	<path id="point-1-1_00000019652374658627068860000004634089370023566251_" class="st_t15" d="M59.8,164.5h4.8v-11h-4.8V164.5z"/>
	<path id="point-1-2_00000166636149745472683880000000386407021743947446_" class="st_t15" d="M90.4,167.1h4.8v-16.2h-4.8V167.1z"/>
	<path id="point-1-3_00000039094957849105975880000016417960425375469228_" class="st_t15" d="M121.1,167.4h4.8v-16.9h-4.8V167.4z"/>
	<path id="point-1-4_00000083060476555646090150000004201790578133415044_" class="st_t15" d="M151.9,161.3h4.8v-4.5h-4.8V161.3z"/>
	<path id="point-1-5_00000085219644169976764230000013084366092727367092_" class="st_t15" d="M182.5,166.1h4.8v-14.3h-4.8V166.1z"/>
	<path id="point-1-6_00000125595438676041457410000012800209481077663409_" class="st_t15" d="M213.2,165.5h4.8v-13h-4.8V165.5z"/>
	<path id="point-1-7_00000044136627112540951890000000848689761603614123_" class="st_t15" d="M243.9,163.9h4.8v-9.7h-4.8V163.9z"/>
	<path id="point-1-8_00000181049934188940507770000002251836580099850143_" class="st_t15" d="M274.7,159.6h4.8v-1.3h-4.8V159.6z"/>
	<path id="point-1-9_00000013910062149035174900000012711949056006683315_" class="st_t15" d="M333.3,163.5h4.8v-9.1h-4.8V163.5z"/>
	<path id="point-1-10_00000132062117610014291540000000166784014683162540_" class="st_t15" d="M364.1,164.2h4.8v-10.4h-4.8V164.2z"/>
	<path id="point-1-11_00000181088816480756290790000000467068536045570435_" class="st_t15" d="M394.7,161.9h4.8v-5.8h-4.8V161.9z"/>
	<path id="point-1-12_00000013898315819972797840000008471470161640938396_" class="st_t15" d="M425.3,162.6h4.8v-7.1h-4.8V162.6z"/>
	<path id="point-1-13_00000027586837588451033340000010240638384781447310_" class="st_t15" d="M456,163.2h4.8v-8.4H456V163.2z"/>
	<path id="point-1-14_00000063611645043517659250000007127281212633034919_" class="st_t15" d="M486.7,161.6h4.8v-5.2h-4.8V161.6z"/>
	<path id="point-1-15_00000142136624715559926750000011783462147883892886_" class="st_t15" d="M517.4,166.8h4.8v-15.6h-4.8V166.8z"/>
	<path id="point-1-16_00000054951895904802234400000010491183611958868403_" class="st_t15" d="M548.1,164.2h4.8v-10.4h-4.8V164.2z"/>
	<path id="point-1-17_00000142147676097310084880000004533258698782230199_" class="st_t15" d="M578.8,165.2h4.8v-12.3h-4.8V165.2z"/>
	<path id="point-1-18_00000131344931768556220990000012463906109923955628_" class="st_t15" d="M609.5,160.3h4.8v-2.6h-4.8V160.3z"/>
	<path id="point-1-19_00000160875909279262223430000013110283683006672784_" class="st_t15" d="M640.2,172h4.8l0.1-26h-4.8L640.2,172z
		"/>
</g>
</svg>
