<?xml version="1.0" encoding="utf-8"?>
<!-- Generator: Adobe Illustrator 27.4.0, SVG Export Plug-In . SVG Version: 6.00 Build 0)  -->
<svg version="1.2" baseProfile="tiny" id="g-themes-medium-nuclear_weapon-img"
	 xmlns="http://www.w3.org/2000/svg" xmlns:xlink="http://www.w3.org/1999/xlink" x="0px" y="0px" viewBox="0 0 800 502"
	 overflow="visible" xml:space="preserve">
<g>
	<path style="opacity:0.42;" fill="#FFFFFF" fill-opacity="0.7" d="
		M287.478,131.035c0,0-3.261,0.1-5.188-0.483c-2.517-0.761-4.154-0.829-5.215-0.935c0,0-19.255-2.858-30.742-4.139
		c-8.767-0.978-21.972-1.266-30.741-1.649c-8.769-0.383-21.882-0.573-30.653-0.576c-8.795-0.004-21.887,4.944-30.682,4.941
		c-8.771-0.004-21.94-6.005-30.711-6.009c-8.771-0.004-21.926,0.037-30.698,0.25c-8.772,0.213-21.904,2.646-30.675,2.643
		c-8.795-0.004-22.337,0.022-31.131-0.306l-0.052,12.344c8.796-0.321,22.341-0.113,31.136-0.109
		c8.771,0.004,21.951,2.495,30.721,2.715c8.77,0.22,21.927,0.051,30.698,0.054c8.771,0.004,21.792-5.933,30.563-5.929
		c8.795,0.004,22.038,4.937,30.833,4.941c8.771,0.004,21.926-0.288,30.698-0.664c8.773-0.375,21.918-0.636,30.693-1.606
		c11.608-1.284,30.7-4.139,30.703-4.139c0.004,0,2.736,0.009,5.254-0.751c1.273-0.385,3.142-0.285,4.966-0.433
		C288.193,131.117,287.478,131.035,287.478,131.035z"/>
	<path style="opacity:0.42;" fill="#FFFFFF" fill-opacity="0.7" d="M611.929,129.266c-8.795-0.004-21.885-4.803-30.68-4.807
		c-8.771-0.004-22.042,0.938-30.813,0.935c-8.771-0.004-21.824-2.845-30.596-2.849c-8.771-0.004-21.934,5.345-30.705,5.341
		c-8.795-0.004-21.995-1.554-30.79-1.558c-8.771-0.004-21.737,0.41-30.509,0.623s-21.844,0.716-30.615,0.712
		c-8.771-0.004-22.109-2.444-30.88-2.448c-8.795-0.004-31.237,0.61-32.79,1.217v9.096c1.658,0.545,24.132,1.212,32.927,1.216
		c8.771,0.004,21.972-2.363,30.743-2.359c8.771,0.004,21.628,0.447,30.398,0.668c8.77,0.22,22.047,0.753,30.818,0.757
		c8.795,0.004,21.839-1.784,30.634-1.78c8.771,0.004,21.998,5.382,30.769,5.386c8.771,0.004,21.911-2.719,30.682-2.715
		c8.771,0.004,21.955,0.931,30.726,0.935c8.795,0.004,21.844-4.9,30.639-4.896c8.771,0.004,19.581,5.385,28.328,11.236l0.055-25.987
		C631.475,123.83,620.7,129.27,611.929,129.266z"/>
	<path style="opacity:0.89;" fill="#FFFFFF" d="M29.053,137.152l4.769,0.001l0.026-12.344l-4.769-0.001
		L29.053,137.152z"/>
	<path style="opacity:0.89;" fill="#FFFFFF" d="M59.752,136.503l4.769,0.001l0.023-11.045l-4.769-0.001
		L59.752,136.503z"/>
	<path style="opacity:0.89;" fill="#FFFFFF" d="M90.445,139.101l4.769,0.001l0.034-16.242l-4.769-0.001
		L90.445,139.101z"/>
	<path style="opacity:0.89;" fill="#FFFFFF" d="M121.143,139.426l4.769,0.001l0.035-16.892l-4.769-0.001
		L121.143,139.426z"/>
	<path style="opacity:0.89;" fill="#FFFFFF" d="M151.854,133.254l4.769,0.001l0.01-4.548l-4.769-0.001
		L151.854,133.254z"/>
	<path style="opacity:0.89;" fill="#FFFFFF" d="M182.542,138.127l4.769,0.001l0.03-14.293l-4.769-0.001
		L182.542,138.127z"/>
	<path style="opacity:0.89;" fill="#FFFFFF" d="M213.242,137.477l4.769,0.001l0.027-12.994l-4.769-0.001
		L213.242,137.477z"/>
	<path style="opacity:0.89;" fill="#FFFFFF" d="M243.943,135.853l4.769,0.001l0.02-9.745l-4.769-0.001
		L243.943,135.853z"/>
	<path style="opacity:0.89;" fill="#FFFFFF" d="M274.65,131.63l4.769,0.001l0.003-1.299l-4.769-0.001
		L274.65,131.63z"/>
	<path style="opacity:0.89;" fill="#FFFFFF" d="M333.344,135.528l4.769,0.001l0.019-9.096l-4.769-0.001
		L333.344,135.528z"/>
	<path style="opacity:0.89;" fill="#FFFFFF" d="M364.084,136.178l4.769,0.001l0.022-10.395l-4.769-0.001
		L364.084,136.178z"/>
	<path style="opacity:0.89;" fill="#FFFFFF" d="M394.651,133.904l4.769,0.001l0.012-5.847l-4.769-0.001
		L394.651,133.904z"/>
	<path style="opacity:0.89;" fill="#FFFFFF" d="M425.348,134.554l4.769,0.001l0.015-7.147l-4.769-0.001
		L425.348,134.554z"/>
	<path style="opacity:0.89;" fill="#FFFFFF" d="M456.045,135.203l4.769,0.001l0.018-8.446l-4.769-0.001
		L456.045,135.203z"/>
	<path style="opacity:0.89;" fill="#FFFFFF" d="M486.746,133.579l4.769,0.001l0.011-5.197l-4.769-0.001
		L486.746,133.579z"/>
	<path style="opacity:0.89;" fill="#FFFFFF" d="M517.434,138.777l4.769,0.001l0.033-15.592l-4.769-0.001
		L517.434,138.777z"/>
	<path style="opacity:0.89;" fill="#FFFFFF" d="M548.137,136.178l4.769,0.001l0.022-10.395l-4.769-0.001
		L548.137,136.178z"/>
	<path style="opacity:0.89;" fill="#FFFFFF" d="M578.834,137.152l4.769,0.001l0.026-12.344l-4.769-0.001
		L578.834,137.152z"/>
	<path style="opacity:0.89;" fill="#FFFFFF" d="M609.542,132.28l4.769,0.001l0.005-2.599l-4.769-0.001
		L609.542,132.28z"/>
	<path style="opacity:0.89;" fill="#FFFFFF" d="M640.216,143.974l4.769,0.001l0.055-25.987l-4.769-0.001
		L640.216,143.974z"/>
</g>
<style>
#g-themes-medium-nuclear_weapon-img rect, #g-themes-medium-nuclear_weapon-img circle, #g-themes-medium-nuclear_weapon-img path, #g-themes-medium-nuclear_weapon-img line, #g-themes-medium-nuclear_weapon-img polyline, #g-themes-medium-nuclear_weapon-img polygon { vector-effect: non-scaling-stroke; }
</style>
</svg>

