<?xml version="1.0" encoding="utf-8"?>
<!-- Generator: Adobe Illustrator 27.4.0, SVG Export Plug-In . SVG Version: 6.00 Build 0)  -->
<svg version="1.2" baseProfile="tiny" id="g-themes-mobile-ru_phobia-img"
	 xmlns="http://www.w3.org/2000/svg" xmlns:xlink="http://www.w3.org/1999/xlink" x="0px" y="0px" viewBox="0 0 300 350"
	 overflow="visible" xml:space="preserve">
<g>
	<path style="opacity:0.42;" fill="#FFFFFF" fill-opacity="0.7" d="M217.122,130.439c-3.183,0.434-7.607,0.571-10.789,0.568
		c-3.173-0.003-7.51-0.311-10.682-0.568c-3.172-0.257-7.603-0.894-10.776-0.897c-3.173-0.003-7.567,0.639-10.741,0.927
		c-2.867,0.26-5.571,1.081-8.438,1.175c-0.17-0.048-0.335-0.102-0.479-0.163c-0.987-0.424-1.842-0.413-1.843-0.413
		c0,0-0.816-0.028-1.717,0.362c-1.438-0.045-4.417-0.099-7.667-0.157c-0.663-0.289-1.029-0.443-1.357-0.455l0,0
		c-0.001,0-0.003,0-0.004,0c-0.001,0-0.003,0-0.004,0l0,0c-0.31,0.011-0.652,0.149-1.248,0.408c-3.153-0.058-6.235-0.12-8.138-0.182
		c-0.662-0.388-1.027-0.596-1.355-0.612l0-0.001c-0.001,0-0.003,0-0.004,0c-0.001,0-0.003,0-0.004,0l0,0.001
		c-0.4,0.02-0.849,0.321-1.836,0.893c-0.675,0.391-1.816,0.567-1.816,0.567s-0.251,0.055,0.078,0.106
		c0.639,0.099,1.293,0.278,1.739,0.536c0.972,0.563,1.422,0.863,1.817,0.891l0,0.003c0.003,0,0.006-0.001,0.009-0.001
		c0.003,0,0.006,0.001,0.009,0.001v-0.001c0.001,0,0.003,0,0.004,0c0.001,0,0.003,0,0.004,0v0.001c0.003,0,0.006-0.001,0.009-0.001
		c0.003,0,0.006,0.001,0.009,0.001l0-0.003c0.359-0.025,0.766-0.276,1.561-0.741c1.862-0.056,4.712-0.112,7.651-0.165
		c0.752,0.327,1.144,0.502,1.492,0.52l0,0.002c0.003,0,0.006,0,0.009,0c0.003,0,0.006,0,0.009,0v-0.001c0.001,0,0.003,0,0.004,0
		c0.001,0,0.003,0,0.004,0v0.001c0.003,0,0.006,0,0.009,0c0.003,0,0.006,0,0.009,0l0-0.002c0.367-0.019,0.786-0.214,1.62-0.575
		c2.962-0.051,5.664-0.098,7.133-0.139c0.046,0.017,0.092,0.034,0.135,0.053c0.972,0.417,1.422,0.373,1.817,0.394
		c0,0,0.89,0.024,1.862-0.394c0.226-0.097,0.507-0.179,0.811-0.246c2.755,0.124,5.343,0.983,8.098,1.238
		c3.172,0.293,7.576,0.954,10.749,0.957c3.173,0.003,7.572-0.675,10.745-0.927c3.174-0.252,7.616-0.72,10.789-0.717
		c3.182,0.003,7.517,0.308,10.698,0.747c2.73,0.377,6.337,1.444,9.924,3.3l0.009-9.6
		C223.864,128.763,220.296,130.007,217.122,130.439z"/>
	<path style="opacity:0.89;" fill="#FFFFFF" d="M141.045,132.773l1.67,0.001l0.002-1.745l-1.67-0.001
		L141.045,132.773z"/>
	<path style="opacity:0.89;" fill="#FFFFFF" d="M151.794,132.34l1.67,0.001l0.001-0.873l-1.67-0.001
		L151.794,132.34z"/>
	<path style="opacity:0.89;" fill="#FFFFFF" d="M162.543,132.126l1.67,0.001l0-0.436l-1.67-0.001
		L162.543,132.126z"/>
	<path style="opacity:0.89;" fill="#FFFFFF" d="M173.291,133.002l1.67,0.001l0.002-2.182l-1.67-0.001
		L173.291,133.002z"/>
	<path style="opacity:0.89;" fill="#FFFFFF" d="M184.039,133.878l1.67,0.001l0.004-3.927l-1.67-0.001
		L184.039,133.878z"/>
	<path style="opacity:0.89;" fill="#FFFFFF" d="M194.788,133.009l1.67,0.001l0.002-2.182l-1.67-0.001
		L194.788,133.009z"/>
	<path style="opacity:0.89;" fill="#FFFFFF" d="M205.538,132.358l1.67,0.001l0.001-0.873l-1.67-0.001
		L205.538,132.358z"/>
	<path style="opacity:0.89;" fill="#FFFFFF" d="M216.286,133.016l1.67,0.001l0.002-2.182l-1.67-0.001
		L216.286,133.016z"/>
	<path style="opacity:0.89;" fill="#FFFFFF" d="M227.031,136.729l1.67,0.001l0.009-9.6l-1.67-0.001
		L227.031,136.729z"/>
</g>
<style>
#g-themes-mobile-ru_phobia-img rect, #g-themes-mobile-ru_phobia-img circle, #g-themes-mobile-ru_phobia-img path, #g-themes-mobile-ru_phobia-img line, #g-themes-mobile-ru_phobia-img polyline, #g-themes-mobile-ru_phobia-img polygon { vector-effect: non-scaling-stroke; }
</style>
</svg>

