<?xml version="1.0" encoding="utf-8"?>
<!-- Generator: Adobe Illustrator 27.4.0, SVG Export Plug-In . SVG Version: 6.00 Build 0)  -->
<svg version="1.2" baseProfile="tiny" id="g-themes-medium-traditional_values-img"
	 xmlns="http://www.w3.org/2000/svg" xmlns:xlink="http://www.w3.org/1999/xlink" x="0px" y="0px" viewBox="0 0 800 502"
	 overflow="visible" xml:space="preserve">
<g>
	<path style="opacity:0.42;" fill="#FFFFFF" fill-opacity="0.7" d="
		M611.902,86.339c-8.954,1.027-21.647,2.318-30.597,2.315c-8.926-0.004-21.871-1.421-30.796-1.424
		c-8.926-0.004-21.74-0.115-30.666-0.119c-8.925-0.004-21.686,0.775-30.612,0.772c-8.95-0.004-21.805-0.056-30.755-0.059
		c-8.925-0.004-21.8-0.026-30.726-0.03c-8.926-0.004-21.783-1.361-30.709-1.365c-8.926-0.004-21.772,0.499-30.698,0.712
		c-7.755,0.185-29.828,0.527-30.687,0.505l0-0.001c-0.004,0-0.007,0-0.011,0c-0.004,0-0.007,0-0.011,0l0,0.001
		c-1.144,0.029-2.424-0.015-5.243,0.838c-1.927,0.583-5.188,0.844-5.188,0.844s-0.716,0.082,0.221,0.158
		c1.824,0.148,3.693,0.414,4.966,0.798c2.776,0.839,4.06,0.845,5.19,0.886l0,0.005c0.009,0,0.018-0.001,0.026-0.001
		c0.009,0,0.018,0.001,0.026,0.001v-0.002c0.004,0,0.007,0,0.011-0.001c0.004,0,0.007,0,0.011,0.001v0.002
		c0.009,0,0.018-0.001,0.026-0.001c0.009,0,0.018,0.001,0.026,0.001l0-0.005c0.956-0.035,23.077,0.264,30.635,0.45
		c8.925,0.22,21.773,0.679,30.698,0.682c8.925,0.004,21.783-1.369,30.709-1.365c8.926,0.004,21.762-0.004,30.688,0
		c8.95,0.004,21.843-0.093,30.793-0.089c8.926,0.004,21.67,0.738,30.595,0.742c8.926,0.004,21.699,0.026,30.625,0.03
		c8.926,0.004,21.926-1.517,30.851-1.513c8.95,0.004,21.77,1.28,30.716,2.315c8.921,1.032,19.265,1.695,28.184,3.134l0.056-12.344
		C631.326,84.643,620.832,85.314,611.902,86.339z"/>
	<path style="opacity:0.89;" fill="#FFFFFF" d="M182.841,89.692l4.769,0.001l0.001-0.617l-4.769-0.001
		L182.841,89.692z"/>
	<path style="opacity:0.89;" fill="#FFFFFF" d="M213.54,89.692l4.769,0.001l0.001-0.617l-4.769-0.001
		L213.54,89.692z"/>
	<path style="opacity:0.89;" fill="#FFFFFF" d="M333.258,90.618l4.769,0.001l0.005-2.469l-4.769-0.001
		L333.258,90.618z"/>
	<path style="opacity:0.89;" fill="#FFFFFF" d="M363.955,91.235l4.769,0.001l0.008-3.703l-4.769-0.001
		L363.955,91.235z"/>
	<path style="opacity:0.89;" fill="#FFFFFF" d="M394.652,91.852l4.769,0.001l0.011-4.938l-4.769-0.001
		L394.652,91.852z"/>
	<path style="opacity:0.89;" fill="#FFFFFF" d="M425.353,90.618l4.769,0.001l0.005-2.469l-4.769-0.001
		L425.353,90.618z"/>
	<path style="opacity:0.89;" fill="#FFFFFF" d="M456.051,90.618l4.769,0.001l0.005-2.469l-4.769-0.001
		L456.051,90.618z"/>
	<path style="opacity:0.89;" fill="#FFFFFF" d="M486.749,90.618l4.769,0.001l0.005-2.469l-4.769-0.001
		L486.749,90.618z"/>
	<path style="opacity:0.89;" fill="#FFFFFF" d="M517.446,91.235l4.769,0.001l0.008-3.703l-4.769-0.001
		L517.446,91.235z"/>
	<path style="opacity:0.89;" fill="#FFFFFF" d="M548.144,91.235l4.769,0.001l0.008-3.703l-4.769-0.001
		L548.144,91.235z"/>
	<path style="opacity:0.89;" fill="#FFFFFF" d="M578.846,89.692l4.769,0.001l0.001-0.617l-4.769-0.001
		L578.846,89.692z"/>
	<path style="opacity:0.89;" fill="#FFFFFF" d="M609.54,91.852l4.769,0.001l0.011-4.938l-4.769-0.001
		L609.54,91.852z"/>
	<path style="opacity:0.89;" fill="#FFFFFF" d="M640.23,95.555l4.769,0.001l0.026-12.344l-4.769-0.001
		L640.23,95.555z"/>
	<path style="opacity:0.42;" fill="#FFFFFF" fill-opacity="0.7" d="
		M226.081,89.349c0,0-3.261-0.161-5.188-0.521c-2.819-0.526-4.099-0.802-5.243-0.82l0-0.001c-0.004,0-0.007,0-0.011,0
		c-0.004,0-0.007,0-0.011,0l0,0.001c-1.144,0.018-2.424,0.294-5.243,0.82c-1.927,0.359-5.188,0.521-5.188,0.521
		s-0.716,0.051,0.221,0.097c1.824,0.091,3.693,0.255,4.966,0.492c2.776,0.517,4.06,0.793,5.19,0.818l0,0.003
		c0.009,0,0.018,0,0.026-0.001c0.009,0,0.018,0,0.026,0.001v-0.001c0.004,0,0.007,0,0.011,0c0.004,0,0.007,0,0.011,0v0.001
		c0.009,0,0.018,0,0.026-0.001c0.009,0,0.018,0,0.026,0.001l0-0.003c1.13-0.026,2.415-0.301,5.19-0.818
		c1.273-0.237,3.142-0.401,4.966-0.492C226.797,89.4,226.081,89.349,226.081,89.349z"/>
	<path style="opacity:0.42;" fill="#FFFFFF" fill-opacity="0.7" d="M195.291,89.349c0,0-3.261-0.161-5.188-0.521
		c-2.819-0.526-4.099-0.802-5.243-0.82l0-0.001c-0.004,0-0.007,0-0.011,0c-0.004,0-0.007,0-0.011,0l0,0.001
		c-1.144,0.018-2.424,0.294-5.243,0.82c-1.927,0.359-5.188,0.521-5.188,0.521s-0.716,0.051,0.221,0.097
		c1.824,0.091,3.693,0.255,4.966,0.492c2.776,0.517,4.06,0.793,5.19,0.818l0,0.003c0.009,0,0.018,0,0.026-0.001
		c0.009,0,0.018,0,0.026,0.001v-0.001c0.004,0,0.007,0,0.011,0c0.004,0,0.007,0,0.011,0v0.001c0.009,0,0.018,0,0.026-0.001
		c0.009,0,0.018,0,0.026,0.001l0-0.003c1.13-0.026,2.415-0.301,5.19-0.818c1.273-0.237,3.142-0.401,4.966-0.492
		C196.007,89.4,195.291,89.349,195.291,89.349z"/>
</g>
<style>
#g-themes-medium-traditional_values-img rect, #g-themes-medium-traditional_values-img circle, #g-themes-medium-traditional_values-img path, #g-themes-medium-traditional_values-img line, #g-themes-medium-traditional_values-img polyline, #g-themes-medium-traditional_values-img polygon { vector-effect: non-scaling-stroke; }
</style>
</svg>

