<?xml version="1.0" encoding="utf-8"?>
<!-- Generator: Adobe Illustrator 27.4.0, SVG Export Plug-In . SVG Version: 6.00 Build 0)  -->
<svg version="1.2" baseProfile="tiny" id="g-themes-medium-ru_phobia-img"
	 xmlns="http://www.w3.org/2000/svg" xmlns:xlink="http://www.w3.org/1999/xlink" x="0px" y="0px" viewBox="0 0 800 502"
	 overflow="visible" xml:space="preserve">
<g>
	<path style="opacity:0.42;" fill="#FFFFFF" fill-opacity="0.7" d="M611.931,173.586c-9.089,0.646-21.726,0.85-30.813,0.846
		c-9.062-0.004-21.448-0.463-30.509-0.846c-9.061-0.383-21.714-1.331-30.776-1.335c-9.062-0.004-21.612,0.951-30.676,1.38
		c-8.189,0.387-15.911,1.609-24.099,1.749c-0.486-0.071-0.958-0.151-1.367-0.243c-2.819-0.632-5.261-0.615-5.265-0.616
		c0,0-2.33-0.041-4.905,0.539c-4.107-0.067-12.616-0.147-21.896-0.234c-1.894-0.43-2.938-0.66-3.875-0.677l0-0.001
		c-0.004,0-0.007,0-0.011,0c-0.004,0-0.007,0-0.011,0l0,0.001c-0.886,0.017-1.863,0.222-3.564,0.607
		c-9.004-0.086-17.806-0.178-23.243-0.271c-1.89-0.578-2.933-0.887-3.869-0.911l0-0.001c-0.004,0-0.007,0-0.011,0.001
		c-0.004,0-0.007,0-0.011-0.001l0,0.001c-1.144,0.029-2.424,0.477-5.243,1.33c-1.927,0.583-5.188,0.844-5.188,0.844
		s-0.716,0.082,0.221,0.158c1.824,0.148,3.693,0.414,4.966,0.798c2.776,0.839,4.06,1.285,5.19,1.326l0,0.005
		c0.009,0,0.018-0.001,0.026-0.001c0.009,0,0.018,0.001,0.026,0.001v-0.002c0.004,0,0.007,0,0.011-0.001
		c0.004,0,0.007,0,0.011,0.001v0.002c0.009,0,0.018-0.001,0.026-0.001c0.009,0,0.018,0.001,0.026,0.001l0-0.005
		c1.024-0.038,2.187-0.411,4.459-1.104c5.318-0.084,13.456-0.167,21.851-0.245c2.148,0.487,3.266,0.747,4.261,0.775l0,0.004
		c0.009,0,0.018-0.001,0.026-0.001c0.009,0,0.018,0.001,0.026,0.001v-0.001c0.004,0,0.007,0,0.011,0c0.004,0,0.007,0,0.011,0v0.001
		c0.009,0,0.018-0.001,0.026-0.001c0.009,0,0.018,0.001,0.026,0.001l0-0.004c1.048-0.029,2.245-0.319,4.626-0.857
		c8.46-0.076,16.175-0.146,20.371-0.206c0.132,0.026,0.263,0.051,0.384,0.078c2.776,0.622,4.06,0.556,5.19,0.587
		c0,0,2.541,0.035,5.317-0.587c0.647-0.145,1.448-0.267,2.318-0.366c7.869,0.184,15.259,1.464,23.127,1.843
		c9.06,0.437,21.636,1.42,30.698,1.424c9.062,0.004,21.625-1.005,30.689-1.38c9.064-0.375,21.751-1.072,30.813-1.068
		c9.087,0.004,21.468,0.459,30.552,1.113c7.797,0.561,18.098,2.15,28.342,4.913l0.027-14.293
		C631.185,171.091,620.996,172.942,611.931,173.586z"/>
	<path style="opacity:0.89;" fill="#FFFFFF" d="M394.655,177.061l4.769,0.001l0.005-2.599l-4.769-0.001
		L394.655,177.061z"/>
	<path style="opacity:0.89;" fill="#FFFFFF" d="M425.354,176.417l4.769,0.001l0.002-1.299l-4.769-0.001
		L425.354,176.417z"/>
	<path style="opacity:0.89;" fill="#FFFFFF" d="M456.053,176.097l4.769,0.001l0.001-0.65l-4.769-0.001
		L456.053,176.097z"/>
	<path style="opacity:0.89;" fill="#FFFFFF" d="M486.749,177.402l4.769,0.001l0.006-3.248l-4.769-0.001
		L486.749,177.402z"/>
	<path style="opacity:0.89;" fill="#FFFFFF" d="M517.445,178.706l4.769,0.001l0.011-5.847l-4.769-0.001
		L517.445,178.706z"/>
	<path style="opacity:0.89;" fill="#FFFFFF" d="M548.145,177.412l4.769,0.001l0.006-3.248l-4.769-0.001
		L548.145,177.412z"/>
	<path style="opacity:0.89;" fill="#FFFFFF" d="M578.845,176.443l4.769,0.001l0.002-1.299l-4.769-0.001
		L578.845,176.443z"/>
	<path style="opacity:0.89;" fill="#FFFFFF" d="M609.542,177.423l4.769,0.001l0.006-3.248l-4.769-0.001
		L609.542,177.423z"/>
	<path style="opacity:0.89;" fill="#FFFFFF" d="M640.23,182.95l4.769,0.001l0.027-14.293l-4.769-0.001
		L640.23,182.95z"/>
</g>
<style>
#g-themes-medium-ru_phobia-img rect, #g-themes-medium-ru_phobia-img circle, #g-themes-medium-ru_phobia-img path, #g-themes-medium-ru_phobia-img line, #g-themes-medium-ru_phobia-img polyline, #g-themes-medium-ru_phobia-img polygon { vector-effect: non-scaling-stroke; }
</style>
</svg>

