<?xml version="1.0" encoding="utf-8"?>
<!-- Generator: Adobe Illustrator 27.4.0, SVG Export Plug-In . SVG Version: 6.00 Build 0)  -->
<svg version="1.2" baseProfile="tiny" id="g-themes-mobile-nuclear_weapon-img"
	 xmlns="http://www.w3.org/2000/svg" xmlns:xlink="http://www.w3.org/1999/xlink" x="0px" y="0px" viewBox="0 0 300 350"
	 overflow="visible" xml:space="preserve">
<g>
	<path style="opacity:0.42;" fill="#FFFFFF" fill-opacity="0.7" d="
		M103.518,101.858c0,0-1.142,0.067-1.816-0.324c-0.881-0.511-1.454-0.557-1.826-0.628c0,0-6.742-1.92-10.764-2.78
		c-3.07-0.657-7.693-0.851-10.764-1.108c-3.071-0.257-7.662-0.385-10.733-0.387c-3.08-0.002-7.664,3.321-10.743,3.318
		c-3.071-0.002-7.682-4.034-10.753-4.036c-3.071-0.002-7.677,0.025-10.749,0.168c-3.071,0.143-7.67,1.778-10.741,1.775
		c-3.079-0.002-7.821,0.015-10.9-0.206l-0.018,8.291c3.08-0.216,7.822-0.076,10.902-0.073c3.071,0.002,7.686,1.676,10.757,1.824
		c3.071,0.148,7.678,0.034,10.749,0.036c3.071,0.002,7.63-3.985,10.701-3.983c3.08,0.002,7.717,3.316,10.796,3.318
		c3.071,0.002,7.677-0.194,10.749-0.446c3.072-0.252,7.674-0.427,10.747-1.079c4.064-0.863,10.749-2.78,10.75-2.78
		c0.001,0,0.958,0.006,1.84-0.504c0.446-0.258,1.1-0.192,1.739-0.291C103.768,101.914,103.518,101.858,103.518,101.858z"/>
	<path style="opacity:0.42;" fill="#FFFFFF" fill-opacity="0.7" d="M217.122,100.671c-3.08-0.002-7.663-3.226-10.742-3.229
		c-3.071-0.002-7.718,0.63-10.789,0.628c-3.071-0.002-7.642-1.911-10.713-1.913c-3.071-0.002-7.68,3.59-10.751,3.588
		c-3.08-0.002-7.701-1.044-10.781-1.046c-3.071-0.002-7.611,0.276-10.682,0.419c-3.071,0.143-7.649,0.481-10.72,0.478
		c-3.071-0.002-7.741-1.642-10.812-1.644c-3.08-0.002-10.937,0.41-11.481,0.817v6.109c0.58,0.366,8.45,0.814,11.529,0.817
		c3.071,0.002,7.693-1.587,10.764-1.585c3.071,0.002,7.573,0.301,10.644,0.448c3.071,0.148,7.72,0.506,10.791,0.508
		c3.08,0.002,7.647-1.198,10.726-1.196c3.071,0.002,7.702,3.615,10.774,3.617c3.071,0.002,7.672-1.826,10.743-1.824
		c3.071,0.002,7.687,0.625,10.758,0.628c3.08,0.002,7.648-3.291,10.728-3.289c3.071,0.002,6.856,3.617,9.919,7.547l0.019-17.455
		C223.965,97.019,220.193,100.673,217.122,100.671z"/>
	<path style="opacity:0.89;" fill="#FFFFFF" d="M13.032,105.967l1.67,0.001l0.009-8.291l-1.67-0.001
		L13.032,105.967z"/>
	<path style="opacity:0.89;" fill="#FFFFFF" d="M23.782,105.531l1.67,0.001l0.008-7.418l-1.67-0.001
		L23.782,105.531z"/>
	<path style="opacity:0.89;" fill="#FFFFFF" d="M34.529,107.277l1.67,0.001l0.012-10.909l-1.67-0.001
		L34.529,107.277z"/>
	<path style="opacity:0.89;" fill="#FFFFFF" d="M45.277,107.495l1.67,0.001l0.012-11.346l-1.67-0.001
		L45.277,107.495z"/>
	<path style="opacity:0.89;" fill="#FFFFFF" d="M56.03,103.349l1.67,0.001l0.003-3.055l-1.67-0.001
		L56.03,103.349z"/>
	<path style="opacity:0.89;" fill="#FFFFFF" d="M66.775,106.622l1.67,0.001l0.011-9.6l-1.67-0.001
		L66.775,106.622z"/>
	<path style="opacity:0.89;" fill="#FFFFFF" d="M77.525,106.186l1.67,0.001l0.01-8.728l-1.67-0.001
		L77.525,106.186z"/>
	<path style="opacity:0.89;" fill="#FFFFFF" d="M88.275,105.095l1.67,0.001l0.007-6.546l-1.67-0.001
		L88.275,105.095z"/>
	<path style="opacity:0.89;" fill="#FFFFFF" d="M99.026,102.258l1.67,0.001l0.001-0.873l-1.67-0.001
		L99.026,102.258z"/>
	<path style="opacity:0.89;" fill="#FFFFFF" d="M119.577,104.877l1.67,0.001l0.007-6.109l-1.67-0.001
		L119.577,104.877z"/>
	<path style="opacity:0.89;" fill="#FFFFFF" d="M130.341,105.313l1.67,0.001l0.008-6.982l-1.67-0.001
		L130.341,105.313z"/>
	<path style="opacity:0.89;" fill="#FFFFFF" d="M141.044,103.786l1.67,0.001l0.004-3.927l-1.67-0.001
		L141.044,103.786z"/>
	<path style="opacity:0.89;" fill="#FFFFFF" d="M151.792,104.222l1.67,0.001l0.005-4.8l-1.67-0.001
		L151.792,104.222z"/>
	<path style="opacity:0.89;" fill="#FFFFFF" d="M162.54,104.658l1.67,0.001l0.006-5.673l-1.67-0.001
		L162.54,104.658z"/>
	<path style="opacity:0.89;" fill="#FFFFFF" d="M173.29,103.567l1.67,0.001l0.004-3.491l-1.67-0.001
		L173.29,103.567z"/>
	<path style="opacity:0.89;" fill="#FFFFFF" d="M184.035,107.058l1.67,0.001l0.011-10.473l-1.67-0.001
		L184.035,107.058z"/>
	<path style="opacity:0.89;" fill="#FFFFFF" d="M194.786,105.313l1.67,0.001l0.008-6.982l-1.67-0.001
		L194.786,105.313z"/>
	<path style="opacity:0.89;" fill="#FFFFFF" d="M205.534,105.967l1.67,0.001l0.009-8.291l-1.67-0.001
		L205.534,105.967z"/>
	<path style="opacity:0.89;" fill="#FFFFFF" d="M216.286,102.695l1.67,0.001l0.002-1.745l-1.67-0.001
		L216.286,102.695z"/>
	<path style="opacity:0.89;" fill="#FFFFFF" d="M227.026,110.549l1.67,0.001l0.019-17.455l-1.67-0.001
		L227.026,110.549z"/>
</g>
<style>
#g-themes-mobile-nuclear_weapon-img rect, #g-themes-mobile-nuclear_weapon-img circle, #g-themes-mobile-nuclear_weapon-img path, #g-themes-mobile-nuclear_weapon-img line, #g-themes-mobile-nuclear_weapon-img polyline, #g-themes-mobile-nuclear_weapon-img polygon { vector-effect: non-scaling-stroke; }
</style>
</svg>

