<?xml version="1.0" encoding="utf-8"?>
<!-- Generator: Adobe Illustrator 27.4.0, SVG Export Plug-In . SVG Version: 6.00 Build 0)  -->
<svg version="1.2" baseProfile="tiny" id="g-themes-medium-other-img"
	 xmlns="http://www.w3.org/2000/svg" xmlns:xlink="http://www.w3.org/1999/xlink" x="0px" y="0px" viewBox="0 0 800 502"
	 overflow="visible" xml:space="preserve">
<g>
	<path style="opacity:0.42;" fill="#FFFFFF" fill-opacity="0.7" d="
		M614.796,356.494c-8.9-5.432-21.757-34.945-33.516-34.648c-8.896,0.224-24.324,12.105-33.262,21.306
		c-8.938,9.2-21.357,33.202-30.259,34.065c-8.902,0.863-19.628,1.25-28.527,1.246c-8.923-0.004-19.432-1.116-28.345-3.501
		c-8.889-2.379-20.319-47.952-33.146-47.893c-10.492,0.049-21.8,39.232-30.698,39.228c-8.899-0.004-21.801-17.665-30.698-17.507
		c-10.026,0.178-25.145,35.993-28.276,38.245l-0.079,37.097c2.682,1.638,18.56,38.011,28.165,38.011
		c9.721,0,21.989-17.155,30.887-17.151c8.899,0.004,20.669,39.406,30.698,39.406c9.645,0,24.237-45.64,33.146-48.012
		c8.933-2.379,19.327-3.564,28.251-3.561c8.899,0.004,19.36,0.436,28.255,1.306c8.895,0.87,21.766,24.798,30.625,34.006
		c8.859,9.207,24.145,21.602,33.044,21.602c14.119,0,24.41-29.115,33.356-34.54c8.922-5.41,16.835-7.211,25.74-8.561l0.175-82.003
		C631.439,363.277,623.671,361.912,614.796,356.494z"/>
	<path style="opacity:0.42;" fill="#FFFFFF" fill-opacity="0.7" d="
		M274.666,399.001c0,0-19.434-7.273-28.333-7.277c-8.899-0.004-21.842,0.953-30.741,0.95c-8.899-0.004-18.69-69.614-30.494-69.614
		c-8.923,0-24.613,52.566-33.561,58.425c-8.924,5.844-19.083,5.946-27.991,8.162c-8.908,2.216-21.784,4.573-30.683,4.57
		c-8.899-0.004-21.885-4.803-30.784-4.807c-8.923-0.004-19.289,1.497-28.216,2.468l-0.058,27.334
		c8.919,0.978,19.467,2.479,28.39,2.482c8.899,0.004,21.654-4.751,30.552-4.748c8.899,0.004,22.068,2.584,30.957,4.807
		c8.889,2.223,18.669,2.042,27.543,7.893c8.898,5.867,24.68,58.575,33.603,58.575c9.39,0,22.017-69.914,30.916-69.91
		c8.899,0.004,21.669,1.421,30.568,1.424c8.899,0.004,28.306-7.741,28.306-7.741L274.666,399.001z"/>
	<path style="opacity:0.89;" fill="#FFFFFF" d="M29.038,419.226l4.766,0.001l0.058-27.334l-4.766-0.001
		L29.038,419.226z"/>
	<path style="opacity:0.89;" fill="#FFFFFF" d="M59.732,421.183l4.766,0.001l0.067-31.239l-4.766-0.001
		L59.732,421.183z"/>
	<path style="opacity:0.89;" fill="#FFFFFF" d="M90.44,416.306l4.766,0.001l0.046-21.477l-4.766-0.001
		L90.44,416.306z"/>
	<path style="opacity:0.89;" fill="#FFFFFF" d="M121.129,420.867l4.766,0.001l0.065-30.588l-4.766-0.001
		L121.129,420.867z"/>
	<path style="opacity:0.89;" fill="#FFFFFF" d="M151.809,429.657l4.766,0.001l0.103-48.16l-4.766-0.001
		L151.809,429.657z"/>
	<path style="opacity:0.89;" fill="#FFFFFF" d="M182.294,486.608l4.766,0.001l0.345-162.053l-4.766-0.001
		L182.294,486.608z"/>
	<path style="opacity:0.89;" fill="#FFFFFF" d="M213.183,417.626l4.766,0.001l0.051-24.08l-4.766-0.001
		L213.183,417.626z"/>
	<path style="opacity:0.89;" fill="#FFFFFF" d="M243.926,418.933l4.766,0.001l0.057-26.684l-4.766-0.001
		L243.926,418.933z"/>
	<path style="opacity:0.89;" fill="#FFFFFF" d="M274.639,412.104l4.766,0.001l0.028-13.016l-4.766-0.001
		L274.639,412.104z"/>
	<path style="opacity:0.89;" fill="#FFFFFF" d="M333.222,424.162l4.766,0.001l0.079-37.097l-4.766-0.001
		L333.222,424.162z"/>
	<path style="opacity:0.89;" fill="#FFFFFF" d="M363.841,461.263l4.766,0.001l0.237-111.29l-4.766-0.001
		L363.841,461.263z"/>
	<path style="opacity:0.89;" fill="#FFFFFF" d="M394.576,444.347l4.766,0.001l0.165-77.447l-4.766-0.001
		L394.576,444.347z"/>
	<path style="opacity:0.89;" fill="#FFFFFF" d="M425.191,483.4l4.766,0.001l0.332-155.545l-4.766-0.001
		L425.191,483.4z"/>
	<path style="opacity:0.89;" fill="#FFFFFF" d="M455.99,435.895l4.766,0.001l0.129-60.526l-4.766-0.001
		L455.99,435.895z"/>
	<path style="opacity:0.89;" fill="#FFFFFF" d="M486.696,432.32l4.766,0.001l0.114-53.367l-4.766-0.001
		L486.696,432.32z"/>
	<path style="opacity:0.89;" fill="#FFFFFF" d="M517.392,433.626l4.766,0.001l0.119-55.97l-4.766-0.001
		L517.392,433.626z"/>
	<path style="opacity:0.89;" fill="#FFFFFF" d="M548.017,467.799l4.766,0.001l0.265-124.306l-4.766-0.001
		L548.017,467.799z"/>
	<path style="opacity:0.89;" fill="#FFFFFF" d="M578.719,489.148l4.766,0.001l0.355-166.609l-4.766-0.001
		L578.719,489.148z"/>
	<path style="opacity:0.89;" fill="#FFFFFF" d="M609.441,454.792l4.766,0.001l0.209-98.273l-4.766-0.001
		L609.441,454.792z"/>
	<path style="opacity:0.89;" fill="#FFFFFF" d="M640.157,446.661l4.766,0.001l0.175-82.003l-4.766-0.001
		L640.157,446.661z"/>
	<path style="opacity:0.42;" fill="#FFFFFF" fill-opacity="0.7" d="
		M653.069,321.129c0,0-3.261-0.288-5.188-0.929c-2.819-0.938-4.099-1.431-5.243-1.463l0-0.001c-0.004,0-0.007,0-0.011,0.001
		c-0.004,0-0.007,0-0.011-0.001l0,0.001c-1.144,0.032-2.424,0.525-5.243,1.463c-1.927,0.641-5.188,0.929-5.188,0.929
		s-0.716,0.09,0.221,0.174c1.824,0.163,3.693,0.455,4.966,0.878c2.776,0.922,4.06,1.413,5.19,1.459l0,0.005
		c0.009,0,0.018-0.001,0.026-0.001c0.009,0,0.018,0.001,0.026,0.001v-0.002c0.004,0,0.007,0,0.011-0.001
		c0.004,0,0.007,0,0.011,0.001v0.002c0.009,0,0.018-0.001,0.026-0.001c0.009,0,0.018,0.001,0.026,0.001l0-0.005
		c1.13-0.046,2.415-0.537,5.19-1.459c1.273-0.423,3.142-0.715,4.966-0.878C653.785,321.219,653.069,321.129,653.069,321.129z"/>
	<path style="opacity:0.42;" fill="#FFFFFF" fill-opacity="0.7" d="
		M499.578,321.109c0,0-3.261-0.177-5.188-0.573c-2.819-0.578-4.099-0.882-5.243-0.902l0-0.001c-0.004,0-0.007,0-0.011,0
		c-0.004,0-0.007,0-0.011,0l0,0.001c-1.144,0.02-2.424,0.324-5.243,0.902c-1.927,0.395-5.188,0.573-5.188,0.573
		s-0.716,0.056,0.221,0.107c1.824,0.1,3.693,0.281,4.966,0.541c2.776,0.569,4.06,0.871,5.19,0.9l0,0.003
		c0.009,0,0.018-0.001,0.026-0.001c0.009,0,0.018,0.001,0.026,0.001v-0.001c0.004,0,0.007,0,0.011,0c0.004,0,0.007,0,0.011,0v0.001
		c0.009,0,0.018-0.001,0.026-0.001c0.009,0,0.018,0.001,0.026,0.001l0-0.003c1.13-0.028,2.415-0.331,5.19-0.9
		c1.273-0.261,3.142-0.441,4.966-0.541C500.293,321.165,499.578,321.109,499.578,321.109z"/>
	<path style="opacity:0.42;" fill="#FFFFFF" fill-opacity="0.7" d="
		M443.835,321.126c0,0-5.027-0.183-7.997-0.592c-4.345-0.597-6.319-0.911-8.082-0.932l0-0.001c-0.003,0-0.005,0-0.008,0
		c-15.09-0.746-22.788-3.743-30.695-3.748c-9.009-0.006-19.352,3.203-30.041,4.268c-0.015,0-0.031-0.001-0.046-0.001l0,0
		c-0.006,0-0.011,0-0.017,0c-0.006,0-0.011,0-0.017,0v0c-1.763,0.014-3.737,0.234-8.082,0.653c-2.97,0.286-7.997,0.415-7.997,0.415
		s-1.103,0.04,0.341,0.078c2.812,0.073,5.692,0.203,7.655,0.392c4.279,0.412,6.259,0.631,8.001,0.651l0,0.002
		c0.013,0,0.027,0,0.04,0c0.013,0,0.027,0,0.04,0v-0.001c0.006,0,0.011,0,0.017,0c0.006,0,0.011,0,0.017,0v0.001
		c0.013,0,0.027,0,0.04,0c0.013,0,0.027,0,0.04,0l0-0.002c0.262-0.003,0.53-0.011,0.809-0.023
		c10.176,1.024,20.319,3.948,29.081,3.953c7.891,0.005,15.745-2.647,30.9-3.511l0-0.004c1.742-0.029,3.722-0.342,8.001-0.929
		c1.963-0.269,4.844-0.456,7.655-0.559C444.939,321.184,443.835,321.126,443.835,321.126z"/>
	<path style="opacity:0.89;" fill="#FFFFFF" d="M363.96,321.489l4.763,0.002l0.003-0.685l-4.763-0.002
		L363.96,321.489z"/>
	<path style="opacity:0.89;" fill="#FFFFFF" d="M394.642,325.548l4.763,0.002l0.036-8.904l-4.763-0.002
		L394.642,325.548z"/>
	<path style="opacity:0.89;" fill="#FFFFFF" d="M425.355,321.831l4.763,0.002l0.006-1.37l-4.763-0.002
		L425.355,321.831z"/>
	<path style="opacity:0.89;" fill="#FFFFFF" d="M486.752,321.831l4.763,0.002l0.006-1.37l-4.763-0.002
		L486.752,321.831z"/>
	<path style="opacity:0.89;" fill="#FFFFFF" d="M640.24,322.516l4.763,0.002l0.011-2.74l-4.763-0.002
		L640.24,322.516z"/>
	<path style="opacity:0.42;" fill="#FFFFFF" fill-opacity="0.7" d="
		M277.452,268.497c-8.899-0.006-21.887-23.165-30.786-23.171c-8.899-0.006-22.175,18.463-31.074,18.457
		c-8.899-0.006-21.108-1.309-29.996-3.264c-8.912-1.96-21.98-15.187-30.903-15.193c-8.899-0.006-23.975,11.469-32.898,15.47
		c-8.924,4.001-20.048,8.749-28.948,8.744c-8.899-0.006-21.762-1.972-30.652-3.383c-8.915-1.414-19.673-2.576-28.585-4.476
		l0.177,23.292c8.935-1.889,19.707-3.17,28.639-4.573c8.908-1.399,21.521-3.27,30.421-3.264c8.899,0.006,19.783,4.771,28.658,8.783
		s23.956,15.246,32.855,15.252c8.924,0.006,22.154-12.947,31.09-14.896c8.911-1.943,21.243-3.329,30.142-3.323
		c8.899,0.006,21.842,18.451,30.742,18.457c8.899,0.006,22.16-23.173,31.06-23.167c4.998,0.003-1.627,0.049,1.668,0.124v-9.902
		C275.84,268.49,282.475,268.501,277.452,268.497z"/>
	<path style="opacity:0.42;" fill="#FFFFFF" fill-opacity="0.7" d="
		M611.929,269.055c-8.924-0.006-21.652-1.229-30.568-2.534c-8.891-1.302-21.93-8.529-30.829-8.535
		c-8.899-0.006-21.799,8.674-30.698,8.668c-8.899-0.006-22.063-23.066-30.962-23.071c-8.924-0.006-21.712,17.575-30.638,18.004
		c-8.902,0.427-21.8,0.106-30.702,0.533c-8.902,0.427-21.611,4.673-30.511,4.668c-8.899-0.006-21.803-18.265-30.702-18.27
		c-8.924-0.006-21.521,17.703-30.447,18.023c-1.149,0.848-0.554,13.111,1.27,13.529c8.922,0.331,20.125,17.986,29.049,17.992
		c8.899,0.006,22.131-18.143,31.03-18.137c8.899,0.006,21.621,4.295,30.518,4.734s21.725,0.095,30.622,0.533
		c8.921,0.44,21.851,17.931,30.774,17.937c8.899,0.006,22.153-23.077,31.052-23.071c8.899,0.006,21.444,8.596,30.343,8.602
		c8.899,0.006,21.603-7.445,30.511-8.735c8.932-1.294,22.097-2.006,31.021-2c8.899,0.006,19.561,1.218,28.448,3.173l0.062-15.528
		C631.662,267.512,620.829,269.06,611.929,269.055z"/>
	<path style="opacity:0.89;" fill="#FFFFFF" d="M29.021,284.978l4.766,0.002l0.092-23.292l-4.766-0.002
		L29.021,284.978z"/>
	<path style="opacity:0.89;" fill="#FFFFFF" d="M59.473,279.802l4.766,0.002l0.051-12.94l-4.766-0.002
		L59.473,279.802z"/>
	<path style="opacity:0.89;" fill="#FFFFFF" d="M90.451,276.567l4.766,0.002l0.026-6.47l-4.766-0.002
		L90.451,276.567z"/>
	<path style="opacity:0.89;" fill="#FFFFFF" d="M121.114,285.302l4.766,0.002l0.095-23.939l-4.766-0.002
		L121.114,285.302z"/>
	<path style="opacity:0.89;" fill="#FFFFFF" d="M151.618,300.506l4.766,0.002l0.216-54.348l-4.766-0.002
		L151.618,300.506z"/>
	<path style="opacity:0.89;" fill="#FFFFFF" d="M182.511,285.302l4.766,0.002l0.095-23.939l-4.766-0.002
		L182.511,285.302z"/>
	<path style="opacity:0.89;" fill="#FFFFFF" d="M213.173,282.39l4.766,0.002l0.072-18.116l-4.766-0.002
		L213.173,282.39z"/>
	<path style="opacity:0.89;" fill="#FFFFFF" d="M243.842,300.506l4.766,0.002l0.216-54.348l-4.766-0.002
		L243.842,300.506z"/>
	<path style="opacity:0.89;" fill="#FFFFFF" d="M274.634,278.185l4.766,0.002l0.039-9.705l-4.766-0.002
		L274.634,278.185z"/>
	<path style="opacity:0.89;" fill="#FFFFFF" d="M333.235,280.126l4.766,0.002l0.054-13.587l-4.766-0.002
		L333.235,280.126z"/>
	<path style="opacity:0.89;" fill="#FFFFFF" d="M363.867,296.948l4.766,0.002l0.187-47.231l-4.766-0.002
		L363.867,296.948z"/>
	<path style="opacity:0.89;" fill="#FFFFFF" d="M394.635,279.155l4.766,0.002l0.046-11.646l-4.766-0.002
		L394.635,279.155z"/>
	<path style="opacity:0.89;" fill="#FFFFFF" d="M425.316,283.684l4.766,0.002l0.082-20.704l-4.766-0.002
		L425.316,283.684z"/>
	<path style="opacity:0.89;" fill="#FFFFFF" d="M456.011,284.331l4.766,0.002l0.087-21.998l-4.766-0.002
		L456.011,284.331z"/>
	<path style="opacity:0.89;" fill="#FFFFFF" d="M486.639,302.124l4.766,0.002l0.228-57.583l-4.766-0.002
		L486.639,302.124z"/>
	<path style="opacity:0.89;" fill="#FFFFFF" d="M517.428,279.155l4.766,0.002l0.046-11.646l-4.766-0.002
		L517.428,279.155z"/>
	<path style="opacity:0.89;" fill="#FFFFFF" d="M548.092,287.89l4.766,0.002l0.115-29.115l-4.766-0.002
		L548.092,287.89z"/>
	<path style="opacity:0.89;" fill="#FFFFFF" d="M578.825,279.155l4.766,0.002l0.046-11.646l-4.766-0.002
		L578.825,279.155z"/>
	<path style="opacity:0.89;" fill="#FFFFFF" d="M609.531,277.214l4.766,0.002l0.031-7.764l-4.766-0.002
		L609.531,277.214z"/>
	<path style="opacity:0.89;" fill="#FFFFFF" d="M640.512,281.096l4.766,0.002l0.062-15.528l-4.766-0.002
		L640.512,281.096z"/>
	<path style="opacity:0.42;" fill="#FFFFFF" fill-opacity="0.7" d="
		M287.478,220.443c0,0-3.261-0.224-5.188-0.721c-2.819-0.728-4.099-1.111-5.243-1.136l0-0.001c-0.004,0-0.007,0-0.011,0
		c-0.004,0-0.007,0-0.011,0l0,0.001c-1.144,0.025-2.424,0.408-5.243,1.136c-1.927,0.498-5.188,0.721-5.188,0.721
		s-0.716,0.07,0.221,0.135c1.824,0.126,3.693,0.353,4.966,0.682c2.776,0.716,4.06,1.098,5.19,1.133l0,0.004
		c0.009,0,0.018-0.001,0.026-0.001c0.009,0,0.018,0.001,0.026,0.001v-0.001c0.004,0,0.007,0,0.011,0c0.004,0,0.007,0,0.011,0v0.001
		c0.009,0,0.018-0.001,0.026-0.001c0.009,0,0.018,0.001,0.026,0.001l0-0.004c1.13-0.035,2.415-0.417,5.19-1.133
		c1.273-0.329,3.142-0.556,4.966-0.682C288.193,220.513,287.478,220.443,287.478,220.443z"/>
	<path style="opacity:0.42;" fill="#FFFFFF" fill-opacity="0.7" d="
		M41.891,220.452c0,0-3.261-0.182-5.188-0.587c-2.819-0.592-4.099-0.904-5.243-0.924l0-0.001c-0.004,0-0.007,0-0.011,0
		c-0.004,0-0.007,0-0.011,0l0,0.001c-1.144,0.02-2.424,0.332-5.243,0.924c-1.927,0.405-5.188,0.587-5.188,0.587
		s-0.716,0.057,0.221,0.11c1.824,0.103,3.693,0.287,4.966,0.555c2.776,0.583,4.06,0.893,5.19,0.922l0,0.003
		c0.009,0,0.018-0.001,0.026-0.001c0.009,0,0.018,0.001,0.026,0.001v-0.001c0.004,0,0.007,0,0.011,0c0.004,0,0.007,0,0.011,0v0.001
		c0.009,0,0.018-0.001,0.026-0.001c0.009,0,0.018,0.001,0.026,0.001l0-0.003c1.13-0.029,2.415-0.339,5.19-0.922
		c1.273-0.267,3.142-0.452,4.966-0.555C42.607,220.509,41.891,220.452,41.891,220.452z"/>
	<path style="opacity:0.42;" fill="#FFFFFF" fill-opacity="0.7" d="
		M103.288,220.461c0,0-3.261-0.138-5.188-0.446c-2.819-0.451-4.099-0.688-5.243-0.703l0-0.001c-0.004,0-0.007,0-0.011,0
		c-0.004,0-0.007,0-0.011,0l0,0.001c-1.144,0.015-2.424,0.252-5.243,0.703c-1.927,0.308-5.188,0.446-5.188,0.446
		s-0.716,0.043,0.221,0.084c1.824,0.078,3.693,0.219,4.966,0.422c2.776,0.443,4.06,0.679,5.19,0.701l0,0.003
		c0.009,0,0.018,0,0.026,0c0.009,0,0.018,0,0.026,0v-0.001c0.004,0,0.007,0,0.011,0c0.004,0,0.007,0,0.011,0v0.001
		c0.009,0,0.018,0,0.026,0c0.009,0,0.018,0,0.026,0l0-0.003c1.13-0.022,2.415-0.258,5.19-0.701c1.273-0.203,3.142-0.344,4.966-0.422
		C104.004,220.504,103.288,220.461,103.288,220.461z"/>
	<path style="opacity:0.42;" fill="#FFFFFF" fill-opacity="0.7" d="
		M133.986,220.461c0,0-3.261-0.138-5.188-0.446c-2.819-0.451-4.099-0.688-5.243-0.703l0-0.001c-0.004,0-0.007,0-0.011,0
		c-0.004,0-0.007,0-0.011,0l0,0.001c-1.144,0.015-2.424,0.252-5.243,0.703c-1.927,0.308-5.188,0.446-5.188,0.446
		s-0.716,0.043,0.221,0.084c1.824,0.078,3.693,0.219,4.966,0.422c2.776,0.443,4.06,0.679,5.19,0.701l0,0.003
		c0.009,0,0.018,0,0.026,0c0.009,0,0.018,0,0.026,0v-0.001c0.004,0,0.007,0,0.011,0c0.004,0,0.007,0,0.011,0v0.001
		c0.009,0,0.018,0,0.026,0c0.009,0,0.018,0,0.026,0l0-0.003c1.13-0.022,2.415-0.258,5.19-0.701c1.273-0.203,3.142-0.344,4.966-0.422
		C134.702,220.504,133.986,220.461,133.986,220.461z"/>
	<path style="opacity:0.42;" fill="#FFFFFF" fill-opacity="0.7" d="
		M226.081,220.454c0,0-3.261-0.171-5.188-0.55c-2.819-0.556-4.099-0.848-5.243-0.867l0-0.001c-0.004,0-0.007,0-0.011,0
		c-0.004,0-0.007,0-0.011,0l0,0.001c-1.144,0.019-2.424,0.311-5.243,0.867c-0.46,0.091-0.996,0.169-1.545,0.236
		c-1.041,0.023-2.225,0.037-3.624,0.036c-8.265-0.004-19.464-1.903-19.98-1.916l0-0.001c-0.004,0-0.007,0-0.011,0
		c-0.004,0-0.007,0-0.011,0l0,0.001c-1.144,0.029-2.424,0.477-5.243,1.33c-1.927,0.583-5.188,0.844-5.188,0.844
		s-0.716,0.082,0.221,0.158c1.824,0.148,3.693,0.414,4.966,0.798c2.776,0.838,4.06,1.285,5.19,1.326l0,0.005
		c0.009,0,0.018-0.001,0.026-0.001c0.009,0,0.018,0.001,0.026,0.001v-0.002c0.004,0,0.007,0,0.011,0c0.004,0,0.007,0,0.011,0v0.002
		c0.009,0,0.018-0.001,0.026-0.001c0.009,0,0.018,0.001,0.026,0.001l0-0.005c0.498-0.018,11.656-1.895,19.925-1.891
		c1.479,0.001,2.79,0.024,3.967,0.059c0.438,0.058,0.847,0.122,1.205,0.192c2.776,0.546,4.06,0.837,5.19,0.864l0,0.003
		c0.009,0,0.018,0,0.026-0.001c0.009,0,0.018,0.001,0.026,0.001v-0.001c0.004,0,0.007,0,0.011,0c0.004,0,0.007,0,0.011,0v0.001
		c0.009,0,0.018,0,0.026-0.001c0.009,0,0.018,0.001,0.026,0.001l0-0.003c1.13-0.027,2.415-0.318,5.19-0.864
		c1.273-0.251,3.142-0.424,4.966-0.52C226.797,220.508,226.081,220.454,226.081,220.454z"/>
	<path style="opacity:0.42;" fill="#FFFFFF" fill-opacity="0.7" d="
		M611.929,217.442c-8.87-0.004-21.811-0.753-30.68-0.757c-8.845-0.004-21.87,2.347-30.716,2.559
		c-8.153,0.196-29.884-0.01-30.687-0.022l0-0.001c-0.004,0-0.007,0-0.011,0c-0.004,0-0.007,0-0.011,0l0,0.001
		c-1.144,0.017-2.424,0.271-5.243,0.756c-1.927,0.331-5.188,0.48-5.188,0.48s-0.716,0.047,0.221,0.09
		c1.824,0.084,3.693,0.235,4.966,0.454c2.776,0.477,4.06,0.731,5.19,0.754l0,0.003c0.009,0,0.018,0,0.026-0.001
		c0.009,0,0.018,0,0.026,0.001v-0.001c0.004,0,0.007,0,0.011,0c0.004,0,0.007,0,0.011,0v0.001c0.009,0,0.018,0,0.026-0.001
		c0.009,0,0.018,0,0.026,0.001l0-0.003c1.07-0.022,23.07-0.32,30.635-0.131c8.845,0.221,21.871,2.622,30.716,2.626
		c8.87,0.004,21.813-0.761,30.682-0.757c8.845,0.004,19.463,3.163,28.294,6.741l0.036-19.491
		C631.401,214.314,620.775,217.446,611.929,217.442z"/>
	<path style="opacity:0.42;" fill="#FFFFFF" fill-opacity="0.7" d="
		M458.433,219.489c-8.836-0.421-21.468-0.149-30.314-0.152c-30.407-0.014-25.599-0.665-30.622-0.667
		c-0.892,0,0.349-0.001-0.476-0.002c0,0.001,0,0.003,0,0.004c-1.141,0.025-2.422,0.391-5.234,1.085
		c-1.927,0.476-5.188,0.689-5.188,0.689s-0.716,0.067,0.221,0.129c1.824,0.121,3.693,0.338,4.966,0.652
		c2.776,0.684,4.06,1.049,5.19,1.083l0,0.004c0.009,0,0.018-0.001,0.026-0.001c0.009,0,0.018,0.001,0.026,0.001v-0.001
		c0.004,0,0.007,0,0.011,0c0.004,0,0.007,0,0.011,0v0.001c0.003,0,0.006,0,0.009,0c0,0.001,0,0.002,0,0.003c0.097,0,0.161,0,0.206,0
		c0.051,0,0.122,0,0.226,0c5.024,0.002,0.211-0.642,30.617-0.628c8.845,0.004,21.389-0.145,30.234-0.303
		c3.525-0.063,4.776-0.323,4.776-0.323c0.003-0.217,0.016-0.955,0.037-1.171C463.159,219.89,461.847,219.652,458.433,219.489z"/>
	<path style="opacity:0.89;" fill="#FFFFFF" d="M29.064,221.14l4.769,0.001l0.002-1.299l-4.769-0.001
		L29.064,221.14z"/>
	<path style="opacity:0.89;" fill="#FFFFFF" d="M90.462,220.815l4.769,0.001l0.001-0.65l-4.769-0.001
		L90.462,220.815z"/>
	<path style="opacity:0.89;" fill="#FFFFFF" d="M121.16,220.815l4.769,0.001l0.001-0.65l-4.769-0.001
		L121.16,220.815z"/>
	<path style="opacity:0.89;" fill="#FFFFFF" d="M182.462,222.114l4.769,0.001l0.006-3.248l-4.769-0.001
		L182.462,222.114z"/>
	<path style="opacity:0.89;" fill="#FFFFFF" d="M213.207,220.815l4.769,0.001l0.001-0.65l-4.769-0.001
		L213.207,220.815z"/>
	<path style="opacity:0.89;" fill="#FFFFFF" d="M274.65,221.465l4.769,0.001l0.004-1.949l-4.769-0.001
		L274.65,221.465z"/>
	<path style="opacity:0.89;" fill="#FFFFFF" d="M333.559,220.815l4.769,0.001l0.001-0.65l-4.769-0.001
		L333.559,220.815z"/>
	<path style="opacity:0.89;" fill="#FFFFFF" d="M394.655,221.465l4.769,0.001l0.004-1.949l-4.769-0.001
		L394.655,221.465z"/>
	<path style="opacity:0.89;" fill="#FFFFFF" d="M425.354,221.14l4.769,0.001l0.002-1.299l-4.769-0.001
		L425.354,221.14z"/>
	<path style="opacity:0.89;" fill="#FFFFFF" d="M456.053,220.815l4.769,0.001l0.001-0.65l-4.769-0.001
		L456.053,220.815z"/>
	<path style="opacity:0.89;" fill="#FFFFFF" d="M517.449,220.815l4.769,0.001l0.001-0.65l-4.769-0.001
		L517.449,220.815z"/>
	<path style="opacity:0.89;" fill="#FFFFFF" d="M548.147,221.14l4.769,0.001l0.002-1.299l-4.769-0.001
		L548.147,221.14z"/>
	<path style="opacity:0.89;" fill="#FFFFFF" d="M578.841,223.739l4.769,0.001l0.012-6.497l-4.769-0.001
		L578.841,223.739z"/>
	<path style="opacity:0.89;" fill="#FFFFFF" d="M609.54,223.089l4.769,0.001l0.01-5.197l-4.769-0.001
		L609.54,223.089z"/>
	<path style="opacity:0.89;" fill="#FFFFFF" d="M640.225,230.235l4.769,0.001l0.036-19.491l-4.769-0.001
		L640.225,230.235z"/>
	<path style="opacity:0.42;" fill="#FFFFFF" fill-opacity="0.7" d="M346.086,220.55c0,0-3.261-0.138-5.188-0.446
		c-2.819-0.451-4.099-0.688-5.243-0.703l0,0c-0.004,0-0.007,0-0.011,0c-0.004,0-0.007,0-0.011,0l0,0
		c-1.144,0.015-2.424,0.252-5.243,0.703c-1.927,0.308-5.188,0.446-5.188,0.446s-0.716,0.043,0.221,0.084
		c1.824,0.078,3.693,0.219,4.966,0.422c2.776,0.443,4.06,0.679,5.19,0.701l0,0.003c0.009,0,0.018,0,0.026,0c0.009,0,0.018,0,0.026,0
		v-0.001c0.004,0,0.007,0,0.011,0c0.004,0,0.007,0,0.011,0v0.001c0.009,0,0.018,0,0.026,0c0.009,0,0.018,0,0.026,0l0-0.003
		c1.13-0.022,2.415-0.258,5.19-0.701c1.273-0.203,3.142-0.344,4.966-0.422C346.802,220.593,346.086,220.55,346.086,220.55z"/>
</g>
<style>
#g-themes-medium-other-img rect, #g-themes-medium-other-img circle, #g-themes-medium-other-img path, #g-themes-medium-other-img line, #g-themes-medium-other-img polyline, #g-themes-medium-other-img polygon { vector-effect: non-scaling-stroke; }
</style>
</svg>

