<?xml version="1.0" encoding="utf-8"?>
<!-- Generator: Adobe Illustrator 27.4.0, SVG Export Plug-In . SVG Version: 6.00 Build 0)  -->
<svg version="1.2" baseProfile="tiny" id="g-themes-mobile-other-img"
	 xmlns="http://www.w3.org/2000/svg" xmlns:xlink="http://www.w3.org/1999/xlink" x="0px" y="0px" viewBox="0 0 300 350"
	 overflow="visible" xml:space="preserve">
<g>
	<path style="opacity:0.42;" fill="#FFFFFF" fill-opacity="0.7" d="
		M218.125,253.293c-3.116-3.649-7.618-23.471-11.735-23.272c-3.115,0.151-8.517,8.131-11.647,14.31
		c-3.13,6.18-7.478,22.301-10.595,22.881c-3.117,0.579-6.873,0.84-9.988,0.837c-3.124-0.002-6.804-0.749-9.925-2.352
		c-3.112-1.598-7.114-32.208-11.606-32.168c-3.674,0.033-7.633,26.351-10.749,26.349c-3.116-0.002-7.633-11.865-10.749-11.759
		c-3.511,0.12-8.804,24.176-9.9,25.688l-0.028,24.917c0.939,1.1,6.499,25.531,9.862,25.531c3.404,0,7.699-11.522,10.815-11.52
		c3.116,0.002,7.237,26.468,10.749,26.468c3.377,0,8.486-30.655,11.606-32.248c3.128-1.598,6.767-2.394,9.892-2.392
		c3.116,0.002,6.779,0.293,9.893,0.877c3.115,0.584,7.621,16.656,10.723,22.841c3.102,6.184,8.454,14.51,11.57,14.51
		c4.944,0,8.547-19.556,11.679-23.199c3.124-3.634,5.895-4.843,9.013-5.75l0.061-55.079
		C223.953,257.85,221.233,256.932,218.125,253.293z"/>
	<path style="opacity:0.42;" fill="#FFFFFF" fill-opacity="0.7" d="
		M99.032,281.845c0,0-6.805-4.885-9.921-4.888c-3.116-0.002-7.648,0.64-10.764,0.638c-3.116-0.002-6.544-46.758-10.677-46.758
		c-3.124,0-8.618,35.307-11.751,39.243c-3.125,3.925-6.682,3.994-9.801,5.482c-3.119,1.489-7.627,3.072-10.743,3.069
		c-3.116-0.002-7.663-3.226-10.779-3.229c-3.124-0.002-6.754,1.006-9.88,1.658l-0.02,18.36c3.123,0.657,6.816,1.665,9.941,1.667
		c3.116,0.002,7.582-3.191,10.698-3.189c3.116,0.002,7.727,1.735,10.839,3.229c3.112,1.493,6.537,1.372,9.644,5.302
		c3.116,3.941,8.641,39.344,11.766,39.344c3.288,0,7.709-46.96,10.825-46.957c3.116,0.002,7.587,0.954,10.703,0.957
		c3.116,0.002,9.911-5.199,9.911-5.199L99.032,281.845z"/>
	<path style="opacity:0.89;" fill="#FFFFFF" d="M13.027,295.429l1.669,0.001l0.02-18.36l-1.669-0.001
		L13.027,295.429z"/>
	<path style="opacity:0.89;" fill="#FFFFFF" d="M23.775,296.743l1.669,0.001l0.023-20.983l-1.669-0.001
		L23.775,296.743z"/>
	<path style="opacity:0.89;" fill="#FFFFFF" d="M34.527,293.468l1.669,0.001l0.016-14.426l-1.669-0.001
		L34.527,293.468z"/>
	<path style="opacity:0.89;" fill="#FFFFFF" d="M45.272,296.531l1.669,0.001l0.023-20.545l-1.669-0.001
		L45.272,296.531z"/>
	<path style="opacity:0.89;" fill="#FFFFFF" d="M56.014,302.435l1.669,0.001l0.036-32.348l-1.669-0.001
		L56.014,302.435z"/>
	<path style="opacity:0.89;" fill="#FFFFFF" d="M66.688,340.688l1.669,0.001l0.121-108.847l-1.669-0.001
		L66.688,340.688z"/>
	<path style="opacity:0.89;" fill="#FFFFFF" d="M77.504,294.355l1.669,0.001l0.018-16.174l-1.669-0.001
		L77.504,294.355z"/>
	<path style="opacity:0.89;" fill="#FFFFFF" d="M88.269,295.232l1.669,0.001l0.02-17.923l-1.669-0.001
		L88.269,295.232z"/>
	<path style="opacity:0.89;" fill="#FFFFFF" d="M99.022,290.645l1.669,0.001l0.01-8.743l-1.669-0.001
		L99.022,290.645z"/>
	<path style="opacity:0.89;" fill="#FFFFFF" d="M119.535,298.744l1.669,0.001l0.028-24.917l-1.669-0.001
		L119.535,298.744z"/>
	<path style="opacity:0.89;" fill="#FFFFFF" d="M130.256,323.664l1.669,0.001l0.083-74.75l-1.669-0.001
		L130.256,323.664z"/>
	<path style="opacity:0.89;" fill="#FFFFFF" d="M141.017,312.302l1.669,0.001l0.058-52.019l-1.669-0.001
		L141.017,312.302z"/>
	<path style="opacity:0.89;" fill="#FFFFFF" d="M151.737,338.533l1.669,0.001l0.116-104.476l-1.669-0.001
		L151.737,338.533z"/>
	<path style="opacity:0.89;" fill="#FFFFFF" d="M162.521,306.625l1.669,0.001l0.045-40.654l-1.669-0.001
		L162.521,306.625z"/>
	<path style="opacity:0.89;" fill="#FFFFFF" d="M173.272,304.224l1.669,0.001l0.04-35.845l-1.669-0.001
		L173.272,304.224z"/>
	<path style="opacity:0.89;" fill="#FFFFFF" d="M184.02,305.101l1.669,0.001l0.042-37.594l-1.669-0.001
		L184.02,305.101z"/>
	<path style="opacity:0.89;" fill="#FFFFFF" d="M194.743,328.054l1.669,0.001l0.093-83.493l-1.669-0.001
		L194.743,328.054z"/>
	<path style="opacity:0.89;" fill="#FFFFFF" d="M205.493,342.394l1.669,0.001l0.124-111.907l-1.669-0.001
		L205.493,342.394z"/>
	<path style="opacity:0.89;" fill="#FFFFFF" d="M216.251,319.318l1.669,0.001l0.073-66.008l-1.669-0.001
		L216.251,319.318z"/>
	<path style="opacity:0.89;" fill="#FFFFFF" d="M227.005,313.856l1.669,0.001l0.061-55.079l-1.669-0.001
		L227.005,313.856z"/>
	<path style="opacity:0.42;" fill="#FFFFFF" fill-opacity="0.7" d="
		M231.526,229.54c0,0-1.142-0.193-1.816-0.624c-0.987-0.63-1.435-0.961-1.836-0.982l0-0.001c-0.001,0-0.003,0-0.004,0
		c-0.001,0-0.003,0-0.004,0l0,0.001c-0.4,0.021-0.849,0.353-1.836,0.982c-0.675,0.43-1.816,0.624-1.816,0.624
		s-0.251,0.061,0.078,0.117c0.639,0.109,1.293,0.306,1.739,0.59c0.972,0.619,1.422,0.949,1.817,0.98l0,0.004
		c0.003,0,0.006-0.001,0.009-0.001c0.003,0,0.006,0.001,0.009,0.001v-0.001c0.001,0,0.003,0,0.004,0c0.001,0,0.003,0,0.004,0v0.001
		c0.003,0,0.006-0.001,0.009-0.001c0.003,0,0.006,0.001,0.009,0.001l0-0.004c0.396-0.031,0.845-0.36,1.817-0.98
		c0.446-0.284,1.1-0.48,1.739-0.59C231.777,229.6,231.526,229.54,231.526,229.54z"/>
	<path style="opacity:0.42;" fill="#FFFFFF" fill-opacity="0.7" d="
		M177.783,229.527c0,0-1.142-0.119-1.816-0.385c-0.987-0.388-1.435-0.593-1.836-0.606l0,0c-0.001,0-0.003,0-0.004,0
		c-0.001,0-0.003,0-0.004,0l0,0c-0.4,0.013-0.849,0.217-1.836,0.606c-0.675,0.265-1.816,0.385-1.816,0.385s-0.251,0.037,0.078,0.072
		c0.639,0.067,1.293,0.188,1.739,0.364c0.972,0.382,1.422,0.585,1.817,0.604l0,0.002c0.003,0,0.006,0,0.009,0
		c0.003,0,0.006,0,0.009,0v-0.001c0.001,0,0.003,0,0.004,0c0.001,0,0.003,0,0.004,0v0.001c0.003,0,0.006,0,0.009,0
		c0.003,0,0.006,0,0.009,0l0-0.002c0.396-0.019,0.845-0.222,1.817-0.604c0.446-0.175,1.1-0.296,1.739-0.364
		C178.033,229.564,177.783,229.527,177.783,229.527z"/>
	<path style="opacity:0.42;" fill="#FFFFFF" fill-opacity="0.7" d="
		M158.265,229.538c0,0-1.76-0.123-2.8-0.397c-1.521-0.401-2.213-0.612-2.83-0.626l0,0c-0.001,0-0.002,0-0.003,0
		c-5.284-0.501-7.979-2.514-10.748-2.518c-3.155-0.004-6.776,2.151-10.519,2.866c-0.005,0-0.011,0-0.016,0l0,0
		c-0.002,0-0.004,0-0.006,0c-0.002,0-0.004,0-0.006,0v0c-0.617,0.01-1.308,0.157-2.83,0.439c-1.04,0.192-2.8,0.279-2.8,0.279
		s-0.386,0.027,0.12,0.052c0.985,0.049,1.993,0.136,2.68,0.263c1.498,0.277,2.191,0.424,2.802,0.438l0,0.002
		c0.005,0,0.009,0,0.014,0c0.005,0,0.009,0,0.014,0v-0.001c0.002,0,0.004,0,0.006,0c0.002,0,0.004,0,0.006,0v0.001
		c0.005,0,0.009,0,0.014,0c0.005,0,0.009,0,0.014,0l0-0.002c0.092-0.002,0.186-0.007,0.283-0.016
		c3.563,0.688,7.115,2.651,10.182,2.655c2.763,0.003,5.513-1.778,10.819-2.358l0-0.002c0.61-0.019,1.303-0.23,2.802-0.624
		c0.687-0.181,1.696-0.306,2.68-0.376C158.651,229.576,158.265,229.538,158.265,229.538z"/>
	<path style="opacity:0.89;" fill="#FFFFFF" d="M130.297,229.782l1.668,0.001l0.001-0.46l-1.668-0.001
		L130.297,229.782z"/>
	<path style="opacity:0.89;" fill="#FFFFFF" d="M141.04,232.508l1.668,0.001l0.013-5.981l-1.668-0.001
		L141.04,232.508z"/>
	<path style="opacity:0.89;" fill="#FFFFFF" d="M151.794,230.012l1.668,0.001l0.002-0.92l-1.668-0.001
		L151.794,230.012z"/>
	<path style="opacity:0.89;" fill="#FFFFFF" d="M173.292,230.012l1.668,0.001l0.002-0.92l-1.668-0.001
		L173.292,230.012z"/>
	<path style="opacity:0.89;" fill="#FFFFFF" d="M227.035,230.472l1.668,0.001l0.004-1.84l-1.668-0.001
		L227.035,230.472z"/>
	<path style="opacity:0.42;" fill="#FFFFFF" fill-opacity="0.7" d="
		M100.007,194.189c-3.116-0.004-7.663-15.559-10.78-15.563c-3.116-0.004-7.764,12.401-10.88,12.397
		c-3.116-0.004-7.391-0.879-10.503-2.192c-3.12-1.317-7.696-10.201-10.821-10.205c-3.116-0.004-8.395,7.703-11.519,10.391
		c-3.125,2.687-7.02,5.877-10.136,5.873c-3.116-0.004-7.62-1.325-10.733-2.272c-3.122-0.95-6.888-1.73-10.009-3.006l0.062,15.645
		c3.129-1.269,6.9-2.129,10.028-3.072c3.119-0.94,7.536-2.196,10.652-2.192c3.116,0.004,6.927,3.205,10.034,5.9
		c3.108,2.695,8.388,10.241,11.504,10.244c3.125,0.004,7.757-8.696,10.886-10.005c3.12-1.305,7.438-2.236,10.554-2.232
		c3.116,0.004,7.648,12.393,10.764,12.397c3.116,0.004,7.759-15.564,10.875-15.561c1.75,0.002-0.57,0.033,0.584,0.084v-6.651
		C99.443,194.183,101.766,194.191,100.007,194.189z"/>
	<path style="opacity:0.42;" fill="#FFFFFF" fill-opacity="0.7" d="
		M217.122,194.563c-3.125-0.004-7.581-0.825-10.703-1.702c-3.113-0.874-7.678-5.729-10.795-5.733
		c-3.116-0.004-7.633,5.826-10.749,5.822c-3.116-0.004-7.725-15.493-10.841-15.497c-3.125-0.004-7.602,11.805-10.728,12.093
		c-3.117,0.287-7.633,0.071-10.75,0.358c-3.117,0.287-7.567,3.139-10.683,3.135s-7.634-12.268-10.75-12.272
		c-3.125-0.004-7.535,11.891-10.661,12.105c-0.402,0.569-0.194,8.806,0.445,9.087c3.124,0.223,7.047,12.081,10.171,12.085
		c3.116,0.004,7.749-12.186,10.865-12.182c3.116,0.004,7.57,2.885,10.686,3.18c3.115,0.295,7.607,0.064,10.722,0.358
		c3.124,0.296,7.651,12.044,10.775,12.048c3.116,0.004,7.757-15.5,10.873-15.497c3.116,0.004,7.508,5.774,10.624,5.778
		c3.116,0.004,7.564-5.001,10.683-5.867c3.127-0.869,7.737-1.348,10.862-1.344c3.116,0.004,6.849,0.818,9.961,2.131l0.022-10.43
		C224.031,193.526,220.238,194.567,217.122,194.563z"/>
	<path style="opacity:0.89;" fill="#FFFFFF" d="M13.021,205.258l1.669,0.001l0.032-15.645l-1.669-0.001
		L13.021,205.258z"/>
	<path style="opacity:0.89;" fill="#FFFFFF" d="M23.684,201.782l1.669,0.001l0.018-8.691l-1.669-0.001
		L23.684,201.782z"/>
	<path style="opacity:0.89;" fill="#FFFFFF" d="M34.531,199.609l1.669,0.001l0.009-4.346l-1.669-0.001
		L34.531,199.609z"/>
	<path style="opacity:0.89;" fill="#FFFFFF" d="M45.267,205.476l1.669,0.001l0.033-16.079l-1.669-0.001
		L45.267,205.476z"/>
	<path style="opacity:0.89;" fill="#FFFFFF" d="M55.948,215.688l1.669,0.001l0.075-36.504l-1.669-0.001
		L55.948,215.688z"/>
	<path style="opacity:0.89;" fill="#FFFFFF" d="M66.765,205.476l1.669,0.001l0.033-16.079l-1.669-0.001
		L66.765,205.476z"/>
	<path style="opacity:0.89;" fill="#FFFFFF" d="M77.501,203.52l1.669,0.001l0.025-12.168l-1.669-0.001
		L77.501,203.52z"/>
	<path style="opacity:0.89;" fill="#FFFFFF" d="M88.239,215.688l1.669,0.001l0.075-36.504l-1.669-0.001
		L88.239,215.688z"/>
	<path style="opacity:0.89;" fill="#FFFFFF" d="M99.021,200.695l1.669,0.001l0.013-6.519l-1.669-0.001
		L99.021,200.695z"/>
	<path style="opacity:0.89;" fill="#FFFFFF" d="M119.539,201.999l1.669,0.001l0.019-9.126l-1.669-0.001
		L119.539,201.999z"/>
	<path style="opacity:0.89;" fill="#FFFFFF" d="M130.265,213.298l1.669,0.001l0.066-31.724l-1.669-0.001
		L130.265,213.298z"/>
	<path style="opacity:0.89;" fill="#FFFFFF" d="M141.038,201.347l1.669,0.001l0.016-7.822l-1.669-0.001
		L141.038,201.347z"/>
	<path style="opacity:0.89;" fill="#FFFFFF" d="M151.781,204.389l1.669,0.001l0.029-13.906l-1.669-0.001
		L151.781,204.389z"/>
	<path style="opacity:0.89;" fill="#FFFFFF" d="M162.528,204.824l1.669,0.001l0.031-14.776l-1.669-0.001
		L162.528,204.824z"/>
	<path style="opacity:0.89;" fill="#FFFFFF" d="M173.252,216.774l1.669,0.001l0.08-38.677l-1.669-0.001
		L173.252,216.774z"/>
	<path style="opacity:0.89;" fill="#FFFFFF" d="M184.033,201.347l1.669,0.001l0.016-7.822l-1.669-0.001
		L184.033,201.347z"/>
	<path style="opacity:0.89;" fill="#FFFFFF" d="M194.77,207.214l1.669,0.001l0.04-19.556l-1.669-0.001
		L194.77,207.214z"/>
	<path style="opacity:0.89;" fill="#FFFFFF" d="M205.53,201.347l1.669,0.001l0.016-7.822l-1.669-0.001
		L205.53,201.347z"/>
	<path style="opacity:0.89;" fill="#FFFFFF" d="M216.282,200.043l1.669,0.001l0.011-5.215l-1.669-0.001
		L216.282,200.043z"/>
	<path style="opacity:0.89;" fill="#FFFFFF" d="M227.13,202.651l1.669,0.001l0.022-10.43l-1.669-0.001
		L227.13,202.651z"/>
	<path style="opacity:0.42;" fill="#FFFFFF" fill-opacity="0.7" d="
		M103.518,161.911c0,0-1.142-0.15-1.816-0.484c-0.987-0.489-1.435-0.746-1.836-0.763l0-0.001c-0.001,0-0.003,0-0.004,0
		c-0.001,0-0.003,0-0.004,0l0,0.001c-0.4,0.017-0.849,0.274-1.836,0.763c-0.675,0.334-1.816,0.484-1.816,0.484
		s-0.251,0.047,0.078,0.091c0.639,0.085,1.293,0.237,1.739,0.458c0.972,0.481,1.422,0.737,1.817,0.761l0,0.003
		c0.003,0,0.006,0,0.009-0.001c0.003,0,0.006,0,0.009,0.001v-0.001c0.001,0,0.003,0,0.004,0c0.001,0,0.003,0,0.004,0v0.001
		c0.003,0,0.006,0,0.009-0.001c0.003,0,0.006,0,0.009,0.001l0-0.003c0.396-0.024,0.845-0.28,1.817-0.761
		c0.446-0.221,1.1-0.373,1.739-0.458C103.768,161.958,103.518,161.911,103.518,161.911z"/>
	<path style="opacity:0.42;" fill="#FFFFFF" fill-opacity="0.7" d="
		M17.528,161.917c0,0-1.142-0.122-1.816-0.394c-0.987-0.398-1.435-0.607-1.836-0.621l0,0c-0.001,0-0.003,0-0.004,0
		c-0.001,0-0.003,0-0.004,0l0,0c-0.4,0.014-0.849,0.223-1.836,0.621c-0.675,0.272-1.816,0.394-1.816,0.394s-0.251,0.038,0.078,0.074
		c0.639,0.069,1.293,0.193,1.739,0.373c0.972,0.391,1.422,0.6,1.817,0.619l0,0.002c0.003,0,0.006,0,0.009,0c0.003,0,0.006,0,0.009,0
		v-0.001c0.001,0,0.003,0,0.004,0c0.001,0,0.003,0,0.004,0v0.001c0.003,0,0.006,0,0.009,0c0.003,0,0.006,0,0.009,0l0-0.002
		c0.396-0.019,0.845-0.228,1.817-0.619c0.446-0.18,1.1-0.304,1.739-0.373C17.779,161.956,17.528,161.917,17.528,161.917z"/>
	<path style="opacity:0.42;" fill="#FFFFFF" fill-opacity="0.7" d="
		M39.025,161.924c0,0-1.142-0.093-1.816-0.3c-0.987-0.303-1.435-0.462-1.836-0.472l0,0c-0.001,0-0.003,0-0.004,0
		c-0.001,0-0.003,0-0.004,0l0,0c-0.4,0.01-0.849,0.169-1.836,0.472c-0.675,0.207-1.816,0.3-1.816,0.3s-0.251,0.029,0.078,0.056
		c0.639,0.053,1.293,0.147,1.739,0.283c0.972,0.298,1.422,0.456,1.817,0.471l0,0.002c0.003,0,0.006,0,0.009,0
		c0.003,0,0.006,0,0.009,0v-0.001c0.001,0,0.003,0,0.004,0c0.001,0,0.003,0,0.004,0v0.001c0.003,0,0.006,0,0.009,0
		c0.003,0,0.006,0,0.009,0l0-0.002c0.396-0.015,0.845-0.173,1.817-0.471c0.446-0.137,1.1-0.231,1.739-0.283
		C39.276,161.953,39.025,161.924,39.025,161.924z"/>
	<path style="opacity:0.42;" fill="#FFFFFF" fill-opacity="0.7" d="
		M49.774,161.924c0,0-1.142-0.093-1.816-0.3c-0.987-0.303-1.435-0.462-1.836-0.472l0,0c-0.001,0-0.003,0-0.004,0
		c-0.001,0-0.003,0-0.004,0l0,0c-0.4,0.01-0.849,0.169-1.836,0.472c-0.675,0.207-1.816,0.3-1.816,0.3s-0.251,0.029,0.078,0.056
		c0.639,0.053,1.293,0.147,1.739,0.283c0.972,0.298,1.422,0.456,1.817,0.471l0,0.002c0.003,0,0.006,0,0.009,0
		c0.003,0,0.006,0,0.009,0v-0.001c0.001,0,0.003,0,0.004,0c0.001,0,0.003,0,0.004,0v0.001c0.003,0,0.006,0,0.009,0
		c0.003,0,0.006,0,0.009,0l0-0.002c0.396-0.015,0.845-0.173,1.817-0.471c0.446-0.137,1.1-0.231,1.739-0.283
		C50.025,161.953,49.774,161.924,49.774,161.924z"/>
	<path style="opacity:0.42;" fill="#FFFFFF" fill-opacity="0.7" d="M82.02,161.919
		c0,0-1.142-0.115-1.816-0.37c-0.987-0.373-1.435-0.569-1.836-0.582l0,0c-0.001,0-0.003,0-0.004,0c-0.001,0-0.003,0-0.004,0l0,0
		c-0.4,0.013-0.849,0.209-1.836,0.582c-0.161,0.061-0.349,0.113-0.541,0.159c-0.365,0.015-0.779,0.025-1.269,0.024
		c-2.894-0.002-6.815-1.278-6.996-1.287l0-0.001c-0.001,0-0.003,0-0.004,0c-0.001,0-0.003,0-0.004,0l0,0.001
		c-0.4,0.02-0.849,0.321-1.836,0.893c-0.675,0.391-1.816,0.567-1.816,0.567s-0.251,0.055,0.078,0.106
		c0.639,0.099,1.293,0.278,1.739,0.536c0.972,0.563,1.422,0.863,1.817,0.891l0,0.003c0.003,0,0.006-0.001,0.009-0.001
		c0.003,0,0.006,0.001,0.009,0.001v-0.001c0.001,0,0.003,0,0.004,0c0.001,0,0.003,0,0.004,0v0.001c0.003,0,0.006-0.001,0.009-0.001
		c0.003,0,0.006,0.001,0.009,0.001l0-0.003c0.175-0.012,4.081-1.273,6.977-1.27c0.518,0,0.977,0.016,1.389,0.039
		c0.153,0.039,0.297,0.082,0.422,0.129c0.972,0.367,1.422,0.562,1.817,0.58l0,0.002c0.003,0,0.006,0,0.009,0
		c0.003,0,0.006,0,0.009,0v-0.001c0.001,0,0.003,0,0.004,0c0.001,0,0.003,0,0.004,0v0.001c0.003,0,0.006,0,0.009,0
		c0.003,0,0.006,0,0.009,0l0-0.002c0.396-0.018,0.845-0.214,1.817-0.58c0.446-0.168,1.1-0.285,1.739-0.349
		C82.271,161.955,82.02,161.919,82.02,161.919z"/>
	<path style="opacity:0.42;" fill="#FFFFFF" fill-opacity="0.7" d="
		M217.122,159.896c-3.106-0.003-7.637-0.506-10.742-0.508c-3.097-0.003-7.658,1.576-10.755,1.719
		c-2.855,0.132-10.464-0.007-10.745-0.015l0,0c-0.001,0-0.003,0-0.004,0c-0.001,0-0.003,0-0.004,0l0,0
		c-0.4,0.011-0.849,0.182-1.836,0.508c-0.675,0.223-1.816,0.322-1.816,0.322s-0.251,0.031,0.078,0.06
		c0.639,0.057,1.293,0.158,1.739,0.305c0.972,0.32,1.422,0.491,1.817,0.507l0,0.002c0.003,0,0.006,0,0.009,0
		c0.003,0,0.006,0,0.009,0v-0.001c0.001,0,0.003,0,0.004,0c0.001,0,0.003,0,0.004,0v0.001c0.003,0,0.006,0,0.009,0
		c0.003,0,0.006,0,0.009,0l0-0.002c0.375-0.015,8.078-0.215,10.727-0.088c3.097,0.148,7.658,1.761,10.755,1.764
		c3.106,0.003,7.638-0.511,10.743-0.508c3.097,0.003,6.815,2.125,9.907,4.527l0.012-13.091
		C223.94,157.795,220.219,159.898,217.122,159.896z"/>
	<path style="opacity:0.42;" fill="#FFFFFF" fill-opacity="0.7" d="
		M163.376,161.271c-3.094-0.283-7.517-0.1-10.614-0.102c-10.647-0.009-8.963-0.447-10.722-0.448c-0.312,0,0.122-0.001-0.167-0.002
		c0,0,0,0.002,0,0.002c-0.4,0.017-0.848,0.263-1.833,0.729c-0.675,0.319-1.816,0.463-1.816,0.463s-0.251,0.045,0.078,0.087
		c0.639,0.081,1.293,0.227,1.739,0.438c0.972,0.46,1.422,0.705,1.817,0.727l0,0.003c0.003,0,0.006,0,0.009,0
		c0.003,0,0.006,0,0.009,0v-0.001c0.001,0,0.003,0,0.004,0c0.001,0,0.003,0,0.004,0v0.001c0.001,0,0.002,0,0.003,0
		c0,0,0,0.001,0,0.002c0.034,0,0.056,0,0.072,0c0.018,0,0.043,0,0.079,0c1.759,0.001,0.074-0.431,10.72-0.422
		c3.097,0.003,7.489-0.097,10.586-0.204c1.234-0.043,1.672-0.217,1.672-0.217c0.001-0.146,0.006-0.641,0.013-0.786
		C165.031,161.54,164.572,161.38,163.376,161.271z"/>
	<path style="opacity:0.89;" fill="#FFFFFF" d="M13.037,162.38l1.67,0.001l0.001-0.873l-1.67-0.001
		L13.037,162.38z"/>
	<path style="opacity:0.89;" fill="#FFFFFF" d="M34.534,162.161l1.67,0.001l0-0.436l-1.67-0.001
		L34.534,162.161z"/>
	<path style="opacity:0.89;" fill="#FFFFFF" d="M45.283,162.161l1.67,0.001l0-0.436l-1.67-0.001
		L45.283,162.161z"/>
	<path style="opacity:0.89;" fill="#FFFFFF" d="M66.748,163.034l1.67,0.001l0.002-2.182l-1.67-0.001
		L66.748,163.034z"/>
	<path style="opacity:0.89;" fill="#FFFFFF" d="M77.512,162.161l1.67,0.001l0-0.436l-1.67-0.001
		L77.512,162.161z"/>
	<path style="opacity:0.89;" fill="#FFFFFF" d="M99.026,162.598l1.67,0.001l0.001-1.309l-1.67-0.001
		L99.026,162.598z"/>
	<path style="opacity:0.89;" fill="#FFFFFF" d="M119.653,162.161l1.67,0.001l0-0.436l-1.67-0.001
		L119.653,162.161z"/>
	<path style="opacity:0.89;" fill="#FFFFFF" d="M141.045,162.598l1.67,0.001l0.001-1.309l-1.67-0.001
		L141.045,162.598z"/>
	<path style="opacity:0.89;" fill="#FFFFFF" d="M151.794,162.38l1.67,0.001l0.001-0.873l-1.67-0.001
		L151.794,162.38z"/>
	<path style="opacity:0.89;" fill="#FFFFFF" d="M162.543,162.161l1.67,0.001l0-0.436l-1.67-0.001
		L162.543,162.161z"/>
	<path style="opacity:0.89;" fill="#FFFFFF" d="M184.04,162.161l1.67,0.001l0-0.436l-1.67-0.001
		L184.04,162.161z"/>
	<path style="opacity:0.89;" fill="#FFFFFF" d="M194.789,162.38l1.67,0.001l0.001-0.873l-1.67-0.001
		L194.789,162.38z"/>
	<path style="opacity:0.89;" fill="#FFFFFF" d="M205.536,164.125l1.67,0.001l0.004-4.364l-1.67-0.001
		L205.536,164.125z"/>
	<path style="opacity:0.89;" fill="#FFFFFF" d="M216.285,163.689l1.67,0.001l0.003-3.491l-1.67-0.001
		L216.285,163.689z"/>
	<path style="opacity:0.89;" fill="#FFFFFF" d="M227.029,168.489l1.67,0.001l0.012-13.091l-1.67-0.001
		L227.029,168.489z"/>
	<path style="opacity:0.42;" fill="#FFFFFF" fill-opacity="0.7" d="M124.039,161.983c0,0-1.142-0.093-1.816-0.3
		c-0.987-0.303-1.435-0.462-1.836-0.472l0,0c-0.001,0-0.003,0-0.004,0c-0.001,0-0.003,0-0.004,0l0,0
		c-0.4,0.01-0.849,0.169-1.836,0.472c-0.675,0.207-1.816,0.3-1.816,0.3s-0.251,0.029,0.078,0.056
		c0.639,0.053,1.293,0.147,1.739,0.284c0.972,0.298,1.422,0.456,1.817,0.471l0,0.002c0.003,0,0.006,0,0.009,0
		c0.003,0,0.006,0,0.009,0v-0.001c0.001,0,0.003,0,0.004,0c0.001,0,0.003,0,0.004,0v0.001c0.003,0,0.006,0,0.009,0
		c0.003,0,0.006,0,0.009,0l0-0.002c0.396-0.015,0.845-0.173,1.817-0.471c0.446-0.137,1.1-0.231,1.739-0.284
		C124.29,162.013,124.039,161.983,124.039,161.983z"/>
</g>
<style>
#g-themes-mobile-other-img rect, #g-themes-mobile-other-img circle, #g-themes-mobile-other-img path, #g-themes-mobile-other-img line, #g-themes-mobile-other-img polyline, #g-themes-mobile-other-img polygon { vector-effect: non-scaling-stroke; }
</style>
</svg>

