<?xml version="1.0" encoding="utf-8"?>
<!-- Generator: Adobe Illustrator 27.4.0, SVG Export Plug-In . SVG Version: 6.00 Build 0)  -->
<svg version="1.2" baseProfile="tiny" id="g-themes-mobile-traditional_values-img"
	 xmlns="http://www.w3.org/2000/svg" xmlns:xlink="http://www.w3.org/1999/xlink" x="0px" y="0px" viewBox="0 0 300 350"
	 overflow="visible" xml:space="preserve">
<g>
	<path style="opacity:0.42;" fill="#FFFFFF" fill-opacity="0.7" d="
		M217.112,71.837c-3.135,0.69-7.58,1.557-10.713,1.555c-3.125-0.002-7.658-0.954-10.783-0.957c-3.125-0.002-7.612-0.077-10.737-0.08
		c-3.125-0.002-7.593,0.521-10.719,0.518c-3.134-0.002-7.635-0.037-10.769-0.04c-3.125-0.002-7.633-0.018-10.758-0.02
		c-3.125-0.002-7.627-0.914-10.752-0.917c-3.125-0.002-7.623,0.335-10.749,0.478c-2.715,0.124-10.444,0.354-10.745,0.339l0-0.001
		c-0.001,0-0.003,0-0.004,0c-0.001,0-0.003,0-0.004,0l0,0.001c-0.4,0.019-0.849-0.01-1.836,0.563
		c-0.675,0.391-1.816,0.567-1.816,0.567s-0.251,0.055,0.078,0.106c0.639,0.099,1.293,0.278,1.739,0.536
		c0.972,0.563,1.422,0.568,1.817,0.595l0,0.003c0.003,0,0.006,0,0.009-0.001c0.003,0,0.006,0.001,0.009,0.001v-0.001
		c0.001,0,0.003,0,0.004,0c0.001,0,0.003,0,0.004,0v0.001c0.003,0,0.006,0,0.009-0.001c0.003,0,0.006,0.001,0.009,0.001l0-0.003
		c0.335-0.024,8.08,0.177,10.727,0.302c3.125,0.148,7.624,0.456,10.749,0.458c3.125,0.002,7.627-0.919,10.752-0.917
		c3.125,0.002,7.62-0.002,10.745,0c3.134,0.002,7.648-0.062,10.782-0.06c3.125,0.002,7.588,0.496,10.713,0.498
		c3.125,0.002,7.598,0.017,10.723,0.02c3.125,0.002,7.677-1.019,10.802-1.016c3.134,0.002,7.623,0.86,10.755,1.555
		c3.124,0.693,6.745,1.138,9.868,2.105l0.019-8.291C223.913,70.698,220.239,71.149,217.112,71.837z"/>
	<path style="opacity:0.89;" fill="#FFFFFF" d="M66.88,74.09l1.67,0.001l0-0.415l-1.67-0.001L66.88,74.09z"/>
	<path style="opacity:0.89;" fill="#FFFFFF" d="M77.629,74.09l1.67,0.001l0-0.415l-1.67-0.001L77.629,74.09z"
		/>
	<path style="opacity:0.89;" fill="#FFFFFF" d="M119.547,74.711l1.67,0.001l0.002-1.658l-1.67-0.001
		L119.547,74.711z"/>
	<path style="opacity:0.89;" fill="#FFFFFF" d="M130.296,75.126l1.67,0.001l0.003-2.487l-1.67-0.001
		L130.296,75.126z"/>
	<path style="opacity:0.89;" fill="#FFFFFF" d="M141.044,75.541l1.67,0.001l0.004-3.316l-1.67-0.001
		L141.044,75.541z"/>
	<path style="opacity:0.89;" fill="#FFFFFF" d="M151.793,74.711l1.67,0.001l0.002-1.658l-1.67-0.001
		L151.793,74.711z"/>
	<path style="opacity:0.89;" fill="#FFFFFF" d="M162.542,74.711l1.67,0.001l0.002-1.658l-1.67-0.001
		L162.542,74.711z"/>
	<path style="opacity:0.89;" fill="#FFFFFF" d="M173.291,74.711l1.67,0.001l0.002-1.658l-1.67-0.001
		L173.291,74.711z"/>
	<path style="opacity:0.89;" fill="#FFFFFF" d="M184.039,75.126l1.67,0.001l0.003-2.487l-1.67-0.001
		L184.039,75.126z"/>
	<path style="opacity:0.89;" fill="#FFFFFF" d="M194.788,75.126l1.67,0.001l0.003-2.487l-1.67-0.001
		L194.788,75.126z"/>
	<path style="opacity:0.89;" fill="#FFFFFF" d="M205.538,74.09l1.67,0.001l0-0.415l-1.67-0.001L205.538,74.09
		z"/>
	<path style="opacity:0.89;" fill="#FFFFFF" d="M216.285,75.541l1.67,0.001l0.004-3.316l-1.67-0.001
		L216.285,75.541z"/>
	<path style="opacity:0.89;" fill="#FFFFFF" d="M227.031,78.028l1.67,0.001l0.009-8.291l-1.67-0.001
		L227.031,78.028z"/>
	<path style="opacity:0.42;" fill="#FFFFFF" fill-opacity="0.7" d="M82.02,73.859
		c0,0-1.142-0.108-1.816-0.35c-0.987-0.353-1.435-0.539-1.836-0.551l0,0c-0.001,0-0.003,0-0.004,0c-0.001,0-0.003,0-0.004,0l0,0
		c-0.4,0.012-0.849,0.198-1.836,0.551c-0.675,0.241-1.816,0.35-1.816,0.35s-0.251,0.034,0.078,0.065
		c0.639,0.061,1.293,0.171,1.739,0.331c0.972,0.347,1.422,0.532,1.817,0.55l0,0.002c0.003,0,0.006,0,0.009,0
		c0.003,0,0.006,0,0.009,0v-0.001c0.001,0,0.003,0,0.004,0c0.001,0,0.003,0,0.004,0v0.001c0.003,0,0.006,0,0.009,0
		c0.003,0,0.006,0,0.009,0l0-0.002c0.396-0.017,0.845-0.202,1.817-0.55c0.446-0.159,1.1-0.269,1.739-0.331
		C82.271,73.893,82.02,73.859,82.02,73.859z"/>
	<path style="opacity:0.42;" fill="#FFFFFF" fill-opacity="0.7" d="M71.239,73.859c0,0-1.142-0.108-1.816-0.35
		c-0.987-0.353-1.435-0.539-1.836-0.551l0,0c-0.001,0-0.003,0-0.004,0c-0.001,0-0.003,0-0.004,0l0,0
		c-0.4,0.012-0.849,0.198-1.836,0.551c-0.675,0.241-1.816,0.35-1.816,0.35s-0.251,0.034,0.078,0.065
		c0.639,0.061,1.293,0.171,1.739,0.331c0.972,0.347,1.422,0.532,1.817,0.55l0,0.002c0.003,0,0.006,0,0.009,0
		c0.003,0,0.006,0,0.009,0v-0.001c0.001,0,0.003,0,0.004,0c0.001,0,0.003,0,0.004,0v0.001c0.003,0,0.006,0,0.009,0
		c0.003,0,0.006,0,0.009,0l0-0.002c0.396-0.017,0.845-0.202,1.817-0.55c0.446-0.159,1.1-0.269,1.739-0.331
		C71.49,73.893,71.239,73.859,71.239,73.859z"/>
	<path stroke="#FFFFFF" stroke-width="0.5" stroke-miterlimit="10" d="M285.898,21.301v-0.008c-0.015,0-0.03,0.003-0.045,0.004
		c-0.015-0.001-0.03-0.004-0.045-0.004l0,0.023c-1.93,0.19-4.122,2.238-8.861,6.083c-2.174,1.764-5.364,2.983-8.478,3.662
		c-0.751,0.164-0.878,0.333-0.803,0.467c0.084,0.152,0.425,0.258,0.425,0.258s5.567,1.2,8.856,3.873
		c4.812,3.91,6.998,5.966,8.95,6.099l0,0.004c0.006,0,0.012-0.002,0.018-0.002V31.527V21.303
		C285.91,21.302,285.904,21.301,285.898,21.301z"/>
</g>
<style>
#g-themes-mobile-traditional_values-img rect, #g-themes-mobile-traditional_values-img circle, #g-themes-mobile-traditional_values-img path, #g-themes-mobile-traditional_values-img line, #g-themes-mobile-traditional_values-img polyline, #g-themes-mobile-traditional_values-img polygon { vector-effect: non-scaling-stroke; }
</style>
</svg>

